<?xml version="1.0" encoding="utf-8" standalone="no"?>
<!DOCTYPE svg PUBLIC "-//W3C//DTD SVG 1.1//EN" "http://www.w3.org/Graphics/SVG/1.1/DTD/svg11-flat-20030114.dtd">
<!-- Created by SVGDeveloper 1.0 -->
<svg width="4130" height="4039" version="1.1" xmlns="http://www.w3.org/2000/svg" xmlns:xlink="http://www.w3.org/1999/xlink" stroke="#00FF00">
	<defs>
		<symbol overflow="visible" id="symbol1">
			<image x="0" y="0" width="4130" height="4039" display="none" xlink:href="E:\0大数据分析\11GN\AP轨迹与图纸\五通码头.jpg" stroke="none" stroke-width="1" fill="#33FF00" />
		</symbol>
		<symbol overflow="visible" id="symbol2">
			<rect x="2840" y="1764" width="424" height="250" fill="#FF9900" stroke="none" stroke-opacity="0" />
		</symbol>
		<symbol overflow="visible" id="symbol3">
			<text x="3458" y="3262" xml:space="preserve" font-family="宋体" font-size="40" fill="#000000" stroke="none" stroke-opacity="0" baseline-shift="baseline">
			银行</text>
		</symbol>
		<symbol overflow="visible" id="symbol4">
			<text x="3788" y="1860" xml:space="preserve" font-family="宋体" font-size="30" fill="#000000" stroke="none" stroke-opacity="0" baseline-shift="baseline">
			行李转盘</text>
		</symbol>
		<symbol overflow="visible" id="symbol5">
			<text x="3888" y="1302" xml:space="preserve" writing-mode="tb" font-family="宋体" font-size="40" fill="#000000" stroke="none" stroke-opacity="0" baseline-shift="baseline">
			负压室</text>
		</symbol>
		<symbol overflow="visible" id="symbol">
			<text x="2568" y="814" xml:space="preserve" font-family="宋体" font-size="30" fill="#000000" stroke="none" stroke-opacity="0" baseline-shift="baseline" transform="matrix(1,0,0,1,-18,2)">
				检验检疫</text>
		</symbol>
		<symbol overflow="visible" id="symbol6">
			<rect x="1734" y="1746" width="588" height="256" fill="#FF9900" stroke="none" stroke-opacity="0" transform="matrix(0.731,0,0,1.987,539.023,-2241.099)" />
		</symbol>
	</defs>
	<use xlink:href="#symbol1" fill="#FF9900" transform="matrix(1,0,0,0.79,0,423.99)" xmlns:xlink="http://www.w3.org/1999/xlink" xmlns="http://www.w3.org/2000/svg" />
	<line x1="686" y1="540" x2="1130" y2="540" stroke="#00FF66" stroke-opacity="0" stroke-width="10" />
	<line x1="276" y1="536" x2="3828" y2="542" stroke="#00FF66" stroke-width="10" />
	<line x1="3826" y1="538" x2="3828" y2="702" stroke="#00FF66" stroke-width="10" />
	<line x1="3828" y1="702" x2="3824" y2="700" stroke="#00FF66" stroke-width="10" />
	<line x1="3824" y1="700" x2="3882" y2="700" stroke="#00FF66" stroke-width="10" />
	<line x1="3882" y1="700" x2="3880" y2="966" stroke="#00FF66" stroke-width="10" />
	<line x1="3876" y1="970" x2="3990" y2="968" stroke="#00FF66" stroke-width="10" />
	<line x1="3994" y1="968" x2="3996" y2="2106" stroke="#00FF66" stroke-width="10" />
	<line x1="3998" y1="2102" x2="3822" y2="2102" stroke="#00FF66" stroke-width="10" />
	<line x1="3820" y1="2104" x2="3820" y2="2800" stroke="#00FF66" stroke-width="10" />
	<line x1="3822" y1="2798" x2="3660" y2="2798" stroke="#00FF66" stroke-width="10" />
	<line x1="3660" y1="2796" x2="3660" y2="3910" stroke="#00FF66" stroke-width="10" />
	<line x1="3662" y1="3908" x2="2484" y2="3910" stroke="#00FF66" stroke-width="10" />
	<line x1="2484" y1="3910" x2="2484" y2="3608" stroke="#00FF66" stroke-width="10" />
	<line x1="2484" y1="3608" x2="1580" y2="3610" stroke="#00FF66" stroke-width="10" />
	<line x1="1584" y1="3614" x2="1584" y2="3898" stroke="#00FF66" stroke-width="10" />
	<line x1="1584" y1="3902" x2="464" y2="3902" stroke="#00FF66" stroke-width="10" />
	<line x1="464" y1="3902" x2="464" y2="2936" stroke="#00FF66" stroke-width="10" />
	<line x1="232" y1="2490" x2="232" y2="2810" stroke="#00FF66" stroke-width="10" />
	<line x1="232" y1="2810" x2="464" y2="2810" stroke="#00FF66" stroke-width="10" />
	<line x1="464" y1="2810" x2="464" y2="2956" stroke="#00FF66" stroke-width="10" />
	<line x1="232" y1="2502" x2="232" y2="2276" stroke="#00FF66" stroke-width="10" />
	<line x1="232" y1="2276" x2="80" y2="2276" stroke="#00FF66" stroke-width="10" />
	<line x1="82" y1="2272" x2="84" y2="1212" stroke="#00FF66" stroke-width="10" />
	<line x1="84" y1="1216" x2="266" y2="1216" stroke="#00FF66" stroke-width="10" />
	<line x1="270" y1="1216" x2="274" y2="538" stroke="#00FF66" stroke-width="10" />
	<rect x="516" y="478" width="170" height="60" fill="#00FF33" stroke="none" stroke-opacity="0" />
	<rect x="516" y="478" width="170" height="60" fill="#00FF33" stroke="none" stroke-opacity="0" transform="matrix(1,0,0,1,606,0)" />
	<rect x="516" y="478" width="170" height="60" fill="#00FF33" stroke="none" stroke-opacity="0" transform="matrix(1,0,0,1,1978,4)" />
	<rect x="516" y="478" width="170" height="60" fill="#00FF33" stroke="none" stroke-opacity="0" transform="matrix(1,0,0,1,3010,2)" />
	<rect x="876" y="3790" width="68" height="110" fill="#00FF33" stroke="none" stroke-opacity="0" />
	<rect x="876" y="3790" width="68" height="110" fill="#00FF33" stroke="none" stroke-opacity="0" transform="matrix(1,0,0,1,268,0)" />
	<rect x="876" y="3790" width="68" height="110" fill="#00FF33" stroke="none" stroke-opacity="0" transform="matrix(1,0,0,1,2016,8)" />
	<rect x="876" y="3790" width="68" height="110" fill="#33FF00" stroke="none" stroke-opacity="0" transform="matrix(1,0,0,1,2284,8)" />
	<rect x="474" y="2906" width="204" height="880" fill="#FF9933" stroke="none" stroke-opacity="0" transform="matrix(1,0,0,1,-8,-6)" />
	<rect x="480" y="3790" width="342" height="116" fill="#FF9933" stroke="none" stroke-opacity="0" transform="matrix(1,0,0,1,-14,-4)" />
	<text x="542" y="3380" xml:space="preserve" font-family="宋体" font-size="50" fill="#000000" stroke="none" stroke-opacity="0" baseline-shift="baseline" transform="matrix(1,0,0,1,-70,-190)">
		<tspan>
		航</tspan>
		<tspan x="542" dy="57.03125 ">
		</tspan>
		<tspan x="542" dy="57.03125 ">
		空</tspan>
		<tspan x="542" dy="57.03125 ">
		</tspan>
		<tspan x="542" dy="57.03125 ">
		公</tspan>
		<tspan x="542" dy="57.03125 ">
		</tspan>
		<tspan x="542" dy="57.03125 ">
		司</tspan>
		<tspan x="542" dy="57.03125 ">
		</tspan>
		<tspan x="542" dy="57.03125 ">
		票</tspan>
		<tspan x="542" dy="57.03125 ">
		</tspan>
		<tspan x="542" dy="57.03125 ">
		务</tspan>
	</text>
	<rect x="1250" y="3788" width="336" height="108" fill="#FF9933" stroke="none" stroke-opacity="0" transform="matrix(1,0,0,1,-4,4)" />
	<text x="586" y="3834" xml:space="preserve" font-family="宋体" font-size="30" fill="#000000" stroke="none" stroke-opacity="0" baseline-shift="baseline" transform="matrix(1,0,0,1,-38,20)">
	大型票务公司</text>
	<text x="586" y="3834" xml:space="preserve" font-family="宋体" font-size="30" fill="#000000" stroke="none" stroke-opacity="0" baseline-shift="baseline" transform="matrix(1,0,0,1,746,26)">
	大型票务公司</text>
	<rect x="1732" y="3422" width="628" height="184" fill="#FF9966" stroke="none" stroke-opacity="0" />
	<text x="586" y="3834" xml:space="preserve" font-family="宋体" font-size="30" fill="#000000" stroke="none" stroke-opacity="0" baseline-shift="baseline" transform="matrix(1,0,0,1,1364,-310)">
	小型票务公司</text>
	<text x="2026" y="3520" xml:space="preserve" font-family="宋体" font-size="30" fill="#000000" stroke="none" stroke-opacity="0" baseline-shift="baseline">
	</text>
	<rect x="1250" y="3788" width="336" height="108" fill="#FF9933" stroke="none" stroke-opacity="0" transform="matrix(1.18,0,0,0.9999999,-701.2402,-996.0002)" />
	<text x="954" y="2844" xml:space="preserve" font-family="宋体" font-size="30" fill="#000000" stroke="none" stroke-opacity="0" baseline-shift="baseline" transform="matrix(1,0,0,1,-62,8)">
	码 头 票 务</text>
	<rect x="1250" y="3788" width="336" height="108" fill="#FF9933" stroke="none" stroke-opacity="0" transform="matrix(1.094,0,0,1,93.576,-996)" />
	<text x="1200" y="2844" xml:space="preserve" font-family="宋体" font-size="30" fill="#000000" stroke="none" stroke-opacity="0" baseline-shift="baseline" transform="matrix(1,0,0,1,350,10)">
	码 头 票 务</text>
	<text x="1256" y="2842" xml:space="preserve" font-family="宋体" font-size="30" fill="#FF9966" stroke="none" stroke-opacity="0" baseline-shift="baseline">
	</text>
	<polyline points="1310 3046,1146 3202,1416 3200" fill="#000000" stroke="none" stroke-opacity="0" transform="matrix(0.233,0,0.054,0.326,846.856,2002.946)" />
	<text x="1270" y="3094" xml:space="preserve" font-family="宋体" font-size="30" fill="#000000" stroke="none" stroke-opacity="0" baseline-shift="baseline">
	检票入口</text>
	<text x="1270" y="2846" xml:space="preserve" font-family="宋体" font-size="30" fill="#000000" stroke="none" stroke-opacity="0" baseline-shift="baseline" font-weight="bold" transform="matrix(1,0,0,1,4,34)">
	安检口</text>
	<rect x="1470" y="2608" width="122" height="182" fill="#FF9966" stroke="none" stroke-opacity="0" />
	<text x="1450" y="2638" xml:space="preserve" font-family="宋体" font-size="30" fill="#000000" stroke="none" stroke-opacity="0" font-weight="normal" baseline-shift="baseline" transform="matrix(1,0,0,1,14,2)">
		<tspan>
		公</tspan>
		<tspan x="1450" dy="34.21875">
		安</tspan>
		<tspan x="1450" dy="34.21875">
		羁</tspan>
		<tspan x="1450" dy="34.21875">
		押</tspan>
		<tspan x="1450" dy="34.21875">
		室</tspan>
	</text>
	<line x1="1740" y1="536" x2="1736" y2="1942" stroke="#00FF66" stroke-opacity="0" transform="matrix(0.9999999,0,0,1.504,-0.002746702,-135.9566)" />
	<line x1="1736.666" y1="536.6666" x2="1736.666" y2="2630" stroke="#00FF66" stroke-width="10" />
		<text x="562" y="508" xml:space="preserve" font-family="宋体" font-size="30" fill="#000000" stroke="none" stroke-opacity="0" transform="matrix(1,0,0,1,-14,10)">
	出口</text>
	<text x="610" y="508" xml:space="preserve" font-family="宋体" font-size="30" fill="#000000" stroke="none" stroke-opacity="0" baseline-shift="baseline">
	</text>
	<text x="568" y="512" xml:space="preserve" font-family="宋体" font-size="30" fill="#000000" stroke="none" stroke-opacity="0" baseline-shift="baseline">
	</text>
	<text x="562" y="508" xml:space="preserve" font-family="宋体" font-size="30" fill="#000000" stroke="none" stroke-opacity="0" transform="matrix(1,0,0,1,592,14)">
	出口</text>
	<text x="1900" y="508" xml:space="preserve" font-family="宋体" font-size="30" fill="#000000" stroke="none" stroke-opacity="0" transform="matrix(1,0,0,1,620,14)">
	入口</text>
	<text x="2930" y="508" xml:space="preserve" font-family="宋体" font-size="30" fill="#000000" stroke="none" stroke-opacity="0" transform="matrix(1,0,0,1,620,14)">
	入口</text>
	<text x="905" y="3800" xml:space="preserve" writing-mode="tb" font-family="宋体" font-size="30" fill="#000000" stroke="none" stroke-opacity="0" baseline-shift="baseline">
	入口</text>
	<text x="1175" y="3800" xml:space="preserve" writing-mode="tb" font-family="宋体" font-size="30" fill="#000000" stroke="none" stroke-opacity="0" baseline-shift="baseline">
	入口</text>
	<text x="3195" y="3800" xml:space="preserve" writing-mode="tb" font-family="宋体" font-size="30" fill="#000000" stroke="none" stroke-opacity="0" baseline-shift="baseline">
	出口</text>
	<text x="2925" y="3800" xml:space="preserve" writing-mode="tb" font-family="宋体" font-size="30" fill="#000000" stroke="none" stroke-opacity="0" baseline-shift="baseline">
	出口</text>
	<text x="1028" y="3320" xml:space="preserve" font-family="宋体" font-size="50" fill="#000000" stroke="none" stroke-opacity="0" baseline-shift="baseline">
	大厅</text>
	<text x="1028" y="3320" xml:space="preserve" font-family="宋体" font-size="50" fill="#000000" stroke="none" stroke-opacity="0" baseline-shift="baseline" transform="matrix(1,0,0,1,1992,32)">
	大厅</text>
	<rect x="1250" y="3788" width="336" height="108" fill="#FF9933" stroke="none" stroke-opacity="0" transform="matrix(2.361,0,0,1.56,-2702.892,-3295.52)" />
	<text x="536" y="2704" xml:space="preserve" font-family="宋体" font-size="50" fill="#000000" stroke="none" stroke-opacity="0" baseline-shift="baseline">
	VIP室</text>
	<rect x="1212" y="2562" width="32" height="154" fill="#FF9900" stroke="none" stroke-opacity="0" />
	<text x="1240" y="2588" xml:space="preserve" font-family="宋体" font-size="30" fill="#000000" stroke="none" stroke-opacity="0" baseline-shift="baseline" transform="matrix(1,0,0,1,-183.333,-890)">
	X光机</text>
	<polygon points="1310 2690,1262 2800,1348 2802" fill="#FF9966" stroke="none" stroke-opacity="0" transform="matrix(0.268,0,0,0.742,954.93,707.37)" />
	<ellipse cx="1027" cy="2437" rx="45" ry="39" fill="#FF9900" stroke="none" stroke-opacity="0" />
	<ellipse cx="1027" cy="2437" rx="45" ry="39" fill="#FF9900" stroke="none" stroke-opacity="0" transform="matrix(1,0,0,1,182,4)" />
	<ellipse cx="1027" cy="2437" rx="45" ry="39" fill="#FF9900" stroke="none" stroke-opacity="0" transform="matrix(1,0,0,1,362,4)" />
	<text x="1132" y="2364" xml:space="preserve" font-family="宋体" font-size="30" fill="#FF9933" stroke="none" stroke-opacity="0" baseline-shift="baseline">
	检验检疫</text>
	<rect x="244" y="2194" width="256" height="412" fill="#FF9933" stroke="none" stroke-opacity="0" />
	<text x="380" y="2300" xml:space="preserve" writing-mode="tb" font-family="宋体" font-size="40" fill="#000000" stroke="none" stroke-opacity="0" baseline-shift="baseline">
	消防控制室</text>
	<rect x="88" y="1220" width="156" height="1044" fill="#FF9966" stroke="none" stroke-opacity="0" />
	<text x="144" y="1420" xml:space="preserve" writing-mode="tb" font-family="宋体" font-size="50" fill="#000000" stroke="none" stroke-opacity="0" baseline-shift="baseline">
	行李转盘</text>
	<text x="172" y="1560" xml:space="preserve" writing-mode="tb" font-family="宋体" font-size="50" fill="#000000" stroke="none" stroke-opacity="0" baseline-shift="baseline">
	</text>
	<rect x="310" y="1664" width="190" height="170" fill="#FF9966" stroke="none" stroke-opacity="0" transform="matrix(1,0,0,1,-44,-2)" />
	<text x="300" y="1740" xml:space="preserve" font-family="宋体" font-size="30" fill="#000000" stroke="none" stroke-opacity="0" baseline-shift="baseline" transform="matrix(1,0,0,1,-6,14)">
	退运仓库</text>
	<rect x="260" y="1488" width="186" height="164" fill="#FF9966" stroke="none" stroke-opacity="0" transform="matrix(1,0,0,1,6,-2)"></rect>
	<text x="300" y="1570" xml:space="preserve" font-family="宋体" font-size="30" fill="#000000" stroke="none" stroke-opacity="0" baseline-shift="baseline" transform="matrix(1,0,0,1,-6,14)">
	业务用房</text>
	<ellipse cx="388" cy="1421" rx="40" ry="33" fill="#FF9966" stroke="none" stroke-opacity="0" />
	<text x="440" y="1432" xml:space="preserve" font-family="宋体" font-size="30" fill="#000000" stroke="none" stroke-opacity="0" baseline-shift="baseline">
	行李交运处</text>
	<rect x="708" y="1742" width="176" height="276" fill="#FF9966" stroke="none" stroke-opacity="0" />
	<text x="710" y="1890" xml:space="preserve" font-family="宋体" font-size="30" fill="#000000" stroke="none" stroke-opacity="0" baseline-shift="baseline">
	海关开包区</text>
	<ellipse cx="1050" cy="1964" rx="46" ry="48" fill="#FF9966" stroke="none" stroke-opacity="0" />
	<ellipse cx="1257" cy="1968" rx="47" ry="46" fill="#FF9966" stroke="none" stroke-opacity="0" />
	<text x="1080" y="2064" xml:space="preserve" font-family="宋体" font-size="30" fill="#000000" stroke="none" stroke-opacity="0" baseline-shift="baseline">
	申报通道</text>
	<ellipse cx="358" cy="2001" rx="42" ry="39" fill="#FF9966" stroke="none" stroke-opacity="0" />
	<text x="414" y="2012" xml:space="preserve" font-family="宋体" font-size="30" fill="#000000" stroke="none" stroke-opacity="0" baseline-shift="baseline" transform="matrix(1,0,0,1,-4,-16)">
		<tspan>
		海空联运</tspan>
		<tspan x="414" dy="34.21875">
		行李领取处</tspan>
	</text>
	<rect x="270" y="952" width="206" height="262" fill="#FF9966" stroke="none" stroke-opacity="0" />
	<text x="320" y="1090" xml:space="preserve" font-family="宋体" font-size="30" fill="#000000" stroke="none" stroke-opacity="0" baseline-shift="baseline">
	卫生间</text>
	<text x="496" y="928" xml:space="preserve" font-family="宋体" font-size="30" fill="#000000" stroke="none" stroke-opacity="0" baseline-shift="baseline">
	</text>
	<ellipse cx="689" cy="584" rx="27" ry="18" fill="#FF9966" stroke="none" stroke-opacity="0" />
	<ellipse cx="940" cy="590" rx="24" ry="18" fill="#FF9966" stroke="none" stroke-opacity="0" transform="matrix(1,0,0,1,0,-8)" />
	<text x="718" y="595" xml:space="preserve" font-family="宋体" font-size="30" fill="#000000" stroke="none" stroke-opacity="0" baseline-shift="baseline">
	检票</text>
	<text x="968" y="595" xml:space="preserve" font-family="宋体" font-size="30" fill="#000000" stroke="none" stroke-opacity="0" baseline-shift="baseline">
	检票</text>
	<ellipse cx="846" cy="1091" rx="48" ry="53" fill="#FF9966" stroke="none" stroke-opacity="0" />
	<ellipse cx="846" cy="1091" rx="48" ry="53" fill="#FF9966" stroke="none" stroke-opacity="0" transform="matrix(1,0,0,1,142,6)" />
	<ellipse cx="846" cy="1091" rx="48" ry="53" fill="#FF9966" stroke="none" stroke-opacity="0" transform="matrix(1,0,0,1,276,8)" />
	<ellipse cx="846" cy="1091" rx="48" ry="53" fill="#FF9966" stroke="none" stroke-opacity="0" transform="matrix(1,0,0,1,420,2)" />
	<ellipse cx="846" cy="1091" rx="48" ry="53" fill="#FF9966" stroke="none" stroke-opacity="0" transform="matrix(1,0,0,1,558,4)" />
	<ellipse cx="846" cy="1091" rx="48" ry="53" fill="#FF9966" stroke="none" stroke-opacity="0" transform="matrix(1,0,0,1,700,2)" />
	<text x="1056" y="1186" xml:space="preserve" font-family="宋体" font-size="30" fill="#000000" stroke="none" stroke-opacity="0" baseline-shift="baseline">
	边 防 检 查</text>
	<line x1="1590" y1="1032" x2="1590" y2="1032" stroke="#00FF66" stroke-opacity="0" stroke-width="10" />
	<line x1="1592" y1="1034" x2="1592" y2="2404" stroke="#00FF66" stroke-opacity="0" stroke-width="10" />
	<line x1="1590" y1="2404" x2="1430" y2="2404" stroke="#00FF66" stroke-opacity="0" stroke-width="10" />
	<text x="1638" y="1600" xml:space="preserve" writing-mode="tb" font-family="宋体" font-size="40" fill="#000000" stroke="none" stroke-opacity="0" baseline-shift="baseline" transform="matrix(1,0,0,1,16,0)">
	工 作 人 员 通 道</text>
	<text x="1030" y="806" xml:space="preserve" font-family="宋体" font-size="50" fill="#000000" stroke="none" stroke-opacity="0" baseline-shift="baseline" transform="matrix(1,0,0,1,-116.667,20)">
	候船厅</text>
	<rect x="1734" y="1746" width="588" height="256" fill="#FF9900" stroke="none" stroke-opacity="0" transform="matrix(0.97,0,0,0.9999999,62.83995,-6.079674E-06)" xmlns="http://www.w3.org/2000/svg" />
	<rect x="1734" y="1746" width="588" height="256" fill="#FF9900" stroke="none" stroke-opacity="0" transform="matrix(0.97,0,0,1,62.84,270)" xmlns="http://www.w3.org/2000/svg" />
	<rect x="1734" y="1746" width="588" height="256" fill="#FF9900" stroke="none" stroke-opacity="0" transform="matrix(0.967,0,0,1.987,66.51403,-2241.099)" xmlns="http://www.w3.org/2000/svg" />
	<text x="1870" y="1528" xml:space="preserve" font-family="宋体" font-size="50" fill="#000000" stroke="none" stroke-opacity="0" baseline-shift="baseline">
	边检办公室</text>
	<text x="1870" y="1898" xml:space="preserve" font-family="宋体" font-size="50" fill="#000000" stroke="none" stroke-opacity="0" baseline-shift="baseline">
	海关办公室</text>
	<text x="1870" y="2148" xml:space="preserve" font-family="宋体" font-size="50" fill="#000000" stroke="none" stroke-opacity="0" baseline-shift="baseline">
	检疫办公室</text>
	<line x1="1598" y1="1068" x2="1598" y2="2400" stroke="#00FF66" stroke-width="10" transform="matrix(0.9999999,0,0,1.019,-4.413258E-05,-49.97268)" />
	<rect x="1736" y="542" width="578" height="430" fill="#FF9900" stroke="#00FF00" transform="matrix(0.9989999,0,0,0.9999999,9.821767,1.999911)" xmlns="http://www.w3.org/2000/svg" />
	<text x="1900" y="755" xml:space="preserve" font-family="宋体" font-size="50" fill="#000000" stroke="none" baseline-shift="baseline">
	免税店</text>
	<rect x="1860" y="2282" width="408" height="208" fill="#FF9900" stroke="none" stroke-opacity="0" transform="matrix(1,0,0,1,4,-2)" xmlns="http://www.w3.org/2000/svg" />
	<text x="1960" y="2390" xml:space="preserve" font-family="宋体" font-size="50" fill="#000000" stroke="none" stroke-opacity="0" baseline-shift="baseline" transform="matrix(1,0,0,1,-2,0)" xmlns="http://www.w3.org/2000/svg">
	卫生间</text>
	<rect x="1742" y="2290" width="102" height="202" fill="#FF9900" stroke="none" stroke-opacity="0" transform="matrix(1.16,0,0,1.02,-278.8802,-55.82057)" xmlns="http://www.w3.org/2000/svg" />
	<text x="1792" y="2328" xml:space="preserve" writing-mode="tb" font-family="宋体" font-size="30" fill="#000000" stroke="none" stroke-opacity="0" baseline-shift="baseline">
	检查室</text>
<rect x="1602" y="2628" width="222" height="152" fill="#FF9900" stroke="none" stroke-opacity="0" transform="matrix(0.9999999,0,0,1.14,-2.000162,-382.5614)" xmlns="http://www.w3.org/2000/svg" />
	<rect x="1736" y="2496" width="88" height="284" fill="#FF9900" stroke="none" stroke-opacity="0" transform="matrix(1.92,0,0,0.4099999,-1589.599,1470.42)" xmlns="http://www.w3.org/2000/svg" />
		<text x="1630" y="2700" xml:space="preserve" font-family="宋体" font-size="30" fill="#000000" stroke="none" stroke-opacity="0" baseline-shift="baseline" transform="matrix(1,0,0,1,12,4)">
	空调机房</text>
	<text x="1753" y="2553" xml:space="preserve" font-family="宋体" font-size="30" fill="#000000" stroke="none" stroke-opacity="0" baseline-shift="baseline">
	配电间</text>
	<rect x="2044" y="984" width="270" height="242" fill="#FF9900" stroke="none" stroke-opacity="0" transform="matrix(1,0,0,1,-2,-6)" xmlns="http://www.w3.org/2000/svg" />
	<rect x="1738" y="980" width="292" height="240" fill="#FF9900" stroke="none" stroke-opacity="0" transform="matrix(1,0,0,1,6,-2)" xmlns="http://www.w3.org/2000/svg" />
	<text x="1830" y="1100" xml:space="preserve" font-family="宋体" font-size="30" fill="#000000" stroke="none" stroke-opacity="0" baseline-shift="baseline">
	免税仓库</text>
	<text x="2060" y="1092" xml:space="preserve" font-family="宋体" font-size="30" fill="#000000" stroke="none" stroke-opacity="0" baseline-shift="baseline" transform="matrix(1,0,0,1,72,10)">会议室</text>
	<rect x="264" y="1226" width="198" height="134" fill="#FF9966" stroke="none" stroke-opacity="0" transform="matrix(1,0,0,1,4,-4)" />
	<text x="288" y="1288" xml:space="preserve" font-family="宋体" font-size="30" fill="#000000" stroke="none" stroke-opacity="0" baseline-shift="baseline">业务用房</text>
	<rect x="276" y="676" width="220" height="82" fill="#FF9966" stroke="none" stroke-opacity="0" />
	<rect x="278" y="778" width="218" height="136" fill="#FF9966" stroke="none" stroke-opacity="0" />
	<text x="330" y="730" xml:space="preserve" font-family="宋体" font-size="30" fill="#000000" stroke="none" stroke-opacity="0" baseline-shift="baseline">母婴室</text>
	<text x="310" y="852" xml:space="preserve" font-family="宋体" font-size="30" fill="#000000" stroke="none" stroke-opacity="0" baseline-shift="baseline">
	检疫隔离</text>
	<rect x="1390" y="3600" width="190" height="186" fill="#FF9966" stroke="none" stroke-opacity="0" />
	<text x="1420" y="3698" xml:space="preserve" font-family="宋体" font-size="30" fill="#000000" stroke="none" stroke-opacity="0" baseline-shift="baseline" transform="matrix(1,0,0,1,34,6)">
	票务</text>
	<ellipse cx="2524" cy="897" rx="56" ry="49" fill="#FF9900" stroke="none" stroke-opacity="0" />
	<ellipse cx="2524" cy="897" rx="56" ry="49" fill="#FF9900" stroke="none" stroke-opacity="0" transform="matrix(1,0,0,1,166,2)" />
	<ellipse cx="2524" cy="897" rx="56" ry="49" fill="#FF9900" stroke="none" stroke-opacity="0" transform="matrix(1,0,0,1,1070,6)" />
	<ellipse cx="2524" cy="897" rx="56" ry="49" fill="#FF9900" stroke="none" stroke-opacity="0" transform="matrix(1,0,0,1,904,4)" />
	<ellipse cx="2524" cy="897" rx="56" ry="49" fill="#FF9900" stroke="none" stroke-opacity="0" transform="matrix(1,0,0,1,946,726)" />
	<ellipse cx="2524" cy="897" rx="56" ry="49" fill="#FF9900" stroke="none" stroke-opacity="0" transform="matrix(1,0,0,1,118,722)" />
	<ellipse cx="2524" cy="897" rx="56" ry="49" fill="#FF9900" stroke="none" stroke-opacity="0" transform="matrix(1,0,0,1,-44,722)" />
	<ellipse cx="2524" cy="897" rx="56" ry="49" fill="#FF9900" stroke="none" stroke-opacity="0" transform="matrix(1,0,0,1,1098,730)" />
	<ellipse cx="2524" cy="897" rx="56" ry="49" fill="#FF9900" stroke="none" stroke-opacity="0" transform="matrix(1,0,0,1,148,1236)" />
	<ellipse cx="2524" cy="897" rx="56" ry="49" fill="#FF9900" stroke="none" stroke-opacity="0" transform="matrix(1,0,0,1,1098,1240)" />
	<ellipse cx="2524" cy="897" rx="56" ry="49" fill="#FF9900" stroke="none" stroke-opacity="0" transform="matrix(1,0,0,1,904,1240)" />
	<ellipse cx="2524" cy="897" rx="56" ry="49" fill="#FF9900" stroke="none" stroke-opacity="0" transform="matrix(1,0,0,1,-34,1234)" />
	<use xlink:href="#symbol" />
	<text x="2568" y="814" xml:space="preserve" font-family="宋体" font-size="30" fill="#000000" stroke="none" stroke-opacity="0" baseline-shift="baseline" transform="matrix(1,0,0,1,890,18)">
	检验检疫</text>
	<text x="2526" y="1546" xml:space="preserve" font-family="宋体" font-size="30" fill="#000000" stroke="none" stroke-opacity="0" baseline-shift="baseline" transform="matrix(1,0,0,1,-10,4)">
	边防检查</text>
	<text x="2526" y="1546" xml:space="preserve" font-family="宋体" font-size="30" fill="#000000" stroke="none" stroke-opacity="0" baseline-shift="baseline" transform="matrix(1,0,0,1,968,14)">
	边防检查</text>
	<text x="2526" y="2052" xml:space="preserve" font-family="宋体" font-size="30" fill="#000000" stroke="none" stroke-opacity="0" baseline-shift="baseline" transform="matrix(1,0,0,1,0,8)">
	申报通道</text>
	<text x="2526" y="2052" xml:space="preserve" font-family="宋体" font-size="30" fill="#000000" stroke="none" stroke-opacity="0" baseline-shift="baseline" transform="matrix(1,0,0,1,938,14)">
	申报通道</text>
	<rect x="2840" y="970" width="434" height="124" fill="#FF9900" stroke="none" stroke-opacity="0" />
	<rect x="2838" y="1110" width="432" height="314" fill="#FF9900" stroke="none" stroke-opacity="0" />
	<rect x="2840" y="1444" width="430" height="302" fill="#FF9900" stroke="none" stroke-opacity="0" transform="matrix(1,0,0,1,0,-8)" />
	<use xlink:href="#symbol2" transform="matrix(1.04,0,0,1.05,-118.0805,-100.4)" />
	<text x="2920" y="1028" xml:space="preserve" font-family="宋体" font-size="40" fill="#000000" stroke="none" stroke-opacity="0" baseline-shift="baseline" transform="matrix(1,0,0,1,72,16)">询问室</text>
	<text x="2820" y="1028" xml:space="preserve" font-family="宋体" font-size="40" fill="#000000" stroke="none" stroke-opacity="0" baseline-shift="baseline" transform="matrix(1,0,0,1,76,234)">公安落地签办公室</text>
	<text x="2920" y="1028" xml:space="preserve" font-family="宋体" font-size="40" fill="#000000" stroke="none" stroke-opacity="0" baseline-shift="baseline" transform="matrix(1,0,0,1,72,572)">办公室</text>
	<text x="2900" y="1028" xml:space="preserve" font-family="宋体" font-size="40" fill="#000000" stroke="none" stroke-opacity="0" baseline-shift="baseline" transform="matrix(1,0,0,1,64,868)">检疫办公室</text>
	<rect x="2844" y="2032" width="436" height="108" fill="#FF9900" stroke="none" stroke-opacity="0" transform="matrix(1,0,0,1,-8,-8)" />
	<text x="2930" y="2078" xml:space="preserve" font-family="宋体" font-size="40" fill="#FF9900" stroke="none" stroke-opacity="0" baseline-shift="baseline" transform="matrix(1,0,0,1,32,10)">
	昆虫培养室</text>
	<rect x="2284" y="2282" width="180" height="204" fill="#FF9900" stroke="none" stroke-opacity="0" transform="matrix(1,0,0,1,-6,0)" />
	<rect x="2276" y="2498" width="174" height="296" fill="#FF9900" stroke="none" stroke-opacity="0" transform="matrix(1,0,0,1,4,-6)" />
	<rect x="2460" y="2746" width="396" height="166" fill="#FF9900" stroke="none" stroke-opacity="0" />
	<text x="2290" y="2376" xml:space="preserve" font-family="宋体" font-size="30" fill="#000000" stroke="none" stroke-opacity="0" baseline-shift="baseline" transform="matrix(1,0,0,1,14,14)">
	检疫用房</text>
	<text x="2298" y="2642" xml:space="preserve" font-family="宋体" font-size="30" fill="#000000" stroke="none" stroke-opacity="0" baseline-shift="baseline" transform="matrix(1,0,0,1,36,10)">
	VIP室</text>
	<text x="2518" y="2830" xml:space="preserve" font-family="宋体" font-size="40" fill="#000000" stroke="none" stroke-opacity="0" baseline-shift="baseline" transform="matrix(1,0,0,1,62,16)">
	码头票务</text>
	<polyline points="1310 3046,1146 3202,1416 3200" fill="#000000" stroke="none" stroke-opacity="0" transform="matrix(-0.233,0.007,-0.063,-0.324,3559.024,4731.594)" />
	<polyline points="1310 3046,1146 3202,1416 3200" fill="#000000" stroke="none" stroke-opacity="0" transform="matrix(-0.233,0.007,-0.063,-0.324,3073.024,1597.594)" />
	<polyline points="1310 3046,1146 3202,1416 3200" fill="#000000" stroke="none" stroke-opacity="0" transform="matrix(-0.233,0.007,-0.063,-0.324,4113.023,1601.594)" />
	<polygon points="1310 2690,1262 2800,1348 2802" fill="#FF9966" stroke="none" stroke-opacity="0" transform="matrix(-0.269,-0.001,0.005,-0.743,2913.085,3137.26)" />
	<polygon points="1310 2690,1262 2800,1348 2802" fill="#FF9966" stroke="none" stroke-opacity="0" transform="matrix(-0.269,-0.001,0.005,-0.743,2901.085,3905.26)" />
	<polygon points="1310 2690,1262 2800,1348 2802" fill="#FF9966" stroke="none" stroke-opacity="0" transform="matrix(-0.269,-0.001,0.005,-0.743,2927.085,4389.26)" />
	<rect x="2584" y="2474" width="164" height="30" fill="#FF9966" stroke="none" stroke-opacity="0" />
	<rect x="2482" y="2600" width="62" height="52" fill="#FF9966" stroke="none" stroke-opacity="0" />
	<rect x="2750" y="2602" width="82" height="44" fill="#FF9966" stroke="none" stroke-opacity="0" />
	<rect x="3394" y="2488" width="162" height="34" fill="#FF9966" stroke="none" stroke-opacity="0" />
	<rect x="3366" y="2608" width="70" height="46" fill="#FF9966" stroke="none" stroke-opacity="0" />
	<rect x="3576" y="2592" width="70" height="52" fill="#FF9966" stroke="none" stroke-opacity="0" />
	<rect x="3661.67" y="2193.33" width="156.6602" height="205" fill="#FF9900" stroke="#000000" />
	<rect x="3666.67" y="2418.33" width="150" height="248.3398" fill="#FF9900" stroke="#000000" transform="matrix(1.09,0,0,0.9999999,-338.4174,-13.33396)" />
	<polygon points="1310 2690,1262 2800,1348 2802" fill="#FF9966" stroke="none" stroke-opacity="0" transform="matrix(-0.269,-0.001,0.005,-0.743,3905.085,3909.26)" />
	<polygon points="1310 2690,1262 2800,1348 2802" fill="#FF9966" stroke="none" stroke-opacity="0" transform="matrix(-0.269,-0.001,0.005,-0.743,3891.085,4407.26)" />
	<polygon points="1310 2690,1262 2800,1348 2802" fill="#FF9966" stroke="none" stroke-opacity="0" transform="matrix(-0.269,-0.001,0.005,-0.743,3421.085,4755.259)" />
	<polygon points="1310 2690,1262 2800,1348 2802" fill="#FF9966" stroke="none" stroke-opacity="0" transform="matrix(-0.269,-0.001,0.005,-0.743,3835.085,3135.26)" />
	<text x="2622" y="2452" xml:space="preserve" font-family="宋体" font-size="30" fill="#000000" stroke="none" stroke-opacity="0" baseline-shift="baseline" transform="matrix(1,0,0,1,6,12)">
	X光机</text>
	<text x="2622" y="2452" xml:space="preserve" font-family="宋体" font-size="30" fill="#000000" stroke="none" stroke-opacity="0" baseline-shift="baseline" transform="matrix(1,0,0,1,820,26)">
	X光机</text>
	<text x="2472" y="2580" xml:space="preserve" font-family="宋体" font-size="30" fill="#000000" stroke="none" stroke-opacity="0" baseline-shift="baseline" transform="matrix(1,0,0,1,-8,4)">
	海关开包台</text>
	<text x="2472" y="2580" xml:space="preserve" font-family="宋体" font-size="30" fill="#000000" stroke="none" stroke-opacity="0" baseline-shift="baseline" transform="matrix(1,0,0,1,1012,6)">
	海关开包台</text>
	<text x="2710" y="2580" xml:space="preserve" font-family="宋体" font-size="30" fill="#000000" stroke="none" stroke-opacity="0" baseline-shift="baseline" transform="matrix(1,0,0,1,12,8)">
	检疫开包台</text>
	<text x="2710" y="2580" xml:space="preserve" font-family="宋体" font-size="30" fill="#000000" stroke="none" stroke-opacity="0" baseline-shift="baseline" transform="matrix(1,0,0,1,608,16)">
	检疫开包台</text>
	<text x="2855" y="2270" xml:space="preserve" font-family="宋体" font-size="30" fill="#000000" stroke="none" stroke-opacity="0" baseline-shift="baseline" transform="matrix(1,0,0,1,840,38)">
	电梯</text>
	<text x="2810" y="2500" xml:space="preserve" font-family="宋体" font-size="30" fill="#000000" stroke="none" stroke-opacity="0" baseline-shift="baseline" transform="matrix(1,0,0,1,840,38)">
	海关办公室</text>
	<rect x="3364" y="2756" width="296" height="156" fill="#FF9900" stroke="none" stroke-opacity="0" />
	<rect x="3414" y="2920" width="246" height="170" fill="#FF9900" stroke="none" stroke-opacity="0" transform="matrix(1,0,0,1,-2,-2)" />
	<rect x="3420" y="3098" width="238" height="332" fill="#FF9900" stroke="none" stroke-opacity="0" transform="matrix(1,0,0,1,-2,-2)" />
	<rect x="3416" y="3438" width="234" height="160" fill="#FF9900" stroke="none" stroke-opacity="0" transform="matrix(1.016,0,0,0.9999999,-56.34523,-8.165836E-05)" />
	<rect x="3274" y="3602" width="382" height="296" fill="#FF9900" stroke="none" stroke-opacity="0" transform="matrix(1,0,0,1,0,6)" />
	<text x="2956" y="2076" xml:space="preserve" font-family="宋体" font-size="40" fill="#000000" stroke="none" stroke-opacity="0" baseline-shift="baseline" transform="matrix(1,0,0,1,2,12)">
	昆虫培养室</text>
	<text x="3430" y="2838" xml:space="preserve" font-family="宋体" font-size="30" fill="#000000" stroke="none" stroke-opacity="0" baseline-shift="baseline" transform="matrix(1,0,0,1,8,8)">
	海空联运</text>
	<text x="3470" y="3006" xml:space="preserve" font-family="宋体" font-size="30" fill="#000000" stroke="none" stroke-opacity="0" baseline-shift="baseline">
	业务用房</text>
	<use xlink:href="#symbol3" transform="matrix(1,0,0,1,44,12)" />
	<text x="3468" y="3522" xml:space="preserve" font-family="宋体" font-size="30" fill="#000000" stroke="none" stroke-opacity="0" baseline-shift="baseline" transform="matrix(1,0,0,1,10,4)">
	空调机房</text>
	<ellipse cx="3839" cy="1867" rx="73" ry="97" fill="#FF9900" stroke="none" stroke-opacity="0" transform="matrix(1.29,0,0,1.07,-1113.31,-130.76)" />
	<use xlink:href="#symbol4" transform="matrix(1,0,0,1,-10,20)" />
	<rect x="3796" y="1230" width="196" height="436" fill="#FF9900" stroke="none" stroke-opacity="0" />
	<rect x="3784" y="974" width="202" height="242" fill="#FF9900" stroke="none" stroke-opacity="0" transform="matrix(0.975,0,0,0.9999999,104.348,-1.966953E-05)" />
	<text x="3840" y="1086" xml:space="preserve" font-family="宋体" font-size="30" fill="#FF9900" stroke="none" stroke-opacity="0" baseline-shift="baseline" transform="matrix(1,0,0,1,10,16)">
	卫生间</text>
	<use xlink:href="#symbol5" transform="matrix(1,0,0,1,6,58)" />
	<rect x="3748" y="548" width="72" height="218" fill="#FF9900" stroke="none" stroke-opacity="0" />
	<text x="3770" y="572" xml:space="preserve" writing-mode="tb" font-family="宋体" font-size="30" fill="#000000" stroke="none" stroke-opacity="0" baseline-shift="baseline" transform="matrix(1,0,0,1,20,30)">
	检疫诊室</text>
	<polyline points="1310 3046,1146 3202,1416 3200" fill="#000000" stroke="none" stroke-opacity="0" transform="matrix(0.233,0,0.054,0.326,570.856,2720.946)" />
	<line x1="1600" y1="2396.666" x2="1386.667" y2="2396.666" stroke="#00FF00" stroke-width="10" />
				<polygon points="1310 2690,1262 2800,1348 2802" fill="#FF9966" stroke="none" stroke-opacity="0" transform="matrix(0.268,0,0,0.742,551.597,-652.63)" />
	<polygon points="1310 2690,1262 2800,1348 2802" fill="#FF9966" stroke="none" stroke-opacity="0" transform="matrix(0.268,0,0,0.742,944.93,-649.297)" />
	<text x="1240" y="2588" xml:space="preserve" font-family="宋体" font-size="30" fill="#000000" stroke="none" stroke-opacity="0" baseline-shift="baseline" transform="matrix(0.9999999,0,0,0.9999999,-3.33336,19.99977)">
	X光机</text>
	<rect x="1212" y="2562" width="32" height="154" fill="#FF9900" stroke="none" stroke-opacity="0" transform="matrix(1,0,0,1,-176.667,-930)" />
	<text x="1240" y="2588" xml:space="preserve" font-family="宋体" font-size="30" fill="#000000" stroke="none" stroke-opacity="0" baseline-shift="baseline" transform="matrix(0.9999999,0,0,0.9999999,1.590735E-05,-883.3339)">
	X光机</text>
	<rect x="1212" y="2562" width="32" height="154" fill="#FF9900" stroke="none" stroke-opacity="0" transform="matrix(0.9999999,0,0,0.9999999,6.665978,-923.3342)" />
	<polygon points="1310 2690,1262 2800,1348 2802" fill="#FF9966" stroke="none" stroke-opacity="0" transform="matrix(0.268,0,0,0.7419999,961.5956,-1269.297)" />
	<polygon points="1310 2690,1262 2800,1348 2802" fill="#FF9966" stroke="none" stroke-opacity="0" transform="matrix(0.268,0,0,0.742,261.597,-1272.63)" />
	<polyline points="1310 3046,1146 3202,1416 3200" fill="#000000" stroke="none" stroke-opacity="0" transform="matrix(0.233,0,0.05399999,0.3259999,136.8557,-443.7213)" />
	<polyline points="1310 3046,1146 3202,1416 3200" fill="#000000" stroke="none" stroke-opacity="0" transform="matrix(0.233,0,0.054,0.326,746.855,-440.388)" />
</svg>
