<?xml version="1.0" encoding="utf-8"?>
<!-- Generator: Adobe Illustrator 15.0.0, SVG Export Plug-In . SVG Version: 6.00 Build 0)  -->
<!DOCTYPE svg PUBLIC "-//W3C//DTD SVG 1.1//EN" "http://www.w3.org/Graphics/SVG/1.1/DTD/svg11.dtd">
<svg version="1.1" id="图层_1" xmlns="http://www.w3.org/2000/svg" xmlns:xlink="http://www.w3.org/1999/xlink" x="0px" y="0px"
	 width="725.125px" height="5521px" viewBox="0 0 725.125 5521" enable-background="new 0 0 725.125 5521" xml:space="preserve">
<g id="XMLID_2_">
	<g>
		<g id="XMLID_1_">
			<g>
				<path fill="#FFFFFF" d="M52.813,1343.33h0.28h84.58h246h81.899v-147v-165v-105h-148.49h-130.41v-49.91h130.41h148.49v-55.09
					v-65.35v-52.05v-91.5v-72.75v-81.35v-82.89v-86.99v-85.5h-148.49H53.093c-0.02,57.53-0.04,115.03-0.06,172.49
					c-0.02,54.79-0.03,109.52-0.05,164.24c-0.03,112.35-0.06,224.59-0.09,336.74c0,16.65-0.01,33.27-0.01,49.91
					c-0.01,35.01-0.01,70.01-0.02,105c-0.01,55.01-0.02,110.01-0.03,165C52.823,1245.34,52.813,1294.34,52.813,1343.33z
					 M661.662,876.42c-0.01-31-0.04-62-0.069-93c-0.021-27.24-0.04-54.49-0.07-81.73c-0.03-29.76-0.05-59.51-0.09-89.26
					c-0.021-28.5-0.05-57-0.08-85.5h-0.56H516.573v85.5v91.5v79.49v93H661.662z M516.573,35.58v74.38v56.99v43.5v164.99v117h72.75
					h71.99c-0.05-39-0.09-78-0.15-117c-0.06-55-0.14-110-0.22-164.99c-0.02-14.5-0.04-29-0.07-43.5c-0.02-19-0.05-38-0.079-56.99
					c-0.04-25.21-0.08-50.42-0.12-75.63C612.683,35.05,564.643,35.42,516.573,35.58z M661.702,926.33h-145.13v149v121v46v101h145.36
					h0.13v-101v-46v-121v-149H661.702z M661.963,1441.33H516.573v76v46v70v52v88v84h145.471c0-28-0.011-56-0.011-84
					c0-29.33-0.01-58.66-0.01-88c-0.01-30.5-0.01-61-0.02-91.5c0-25.5-0.011-51-0.011-76.5
					C661.983,1492,661.973,1466.67,661.963,1441.33z M465.573,35.69c-49.479,0.05-98.99-0.08-148.49-0.22
					c-22.5-0.06-45-0.13-67.5-0.19c-19.5-0.05-39-0.1-58.49-0.13c-45.84-0.07-91.66-0.05-137.42,0.18l-0.58,121.12h138h58.49h67.5
					h148.49V35.69z M382.923,5482.33c67.76,0,135.52,0,203.279,0c25.16,0,50.311,0,75.471,0c-0.011-23-0.03-46-0.03-69
					c-0.021-18.33-0.03-36.67-0.03-55c-0.01-19.05-0.02-38.09-0.03-57.14c0-16-0.01-32-0.02-47.99c0-20-0.01-40-0.01-60
					c-0.01-20-0.021-40-0.021-60h0.53v-46.49v-51v-59.25v-75.75h-0.58c-0.01-46.13-0.01-92.25-0.01-138.38
					c-0.01-6.33-0.01-12.67-0.01-19s0-12.67,0-19c0-16.67,0-33.33,0-50c0-36.67,0-73.33,0-110c0-14,0-28,0-42s0-28,0.01-42
					c0.01-81.8,0.01-163.6,0.03-245.41c0.01-81.8,0.029-163.61,0.05-245.42c0.01-51.39,0.029-102.78,0.04-154.17c0-10,0-20,0-30
					c0.01-10,0.01-20,0.01-30c0.01-34.66,0.02-69.33,0.03-104c0.01-29.561,0.02-59.12,0.029-88.69c0-15.21,0.011-30.43,0.011-45.649
					c0.01-15.221,0.01-30.44,0.02-45.66c0.01-25.33,0.021-50.67,0.021-76c0.01-41.33,0.029-82.67,0.04-124
					c0.02-41.33,0.029-82.67,0.04-124c0.09-272.68,0.17-545.34,0.22-818c0-24,0.01-48,0.01-72c0-30,0.01-60,0.01-90
					c0-57.49,0.011-114.98,0.011-172.47c0-36.51,0-73.02,0-109.53H559.872H457.673v114v168v90v72h-50v-169v-169v-154h57.899v-172
					h-37.899l1-61l1-61h-98.94h-51.06v-28h51.06h60.6h16.341h57.899v-94h-59.899h-14.341h-60.6h-51.06h-80h-94h-52.58h-0.29
					c-0.01,31.34-0.01,62.67-0.01,94c-0.01,50-0.01,100-0.01,150c0,108.67-0.01,217.34-0.01,326c0,112.66,0.01,225.31,0.02,338
					c0.02,272.34,0.07,544.88,0.14,818c0.05,167.75,0.1,335.729,0.16,504h74.58v50c0,18,0,36,0,54c0,20,0,40,0,60
					c0,51.37,0,102.77,0,154.17c0,133.36,0,266.8,0,400.16v38.58c0,45.38,0,90.74,0,136.09c0,27.34,0,54.67,0,82
					c-0.04,0-0.07,0.01-0.11,0.01c-24.96,2.98-49.93-0.01-74.89,0.99c0,57.43,0,114.9,0,172.39c0,104.45,0,208.971,0,313.48
					c0,60.72,0,121.439,0,182.13c0,25.54,0,51.08,0,76.61c0,30.14,0,60.27,0,90.39c46.33,0,92.67,0,139,0c16.8,0,33.61,0,50.41,0
					c25.2,0,50.39,0,75.59,0C339.423,5482.33,361.173,5482.33,382.923,5482.33z M723.673,4781.83v737.5h-722v-429.82V3693.24
					V2554.67V1370.41V322.35V1.33h722v1587.64v1472.4V4781.83z"/>
				<path fill="#C9DFB3" d="M662.043,1905.33c0,36.51,0,73.02,0,109.53l-102.171,4.47v-114H662.043z"/>
				<path fill="#C9DFB3" d="M662.032,1773.33c0,28,0.011,56,0.011,84H516.573v-84H662.032z"/>
				<path fill="#F6E5D8" d="M662.043,2014.86c0,57.49-0.011,114.98-0.011,172.47h-84.359h-120v-168h102.199L662.043,2014.86z"/>
				<path fill="#F6E5D8" d="M662.023,1685.33c0,29.34,0.01,58.67,0.01,88h-145.46v-88H662.023z"/>
				<path fill="#E6E5A4" d="M662.032,2187.33c0,30-0.01,60-0.01,90h-84.35v-90H662.032z"/>
				<path fill="#C9DFB3" d="M662.003,1593.83c0.01,30.5,0.01,61,0.02,91.5h-145.45v-52h61.101v-39.5H662.003z"/>
				<path fill="#C9DFB3" d="M662.023,2277.33c0,24-0.01,48-0.01,72h-204.34v-72h120H662.023z"/>
				<path fill="#FFFFFF" d="M457.673,2349.33h204.34c-0.061,272.66-0.13,545.32-0.23,818H517.673h-46h-63h-91H53.093h-0.16
					c-0.07-273.12-0.12-545.66-0.14-818h0.3h234.58h120H457.673z"/>
				<path fill="#E6E5A4" d="M661.992,1517.33c0,25.5,0.011,51,0.011,76.5h-84.33v-30.5h-61.101v-46H661.992z"/>
				<path fill="#F6E5D8" d="M661.963,1441.33c0.01,25.34,0.02,50.67,0.029,76h-145.42v-76H661.963z"/>
				<path fill="#C9DFB3" d="M661.893,1242.33c0.01,33.67,0.03,67.34,0.04,101h-145.36v-101H661.893z"/>
				<path fill="#FFFFFF" d="M662.013,2349.33c-0.05,272.66-0.13,545.32-0.22,818h-0.011
					C661.883,2894.65,661.952,2621.99,662.013,2349.33z"/>
				<path fill="#F6E5D8" d="M661.863,1196.33c0.01,15.34,0.021,30.67,0.03,46h-145.32v-46H661.863z"/>
				<path fill="#E6E5A4" d="M661.803,1075.33c0.029,40.34,0.05,80.67,0.06,121h-145.29v-121H661.803z"/>
				<path fill="#F6E5D8" d="M661.702,926.33c0.04,49.67,0.07,99.34,0.101,149h-145.23v-149H661.702z"/>
				<path fill="#C9DFB3" d="M661.793,3167.33c-0.011,41.33-0.021,82.67-0.04,124c0.01-41.33,0.029-82.67,0.029-124H661.793z"/>
				<path fill="#C9DFB3" d="M661.782,3167.33c0,41.33-0.02,82.67-0.029,124c-0.021,41.33-0.03,82.67-0.051,124H517.673v-248H661.782
					z"/>
				<path fill="#C9DFB3" d="M661.753,3291.33c-0.011,41.33-0.03,82.67-0.04,124h-0.011
					C661.723,3374,661.733,3332.66,661.753,3291.33z"/>
				<path fill="#FFFFFF" d="M661.713,3415.33c0,25.33-0.011,50.67-0.021,76h-0.01c0.01-25.33,0.02-50.67,0.02-76H661.713z"/>
				<path fill="#FFFFFF" d="M518.543,3582.64c-0.091,28.53-0.211,60.03-0.41,88.69c-0.12,18.34-0.271,35.52-0.46,50
					c-33.33,0-66.67,0-100,0c-23.33,0-46.67,0-70,0c-16.67,0-33.33,0-50,0c-40,0-80,0-120,0c-16.67,0-33.33,0-50,0v-50h190h39.91
					h114.09v-88.69v-150.31v-141v-124h46v248h144.029c0,25.33-0.01,50.67-0.02,76c-48.26,0-95.13,0-143.01,0
					C518.673,3491.33,518.673,3532.37,518.543,3582.64z"/>
				<path fill="#F6E5D8" d="M661.693,3491.33c-0.01,15.22-0.01,30.439-0.02,45.66c0.01-15.221,0.01-30.44,0.01-45.66H661.693z"/>
				<path fill="#F6E5D8" d="M661.683,3491.33c0,15.22,0,30.439-0.01,45.66c-0.011,15.22-0.011,30.43-0.021,45.649H518.543
					c0.13-50.27,0.13-91.31,0.13-91.31C566.553,3491.33,613.423,3491.33,661.683,3491.33z"/>
				<path fill="#F6E5D8" d="M661.673,3536.99c0,15.22-0.011,30.439-0.011,45.649h-0.01
					C661.662,3567.42,661.662,3552.21,661.673,3536.99z"/>
				<path fill="#C9DFB3" d="M661.673,5482.33c-25.16,0-50.311,0-75.471,0v-69h17.471h57.97
					C661.643,5436.33,661.662,5459.33,661.673,5482.33z"/>
				<path fill="#E6E5A4" d="M661.662,3582.64c-0.01,29.57-0.02,59.13-0.029,88.69h-0.011c0.021-29.561,0.03-59.12,0.03-88.69
					H661.662z"/>
				<path fill="#C9DFB3" d="M661.662,876.42h-145.09v-93h145.021C661.622,814.42,661.653,845.42,661.662,876.42z"/>
				<path fill="#E6E5A4" d="M661.653,3582.64c0,29.57-0.01,59.13-0.03,88.69H518.133c0.199-28.66,0.319-60.16,0.41-88.69H661.653z"
					/>
				<path fill="#E6E5A4" d="M661.613,5358.33c0,18.33,0.01,36.67,0.03,55h-57.97v-55H661.613z"/>
				<path fill="#F6E5D8" d="M661.633,3671.33c-0.011,34.67-0.021,69.34-0.03,104c0.01-34.66,0.02-69.33,0.02-104H661.633z"/>
				<path fill="#F6E5D8" d="M661.622,3671.33c0,34.67-0.01,69.34-0.02,104h-143.93v-54c0.189-14.48,0.34-31.66,0.46-50H661.622z"/>
				<path fill="#F6E5D8" d="M661.582,5301.19c0.011,19.05,0.021,38.09,0.03,57.14h-57.939v55h-17.471v69
					c-67.76,0-135.52,0-203.279,0l0.25-98.64h70.399v-82.5H661.582z"/>
				<path fill="#C9DFB3" d="M661.603,3775.33c0,10,0,20-0.01,30c-0.011,10-0.011,20-0.011,30h-196.01v-60h52.101H661.603z"/>
				<path fill="#C9DFB3" d="M661.593,3805.33c0,10,0,20,0,30h-0.011C661.582,3825.33,661.582,3815.33,661.593,3805.33z"/>
				<path fill="#F6E5D8" d="M661.523,701.69c0.03,27.24,0.05,54.49,0.07,81.73H516.573v-79.49L661.523,701.69z"/>
				<path fill="#FFFFFF" d="M661.593,3835.33c-0.011,51.39-0.03,102.78-0.04,154.17h-0.01c0.02-51.39,0.029-102.78,0.039-154.17
					H661.593z"/>
				<path fill="#FFFFFF" d="M661.582,3835.33c-0.01,51.39-0.02,102.78-0.039,154.17h-0.08h-229.79h-304c0-51.4,0-102.8,0-154.17h190
					h47.06h100.84H661.582z M517.673,3984.33v-28.67h-36v28.67H517.673z M437.343,3984.33v-28.67h-36v28.67H437.343z
					 M382.923,3984.33v-28.67h-36h-11.5v28.67h11.5H382.923z"/>
				<path fill="#FFFFFF" d="M661.563,5253.2c0.01,15.99,0.02,31.99,0.02,47.99h-208.01h-135.9h-75.59v82.5v98.64
					c-16.8,0-33.61,0-50.41,0v-90.39v-76.61v-92h31v29.87h178.67h52.229h56.771H661.563z"/>
				<path fill="#E6E5A4" d="M661.553,5193.2c0,20,0.01,40,0.01,60h-151.22l-0.17-60h0.17H661.553z"/>
				<path fill="#FFFFFF" d="M661.553,3989.5c-0.021,81.81-0.04,163.62-0.05,245.42c0.01-81.8,0.02-163.61,0.04-245.42H661.553z"/>
				<path fill="#C9DFB3" d="M661.532,5133.2c0,20,0.011,40,0.021,60h-151.21h-0.17l-0.17-60h12.79H661.532z"/>
				<path fill="#FFFFFF" d="M312.753,4219.25v-26.5v-24.5v-24.75v-16.83l-38.67,0.33v101.67l38.67,0.16V4219.25z M228.083,4225.67
					l38,0.16V4119.5h-36L228.083,4225.67z M661.543,3989.5c-0.021,81.81-0.03,163.62-0.04,245.42
					c-0.021,81.811-0.021,163.61-0.03,245.41h-127.8v84v110v50h127.779c0,6.33,0,12.67,0.011,19c0,6.33,0,12.67,0.01,19h-117.9
					h-41.569H394.872l-0.13-28l-0.069-15h74v-45v-110h-74h-77h-190c0-45.35,0-90.71,0-136.09h43.91v-38.58h-43.91
					c0-133.36,0-266.8,0-400.16h304h229.79H661.543z M614.753,4008.5v-13h-36v13H614.753z M591.753,4378.5v-25.83h-13v25.83H591.753
					z M591.753,4096.5v-25.17h-13v25.17H591.753z M525.753,4001.5v-6h-94.08v6H525.753z M518.673,4367v-28.67h-36V4367H518.673z
					 M518.673,4141v-28.67h-36V4141H518.673z M518.673,4088.33v-28.67h-36v28.67H518.673z M517.673,4246v-28.67h-36V4246H517.673z
					 M517.343,4472.66V4444h-36v28.66H517.343z M517.343,4420.66V4392h-36v28.66H517.343z M517.343,4193.75v-28.67h-36v28.67
					H517.343z M437.343,4472.66V4444h-36v28.66H437.343z M437.343,4418.33v-28.67h-36v28.67H437.343z M437.343,4367v-28.67h-36V4367
					H437.343z M437.343,4246v-28.67h-36V4246H437.343z M437.343,4193.75v-28.67h-36v28.67H437.343z M437.343,4142.33v-28.67h-36
					v28.67H437.343z M437.343,4085.66V4057h-36v28.66H437.343z M397.253,4071.33l-1-3.83l-3.75-1l-4.75,1l-1,3.75l1,3.75l4.25,1
					l4.25-1L397.253,4071.33z M396.253,4008.5v-13h-38.67v13H396.253z M396.253,4402.5l-1-4l-4.171-1l-4.159,1l-1,4.75l1,3.75
					l4.159,1l4.171-1L396.253,4402.5z M382.923,4142.33v-28.67h-36h-11.5v28.67h11.5H382.923z M382.923,4088v-28.67h-36h-11.5V4088
					h11.5H382.923z M381.332,4470.33v-28.67h-36h-11.5v28.67h11.5H381.332z M381.332,4367v-28.67h-36h-11.5V4367h11.5H381.332z
					 M381.173,4418.33v-28.67h-36h-11.5v28.67h11.5H381.173z M381.173,4246v-28.67h-36h-11.5V4246h11.5H381.173z M380.173,4196.08
					v-28.67h-36h-11.5v28.67h11.5H380.173z M320.253,4213.25V4199h-4.38v14.25H320.253z M320.253,4186.25v-12.5h-4.38v12.5H320.253z
					 M320.253,4161.25v-11.75h-4.38v11.75H320.253z M319.003,4316.83v-26.66h-6.25v26.66H319.003z M177.253,4419.17v-22h-4.83v22
					H177.253z"/>
				<path fill="#E6E5A4" d="M661.523,5086.71c0,15.5,0,31,0.01,46.49H522.793v-46.49H661.523z"/>
				<path fill="#F6E5D8" d="M661.513,5035.71c-0.01,17,0,34,0.01,51H522.793v-51H661.513z"/>
				<path fill="#F6E5D8" d="M661.523,701.69l-144.95,2.24v-91.5h6h138.86C661.473,642.18,661.492,671.93,661.523,701.69z"/>
				<path fill="#E6E5A4" d="M661.492,4976.46c0,19.75,0.011,39.5,0.021,59.25h-138.72v-59.25H661.492z"/>
				<path fill="#F6E5D8" d="M661.483,4900.71c0,25.25,0,50.5,0.01,75.75H522.793v-75.75h20.779H661.483z"/>
				<path fill="#C9DFB3" d="M661.473,4762.33c0,46.13,0,92.25,0.01,138.38h-117.91v-80.99v-57.39H661.473z"/>
				<path fill="#F6E5D8" d="M661.473,4480.33c-0.01,14-0.01,28-0.01,42c-0.011,14-0.011,28-0.011,42H533.673v-84H661.473z"/>
				<path fill="#F6E5D8" d="M661.463,4522.33c0,14,0,28,0,42h-0.011C661.452,4550.33,661.452,4536.33,661.463,4522.33z"/>
				<path fill="#FFFFFF" d="M661.463,4724.33c0,6.33,0,12.67,0,19c-0.011-6.33-0.011-12.67-0.011-19H661.463z"/>
				<path fill="#E6E5A4" d="M661.463,4674.33c0,16.67,0,33.33,0,50h-0.011c0-16.67,0-33.33,0-50H661.463z"/>
				<path fill="#C9DFB3" d="M661.463,4564.33c0,36.67,0,73.33,0,110h-0.011c0-36.67,0-73.33,0-110H661.463z"/>
				<path fill="#E6E5A4" d="M661.452,4674.33c0,16.67,0,33.33,0,50H533.673v-50H661.452z"/>
				<path fill="#C9DFB3" d="M661.452,4564.33c0,36.67,0,73.33,0,110H533.673v-110H661.452z"/>
				<path fill="#E6E5A4" d="M661.353,526.93c0.03,28.5,0.06,57,0.08,85.5h-138.86h-6v-85.5h144.221H661.353z"/>
				<path fill="#F6E5D8" d="M661.313,492.44h-71.99v-117h71.84C661.223,414.44,661.263,453.44,661.313,492.44z"/>
				<path fill="#C9DFB3" d="M661.162,375.44h-71.84h-72.75V210.45h144.37C661.023,265.44,661.103,320.44,661.162,375.44z"/>
				<path fill="#F6E5D8" d="M660.872,166.95c0.03,14.5,0.051,29,0.07,43.5h-144.37v-43.5H660.872z"/>
				<path fill="#E6E5A4" d="M660.793,109.96c0.029,18.99,0.06,37.99,0.079,56.99h-144.3v-56.99H660.793z"/>
				<path fill="#F6E5D8" d="M660.673,34.33c0.04,25.21,0.08,50.42,0.12,75.63H516.573V35.58
					C564.643,35.42,612.683,35.05,660.673,34.33z"/>
				<rect x="578.753" y="3995.5" fill="#B5DAF4" width="36" height="13"/>
				<rect x="578.753" y="4352.67" fill="#B5DAF4" width="13" height="25.83"/>
				<rect x="578.753" y="4071.33" fill="#B5DAF4" width="13" height="25.17"/>
				<rect x="516.573" y="375.44" fill="#F6E5D8" width="72.75" height="117"/>
				<rect x="457.673" y="2187.33" fill="#C9DFB3" width="120" height="90"/>
				<polygon fill="#E6E5A4" points="577.673,1593.83 577.673,1633.33 516.573,1633.33 516.573,1563.33 577.673,1563.33 				"/>
				<rect x="457.673" y="1905.33" fill="#E6E5A4" width="102.199" height="114"/>
				<polygon fill="#C9DFB3" points="543.573,4819.72 543.573,4900.71 522.793,4900.71 394.872,4900.71 394.723,4900.71 
					394.673,4819.72 394.872,4762.33 502.003,4762.33 502.003,4819.72 				"/>
				<rect x="502.003" y="4762.33" fill="#E6E5A4" width="41.569" height="57.39"/>
				<rect x="431.673" y="3995.5" fill="#B5DAF4" width="94.08" height="6"/>
				<polygon fill="#C9DFB3" points="522.793,5086.71 522.793,5133.2 510.003,5133.2 453.573,5133.2 401.343,5133.2 394.872,5133.2 
					394.723,4900.71 394.872,4900.71 522.793,4900.71 522.793,4976.46 522.793,5035.71 				"/>
				<rect x="482.673" y="4338.33" fill="#D4D2E0" width="36" height="28.67"/>
				<rect x="482.673" y="4112.33" fill="#D4D2E0" width="36" height="28.67"/>
				<rect x="482.673" y="4059.66" fill="#D4D2E0" width="36" height="28.67"/>
				<rect x="481.673" y="4217.33" fill="#D4D2E0" width="36" height="28.67"/>
				<rect x="481.673" y="3955.66" fill="#D4D2E0" width="36" height="28.67"/>
				<path fill="#E6E5A4" d="M517.673,3721.33v54h-52.101h-47.899v-54C451.003,3721.33,484.343,3721.33,517.673,3721.33z"/>
				<rect x="481.343" y="4444" fill="#D4D2E0" width="36" height="28.66"/>
				<rect x="481.343" y="4392" fill="#D4D2E0" width="36" height="28.66"/>
				<rect x="481.343" y="4165.08" fill="#D4D2E0" width="36" height="28.67"/>
				<polygon fill="#E6E5A4" points="510.173,5193.2 510.343,5253.2 453.573,5253.2 453.573,5133.2 510.003,5133.2 				"/>
				<rect x="357.583" y="3582.64" fill="#E6E5A4" width="114.09" height="88.69"/>
				<polygon fill="#C9DFB3" points="471.673,3432.33 471.673,3582.64 357.583,3582.64 317.673,3582.64 317.673,3432.33 				"/>
				<polygon fill="#F6E5D8" points="373.673,3291.33 408.673,3291.33 471.673,3291.33 471.673,3432.33 317.673,3432.33 
					317.673,3291.33 				"/>
				<rect x="408.673" y="3167.33" fill="#E6E5A4" width="63" height="124"/>
				<polygon fill="#E6E5A4" points="468.673,4674.33 468.673,4719.33 394.673,4719.33 394.673,4674.33 394.872,4674.33 
					467.773,4674.33 				"/>
				<polygon fill="#E6E5A4" points="468.673,4564.33 468.673,4674.33 467.773,4674.33 394.872,4674.33 394.673,4674.33 
					394.673,4564.33 				"/>
				<polygon fill="#E6E5A4" points="465.573,3775.33 465.573,3835.33 364.733,3835.33 364.723,3775.33 417.673,3775.33 				"/>
				<polygon fill="#E6E5A4" points="465.573,1685.33 465.573,1857.33 407.673,1857.33 237.673,1857.33 186.673,1857.33 
					186.673,1685.33 273.673,1685.33 279.673,1685.33 287.673,1685.33 427.673,1685.33 				"/>
				<polygon fill="#E6E5A4" points="465.573,1441.33 465.573,1535.33 407.673,1535.33 391.332,1535.33 391.332,1441.33 
					405.673,1441.33 				"/>
				<rect x="383.673" y="1196.33" fill="#E6E5A4" width="81.899" height="147"/>
				<path fill="#C9DFB3" d="M465.573,1031.33v165h-81.899h-246h-84.58h-0.26c0.01-54.99,0.02-109.99,0.03-165h0.23h133.58h130.41
					H465.573z"/>
				<rect x="317.083" y="926.33" fill="#F6E5D8" width="148.49" height="105"/>
				<rect x="317.083" y="821.33" fill="#F6E5D8" width="148.49" height="55.09"/>
				<polygon fill="#E6E5A4" points="465.573,755.98 465.573,821.33 317.083,821.33 317.083,756.33 				"/>
				<polygon fill="#F6E5D8" points="465.573,703.93 465.573,755.98 317.083,756.33 317.083,703.93 				"/>
				<rect x="317.083" y="612.43" fill="#F6E5D8" width="148.49" height="91.5"/>
				<rect x="317.083" y="539.68" fill="#F6E5D8" width="148.49" height="72.75"/>
				<rect x="317.083" y="458.33" fill="#E6E5A4" width="148.49" height="81.35"/>
				<rect x="317.083" y="375.44" fill="#E6E5A4" width="148.49" height="82.89"/>
				<rect x="317.083" y="288.45" fill="#F6E5D8" width="148.49" height="86.99"/>
				<rect x="317.083" y="202.95" fill="#E6E5A4" width="148.49" height="85.5"/>
				<path fill="#F6E5D8" d="M465.573,156.45h-148.49V35.47c49.5,0.14,99.01,0.27,148.49,0.22V156.45z"/>
				<polygon fill="#E6E5A4" points="453.573,5301.19 453.573,5383.69 383.173,5383.69 317.673,5383.69 317.673,5301.19 				"/>
				<rect x="401.343" y="5133.2" fill="#D4D1B9" width="52.229" height="120"/>
				<rect x="401.343" y="4444" fill="#D4D2E0" width="36" height="28.66"/>
				<rect x="401.343" y="4389.66" fill="#D4D2E0" width="36" height="28.67"/>
				<rect x="401.343" y="4338.33" fill="#D4D2E0" width="36" height="28.67"/>
				<rect x="401.343" y="4217.33" fill="#D4D2E0" width="36" height="28.67"/>
				<rect x="401.343" y="4165.08" fill="#D4D2E0" width="36" height="28.67"/>
				<rect x="401.343" y="4113.66" fill="#D4D2E0" width="36" height="28.67"/>
				<rect x="401.343" y="4057" fill="#D4D2E0" width="36" height="28.66"/>
				<rect x="401.343" y="3955.66" fill="#D4D2E0" width="36" height="28.67"/>
				<polygon fill="#C9DFB3" points="429.673,1563.33 428.673,1624.33 330.733,1624.33 330.733,1563.33 				"/>
				<polygon fill="#F6E5D8" points="428.673,1624.33 427.673,1685.33 287.673,1685.33 279.673,1685.33 279.673,1563.33 
					330.733,1563.33 330.733,1624.33 				"/>
				<path fill="#F6E5D8" d="M417.673,3721.33v54h-52.95h-17.05v-54C371.003,3721.33,394.343,3721.33,417.673,3721.33z"/>
				<polygon fill="#C9DFB3" points="408.673,3167.33 408.673,3291.33 373.673,3291.33 317.673,3291.33 317.673,3167.33 				"/>
				<polygon fill="#F6E5D8" points="407.673,2180.33 407.673,2349.33 287.673,2349.33 287.673,2180.33 297.173,2180.33 				"/>
				<polygon fill="#C9DFB3" points="407.673,2011.33 407.673,2180.33 297.173,2180.33 287.673,2180.33 287.673,2011.33 				"/>
				<polygon fill="#F6E5D8" points="407.673,1857.33 407.673,2011.33 287.673,2011.33 237.673,2011.33 237.673,1857.33 				"/>
				<polygon fill="#C9DFB3" points="401.343,5133.2 401.343,5253.2 222.673,5253.2 222.673,5223.33 222.673,5133.2 394.872,5133.2 
									"/>
				<polygon fill="#B5DAF4" points="396.253,4067.5 397.253,4071.33 396.253,4075 392.003,4076 387.753,4075 386.753,4071.25 
					387.753,4067.5 392.503,4066.5 				"/>
				<rect x="357.583" y="3995.5" fill="#B5DAF4" width="38.67" height="13"/>
				<polygon fill="#B5DAF4" points="395.253,4398.5 396.253,4402.5 395.253,4407 391.082,4408 386.923,4407 385.923,4403.25 
					386.923,4398.5 391.082,4397.5 				"/>
				<polygon fill="#E6E5A4" points="394.742,4734.33 394.872,4762.33 394.673,4819.72 317.673,4819.72 317.673,4734.33 
					394.673,4734.33 				"/>
				<path fill="#F6E5D8" d="M394.723,4900.71l0.149,232.49h-172.2H53.093h-0.42c0-104.51,0-209.03,0-313.48h0.42h264.58h77
					L394.723,4900.71z"/>
				<polygon fill="#F6E5D8" points="394.673,4719.33 394.742,4734.33 394.673,4734.33 317.673,4734.33 317.673,4648.33 
					317.673,4564.33 394.673,4564.33 394.673,4674.33 				"/>
				<rect x="330.733" y="1441.33" fill="#F6E5D8" width="60.6" height="94"/>
				<rect x="137.673" y="1196.33" fill="#F6E5D8" width="246" height="147"/>
				<path fill="#E6E5A4" d="M383.173,5383.69l-0.25,98.64c-21.75,0-43.5,0-65.25,0v-98.64H383.173z"/>
				<polygon fill="#D4D2E0" points="382.923,4113.66 382.923,4142.33 346.923,4142.33 335.423,4142.33 335.423,4113.66 
					346.923,4113.66 				"/>
				<polygon fill="#D4D2E0" points="382.923,4059.33 382.923,4088 346.923,4088 335.423,4088 335.423,4059.33 346.923,4059.33 				
					"/>
				<polygon fill="#D4D2E0" points="382.923,3955.66 382.923,3984.33 346.923,3984.33 335.423,3984.33 335.423,3955.66 
					346.923,3955.66 				"/>
				<polygon fill="#D4D2E0" points="381.332,4441.66 381.332,4470.33 345.333,4470.33 333.833,4470.33 333.833,4441.66 
					345.333,4441.66 				"/>
				<polygon fill="#D4D2E0" points="381.332,4338.33 381.332,4367 345.333,4367 333.833,4367 333.833,4338.33 345.333,4338.33 				
					"/>
				<polygon fill="#D4D2E0" points="381.173,4389.66 381.173,4418.33 345.173,4418.33 333.673,4418.33 333.673,4389.66 
					345.173,4389.66 				"/>
				<polygon fill="#D4D2E0" points="381.173,4217.33 381.173,4246 345.173,4246 333.673,4246 333.673,4217.33 345.173,4217.33 				
					"/>
				<polygon fill="#D4D2E0" points="380.173,4167.41 380.173,4196.08 344.173,4196.08 332.673,4196.08 332.673,4167.41 
					344.173,4167.41 				"/>
				<polygon fill="#E6E5A4" points="364.723,3775.33 364.733,3835.33 317.673,3835.33 317.673,3775.33 347.673,3775.33 				"/>
				<rect x="317.673" y="3582.64" fill="#E6E5A4" width="39.91" height="88.69"/>
				<path fill="#E6E5A4" d="M347.673,3721.33v54h-30h-20v-54C314.343,3721.33,331.003,3721.33,347.673,3721.33z"/>
				<rect x="279.673" y="1441.33" fill="#E6E5A4" width="51.06" height="94"/>
				<rect x="315.873" y="4199" fill="#B5DAF4" width="4.38" height="14.25"/>
				<rect x="315.873" y="4173.75" fill="#B5DAF4" width="4.38" height="12.5"/>
				<rect x="315.873" y="4149.5" fill="#B5DAF4" width="4.38" height="11.75"/>
				<rect x="312.753" y="4290.17" fill="#B5DAF4" width="6.25" height="26.66"/>
				<path fill="#C9DFB3" d="M317.673,5383.69v98.64c-25.2,0-50.39,0-75.59,0v-98.64H317.673z"/>
				<rect x="242.083" y="5301.19" fill="#C9DFB3" width="75.59" height="82.5"/>
				<path fill="#C9DFB3" d="M317.673,4734.33v85.39H53.093h-0.42c0-57.489,0-114.96,0-172.39c24.96-1,49.93,1.99,74.89-0.99
					l0.11,0.99l186,2l4-1V4734.33z"/>
				<path fill="#F6E5D8" d="M317.673,4564.33v84l-4,1l-186-2l-0.11-0.99c0.04,0,0.07-0.01,0.11-0.01c0-27.33,0-54.66,0-82H317.673z"
					/>
				<path fill="#F6E5D8" d="M317.673,3775.33v60h-190c0-20,0-40,0-60h50h120H317.673z"/>
				<path fill="#C9DFB3" d="M317.673,3582.64v88.69h-190h-74.58c-0.06-168.271-0.11-336.25-0.16-504h0.16h264.58v124v141V3582.64z"
					/>
				<rect x="186.673" y="926.33" fill="#F6E5D8" width="130.41" height="105"/>
				<path fill="#C9DFB3" d="M317.083,821.33v55.09h-130.41H53.093h-0.2c0.03-112.15,0.06-224.39,0.09-336.74h0.11h263.99v72.75v91.5
					v52.4V821.33z"/>
				<path fill="#F6E5D8" d="M317.083,458.33v81.35H53.093h-0.11c0.02-54.72,0.03-109.45,0.05-164.24h0.06h263.99V458.33z"/>
				<path fill="#C9DFB3" d="M317.083,288.45v86.99H53.093h-0.06c0.02-57.46,0.04-114.96,0.06-172.49h263.99V288.45z"/>
				<path fill="#E6E5A4" d="M317.083,35.47v120.98h-67.5V35.28C272.083,35.34,294.583,35.41,317.083,35.47z"/>
				<polygon fill="#99C89C" points="312.753,4219.25 312.753,4228.83 274.083,4228.67 274.083,4127 312.753,4126.67 312.753,4143.5 
					312.753,4168.25 312.753,4192.75 				"/>
				<path fill="#E6E5A4" d="M297.673,3721.33v54h-120v-54C217.673,3721.33,257.673,3721.33,297.673,3721.33z"/>
				<path fill="#E6E5A4" d="M287.673,2180.33v169H53.093h-0.3c-0.01-112.69-0.02-225.34-0.02-338h0.32h184.58h50V2180.33z"/>
				<path fill="#F6E5D8" d="M279.673,1563.33v122h-6h-87H53.093h-0.31c0-50,0-100,0.01-150h0.3h52.58h94v-94h80v94V1563.33z
					 M191.093,1633.33v-50h-95.42v50H191.093z"/>
				<polygon fill="#99C89C" points="266.083,4119.5 266.083,4225.83 228.083,4225.67 230.083,4119.5 				"/>
				<path fill="#F6E5D8" d="M249.583,35.28v121.17h-58.49V35.15C210.583,35.18,230.083,35.23,249.583,35.28z"/>
				<path fill="#C9DFB3" d="M237.673,1857.33v154H53.093h-0.32c0-108.66,0.01-217.33,0.01-326h0.31h133.58v172H237.673z"/>
				<path fill="#E6E5A4" d="M222.673,5133.2v90.13h-31v92H53.093h-0.42c0-60.69,0-121.41,0-182.13h0.42H222.673z"/>
				<rect x="105.673" y="1441.33" fill="#E6E5A4" width="94" height="94"/>
				<path fill="#C9DFB3" d="M191.673,5391.94v90.39c-46.33,0-92.67,0-139,0c0-30.12,0-60.25,0-90.39h0.42H191.673z"/>
				<path fill="#F6E5D8" d="M191.673,5315.33v76.61H53.093h-0.42c0-25.53,0-51.07,0-76.61h0.42H191.673z"/>
				<rect x="95.673" y="1583.33" fill="#E6E5A4" width="95.42" height="50"/>
				<path fill="#F6E5D8" d="M191.093,35.15v121.3h-138l0.58-121.12C99.433,35.1,145.253,35.08,191.093,35.15z"/>
				<path fill="#E6E5A4" d="M186.673,926.33v105H53.093h-0.23c0.01-34.99,0.01-69.99,0.02-105h0.21H186.673z"/>
				<path fill="#FFFFFF" d="M186.673,876.42v49.91H53.093h-0.21c0-16.64,0.01-33.26,0.01-49.91h0.2H186.673z"/>
				<path fill="#E6E5A4" d="M177.673,3721.33v54h-50c0-18,0-36,0-54C144.343,3721.33,161.003,3721.33,177.673,3721.33z"/>
				<rect x="172.423" y="4397.17" fill="#B5DAF4" width="4.83" height="22"/>
				<rect x="127.673" y="4389.66" fill="#F5D8C9" width="43.91" height="38.58"/>
				<path fill="#E6E5A4" d="M137.673,1196.33v147h-84.58h-0.28c0-48.99,0.01-97.99,0.02-147h0.26H137.673z"/>
				<path fill="#C9DFB3" d="M105.673,1441.33v94h-52.58h-0.3c0-31.33,0-62.66,0.01-94h0.29H105.673z"/>
			</g>
			<g>
				<polyline fill="none" stroke="#D71718" stroke-miterlimit="10" points="346.923,3984.33 382.923,3984.33 382.923,3955.66 
					346.923,3955.66 				"/>
				<line fill="none" stroke="#D71718" stroke-miterlimit="10" x1="465.573" y1="35.69" x2="465.573" y2="34.96"/>
				<polyline fill="none" stroke="#D71718" stroke-miterlimit="10" points="53.093,156.45 191.093,156.45 249.583,156.45 
					317.083,156.45 				"/>
				<path fill="none" stroke="#D71718" stroke-miterlimit="10" d="M191.093,35.15c-45.84-0.07-91.66-0.05-137.42,0.18l-0.58,121.12"
					/>
				<path fill="none" stroke="#D71718" stroke-miterlimit="10" d="M516.573,35.58c-17,0.06-34,0.1-51,0.11"/>
				<path fill="none" stroke="#D71718" stroke-miterlimit="10" d="M661.353,526.93c-0.021-11.5-0.03-22.99-0.04-34.49"/>
				<path fill="none" stroke="#D71718" stroke-miterlimit="10" d="M661.963,1441.33c-0.011-32.66-0.021-65.33-0.03-98
					c-0.01-33.66-0.03-67.33-0.04-101c-0.01-15.33-0.021-30.66-0.03-46c-0.01-40.33-0.03-80.66-0.06-121
					c-0.03-49.66-0.061-99.33-0.101-149c-0.01-16.64-0.02-33.28-0.04-49.91"/>
				<path fill="none" stroke="#D71718" stroke-miterlimit="10" d="M127.673,4428.24c0,45.38,0,90.74,0,136.09c0,27.34,0,54.67,0,82
					c-0.04,0-0.07,0.01-0.11,0.01c-24.96,2.98-49.93-0.01-74.89,0.99c0,57.43,0,114.9,0,172.39c0,104.45,0,208.971,0,313.48
					c0,60.72,0,121.439,0,182.13c0,25.54,0,51.08,0,76.61c0,30.14,0,60.27,0,90.39c46.33,0,92.67,0,139,0c16.8,0,33.61,0,50.41,0
					c25.2,0,50.39,0,75.59,0c21.75,0,43.5,0,65.25,0c67.76,0,135.52,0,203.279,0c25.16,0,50.311,0,75.471,0
					c-0.011-23-0.03-46-0.03-69c-0.021-18.33-0.03-36.67-0.03-55c-0.01-19.05-0.02-38.09-0.03-57.14c0-16-0.01-32-0.02-47.99
					c0-20-0.01-40-0.01-60c-0.01-20-0.021-40-0.021-60c-0.01-15.49-0.01-30.99-0.01-46.49c-0.01-17-0.02-34-0.01-51
					c-0.01-19.75-0.021-39.5-0.021-59.25c-0.01-25.25-0.01-50.5-0.01-75.75c-0.01-46.13-0.01-92.25-0.01-138.38
					c-0.01-6.33-0.01-12.67-0.01-19c-0.011-6.33-0.011-12.67-0.011-19c0-16.67,0-33.33,0-50c0-36.67,0-73.33,0-110
					c0-14,0-28,0.011-42c0-14,0-28,0.01-42c0.01-81.8,0.01-163.6,0.03-245.41c0.01-81.8,0.02-163.61,0.04-245.42
					c0.02-51.39,0.029-102.78,0.039-154.17c0-10,0-20,0.011-30c0.01-10,0.01-20,0.01-30c0.01-34.66,0.02-69.33,0.02-104
					c0.021-29.561,0.03-59.12,0.03-88.69c0.01-15.22,0.01-30.43,0.021-45.649c0.01-15.221,0.01-30.44,0.01-45.66
					c0.01-25.33,0.02-50.67,0.02-76c0.021-41.33,0.03-82.67,0.051-124c0.01-41.33,0.029-82.67,0.029-124
					c0.101-272.68,0.17-545.34,0.23-818c0-24,0.01-48,0.01-72c0-30,0.01-60,0.01-90c0-57.49,0.011-114.98,0.011-172.47
					c0-36.51,0-73.02,0-109.53c0-16,0-32,0-48"/>
				<path fill="none" stroke="#D71718" stroke-miterlimit="10" d="M662.063,3491.33c-0.12,0-0.25,0-0.37,0h-0.01
					c-48.26,0-95.13,0-143.01,0c0,0,0,41.04-0.13,91.31c-0.091,28.53-0.211,60.03-0.41,88.69c-0.12,18.34-0.271,35.52-0.46,50
					c-33.33,0-66.67,0-100,0c-23.33,0-46.67,0-70,0c-16.67,0-33.33,0-50,0c-40,0-80,0-120,0c-16.67,0-33.33,0-50,0c0,18,0,36,0,54
					c0,20,0,40,0,60c0,51.37,0,102.77,0,154.17c0,133.36,0,266.8,0,400.16"/>
				<path fill="none" stroke="#D71718" stroke-miterlimit="10" d="M53.093,3671.33c-0.06-168.271-0.11-336.25-0.16-504
					c-0.07-273.12-0.12-545.66-0.14-818c-0.01-112.69-0.02-225.34-0.02-338c0-108.66,0.01-217.33,0.01-326c0-50,0-100,0.01-150
					c0-31.33,0-62.66,0.01-94c0-32.66,0-65.33,0.01-98c0-48.99,0.01-97.99,0.02-147c0.01-54.99,0.02-109.99,0.03-165
					c0.01-34.99,0.01-69.99,0.02-105c0-16.64,0.01-33.26,0.01-49.91c0.03-112.15,0.06-224.39,0.09-336.74
					c0.02-54.72,0.03-109.45,0.05-164.24c0.02-57.46,0.04-114.96,0.06-172.49"/>
				<polyline fill="none" stroke="#D71718" stroke-miterlimit="10" points="516.573,34.96 516.573,35.58 516.573,109.96 
					516.573,166.95 516.573,210.45 516.573,375.44 516.573,492.44 589.323,492.44 661.313,492.44 662.063,492.44 				"/>
				<polyline fill="none" stroke="#D71718" stroke-miterlimit="10" points="662.063,375.44 661.162,375.44 589.323,375.44 
					516.573,375.44 				"/>
				<line fill="none" stroke="#D71718" stroke-miterlimit="10" x1="589.323" y1="375.44" x2="589.323" y2="492.44"/>
				<polyline fill="none" stroke="#D71718" stroke-miterlimit="10" points="662.063,210.45 660.943,210.45 516.573,210.45 				"/>
				<polyline fill="none" stroke="#D71718" stroke-miterlimit="10" points="662.063,166.95 660.872,166.95 516.573,166.95 				"/>
				<polyline fill="none" stroke="#D71718" stroke-miterlimit="10" points="317.083,156.45 317.083,35.47 317.083,34.96 				"/>
				<polyline fill="none" stroke="#D71718" stroke-miterlimit="10" points="249.583,156.45 249.583,35.28 249.583,34.96 				"/>
				<polyline fill="none" stroke="#D71718" stroke-miterlimit="10" points="191.093,156.45 191.093,35.15 191.093,34.96 				"/>
				<polyline fill="none" stroke="#D71718" stroke-miterlimit="10" points="53.093,202.95 317.083,202.95 465.573,202.95 
					465.573,288.45 465.573,375.44 465.573,458.33 465.573,539.68 465.573,612.43 465.573,703.93 465.573,755.98 465.573,821.33 
					465.573,876.42 317.083,876.42 186.673,876.42 53.093,876.42 				"/>
				<polyline fill="none" stroke="#D71718" stroke-miterlimit="10" points="317.083,202.95 317.083,288.45 317.083,375.44 
					317.083,458.33 317.083,539.68 317.083,612.43 317.083,703.93 317.083,756.33 317.083,821.33 317.083,876.42 				"/>
				<line fill="none" stroke="#D71718" stroke-miterlimit="10" x1="465.573" y1="288.45" x2="317.083" y2="288.45"/>
				<polyline fill="none" stroke="#D71718" stroke-miterlimit="10" points="465.573,375.44 317.083,375.44 53.093,375.44 				"/>
				<line fill="none" stroke="#D71718" stroke-miterlimit="10" x1="465.573" y1="458.33" x2="317.083" y2="458.33"/>
				<polyline fill="none" stroke="#D71718" stroke-miterlimit="10" points="465.573,539.68 317.083,539.68 53.093,539.68 				"/>
				<line fill="none" stroke="#D71718" stroke-miterlimit="10" x1="465.573" y1="612.43" x2="317.083" y2="612.43"/>
				<line fill="none" stroke="#D71718" stroke-miterlimit="10" x1="465.573" y1="703.93" x2="317.083" y2="703.93"/>
				<line fill="none" stroke="#D71718" stroke-miterlimit="10" x1="465.573" y1="755.98" x2="317.083" y2="756.33"/>
				<polyline fill="none" stroke="#D71718" stroke-miterlimit="10" points="516.573,612.43 516.573,703.93 516.573,783.42 
					516.573,876.42 661.662,876.42 662.063,876.42 				"/>
				<line fill="none" stroke="#D71718" stroke-miterlimit="10" x1="662.063" y1="526.93" x2="661.353" y2="526.93"/>
				<polyline fill="none" stroke="#D71718" stroke-miterlimit="10" points="662.063,612.43 661.433,612.43 522.573,612.43 
					516.573,612.43 				"/>
				<polyline fill="none" stroke="#D71718" stroke-miterlimit="10" points="662.063,701.68 661.523,701.69 516.573,703.93 				"/>
				<polyline fill="none" stroke="#D71718" stroke-miterlimit="10" points="662.063,783.42 661.593,783.42 516.573,783.42 				"/>
				<line fill="none" stroke="#D71718" stroke-miterlimit="10" x1="465.573" y1="821.33" x2="317.083" y2="821.33"/>
				<polyline fill="none" stroke="#D71718" stroke-miterlimit="10" points="662.063,926.33 661.702,926.33 516.573,926.33 
					516.573,1075.33 516.573,1196.33 516.573,1242.33 516.573,1343.33 661.933,1343.33 662.063,1343.33 				"/>
				<polyline fill="none" stroke="#D71718" stroke-miterlimit="10" points="662.063,1075.33 661.803,1075.33 516.573,1075.33 				
					"/>
				<polyline fill="none" stroke="#D71718" stroke-miterlimit="10" points="662.063,1196.33 661.863,1196.33 516.573,1196.33 				
					"/>
				<polyline fill="none" stroke="#D71718" stroke-miterlimit="10" points="662.063,1242.33 661.893,1242.33 516.573,1242.33 				
					"/>
				<polyline fill="none" stroke="#D71718" stroke-miterlimit="10" points="53.093,926.33 186.673,926.33 317.083,926.33 
					465.573,926.33 465.573,1031.33 465.573,1196.33 465.573,1343.33 383.673,1343.33 137.673,1343.33 53.093,1343.33 				"/>
				<polyline fill="none" stroke="#D71718" stroke-miterlimit="10" points="465.573,1031.33 317.083,1031.33 186.673,1031.33 
					53.093,1031.33 				"/>
				<line fill="none" stroke="#D71718" stroke-miterlimit="10" x1="317.083" y1="1031.33" x2="317.083" y2="926.33"/>
				<polyline fill="none" stroke="#D71718" stroke-miterlimit="10" points="186.673,1031.33 186.673,926.33 186.673,876.42 				"/>
				<polyline fill="none" stroke="#D71718" stroke-miterlimit="10" points="465.573,1196.33 383.673,1196.33 137.673,1196.33 
					53.093,1196.33 				"/>
				<line fill="none" stroke="#D71718" stroke-miterlimit="10" x1="383.673" y1="1196.33" x2="383.673" y2="1343.33"/>
				<line fill="none" stroke="#D71718" stroke-miterlimit="10" x1="137.673" y1="1196.33" x2="137.673" y2="1343.33"/>
				<polyline fill="none" stroke="#D71718" stroke-miterlimit="10" points="516.573,1517.33 516.573,1563.33 516.573,1633.33 
					516.573,1685.33 516.573,1773.33 516.573,1857.33 662.043,1857.33 662.063,1857.33 				"/>
				<line fill="none" stroke="#D71718" stroke-miterlimit="10" x1="662.063" y1="1441.33" x2="661.963" y2="1441.33"/>
				<polyline fill="none" stroke="#D71718" stroke-miterlimit="10" points="662.063,1773.33 662.032,1773.33 516.573,1773.33 				
					"/>
				<polyline fill="none" stroke="#D71718" stroke-miterlimit="10" points="662.063,1685.33 662.023,1685.33 516.573,1685.33 				
					"/>
				<polyline fill="none" stroke="#D71718" stroke-miterlimit="10" points="53.093,2349.33 287.673,2349.33 407.673,2349.33 
					407.673,2180.33 407.673,2011.33 407.673,1857.33 465.573,1857.33 465.573,1685.33 427.673,1685.33 428.673,1624.33 
					429.673,1563.33 330.733,1563.33 279.673,1563.33 279.673,1535.33 330.733,1535.33 391.332,1535.33 407.673,1535.33 
					465.573,1535.33 465.573,1441.33 405.673,1441.33 391.332,1441.33 330.733,1441.33 279.673,1441.33 199.673,1441.33 
					105.673,1441.33 53.093,1441.33 				"/>
				<line fill="none" stroke="#D71718" stroke-miterlimit="10" x1="279.673" y1="1535.33" x2="279.673" y2="1441.33"/>
				<polyline fill="none" stroke="#D71718" stroke-miterlimit="10" points="273.673,1685.33 186.673,1685.33 53.093,1685.33 				"/>
				<polyline fill="none" stroke="#D71718" stroke-miterlimit="10" points="427.673,1685.33 287.673,1685.33 279.673,1685.33 
					273.673,1685.33 				"/>
				<line fill="none" stroke="#D71718" stroke-miterlimit="10" x1="279.673" y1="1563.33" x2="279.673" y2="1685.33"/>
				<polyline fill="none" stroke="#D71718" stroke-miterlimit="10" points="199.673,1441.33 199.673,1535.33 105.673,1535.33 
					53.093,1535.33 				"/>
				<line fill="none" stroke="#D71718" stroke-miterlimit="10" x1="105.673" y1="1441.33" x2="105.673" y2="1535.33"/>
				<line fill="none" stroke="#D71718" stroke-miterlimit="10" x1="330.733" y1="1441.33" x2="330.733" y2="1535.33"/>
				<line fill="none" stroke="#D71718" stroke-miterlimit="10" x1="391.332" y1="1441.33" x2="391.332" y2="1535.33"/>
				<polyline fill="none" stroke="#D71718" stroke-miterlimit="10" points="428.673,1624.33 330.733,1624.33 330.733,1563.33 				
					"/>
				<rect x="95.673" y="1583.33" fill="none" stroke="#D71718" stroke-miterlimit="10" width="95.42" height="50"/>
				<polyline fill="none" stroke="#D71718" stroke-miterlimit="10" points="407.673,1857.33 237.673,1857.33 186.673,1857.33 
					186.673,1685.33 				"/>
				<polyline fill="none" stroke="#D71718" stroke-miterlimit="10" points="237.673,1857.33 237.673,2011.33 287.673,2011.33 
					407.673,2011.33 				"/>
				<line fill="none" stroke="#D71718" stroke-miterlimit="10" x1="237.673" y1="2011.33" x2="53.093" y2="2011.33"/>
				<polyline fill="none" stroke="#D71718" stroke-miterlimit="10" points="287.673,2011.33 287.673,2180.33 287.673,2349.33 				
					"/>
				<polyline fill="none" stroke="#D71718" stroke-miterlimit="10" points="407.673,2180.33 297.173,2180.33 287.673,2180.33 				
					"/>
				<polyline fill="none" stroke="#D71718" stroke-miterlimit="10" points="516.573,1563.33 577.673,1563.33 577.673,1593.83 
					577.673,1633.33 516.573,1633.33 				"/>
				<polyline fill="none" stroke="#D71718" stroke-miterlimit="10" points="577.673,1593.83 662.003,1593.83 662.063,1593.83 				
					"/>
				<polyline fill="none" stroke="#D71718" stroke-miterlimit="10" points="662.063,1905.33 662.043,1905.33 559.872,1905.33 
					457.673,1905.33 457.673,2019.33 457.673,2187.33 457.673,2277.33 457.673,2349.33 				"/>
				<polyline fill="none" stroke="#D71718" stroke-miterlimit="10" points="559.872,1905.33 559.872,2019.33 457.673,2019.33 				
					"/>
				<polyline fill="none" stroke="#D71718" stroke-miterlimit="10" points="559.872,2019.33 662.043,2014.86 662.063,2014.86 				
					"/>
				<polyline fill="none" stroke="#D71718" stroke-miterlimit="10" points="662.063,2187.33 662.032,2187.33 577.673,2187.33 
					457.673,2187.33 				"/>
				<polyline fill="none" stroke="#D71718" stroke-miterlimit="10" points="577.673,2187.33 577.673,2277.33 457.673,2277.33 				
					"/>
				<polyline fill="none" stroke="#D71718" stroke-miterlimit="10" points="577.673,2277.33 662.023,2277.33 662.063,2277.33 				
					"/>
				<polyline fill="none" stroke="#D71718" stroke-miterlimit="10" points="407.673,2349.33 457.673,2349.33 662.013,2349.33 
					662.063,2349.33 				"/>
				<polyline fill="none" stroke="#D71718" stroke-miterlimit="10" points="662.063,3167.33 661.793,3167.33 661.782,3167.33 
					517.673,3167.33 471.673,3167.33 408.673,3167.33 317.673,3167.33 53.093,3167.33 				"/>
				<polyline fill="none" stroke="#D71718" stroke-miterlimit="10" points="517.673,3167.33 517.673,3415.33 661.702,3415.33 
					661.713,3415.33 662.063,3415.33 				"/>
				<polyline fill="none" stroke="#D71718" stroke-miterlimit="10" points="662.063,3835.33 661.593,3835.33 661.582,3835.33 
					465.573,3835.33 364.733,3835.33 317.673,3835.33 127.673,3835.33 				"/>
				<polyline fill="none" stroke="#D71718" stroke-miterlimit="10" points="662.063,3775.33 661.603,3775.33 517.673,3775.33 
					465.573,3775.33 417.673,3775.33 364.723,3775.33 347.673,3775.33 317.673,3775.33 297.673,3775.33 177.673,3775.33 
					127.673,3775.33 				"/>
				<polyline fill="none" stroke="#D71718" stroke-miterlimit="10" points="517.673,3582.64 518.543,3582.64 661.653,3582.64 
					661.662,3582.64 662.063,3582.64 				"/>
				<polyline fill="none" stroke="#D71718" stroke-miterlimit="10" points="662.063,3671.33 661.633,3671.33 661.622,3671.33 
					518.133,3671.33 517.673,3671.33 				"/>
				<line fill="none" stroke="#D71718" stroke-miterlimit="10" x1="517.673" y1="3721.33" x2="517.673" y2="3775.33"/>
				<line fill="none" stroke="#D71718" stroke-miterlimit="10" x1="417.673" y1="3721.33" x2="417.673" y2="3775.33"/>
				<line fill="none" stroke="#D71718" stroke-miterlimit="10" x1="347.673" y1="3721.33" x2="347.673" y2="3775.33"/>
				<line fill="none" stroke="#D71718" stroke-miterlimit="10" x1="297.673" y1="3721.33" x2="297.673" y2="3775.33"/>
				<line fill="none" stroke="#D71718" stroke-miterlimit="10" x1="317.673" y1="3775.33" x2="317.673" y2="3835.33"/>
				<line fill="none" stroke="#D71718" stroke-miterlimit="10" x1="177.673" y1="3721.33" x2="177.673" y2="3775.33"/>
				<line fill="none" stroke="#D71718" stroke-miterlimit="10" x1="465.573" y1="3775.33" x2="465.573" y2="3835.33"/>
				<polyline fill="none" stroke="#D71718" stroke-miterlimit="10" points="317.673,3167.33 317.673,3291.33 317.673,3432.33 
					317.673,3582.64 317.673,3671.33 				"/>
				<polyline fill="none" stroke="#D71718" stroke-miterlimit="10" points="471.673,3671.33 357.583,3671.33 317.673,3671.33 
					127.673,3671.33 53.093,3671.33 				"/>
				<polyline fill="none" stroke="#D71718" stroke-miterlimit="10" points="471.673,3671.33 471.673,3582.64 471.673,3432.33 
					471.673,3291.33 471.673,3167.33 				"/>
				<polyline fill="none" stroke="#D71718" stroke-miterlimit="10" points="471.673,3291.33 408.673,3291.33 373.673,3291.33 
					317.673,3291.33 				"/>
				<line fill="none" stroke="#D71718" stroke-miterlimit="10" x1="408.673" y1="3291.33" x2="408.673" y2="3167.33"/>
				<line fill="none" stroke="#D71718" stroke-miterlimit="10" x1="471.673" y1="3432.33" x2="317.673" y2="3432.33"/>
				<polyline fill="none" stroke="#D71718" stroke-miterlimit="10" points="317.673,3582.64 357.583,3582.64 357.583,3671.33 				
					"/>
				<line fill="none" stroke="#D71718" stroke-miterlimit="10" x1="471.673" y1="3582.64" x2="357.583" y2="3582.64"/>
				<line fill="none" stroke="#D71718" stroke-miterlimit="10" x1="373.673" y1="3291.33" x2="373.673" y2="3427.33"/>
				<line fill="none" stroke="#D71718" stroke-miterlimit="10" x1="127.673" y1="3721.33" x2="127.673" y2="3671.33"/>
				<line fill="none" stroke="#D71718" stroke-miterlimit="10" x1="364.723" y1="3775.33" x2="364.733" y2="3835.33"/>
				<rect x="481.673" y="4217.33" fill="none" stroke="#D71718" stroke-miterlimit="10" width="36" height="28.67"/>
				<rect x="481.343" y="4165.08" fill="none" stroke="#D71718" stroke-miterlimit="10" width="36" height="28.67"/>
				<rect x="482.673" y="4112.33" fill="none" stroke="#D71718" stroke-miterlimit="10" width="36" height="28.67"/>
				<rect x="482.673" y="4059.66" fill="none" stroke="#D71718" stroke-miterlimit="10" width="36" height="28.67"/>
				<rect x="481.673" y="3955.66" fill="none" stroke="#D71718" stroke-miterlimit="10" width="36" height="28.67"/>
				<rect x="401.343" y="3955.66" fill="none" stroke="#D71718" stroke-miterlimit="10" width="36" height="28.67"/>
				<rect x="401.343" y="4057" fill="none" stroke="#D71718" stroke-miterlimit="10" width="36" height="28.66"/>
				<rect x="401.343" y="4113.66" fill="none" stroke="#D71718" stroke-miterlimit="10" width="36" height="28.67"/>
				<rect x="401.343" y="4165.08" fill="none" stroke="#D71718" stroke-miterlimit="10" width="36" height="28.67"/>
				<rect x="401.343" y="4217.33" fill="none" stroke="#D71718" stroke-miterlimit="10" width="36" height="28.67"/>
				<polyline fill="none" stroke="#D71718" stroke-miterlimit="10" points="345.173,4246 381.173,4246 381.173,4217.33 
					345.173,4217.33 				"/>
				<polyline fill="none" stroke="#D71718" stroke-miterlimit="10" points="345.173,4217.33 333.673,4217.33 333.673,4246 
					345.173,4246 				"/>
				<polyline fill="none" stroke="#D71718" stroke-miterlimit="10" points="344.173,4196.08 380.173,4196.08 380.173,4167.41 
					344.173,4167.41 				"/>
				<polyline fill="none" stroke="#D71718" stroke-miterlimit="10" points="344.173,4167.41 332.673,4167.41 332.673,4196.08 
					344.173,4196.08 				"/>
				<polyline fill="none" stroke="#D71718" stroke-miterlimit="10" points="346.923,4142.33 382.923,4142.33 382.923,4113.66 
					346.923,4113.66 				"/>
				<polyline fill="none" stroke="#D71718" stroke-miterlimit="10" points="346.923,4113.66 335.423,4113.66 335.423,4142.33 
					346.923,4142.33 				"/>
				<polyline fill="none" stroke="#D71718" stroke-miterlimit="10" points="346.923,4088 382.923,4088 382.923,4059.33 
					346.923,4059.33 				"/>
				<polyline fill="none" stroke="#D71718" stroke-miterlimit="10" points="346.923,4059.33 335.423,4059.33 335.423,4088 
					346.923,4088 				"/>
				<polyline fill="none" stroke="#D71718" stroke-miterlimit="10" points="346.923,3955.66 335.423,3955.66 335.423,3984.33 
					346.923,3984.33 				"/>
				<polyline fill="none" stroke="#D71718" stroke-miterlimit="10" points="345.333,4367 381.332,4367 381.332,4338.33 
					345.333,4338.33 				"/>
				<polyline fill="none" stroke="#D71718" stroke-miterlimit="10" points="345.333,4338.33 333.833,4338.33 333.833,4367 
					345.333,4367 				"/>
				<polyline fill="none" stroke="#D71718" stroke-miterlimit="10" points="345.173,4418.33 381.173,4418.33 381.173,4389.66 
					345.173,4389.66 				"/>
				<polyline fill="none" stroke="#D71718" stroke-miterlimit="10" points="345.173,4389.66 333.673,4389.66 333.673,4418.33 
					345.173,4418.33 				"/>
				<polyline fill="none" stroke="#D71718" stroke-miterlimit="10" points="345.333,4470.33 381.332,4470.33 381.332,4441.66 
					345.333,4441.66 				"/>
				<polyline fill="none" stroke="#D71718" stroke-miterlimit="10" points="345.333,4441.66 333.833,4441.66 333.833,4470.33 
					345.333,4470.33 				"/>
				<rect x="401.343" y="4338.33" fill="none" stroke="#D71718" stroke-miterlimit="10" width="36" height="28.67"/>
				<rect x="401.343" y="4389.66" fill="none" stroke="#D71718" stroke-miterlimit="10" width="36" height="28.67"/>
				<rect x="401.343" y="4444" fill="none" stroke="#D71718" stroke-miterlimit="10" width="36" height="28.66"/>
				<rect x="482.673" y="4338.33" fill="none" stroke="#D71718" stroke-miterlimit="10" width="36" height="28.67"/>
				<rect x="481.343" y="4392" fill="none" stroke="#D71718" stroke-miterlimit="10" width="36" height="28.66"/>
				<rect x="481.343" y="4444" fill="none" stroke="#D71718" stroke-miterlimit="10" width="36" height="28.66"/>
				<polyline fill="none" stroke="#D71718" stroke-miterlimit="10" points="662.063,4480.33 661.473,4480.33 533.673,4480.33 
					533.673,4564.33 533.673,4674.33 533.673,4724.33 661.452,4724.33 661.463,4724.33 662.063,4724.33 				"/>
				<polyline fill="none" stroke="#D71718" stroke-miterlimit="10" points="662.063,4762.33 661.473,4762.33 543.573,4762.33 
					502.003,4762.33 394.872,4762.33 394.742,4734.33 394.673,4719.33 468.673,4719.33 468.673,4674.33 468.673,4564.33 
					394.673,4564.33 317.673,4564.33 127.673,4564.33 				"/>
				<polyline fill="none" stroke="#D71718" stroke-miterlimit="10" points="533.673,4564.33 661.452,4564.33 661.463,4564.33 
					662.063,4564.33 				"/>
				<polyline fill="none" stroke="#D71718" stroke-miterlimit="10" points="662.063,4674.33 661.463,4674.33 661.452,4674.33 
					533.673,4674.33 				"/>
				<polyline fill="none" stroke="#D71718" stroke-miterlimit="10" points="394.673,4719.33 394.673,4674.33 394.673,4564.33 				
					"/>
				<line fill="none" stroke="#D71718" stroke-miterlimit="10" x1="467.773" y1="4674.33" x2="394.872" y2="4674.33"/>
				<polyline fill="none" stroke="#D71718" stroke-miterlimit="10" points="394.673,4734.33 317.673,4734.33 317.673,4648.33 
					317.673,4564.33 				"/>
				<polyline fill="none" stroke="#D71718" stroke-miterlimit="10" points="317.673,4648.33 313.673,4649.33 127.673,4647.33 				
					"/>
				<polyline fill="none" stroke="#D71718" stroke-miterlimit="10" points="394.872,4762.33 394.673,4819.72 317.673,4819.72 
					317.673,4734.33 				"/>
				<line fill="none" stroke="#D71718" stroke-miterlimit="10" x1="317.673" y1="4819.72" x2="53.093" y2="4819.72"/>
				<polyline fill="none" stroke="#D71718" stroke-miterlimit="10" points="543.573,4762.33 543.573,4819.72 543.573,4900.71 
					522.793,4900.71 394.872,4900.71 				"/>
				<polyline fill="none" stroke="#D71718" stroke-miterlimit="10" points="543.573,4819.72 502.003,4819.72 502.003,4762.33 				
					"/>
				<polyline fill="none" stroke="#D71718" stroke-miterlimit="10" points="543.573,4900.71 661.483,4900.71 662.063,4900.71 
					662.063,4976.46 662.063,5035.71 662.063,5086.71 662.063,5133.2 661.532,5133.2 522.793,5133.2 				"/>
				<polyline fill="none" stroke="#D71718" stroke-miterlimit="10" points="394.872,5133.2 394.723,4900.71 394.673,4819.72 				"/>
				<line fill="none" stroke="#D71718" stroke-miterlimit="10" x1="53.093" y1="5133.2" x2="222.673" y2="5133.2"/>
				<line fill="none" stroke="#D71718" stroke-miterlimit="10" x1="222.673" y1="5133.2" x2="394.872" y2="5133.2"/>
				<polyline fill="none" stroke="#D71718" stroke-miterlimit="10" points="522.793,4900.71 522.793,4976.46 522.793,5035.71 
					522.793,5086.71 522.793,5133.2 510.003,5133.2 453.573,5133.2 401.343,5133.2 394.872,5133.2 				"/>
				<polyline fill="none" stroke="#D71718" stroke-miterlimit="10" points="662.063,4976.46 661.492,4976.46 522.793,4976.46 				
					"/>
				<polyline fill="none" stroke="#D71718" stroke-miterlimit="10" points="662.063,5035.71 661.513,5035.71 522.793,5035.71 				
					"/>
				<polyline fill="none" stroke="#D71718" stroke-miterlimit="10" points="662.063,5086.71 661.523,5086.71 522.793,5086.71 				
					"/>
				<polyline fill="none" stroke="#D71718" stroke-miterlimit="10" points="662.063,5253.2 661.563,5253.2 510.343,5253.2 
					453.573,5253.2 401.343,5253.2 222.673,5253.2 222.673,5223.33 222.673,5133.2 				"/>
				<line fill="none" stroke="#D71718" stroke-miterlimit="10" x1="401.343" y1="5253.2" x2="401.343" y2="5133.2"/>
				<line fill="none" stroke="#D71718" stroke-miterlimit="10" x1="453.573" y1="5253.2" x2="453.573" y2="5133.2"/>
				<polyline fill="none" stroke="#D71718" stroke-miterlimit="10" points="510.343,5253.2 510.173,5193.2 510.003,5133.2 				"/>
				<polyline fill="none" stroke="#D71718" stroke-miterlimit="10" points="662.063,5301.19 661.582,5301.19 453.573,5301.19 
					317.673,5301.19 242.083,5301.19 242.083,5383.69 242.083,5482.33 242.083,5482.69 				"/>
				<polyline fill="none" stroke="#D71718" stroke-miterlimit="10" points="453.573,5301.19 453.573,5383.69 383.173,5383.69 
					317.673,5383.69 242.083,5383.69 				"/>
				<polyline fill="none" stroke="#D71718" stroke-miterlimit="10" points="317.673,5301.19 317.673,5383.69 317.673,5482.33 
					317.673,5482.69 				"/>
				<polyline fill="none" stroke="#D71718" stroke-miterlimit="10" points="383.173,5383.69 382.923,5482.33 382.923,5482.69 				
					"/>
				<polyline fill="none" stroke="#D71718" stroke-miterlimit="10" points="222.673,5223.33 191.673,5223.33 191.673,5315.33 
					191.673,5391.94 191.673,5482.33 191.673,5482.69 				"/>
				<line fill="none" stroke="#D71718" stroke-miterlimit="10" x1="191.673" y1="5315.33" x2="53.093" y2="5315.33"/>
				<line fill="none" stroke="#D71718" stroke-miterlimit="10" x1="191.673" y1="5391.94" x2="53.093" y2="5391.94"/>
				<polyline fill="none" stroke="#D71718" stroke-miterlimit="10" points="662.063,5193.2 661.553,5193.2 510.343,5193.2 				"/>
				<polyline fill="none" stroke="#D71718" stroke-miterlimit="10" points="662.063,5413.33 661.643,5413.33 603.673,5413.33 
					586.202,5413.33 586.202,5482.33 586.202,5482.69 				"/>
				<polyline fill="none" stroke="#D71718" stroke-miterlimit="10" points="662.063,5358.33 661.613,5358.33 603.673,5358.33 
					603.673,5413.33 				"/>
				<polygon fill="none" stroke="#040000" stroke-miterlimit="10" points="723.673,4781.83 723.673,3061.37 723.673,1588.97 
					723.673,1.33 1.673,1.33 1.673,322.35 1.673,1370.41 1.673,2554.67 1.673,3693.24 1.673,5089.51 1.673,5519.33 723.673,5519.33 
									"/>
				<polyline fill="none" stroke="#D71718" stroke-miterlimit="10" points="662.063,109.96 660.793,109.96 516.573,109.96 				"/>
				<rect x="127.673" y="4389.66" fill="none" stroke="#040000" stroke-miterlimit="10" width="43.91" height="38.58"/>
				<rect x="172.423" y="4397.17" fill="none" stroke="#E94429" stroke-miterlimit="10" width="4.83" height="22"/>
				<polygon fill="none" stroke="#D1291A" stroke-miterlimit="10" points="396.253,4402.5 395.253,4398.5 391.082,4397.5 
					386.923,4398.5 385.923,4403.25 386.923,4407 391.082,4408 395.253,4407 				"/>
				<polygon fill="none" stroke="#D1291A" stroke-miterlimit="10" points="274.083,4228.67 274.083,4127 312.753,4126.67 
					312.753,4143.5 312.753,4168.25 312.753,4192.75 312.753,4219.25 312.753,4228.83 				"/>
				<polygon fill="none" stroke="#D1291A" stroke-miterlimit="10" points="228.083,4225.67 230.083,4119.5 266.083,4119.5 
					266.083,4225.83 				"/>
				<polyline fill="none" stroke="#D71718" stroke-miterlimit="10" points="127.673,3989.5 431.673,3989.5 661.463,3989.5 				"/>
				<rect x="431.673" y="3995.5" fill="none" stroke="#D71718" stroke-miterlimit="10" width="94.08" height="6"/>
				<rect x="357.583" y="3995.5" fill="none" stroke="#D71718" stroke-miterlimit="10" width="38.67" height="13"/>
				<rect x="578.753" y="3995.5" fill="none" stroke="#D71718" stroke-miterlimit="10" width="36" height="13"/>
				<rect x="578.753" y="4352.67" fill="none" stroke="#EB5B42" stroke-miterlimit="10" width="13" height="25.83"/>
				<rect x="578.753" y="4071.33" fill="none" stroke="#E7281A" stroke-miterlimit="10" width="13" height="25.17"/>
				<polygon fill="none" stroke="#DD5941" stroke-miterlimit="10" points="397.253,4071.33 396.253,4067.5 392.503,4066.5 
					387.753,4067.5 386.753,4071.25 387.753,4075 392.003,4076 396.253,4075 				"/>
				<polyline fill="none" stroke="#C51F1E" stroke-miterlimit="10" points="274.083,4228.67 274.083,4232.08 274.083,4235.5 				"/>
				<polyline fill="none" stroke="#D11B1B" stroke-miterlimit="10" points="274.003,4232.08 274.083,4232.08 283.003,4232.08 				
					"/>
				<line fill="none" stroke="#D11F1A" stroke-miterlimit="10" x1="312.753" y1="4143.5" x2="319.003" y2="4143.5"/>
				<line fill="none" stroke="#D11F1A" stroke-miterlimit="10" x1="312.753" y1="4168.25" x2="319.003" y2="4168.25"/>
				<line fill="none" stroke="#D1231A" stroke-miterlimit="10" x1="312.753" y1="4192.75" x2="319.003" y2="4192.75"/>
				<line fill="none" stroke="#E7211A" stroke-miterlimit="10" x1="312.753" y1="4219.25" x2="319.003" y2="4219.25"/>
				<polyline fill="none" stroke="#D1291A" stroke-miterlimit="10" points="228.083,4224.67 228.083,4225.67 228.083,4238.5 				"/>
				<line fill="none" stroke="#D11B1B" stroke-miterlimit="10" x1="266.083" y1="4225.83" x2="266.083" y2="4230"/>
				<rect x="315.873" y="4149.5" fill="none" stroke="#B52E22" stroke-miterlimit="10" width="4.38" height="11.75"/>
				<rect x="315.873" y="4173.75" fill="none" stroke="#E7281A" stroke-miterlimit="10" width="4.38" height="12.5"/>
				<rect x="315.873" y="4199" fill="none" stroke="#D11B1B" stroke-miterlimit="10" width="4.38" height="14.25"/>
				<rect x="312.753" y="4290.17" fill="none" stroke="#E83F29" stroke-miterlimit="10" width="6.25" height="26.66"/>
			</g>
		</g>
	</g>
</g>
<polyline fill="none" stroke="#19983A" stroke-miterlimit="10" points="191.093,35.15 660.673,34.33 661.662,876.42 "/>
<polyline fill="none" stroke="#D71718" stroke-miterlimit="10" points="662.043,1857.33 661.978,1517.33 661.963,1441.33 
	516.573,1441.33 516.573,1517.33 657.639,1517.33 "/>
<polyline fill="none" stroke="#040000" stroke-miterlimit="10" points="660.793,526.93 516.573,526.93 516.573,612.43 
	660.793,612.43 "/>
<polyline fill="none" stroke="#40AF36" stroke-miterlimit="10" points="465.649,36.239 465.573,156.45 317.083,156.45 "/>
<text transform='matrix(1 0 0 1 93.0 99.0)' font-size='12'>F安检储物43-Z-26</text>
<text transform='matrix(1 0 0 1 205.0 114.0)' font-size='12'>工作间</text>
<text transform='matrix(1 0 0 1 259.0 118.0)' font-size='12'>生产调度室</text>
<text transform='matrix(1 0 0 1 340.0 70.0)' font-size='12'>F元翔机务休息室42-B-28</text>
<text transform='matrix(1 0 0 1 531.0 70.0)' font-size='12'>F元翔机务经理办公室42-B-29</text>
<text transform='matrix(1 0 0 1 541.0 151.0)' font-size='12'>员工衣柜间</text>
<text transform='matrix(1 0 0 1 532.0 198.0)' font-size='12'>放置轮椅间</text>
<text transform='matrix(1 0 0 1 532.0 252.0)' font-size='12'>F元翔机务休息室42-B-27</text>
<text transform='matrix(1 0 0 1 329.0 242.0)' font-size='12'>F元翔机务储物间42-Z-25</text>
<text transform='matrix(1 0 0 1 358.0 341.0)' font-size='12'>配载部经理室</text>
<text transform='matrix(1 0 0 1 341.0 455.0)' font-size='12'>F山航43-B-26</text>
<text transform='matrix(1 0 0 1 335.0 486.0)' font-size='12'>F山航43-B-26(2)</text>
<text transform='matrix(1 0 0 1 76.0 247.0)' font-size='12'>F元翔机务仓库42-K-11</text>
<text transform='matrix(1 0 0 1 99.0 448.0)' font-size='12'>F山航43-B-25</text>
<text transform='matrix(1 0 0 1 147.0 719.0)' font-size='12'>F空调机房(指廊一层)</text>
<text transform='matrix(1 0 0 1 105.0 912.0)' font-size='12'>电梯</text>
<text transform='matrix(1 0 0 1 75.0 971.0)' font-size='12'>F兆翔科技43-Z-21</text>
<text transform='matrix(1 0 0 1 197.0 968.0)' font-size='12'>F兆翔科技43-K-9</text>
<text transform='matrix(1 0 0 1 340.0 976.0)' font-size='12'>F兆翔科技43-B-20</text>
<text transform='matrix(1 0 0 1 165.0 1079.0)' font-size='12'>F消防中心43-J-11</text>
<text transform='matrix(1 0 0 1 327.0 571.0)' font-size='12'>F山航43-B-23</text>
<text transform='matrix(1 0 0 1 331.0 648.0)' font-size='12'>F山航43-B-23(2)</text>
<text transform='matrix(1 0 0 1 338.0 738.0)' font-size='12'>机坪摆渡班组衣柜间</text>
<text transform='matrix(1 0 0 1 339.0 796.0)' font-size='12'>客舱部机供品仓库</text>
<text transform='matrix(1 0 0 1 347.0 862.0)' font-size='12'>登机桥西廊衣柜间</text>
<text transform='matrix(1 0 0 1 456.0 899.0)' font-size='12'>走道</text>
<text transform='matrix(1 0 0 1 526.0 422.0)' font-size='12'>F元翔仓库43-K-10</text>
<text transform='matrix(1 0 0 1 599.0 444.0)' font-size='12'>F元翔资料室43-Z-24</text>
<text transform='matrix(1 0 0 1 530.0 545.0)' font-size='12'>G男厕所43-B-24</text>
<text transform='matrix(1 0 0 1 542.0 637.0)' font-size='12'>G女厕所43-B-24</text>
<text transform='matrix(1 0 0 1 531.0 729.0)' font-size='12'>F运营指挥中心43-Z-23</text>
<text transform='matrix(1 0 0 1 529.0 815.0)' font-size='12'>F山航43-B-22</text>
<text transform='matrix(1 0 0 1 530.0 971.0)' font-size='12'>F兆翔科技43-Z-22</text>
<text transform='matrix(1 0 0 1 541.0 1110.0)' font-size='12'>FUPS间43-J-12</text>
<text transform='matrix(1 0 0 1 540.0 1210.0)' font-size='12'>F钢瓶间43-Z-20</text>
<text transform='matrix(1 0 0 1 542.0 1268.0)' font-size='12'>F兆翔科技43-J-10</text>
<text transform='matrix(1 0 0 1 538.0 1467.0)' font-size='12'>F元翔地勤43-Z-19</text>
<text transform='matrix(1 0 0 1 549.0 1534.0)' font-size='12'>G男厕所43-B-18</text>
<text transform='matrix(1 0 0 1 533.0 1656.0)' font-size='12'>G女厕所43-B-18</text>
<text transform='matrix(1 0 0 1 528.0 1582.0)' font-size='12'>前室</text>
<text transform='matrix(1 0 0 1 537.0 1714.0)' font-size='12'>F站坪控制室43-J-4</text>
<text transform='matrix(1 0 0 1 532.0 1802.0)' font-size='12'>F地勤办公室43-K-8</text>
<text transform='matrix(1 0 0 1 482.0 1947.0)' font-size='12'>F元翔地勤43-Z-14</text>
<text transform='matrix(1 0 0 1 567.0 1971.0)' font-size='12'>F元翔地勤43-Z-13(2)</text>
<text transform='matrix(1 0 0 1 484.0 2069.0)' font-size='12'>F元翔地勤43-B-17</text>
<text transform='matrix(1 0 0 1 473.0 2217.0)' font-size='12'>F航食机供品库43-K-6</text>
<text transform='matrix(1 0 0 1 585.0 2236.0)' font-size='12'>F航食调度室43-Z-12</text>
<text transform='matrix(1 0 0 1 485.0 2302.0)' font-size='12'>F过渡冷库43-k-5</text>
<text transform='matrix(1 0 0 1 260.0 2479.0)' font-size='12'>F中转休息室</text>
<text transform='matrix(1 0 0 1 537.0 3265.0)' font-size='12'>F元翔地勤43-Z-8</text>
<text transform='matrix(1 0 0 1 542.0 3524.0)' font-size='12'>F元翔地勤43-Z-6</text>
<text transform='matrix(1 0 0 1 537.0 3608.0)' font-size='12'>F元翔地勤43-Z-5</text>
<text transform='matrix(1 0 0 1 544.0 3709.0)' font-size='12'>F喜乐航43-B-13</text>
<text transform='matrix(1 0 0 1 513.0 3795.0)' font-size='12'>F预留43-B-10</text>
<text transform='matrix(1 0 0 1 441.0 3736.0)' font-size='12'>诊疗室</text>
<text transform='matrix(1 0 0 1 374.0 3795.0)' font-size='12'>FB1-3配电间</text>
<text transform='matrix(1 0 0 1 376.0 3750.0)' font-size='12'>办公室</text>
<text transform='matrix(1 0 0 1 314.0 3743.0)' font-size='12'>卫生间</text>
<text transform='matrix(1 0 0 1 198.0 3737.0)' font-size='12'>F医务室43-Z-4(1)</text>
<text transform='matrix(1 0 0 1 152.0 3757.0)' font-size='12'>F医务室43-Z-4</text>
<text transform='matrix(1 0 0 1 182.0 3793.0)' font-size='12'>楼梯</text>
<text transform='matrix(1 0 0 1 344.0 3972.0)' font-size='12'>休息座位区</text>
<text transform='matrix(1 0 0 1 491.0 4230.0)' font-size='12'>休息座位区</text>
<text transform='matrix(1 0 0 1 137.0 4404.0)' font-size='12'>电梯</text>
<text transform='matrix(1 0 0 1 342.0 4461.0)' font-size='12'>休息座位区</text>
<text transform='matrix(1 0 0 1 236.0 4357.0)' font-size='12'>F远机位候机厅</text>
<text transform='matrix(1 0 0 1 559.0 4506.0)' font-size='12'>咖啡厅</text>
<text transform='matrix(1 0 0 1 164.0 4584.0)' font-size='12'>S兴丰裕便利店T4-1-11</text>
<text transform='matrix(1 0 0 1 328.0 4609.0)' font-size='12'>S品牌店T4-1-12</text>
<text transform='matrix(1 0 0 1 406.0 4599.0)' font-size='12'>S中信书店T4-1-13</text>
<text transform='matrix(1 0 0 1 404.0 4693.0)' font-size='12'>F吸烟室43-Q-2</text>
<text transform='matrix(1 0 0 1 329.0 4759.0)' font-size='12'>FB1-4配电间</text>
<text transform='matrix(1 0 0 1 94.0 4716.0)' font-size='12'>FB1空调机房(指廊一层)</text>
<text transform='matrix(1 0 0 1 557.0 4594.0)' font-size='12'>S伊示雅咖啡厅T4-1-14</text>
<text transform='matrix(1 0 0 1 540.0 4688.0)' font-size='12'>F卫生间&amp;母婴室43-W-5</text>
<text transform='matrix(1 0 0 1 557.0 4846.0)' font-size='12'>F女厕所43-W-3</text>
<text transform='matrix(1 0 0 1 418.0 4813.0)' font-size='12'>F男厕所43-W-3</text>
<text transform='matrix(1 0 0 1 509.0 4788.0)' font-size='12'>清洁间</text>
<text transform='matrix(1 0 0 1 548.0 4927.0)' font-size='12'>办公室</text>
<text transform='matrix(1 0 0 1 431.0 5002.0)' font-size='12'>F预留43-B-8</text>
<text transform='matrix(1 0 0 1 557.0 4995.0)' font-size='12'>建管</text>
<text transform='matrix(1 0 0 1 547.0 5057.0)' font-size='12'>监察室</text>
<text transform='matrix(1 0 0 1 558.0 5114.0)' font-size='12'>办公室</text>
<text transform='matrix(1 0 0 1 121.0 4903.0)' font-size='12'>F原中转休息厅(指廊一层)</text>
<text transform='matrix(1 0 0 1 262.0 5204.0)' font-size='12'>F卫生间43-W-1</text>
<text transform='matrix(1 0 0 1 79.0 5192.0)' font-size='12'>F办公司43-b-04</text>
<text transform='matrix(1 0 0 1 413.0 5174.0)' font-size='12'>报警间</text>
<text transform='matrix(1 0 0 1 542.0 5165.0)' font-size='12'>F办公室43-B-7</text>
<text transform='matrix(1 0 0 1 535.0 5210.0)' font-size='12'>勤务部员工休息室</text>
<text transform='matrix(1 0 0 1 463.0 5199.0)' font-size='12'>F办公室43-B-6</text>
<text transform='matrix(1 0 0 1 275.0 5266.0)' font-size='12'>走道</text>
<text transform='matrix(1 0 0 1 78.0 5339.0)' font-size='12'>技术资料室</text>
<text transform='matrix(1 0 0 1 250.0 5326.0)' font-size='12'>弱电间</text>
<text transform='matrix(1 0 0 1 339.0 5341.0)' font-size='12'>F办公室43-B-2</text>
<text transform='matrix(1 0 0 1 69.0 5420.0)' font-size='12'>航线部经理办公室</text>
<text transform='matrix(1 0 0 1 257.0 5418.0)' font-size='12'>滑油仓库</text>
<text transform='matrix(1 0 0 1 332.0 5415.0)' font-size='12'>液压仓库</text>
<text transform='matrix(1 0 0 1 478.0 5364.0)' font-size='12'>F办公室43-B-3</text>
<text transform='matrix(1 0 0 1 623.0 5385.0)' font-size='12'>管井间</text>
<text transform='matrix(1 0 0 1 603.0 5440.0)' font-size='12'>氮气瓶间</text>
<text transform='matrix(1 0 0 1 331.0 3624.0)' font-size='12'>配电间</text>
<text transform='matrix(1 0 0 1 395.0 3632.0)' font-size='12'>弱电间</text>
<text transform='matrix(1 0 0 1 328.0 3476.0)' font-size='12'>F元翔地勤43-B-14</text>
<text transform='matrix(1 0 0 1 394.0 3349.0)' font-size='12'>G卫生间43-W-7</text>
<text transform='matrix(1 0 0 1 423.0 3241.0)' font-size='12'>F元翔地勤43-Z-9(2)</text>
<text transform='matrix(1 0 0 1 325.0 3217.0)' font-size='12'>F元翔地勤43-Z-09</text>
<text transform='matrix(1 0 0 1 85.0 3352.0)' font-size='12'>FB2空调机房</text>
<text transform='matrix(1 0 0 1 299.0 2226.0)' font-size='12'>F元翔地勤43-B-16</text>
<text transform='matrix(1 0 0 1 296.0 2070.0)' font-size='12'>F元翔地勤43-K-07</text>
<text transform='matrix(1 0 0 1 260.0 1911.0)' font-size='12'>F元翔地勤43-Z-13</text>
<text transform='matrix(1 0 0 1 94.0 2119.0)' font-size='12'>FB3空调机房(指廊一层)</text>
<text transform='matrix(1 0 0 1 65.0 1830.0)' font-size='12'>F高压及变压器室43-J-2</text>
<text transform='matrix(1 0 0 1 354.0 1585.0)' font-size='12'>配电间</text>
<text transform='matrix(1 0 0 1 240.0 1750.0)' font-size='12'>F配电间43-J-3</text>
<text transform='matrix(1 0 0 1 297.0 1642.0)' font-size='12'>F元翔地勤43-Z-16</text>
<text transform='matrix(1 0 0 1 117.0 1604.0)' font-size='12'>基础</text>
<text transform='matrix(1 0 0 1 106.0 1561.0)' font-size='12'>F1号油机间43-J-6</text>
<text transform='matrix(1 0 0 1 65.0 1474.0)' font-size='12'>F油桶间43-J-7</text>
<text transform='matrix(1 0 0 1 117.0 1489.0)' font-size='12'>F细水间43-J-8</text>
<text transform='matrix(1 0 0 1 311.0 1483.0)' font-size='12'>F元翔地勤43-Z-18</text>
<text transform='matrix(1 0 0 1 338.0 1501.0)' font-size='12'>F元翔地勤43-Z-18(2)</text>
<text transform='matrix(1 0 0 1 399.0 1461.0)' font-size='12'>F元翔地勤43-Z-18(3)</text>
<text transform='matrix(1 0 0 1 196.0 1274.0)' font-size='12'>F弱电中心机房(指廊一层)</text>
<text transform='matrix(1 0 0 1 78.0 1254.0)' font-size='12'>F弱电机房43-J-9</text>
<text transform='matrix(1 0 0 1 398.0 1251.0)' font-size='12'>弱电部门更衣室</text>
<text transform='matrix(1 0 0 1 177.0 4413.0)' font-size='12'>LTF1-04</text>
<text transform='matrix(1 0 0 1 318.0 4308.0)' font-size='12'>LTF1-03</text>
<text transform='matrix(1 0 0 1 585.0 4370.0)' font-size='12'>LTF1-02</text>
<text transform='matrix(1 0 0 1 393.0 4406.0)' font-size='12'>DCF1-02</text>
<text transform='matrix(1 0 0 1 395.0 4076.0)' font-size='12'>DCF1-01</text>
<text transform='matrix(1 0 0 1 586.0 4092.0)' font-size='12'>LTF1-01</text>
<text transform='matrix(1 0 0 1 320.0 4160.0)' font-size='12'>公用电话</text>
<text transform='matrix(1 0 0 1 320.0 4184.0)' font-size='12'>公用电话</text>
<text transform='matrix(1 0 0 1 321.0 4213.0)' font-size='12'>公用电话</text>
<text transform='matrix(1 0 0 1 589.0 4008.0)' font-size='12'>ZDF3-10</text>
<text transform='matrix(1 0 0 1 468.0 4004.0)' font-size='12'>LTF1-19</text>
<text transform='matrix(1 0 0 1 367.0 4006.0)' font-size='12'>ZDF3-11</text>
<text transform='matrix(1 0 0 1 494.0 4183.0)' font-size='12'>休息座位区</text>
<text transform='matrix(1 0 0 1 494.0 4131.0)' font-size='12'>休息座位区</text>
<text transform='matrix(1 0 0 1 494.0 4078.0)' font-size='12'>休息座位区</text>
<text transform='matrix(1 0 0 1 411.0 4085.0)' font-size='12'>休息座位区</text>
<text transform='matrix(1 0 0 1 346.0 4085.0)' font-size='12'>休息座位区</text>
<text transform='matrix(1 0 0 1 350.0 4133.0)' font-size='12'>休息座位区</text>
<text transform='matrix(1 0 0 1 419.0 4134.0)' font-size='12'>休息座位区</text>
<text transform='matrix(1 0 0 1 342.0 4196.0)' font-size='12'>休息座位区</text>
<text transform='matrix(1 0 0 1 409.0 4182.0)' font-size='12'>休息座位区</text>
<text transform='matrix(1 0 0 1 413.0 4237.0)' font-size='12'>休息座位区</text>
<text transform='matrix(1 0 0 1 344.0 4235.0)' font-size='12'>休息座位区</text>
<text transform='matrix(1 0 0 1 344.0 4357.0)' font-size='12'>休息座位区</text>
<text transform='matrix(1 0 0 1 413.0 4358.0)' font-size='12'>休息座位区</text>
<text transform='matrix(1 0 0 1 493.0 4356.0)' font-size='12'>休息座位区</text>
<text transform='matrix(1 0 0 1 494.0 4413.0)' font-size='12'>休息座位区</text>
<text transform='matrix(1 0 0 1 494.0 4465.0)' font-size='12'>休息座位区</text>
<text transform='matrix(1 0 0 1 410.0 4416.0)' font-size='12'>休息座位区</text>
<text transform='matrix(1 0 0 1 414.0 4466.0)' font-size='12'>休息座位区</text>
<text transform='matrix(1 0 0 1 344.0 4412.0)' font-size='12'>休息座位区</text>
<text transform='matrix(1 0 0 1 415.0 3974.0)' font-size='12'>休息座位区</text>
<text transform='matrix(1 0 0 1 496.0 3973.0)' font-size='12'>休息座位区</text>
<text transform='matrix(1 0 0 1 289.0 3889.0)' font-size='12'>走道</text>
<text transform='matrix(1 0 0 1 241.0 4171.0)' font-size='12'>楼梯</text>
<text transform='matrix(1 0 0 1 284.0 4181.0)' font-size='12'>楼梯</text>
<text transform='matrix(1 0 0 1 329.0 3819.0)' font-size='12'>正压送风室</text>
<text transform='matrix(1 0 0 1 496.0 3462.0)' font-size='12'>走道</text>
</svg>
