<?xml version="1.0" encoding="utf-8"?>
<!DOCTYPE svg PUBLIC "-//W3C//DTD SVG 1.1//EN" "http://www.w3.org/Graphics/SVG/1.1/DTD/svg11.dtd">
<svg version="1.1" id="svg" x="0px" y="0px" width="2041" height="559" viewBox="0 0 2040.167 558.75" enable-background="new 0 0 2040.167 558.75" xml:space="preserve" building_id="4710" city_id="0" floor_id="5402" building_name="厦门T4航站楼" building_spelling="xiamenT4" floor_num="5" floor_name="null" floor_type="出发层" floor_width="400" floor_height="90" regionID="35" floor_nameEN="f2" xmlns="http://www.w3.org/2000/svg" xmlns:xlink="http://www.w3.org/1999/xlink">
<g id="XMLID_1_">
	<g>
		<path fill="#C9DDD2" d="M971.46,165.77v15.26L918,180.97v-18.22V146c18.64,2.57,36.55,4.26,53.46,5.3V165.77z"></path>
		<polygon fill="#FFFFFF" points="1330.37,26 1330.39,34.67 1272.12,34.67 1239.75,34.67 1239.75,26 1275.25,26 1275.25,5.21     1325.17,5.21 1330.33,5.22   "></polygon>
		<path fill="#FFFFFF" d="M1020.5,181.03v0.05l-15.67-0.01v-0.04v-15.26v-13.21c5.36,0.07,10.59,0.09,15.67,0.05v0.02V181.03z"></path>
		<path fill="#FFFFFF" d="M1618.463,435.175c0,0.01,0,0.01,0,0.021c0,0.01,0,0.029,0.01,0.04c0.13,0.84,0.25,1.689,0.351,2.55    c0.01,0.12,0.02,0.25,0.04,0.38c0.05,0.5,0.09,1,0.12,1.5c0.119,1.68,0.14,3.38,0.06,5.06c-0.04,0.67-0.09,1.341-0.16,2    l-1.01,10.69c1.01,3.86,2.6,7.95,5.1,10.31c1.471,1.391,3.25,2.181,5.42,1.96c0.36-0.029,0.721-0.09,1.101-0.189    c0.51-0.12,1.03-0.29,1.57-0.521c0.27-0.119,0.55-0.239,0.829-0.39c0.71-0.35,1.44-0.8,2.21-1.35c1.61-1.15,2.48-3.41,2.931-5.521    c0.03-0.109,0.05-0.229,0.069-0.34c0.021-0.07,0.03-0.14,0.04-0.21c0.021-0.06,0.03-0.12,0.03-0.17    c0.11-0.54,0.18-1.061,0.23-1.53c0.17-1.46,0.16-2.52,0.16-2.52c-0.04-0.9-0.091-1.811-0.16-2.721    c-0.09-1.319-0.221-2.649-0.4-3.979c-0.66-5.14-1.939-10.311-4.28-14.811c0,0,0-0.01-0.01-0.01l-0.3,0.16    c-1.59-2.43-3.01-4.21-4.271-5.46c-0.67-0.67-1.3-1.19-1.899-1.58c-0.09-0.06-0.17-0.11-0.26-0.17    c-0.41-0.25-0.801-0.43-1.17-0.56C1620.253,426.235,1618.774,433.365,1618.463,435.175z M1810.003,378.755v175.24h-480h-0.5    l1.48-298.06h68.6v-4.31h23.92v-40.96h25.25h25.25h42.28v-22.67v-61.33v-42v-50h7.89v29.42v20.58v9.91v93.42v30.67v1.67h-54.28    h-36.39v31.29h36.39h54.28h34.66h0.3l-0.13,127.46L1810.003,378.755z M1722.503,464.495v-14.84h-4.75v-1.92h-22.17v1.92h-6.41    v14.84h6.41v2h22.17v-2H1722.503z M1673.263,441.135c2.42-2.479,3.91-5.899,3.91-9.68c0-7.57-5.97-13.71-13.34-13.71    c-7.36,0-13.33,6.14-13.33,13.71c0,7.56,5.97,13.7,13.33,13.7c1.15,0,2.27-0.15,3.34-0.431c0.42-0.109,0.84-0.25,1.25-0.399    c0.2-0.08,0.41-0.16,0.601-0.25C1670.624,443.385,1672.064,442.375,1673.263,441.135z M1624.414,417.745v-19.37h-2.16v19.37    H1624.414z M1618.833,539.335v-20.08h-89.33v20.08H1618.833z M1595.833,429.485c7.37,0,13.34-5.7,13.34-12.74    s-5.97-12.75-13.34-12.75c-7.36,0-13.33,5.71-13.33,12.75S1588.473,429.485,1595.833,429.485z M1558.553,462.325v-12.67h-3.47    v-1.92h-21.5v1.92h-5.08v12.67h5.08v1.88h21.5v-1.88H1558.553z M1495.143,539.335v-20.08h-41.97v20.08H1495.143z     M1432.503,462.325c0-5.25-4.03-9.5-9-9.5s-9,4.25-9,9.5s4.03,9.5,9,9.5S1432.503,467.575,1432.503,462.325z M1432.173,378.755    c0-5.11-3.729-9.26-8.34-9.26c-4.6,0-8.33,4.149-8.33,9.26s3.73,9.24,8.33,9.24    C1428.444,387.995,1432.173,383.865,1432.173,378.755z M1425.753,420.205v-17.39h-2.25v17.39H1425.753z M1392.503,455.755    c0-11.18-8.95-20.26-20-20.26c-10.75,0-19.52,8.61-19.97,19.38h-16.12v2h16.13c0.57,10.66,9.29,19.12,19.96,19.12    C1383.553,475.995,1392.503,466.934,1392.503,455.755z M1355.753,442.375v-2.33h-19.34v2.33H1355.753z"></path>
		<path fill="#D1E1F1" d="M567.5,94.57c0,0,0.69-0.15,1.98-0.4l0.02,0.09c-16.56,5.1-35.28,6.95-51.5,7.37v-15.8V63.67h-50.83V34.21    L567.5,34.4v0.25V94.57z"></path>
		<path fill="#FFFFFF" d="M525.253,134.255c0,0-31.99,5.69-0.51,11.9h9.16c30.52-6.46-0.48-11.9-0.48-11.9H525.253z     M1171.583,141.585c-16.34-0.15-34.37,0.37-50.41,2.41c0,0-39.49,8.17-100.67,8.62c-5.08,0.04-10.31,0.01-15.67-0.05    c-10.6-0.16-21.75-0.55-33.37-1.26c-16.91-1.04-34.82-2.73-53.46-5.31c0,0-29.17-5.33-77.5,4.34v12.66h-5.5v17.88h-16.5v6.12    h-33.33h-0.67h-164.75c1.25-24-11-32.33-11-32.33h-194.25h-13.44h-85.06h-50.06h-50.06h-57.21h-44v-65v-22.67v-0.33h2.24v-18.5    h-2.24v-14.62l47.16,0.08v1.04v45.67c0,0,4.67,18.66,25.67,21.66h110.08v3.55h7.67v-3.55h10.75h40.5c0,0,3.61-1.21,10.38-2.67    c7.61-1.66,19.21-3.62,34.18-4.54c17.69-1.09,40.08-0.71,66.11,3.42c3.38,0.53,6.83,1.13,10.33,1.79c0,0,17.79,2.23,40.5,1.63    c16.22-0.42,34.94-2.26,51.5-7.36l-0.02-0.1c5.97-1.17,24.89-4.65,49.02-6.42c20.34-1.5,44.39-1.79,67.5,1.53    c8.36,1.2,16.6,2.87,24.5,5.13c0,0,73.55,16.36,114.35,0.72c0,0,0.01,0,0.03-0.01c0.01,0,0.03-0.01,0.06-0.02    c2.43-0.73,54.7-16.24,102.06-1.6c0,0,9.64,4.08,26.17,6.34c13.19,1.83,30.77,2.5,51.33-0.96c5.18-0.88,10.54-2,16.08-3.44    c1.05-0.28,2.11-0.56,3.17-0.86c0,0,19.2-6.62,47.59-8.06c14.63-0.75,31.7-0.11,49.83,3.52c1.771,0.34,3.54,0.73,5.33,1.13    c0,0,10.79,2.36,28.5,4.96c10.98,1.61,24.62,3.32,40,4.62c5.771,0.48,11.79,0.91,18,1.26v3.66h9v-3.23    c5.86,0.24,11.88,0.4,18,0.46c10.46,0.09,21.22-0.11,32.12-0.71c19.41-1.07,39.229-3.42,58.38-7.61    c14.61-3.08,29.54-4.99,43.04-6.13c28.07-2.4,49.96-1.59,49.96-1.59v34.48v33.66v33h-201.5v-25.24v-18.76    C1222.003,143.995,1199.223,141.835,1171.583,141.585z M416.534,122.325l1.97-0.03v22.24h3.34v-22.28l6.09-0.09    c25.19-6.17,4.15-10.33,0-11.05h-0.01h-11.84h-0.03C412.284,111.945,390.204,117.205,416.534,122.325z M1229.503,131.065    c0-2.94-8.58-5.33-19.17-5.33c-10.58,0-19.16,2.39-19.16,5.33c0,2.95,8.58,5.34,19.16,5.34    C1220.923,136.405,1229.503,134.015,1229.503,131.065z M1158.083,131.065v-20.29h-2.91v20.29H1158.083z M1032.793,123.665    c0-3.22-8.2-5.83-18.33-5.83c-10.12,0-18.33,2.61-18.33,5.83c0,3.23,8.21,5.83,18.33,5.83    C1024.593,129.495,1032.793,126.895,1032.793,123.665z M967.253,140.205v-22.37h-3.27v22.37H967.253z M949.974,148.655v-3.66    h-8.06v3.66H949.974z"></path>
		<path fill="#FFFFFF" d="M2037.17,34.67V554H1810V378.75l-251,0.33l0.13-127.46l0.061-63.62l0.1-93.43l0.01-9.9l0.021-20.59    l0.029-29.41h0.42H1631h11H2037.17z M2028,524v-20.5h-51V524H2028z M2014,482v-17.5h-33V482H2014z M1981,214v-14.67h-38.5V214    H1981z M1967.5,105.5v-60H1928v60H1967.5z M1928,379v-63h-45.5v63H1928z"></path>
		<rect x="1642" y="5.54" fill="#FFFFFF" width="395.17" height="29.13"></rect>
		<rect x="1977" y="503.5" fill="#D4DDB2" width="51" height="20.5"></rect>
		<rect x="1981" y="464.5" fill="#D4DDB2" width="33" height="17.5"></rect>
		<rect x="1942.5" y="199.33" fill="#F6D6B1" width="38.5" height="14.67"></rect>
		<rect x="1928" y="45.5" fill="#D4DDB2" width="39.5" height="60"></rect>
		<rect x="1882.5" y="316" fill="#D4DDB2" width="45.5" height="63"></rect>
		<rect x="1689.17" y="449.65" fill="#F6D6B1" width="33.33" height="14.85"></rect>
		<path fill="#D1E1F0" d="M1663.83,417.74c7.37,0,13.34,6.14,13.34,13.71c0,7.569-5.97,13.7-13.34,13.7    c-7.36,0-13.33-6.131-13.33-13.7C1650.5,423.88,1656.47,417.74,1663.83,417.74z"></path>
		<polygon fill="#D4DDB2" points="1642,5.54 1642,34.67 1631,34.67 1631,26 1596,26 1596,5.54   "></polygon>
		<path fill="#F6D6B1" d="M1637.56,456.94c0,0,0.061,7.779-3.46,10.29c-9.71,6.909-14.159-1.95-16.229-9.82l1.02-10.68    c0.391-3.82,0.19-7.74-0.42-11.53c0.42-2.53,3.24-16.01,13.94,0.39l0.31-0.16C1636.09,441.91,1637.26,449.77,1637.56,456.94z"></path>
		<polygon fill="#FFFFFF" points="1631,26 1631,34.67 1559.77,34.67 1559.35,34.67 1559.38,5.54 1596,5.54 1596,26   "></polygon>
		<rect x="1529.5" y="519.25" fill="#D4DDB2" width="89.33" height="20.08"></rect>
		<path fill="#D1E1F0" d="M1609.17,416.74c0,7.04-5.97,12.74-13.34,12.74c-7.36,0-13.33-5.7-13.33-12.74    c0-7.03,5.97-12.74,13.33-12.74C1603.2,404,1609.17,409.71,1609.17,416.74z"></path>
		<polygon fill="#FFFFFF" points="1559.38,5.54 1559.35,34.67 1524.17,34.67 1516.28,34.67 1474,34.67 1423.5,34.67 1373.5,34.67     1363,34.67 1363,26 1330.5,26 1330.37,26 1330.33,5.22   "></polygon>
		<polygon fill="#D1E1F1" points="1559.35,34.67 1559.32,64.08 1524.17,64.08 1524.17,34.67   "></polygon>
		<polygon fill="#F6D6B1" points="1559.32,64.08 1559.3,84.67 1559.29,84.67 1524.17,84.67 1524.17,64.08   "></polygon>
		<polygon fill="#FFFFFF" points="1559.3,84.67 1559.29,94.57 1524.17,94.57 1524.17,84.67 1559.29,84.67   "></polygon>
		<polygon fill="#D1E1F1" points="1559.29,94.57 1559.19,188 1558.55,188 1524.17,188 1524.17,94.57   "></polygon>
		<polygon fill="#D1E1F1" points="1559.19,188 1559.13,251.62 1558.83,251.62 1524.17,251.62 1524.17,220.33 1524.17,218.67     1524.17,188 1558.55,188   "></polygon>
		<rect x="1528.5" y="449.65" fill="#F6D6B1" width="30.05" height="12.67"></rect>
		<rect x="1469.89" y="220.33" fill="#D1E1F1" width="54.28" height="31.29"></rect>
		<rect x="1474" y="188" fill="#D1E1F1" width="42.28" height="22.67"></rect>
		<polygon fill="#D1E1F1" points="1516.28,126.67 1516.28,188 1474,188 1474,155 1474,126.67   "></polygon>
		<polygon fill="#D1E1F1" points="1516.28,84.67 1516.28,126.67 1474,126.67 1474,121.33 1474,121 1474,93.5 1474,84.67   "></polygon>
		<rect x="1474" y="34.67" fill="#D1E1F1" width="42.28" height="50"></rect>
		<rect x="1453.17" y="519.25" fill="#D4DDB2" width="41.97" height="20.08"></rect>
		<rect x="1448.75" y="188" fill="#F6D6B1" width="25.25" height="22.67"></rect>
		<polygon fill="#D1E1F1" points="1474,155 1474,188 1448.75,188 1423.5,188 1423.5,155   "></polygon>
		<polygon fill="#D1E1F1" points="1474,126.67 1474,155 1423.5,155 1423.5,121.33 1474,121.33   "></polygon>
		<polygon fill="#D1E1F1" points="1474,121 1474,121.33 1423.5,121.33 1423.5,86.85 1423.5,34.67 1474,34.67 1474,84.67 1474,93.5       "></polygon>
		<rect x="1433.5" y="220.33" fill="#D1E1F1" width="36.39" height="31.29"></rect>
		<rect x="1423.5" y="188" fill="#F6D6B1" width="25.25" height="22.67"></rect>
		<path fill="#F6D6B1" d="M1423.5,452.82c4.97,0,9,4.25,9,9.5s-4.03,9.5-9,9.5s-9-4.25-9-9.5S1418.53,452.82,1423.5,452.82z"></path>
		<path fill="#F6D6B1" d="M1423.83,369.5c4.61,0,8.34,4.14,8.34,9.25s-3.729,9.25-8.34,9.25c-4.6,0-8.33-4.14-8.33-9.25    S1419.23,369.5,1423.83,369.5z"></path>
		<polygon fill="#F6D6B1" points="1423.5,210.67 1423.5,251.62 1331,251.62 1222,251.62 1222,231.25 1222,188 1423.5,188   "></polygon>
		<path fill="#D1E1F1" d="M1423.5,34.67v52.18c0,0-21.89-0.81-49.96,1.59l-0.04-0.5V34.67H1423.5z"></path>
		<path fill="#F6D6B1" d="M1372.503,435.495c11.05,0,20,9.08,20,20.26s-8.95,20.24-20,20.24c-10.67,0-19.39-8.46-19.96-19.12h3.21    v-2h-3.22C1352.984,444.105,1361.753,435.495,1372.503,435.495z"></path>
		<path fill="#D1E1F0" d="M1330.39,34.67l-0.02-8.67h0.13h32.5v8.67h10.5v53.27l0.04,0.5c-13.5,1.15-28.43,3.05-43.04,6.13    L1330.39,34.67z"></path>
		<path fill="#FFFFFF" d="M1215.814,435.115c0.619,3.79,0.81,7.71,0.43,11.52l-1.03,10.66v0.03c0,0.01,0.01,0.02,0.01,0.03    c0.091,0.359,0.19,0.72,0.301,1.079c0.1,0.37,0.22,0.74,0.34,1.11c0.42,1.29,0.899,2.561,1.47,3.75c0.4,0.85,0.85,1.65,1.35,2.38    c2.66,3.931,6.681,5.79,12.761,1.46c3.52-2.5,3.46-10.279,3.46-10.279c-0.29-7.171-1.46-15.03-4.84-21.511l-0.311,0.15    c-0.86-1.311-1.66-2.43-2.42-3.38c-0.21-0.28-0.43-0.53-0.64-0.78c-0.101-0.12-0.2-0.24-0.311-0.35c-0.2-0.23-0.399-0.45-0.6-0.65    c0,0,0,0,0-0.01c-0.101-0.101-0.19-0.19-0.29-0.29l-0.01-0.01c-0.101-0.101-0.19-0.19-0.28-0.28h-0.01    c-0.091-0.09-0.181-0.18-0.271-0.26c-0.01,0-0.01,0-0.01,0c-0.09-0.091-0.18-0.16-0.271-0.24h-0.01    c-0.09-0.08-0.18-0.16-0.26-0.23c-0.01,0-0.01,0-0.01,0c-0.09-0.069-0.17-0.14-0.261-0.199c-0.069-0.051-0.14-0.101-0.199-0.15    c-0.021-0.021-0.04-0.03-0.061-0.05h-0.01c-0.22-0.16-0.44-0.3-0.65-0.42c-0.04-0.021-0.069-0.04-0.1-0.051    c-0.08-0.05-0.16-0.09-0.23-0.13c-0.01,0-0.01,0-0.01,0c-0.08-0.04-0.16-0.08-0.229-0.109c-0.03-0.021-0.07-0.03-0.101-0.04    c-0.04-0.03-0.09-0.04-0.13-0.061h-0.01c-1.58-0.63-2.8-0.229-3.74,0.66c-0.08,0.061-0.16,0.141-0.229,0.23    c-0.07,0.08-0.15,0.16-0.221,0.25c-0.14,0.17-0.279,0.35-0.399,0.54c-0.061,0.1-0.13,0.199-0.181,0.3    c-0.13,0.2-0.239,0.399-0.34,0.6c-0.05,0.11-0.109,0.221-0.149,0.33c-0.11,0.21-0.2,0.42-0.28,0.641    c-0.09,0.21-0.17,0.43-0.24,0.649c-0.069,0.21-0.14,0.42-0.2,0.63C1216.074,433.684,1215.893,434.615,1215.814,435.115z     M727.563,396.295c6.61-23.03-7.56-20.54-7.56-20.54s-9.55,2.68-6.5,9c3.61,7.48,3.93,13.83,3.93,13.83h0.06    c-0.82,21.08,8.17,1.6,10.06-2.26c0-0.01,0.01-0.01,0.01-0.021V396.295z M1330.984,255.935l-1.48,298.06h-107.5l-0.25-34.74h-69.5    l0.25,34.74h-21.5v-21.5h-27v21.5h-167.35v-21.5h-51.65v21.5h-172.96h-0.54v-298.15h19.08v-3.18h25.67v78.09h62.25h12.08v3.12    h51.67v-3.12h24.75v3.12h48.58v-3.12h49.25h20.67h33.25v3.12h58.83v-3.12h35.33v3.12h55v-3.12h14.09v-4.21h3.061v-31.88h-3.061    v-41.33v-1.71h61v4.31H1330.984z M1325.833,390.335c0,0,6.92-13.71-8.33-14.34c-16,8.67,2.67,32.67,2.67,32.67    s5.95,2.09,3.45-4.91S1325.833,390.335,1325.833,390.335z M1283.003,444.155c0-6.99-6.04-12.67-13.5-12.67s-13.5,5.68-13.5,12.67    c0,7,6.04,12.67,13.5,12.67S1283.003,451.155,1283.003,444.155z M1228.793,385.285c1.67-1.67,2.71-3.98,2.71-6.53    c0-5.11-4.14-9.26-9.25-9.26s-9.25,4.149-9.25,9.26c0,2.55,1.04,4.86,2.71,6.53c0.72,0.729,1.58,1.34,2.53,1.8    c0.27,0.13,0.55,0.25,0.83,0.35c0.279,0.101,0.569,0.19,0.87,0.271c0.739,0.189,1.51,0.29,2.31,0.29s1.57-0.101,2.311-0.29    c0.3-0.08,0.59-0.17,0.869-0.271c0.28-0.1,0.561-0.22,0.83-0.35C1227.213,386.625,1228.074,386.014,1228.793,385.285z     M1225.043,417.545v-15.6h-2.79v15.6H1225.043z M1117.503,464.495v-14.84h-4.25v-2.11h-21.17v2.11h-6.08v14.84h6.08v1.71h21.17    v-1.71H1117.503z M1029.183,378.755c0-5.11-4.02-9.26-8.979-9.26c-4.97,0-8.99,4.149-8.99,9.26s4.02,9.24,8.99,9.24    C1025.164,387.995,1029.183,383.865,1029.183,378.755z M1029.183,462.325c0-5.25-4.02-9.5-8.979-9.5c-4.97,0-8.99,4.25-8.99,9.5    s4.02,9.5,8.99,9.5C1025.164,471.825,1029.183,467.575,1029.183,462.325z M1021.253,419.545v-17.6h-2.5v17.6H1021.253z     M915.003,464.495v-14.84h-4.09v-2.11h-20.5v2.11h-5.41v14.84h5.41v1.71h20.5v-1.71H915.003z M814.374,469.995    c8.15-2.04,13.63-9.84,11.77-17.94c-1.48-6.42-1.12-10.39-1.12-10.39c0.38-3.15,0.74-7.15-1-9.97c-0.27-0.44-0.57-0.801-0.9-1.11    c-2.18-2-5.58-1.35-8.4-0.1c-0.14,0.06-0.28,0.12-0.41,0.189c-0.41,0.19-0.8,0.391-1.17,0.601c-0.13,0.069-0.25,0.14-0.37,0.21    C790.773,462.474,814.374,469.995,814.374,469.995z M819.414,421.545v-19.6h-2.04v19.6H819.414z M819.644,517.495    c0-9.66-22.88-17.5-51.1-17.5c-28.23,0-51.11,7.84-51.11,17.5c0,9.68,22.88,17.5,51.11,17.5    C796.764,534.995,819.644,527.175,819.644,517.495z"></path>
		<path fill="#D1E1F0" d="M1330.39,34.67l0.11,59.9c-19.15,4.19-38.97,6.54-58.38,7.61v-0.01v-67.5H1330.39z"></path>
		<path fill="#F6D6B1" d="M1317.5,376c15.25,0.62,8.33,14.33,8.33,14.33s-4.71,6.42-2.21,13.42s-3.45,4.92-3.45,4.92    S1301.5,384.67,1317.5,376z"></path>
		<path fill="#D1E1F0" d="M1269.5,431.48c7.46,0,13.5,5.68,13.5,12.67c0,7-6.04,12.67-13.5,12.67s-13.5-5.67-13.5-12.67    C1256,437.16,1262.04,431.48,1269.5,431.48z"></path>
		<polygon fill="#D4DDB2" points="1275.25,5.21 1275.25,26 1239.75,26 1239.75,34.67 1228,34.67 1228,5.21   "></polygon>
		<path fill="#D1E1F1" d="M1272.12,102.17v0.01c-10.9,0.6-21.66,0.8-32.12,0.71l-0.25-68.22h32.37V102.17z"></path>
		<path fill="#FFFFFF" d="M1239.75,34.67l0.25,68.22c-15.96-0.15-31.18-0.99-45-2.15v-0.01V34.67h33H1239.75z"></path>
		<path fill="#F6D6B1" d="M1234.9,456.85c0,0,0.06,7.78-3.46,10.28c-9.71,6.91-14.16-1.939-16.221-9.81l1.021-10.69    c0.38-3.81,0.189-7.729-0.431-11.52c0.421-2.53,3.24-16.011,13.94,0.39l0.31-0.16C1233.44,441.82,1234.61,449.68,1234.9,456.85z"></path>
		<circle fill="#F6D6B1" cx="1222.25" cy="378.75" r="9.25"></circle>
		<polygon fill="#FFFFFF" points="1228,5.21 1228,34.67 1195,34.67 1155,34.67 1121.17,34.67 1071.33,34.67 1020.5,34.67     1015.08,34.67 1015.17,26 1052.5,26.67 1052.5,5.21   "></polygon>
		<path fill="#D1E1F0" d="M1210.33,125.73c10.59,0,19.17,2.39,19.17,5.33c0,2.95-8.58,5.34-19.17,5.34    c-10.58,0-19.16-2.39-19.16-5.34C1191.17,128.12,1199.75,125.73,1210.33,125.73z"></path>
		<polygon fill="#F6D6B1" points="1155.17,294.67 1200,294.67 1222,294.67 1222,330.75 1025.5,330.75 1025.5,273.5 1058.5,273.5     1133.25,273.5 1133.25,229.75 1133.25,198 1095.5,198 1070,198 1040.25,198 1040.25,181.11 1155.17,181.23 1155.17,181.25     1155.17,253.33   "></polygon>
		<rect x="1200" y="253.33" fill="#F6D6B1" width="22" height="41.34"></rect>
		<polygon fill="#F6D6B1" points="1222,251.62 1222,253.33 1200,253.33 1171.58,253.33 1171.58,211 1190,211 1190,231.25     1222,231.25   "></polygon>
		<polygon fill="#F6D6B1" points="1222,188 1222,231.25 1190,231.25 1190,211 1200.17,211 1200.17,162.75 1222,162.75   "></polygon>
		<path fill="#D4DDB2" d="M1222,144v18.75h-21.83V211H1190h-18.42v-29.75v-39.66C1199.22,141.83,1222,144,1222,144z"></path>
		<polygon fill="#F6D6B1" points="1221.75,519.25 1222,554 1152.5,554 1152.25,519.25   "></polygon>
		<polygon fill="#F6D6B1" points="1200,253.33 1200,294.67 1155.17,294.67 1155.17,253.33 1171.58,253.33   "></polygon>
		<path fill="#D1E1F1" d="M1195,100.73v0.01c-15.38-1.3-29.02-3.01-40-4.62V34.67h40V100.73z"></path>
		<polygon fill="#F6D6B1" points="1171.58,211 1171.58,253.33 1155.17,253.33 1155.17,181.25 1155.17,181.23 1171.58,181.25   "></polygon>
		<path fill="#D1E1F0" d="M1040.25,181.11l-19.75-0.03v-0.05v-28.4v-0.02c61.18-0.45,100.67-8.61,100.67-8.61    c16.04-2.04,34.07-2.57,50.41-2.41v39.66l-16.41-0.02L1040.25,181.11z"></path>
		<path fill="#D1E1F1" d="M1155,34.67v61.45c-17.71-2.6-28.5-4.95-28.5-4.95c-1.79-0.41-3.56-0.79-5.33-1.14V34.67H1155z"></path>
		<polygon fill="#F6D6B1" points="1133.25,229.75 1133.25,273.5 1058.5,273.5 1058.75,229.75 1070,229.75 1095.5,229.75   "></polygon>
		<rect x="1095.5" y="198" fill="#F6D6B1" width="37.75" height="31.75"></rect>
		<rect x="1104" y="532.5" fill="#F6D6B1" width="27" height="21.5"></rect>
		<path fill="#D1E1F1" d="M1121.17,34.67v55.36c-18.13-3.63-35.2-4.27-49.83-3.52l-0.01-0.27V34.67H1121.17z"></path>
		<rect x="1086" y="449.65" fill="#F6D6B1" width="31.5" height="14.85"></rect>
		<rect x="1070" y="198" fill="#F6D6B1" width="25.5" height="31.75"></rect>
		<path fill="#D1E1F1" d="M1071.33,86.24l0.01,0.27c-28.39,1.44-47.59,8.06-47.59,8.06c-1.06,0.3-2.12,0.58-3.17,0.86l-0.08-0.31    V34.67h50.83V86.24z"></path>
		<polygon fill="#F6D6B1" points="1070,198 1070,229.75 1058.75,229.75 1040.21,229.75 1040.25,198   "></polygon>
		<polygon fill="#FFFFFF" points="1058.75,229.75 1058.5,273.5 1025.5,273.5 1004.83,273.5 956.5,273.5 956.5,244.75 971.46,244.75     971.46,251.5 1040.19,251.42 1040.21,229.75   "></polygon>
		<polygon fill="#D4DDB2" points="1052.5,5.21 1052.5,26.67 1015.17,26 1015.08,34.67 1004.5,34.67 1004.5,5.21   "></polygon>
		<polygon fill="#D2DCB2" points="1040.25,181.11 1040.25,198 1040.21,229.75 1040.19,251.42 971.46,251.5 971.46,244.75     971.46,198.62 971.46,198 971.46,181.03 1004.83,181.07 1020.5,181.08   "></polygon>
		<path fill="#D1E1F0" d="M1014.46,117.83c10.13,0,18.33,2.61,18.33,5.84c0,3.22-8.2,5.83-18.33,5.83    c-10.12,0-18.33-2.61-18.33-5.83C996.13,120.44,1004.34,117.83,1014.46,117.83z"></path>
		<path fill="#F6D6B1" d="M1020.2,369.5c4.96,0,8.979,4.14,8.979,9.25s-4.02,9.25-8.979,9.25c-4.97,0-8.99-4.14-8.99-9.25    S1015.23,369.5,1020.2,369.5z"></path>
		<path fill="#F6D6B1" d="M1020.2,452.82c4.96,0,8.979,4.25,8.979,9.5s-4.02,9.5-8.979,9.5c-4.97,0-8.99-4.25-8.99-9.5    S1015.23,452.82,1020.2,452.82z"></path>
		<polygon fill="#FFFFFF" points="1025.5,273.5 1025.5,330.75 1004.83,330.75 1004.83,273.83 1004.83,273.5   "></polygon>
		<path fill="#FFFFFF" d="M1020.5,95.12l0.08,0.31c-5.54,1.44-10.9,2.57-16.08,3.44v-64.2h10.58h5.42V95.12z"></path>
		<polygon fill="#F6D6B1" points="918,180.97 971.46,181.03 971.46,198 906,198 906,229.75 906,273.5 956.5,273.5 1004.83,273.5     1004.83,273.83 1004.83,330.75 818.5,330.75 818.5,294.67 855,294.67 884.17,294.67 884.17,253.12 884.17,253 884.17,180.93   "></polygon>
		<polygon fill="#F6D6B1" points="1004.83,181.03 1004.83,181.07 971.46,181.03 971.46,165.77 1004.83,165.77   "></polygon>
		<path fill="#D1E1F0" d="M1004.83,152.56v13.21h-33.37V151.3C983.08,152.01,994.23,152.4,1004.83,152.56z"></path>
		<path fill="#D1E1F1" d="M1004.5,34.67v64.2c-20.56,3.46-38.14,2.79-51.33,0.97V34.67H1004.5z"></path>
		<polygon fill="#FFFFFF" points="710.33,5.25 710.33,5.21 1004.5,5.21 1004.5,34.67 953.17,34.67 710.5,34.67 702,34.65 702,5.25       "></polygon>
		<polygon fill="#F6D6B1" points="971.46,198.62 971.46,244.75 956.5,244.75 956.5,229.75 906,229.75 906,198 971.46,198   "></polygon>
		<polygon fill="#F6D6B1" points="956.5,244.75 956.5,273.5 906,273.5 906,229.75 956.5,229.75   "></polygon>
		<path fill="#D1E1F1" d="M824.88,95.11c-0.02,0.01-0.03,0.01-0.03,0.01c-40.8,15.64-114.35-0.72-114.35-0.72V34.67h242.67v65.17    C936.64,97.57,927,93.5,927,93.5C879.13,78.69,826.24,94.7,824.88,95.11z"></path>
		<rect x="885" y="532.5" fill="#F6D6B1" width="51.65" height="21.5"></rect>
		<polygon fill="#D4DDB2" points="918,162.75 918,180.97 884.17,180.93 835,180.88 835,163 840.5,163   "></polygon>
		<path fill="#D1E1F0" d="M918,146v16.75L840.5,163v-12.67C888.83,140.67,918,146,918,146z"></path>
		<rect x="885" y="449.65" fill="#F6D6B1" width="30" height="14.85"></rect>
		<polygon fill="#F6D6B1" points="884.17,253.12 884.17,294.67 855,294.67 855,264.75 855,253.07 883.62,253.12   "></polygon>
		<polygon fill="#F6D6B1" points="855,253.07 818.5,253 818.5,232 818.5,187 818.5,180.88 835,180.88 884.17,180.93 884.17,253     884.17,253.12 883.62,253.12   "></polygon>
		<rect x="818.5" y="264.75" fill="#F6D6B1" width="36.5" height="29.92"></rect>
		<polygon fill="#F6D6B1" points="855,253.07 855,264.75 818.5,264.75 818.5,253   "></polygon>
		<path fill="#F6D6B1" d="M826.14,452.06c1.86,8.091-3.62,15.891-11.77,17.94c0,0-23.601-7.53-1.601-38.52    c3.391-1.98,8.801-3.78,11.25,0.21c1.74,2.829,1.381,6.829,1,9.97C825.02,441.66,824.66,445.63,826.14,452.06z"></path>
		<polygon fill="#F6D6B1" points="818.5,294.67 818.5,330.75 756.25,330.75 756.25,252.67 784.5,252.67 818.5,253 818.5,264.75       "></polygon>
		<polygon fill="#F6D6B1" points="818.5,232 818.5,253 784.5,252.67 784.5,232   "></polygon>
		<polygon fill="#F6D6B1" points="818.5,187 818.5,232 784.5,232 784.5,187 785.17,187   "></polygon>
		<path fill="#F6D6B1" d="M768.54,500c28.22,0,51.1,7.83,51.1,17.5s-22.88,17.5-51.1,17.5c-28.23,0-51.11-7.83-51.11-17.5    S740.31,500,768.54,500z"></path>
		<polygon fill="#F6D6B1" points="619.87,235 619.75,188.5 619.75,187 784.5,187 784.5,232 784.5,252.67 756.25,252.67     711.5,252.67 619.92,252.67   "></polygon>
		<path fill="#F6D6B1" d="M717.49,398.58h-0.061c0,0-0.319-6.35-3.93-13.83c-3.05-6.32,6.5-9,6.5-9s14.17-2.49,7.56,20.55    C725.69,400.13,716.67,419.69,717.49,398.58z"></path>
		<path fill="#FFFFFF" d="M711.503,255.845v298.15h-495.62v-29.82v-69.68v-20v-32.5h-89.88l-0.08,32.03h-10.59v-0.051l-0.25-42.479    h-88.33v42.5h16v33.5l-15.78-0.24l-0.14,16h37.67v21.92H5.074l0.2-125.92h46.86h17.62h29.25v-21v-21h-29.25h-28H5.333l0.02-9.5    h0.15h36.25h57.25v-32.84v-34.16h-57.25H5.503h-0.05l0.01-8.5h0.04h36.25h28h29.25v-24.5v-101.26v-22.5v-14.3l15.67-0.03v65v47.83    l-0.67,64.26v27.5v22.62v22.12v40.26h25.75h20.5h23.5h0.75h31.38v-48v-8h16.37h68h31.66v2.95h39v-2.95h29.92h18.25v2.95h57.98    v-2.95h17.94h27.91v2.95h51.34v-2.95h45.13l0.37-48.37v37.82h3.16v-38.83h-3.15l0.16-21.21h10.99v3.18H711.503z M706.333,466.125    v-1.75h-19.25v1.75H706.333z M706.333,450.745v-1.87h-18.04v1.87H706.333z M668.633,475.825c10.86,0,19.66-8.521,19.66-19    c0-10.49-8.8-19-19.66-19c-10.86,0-19.67,8.51-19.67,19C648.963,467.304,657.773,475.825,668.633,475.825z M619.383,386.585    c5.03,0,9.12-3.92,9.12-8.75c0-4.84-4.09-8.75-9.12-8.75c-5.04,0-9.13,3.91-9.13,8.75    C610.253,382.665,614.343,386.585,619.383,386.585z M621.083,420.545v-20.05h-1.71v20.05H621.083z M587.753,540.995v-24.5h-40.5    v24.5h1.5H587.753z M557.894,432.755c0-7.18-5.65-13-12.62-13c-6.98,0-12.63,5.82-12.63,13s5.65,13,12.63,13    C552.244,445.755,557.894,439.934,557.894,432.755z M517.333,461.995v-11.25h-4.75v-1.87h-21.75v1.87h-5.66v11.25h5.66v2h21.75v-2    H517.333z M510.753,540.995v-24.5h-85.49h-2.26v24.5H510.753z M489.193,418.105c0-7.12-5.43-12.9-12.13-12.9    c-6.69,0-12.12,5.78-12.12,12.9c0,7.119,5.43,12.89,12.12,12.89C483.764,430.995,489.193,425.224,489.193,418.105z     M413.124,469.995c8.15-2.04,13.64-9.84,11.77-17.94c-1.48-6.42-1.12-10.39-1.12-10.39c0.39-3.15,0.74-7.15-1-9.97    c-0.27-0.44-0.57-0.801-0.9-1.11c-2.18-2-5.58-1.35-8.4-0.1c-0.14,0.06-0.28,0.12-0.41,0.189c-0.41,0.19-0.8,0.391-1.17,0.601    c-0.13,0.069-0.25,0.14-0.37,0.21C389.523,462.474,413.124,469.995,413.124,469.995z M425.784,377.835c0-4.84-3.92-8.75-8.75-8.75    c-4.83,0-8.75,3.91-8.75,8.75c0,4.83,3.92,8.75,8.75,8.75C421.863,386.585,425.784,382.665,425.784,377.835z M419.083,421.375    v-20.88h-2.05v20.88H419.083z M352.173,461.995v-11.25h-4.26v-2.2h-23v2.2h-4.91v11.25h4.91v2.05h23v-2.05H352.173z     M323.503,387.155c9.25-13.86-3.5-19.16-3.5-19.16c-26.25-3.5-10.25,38.5-10.25,38.5c4,8.26,8.25,1.26,8.25,1.26    C319.003,391.755,323.503,387.155,323.503,387.155z"></path>
		<path fill="#FFFFFF" d="M690.41,34.63L702,34.65l8.5,0.02V94.4c-7.9-2.26-16.14-3.93-24.5-5.13v-54.6v-0.05L690.41,34.63z"></path>
		<polygon fill="#D4DDB2" points="702,5.25 702,34.65 690.41,34.63 690.46,25.17 654.96,25.17 654.96,5.25   "></polygon>
		<polygon fill="#FFFFFF" points="690.46,25.17 690.41,34.63 686,34.62 618.5,34.49 567.5,34.4 467.17,34.21 411.5,34.1     411.5,25.25 447.81,25.25 447.81,5.25 654.96,5.25 654.96,25.17   "></polygon>
		<path fill="#D1E1F1" d="M686,34.67v54.6c-23.11-3.31-47.16-3.03-67.5-1.53V34.49l67.5,0.13V34.67z"></path>
		<path fill="#F6D6B1" d="M668.63,437.82c10.86,0,19.66,8.51,19.66,19c0,10.489-8.8,19-19.66,19c-10.86,0-19.67-8.511-19.67-19    C648.96,446.33,657.77,437.82,668.63,437.82z"></path>
		<path fill="#F6D6B1" d="M619.38,369.08c5.03,0,9.12,3.92,9.12,8.75s-4.09,8.75-9.12,8.75c-5.04,0-9.13-3.92-9.13-8.75    S614.34,369.08,619.38,369.08z"></path>
		<polygon fill="#F6D6B1" points="619.87,235 619.92,252.67 590.83,252.67 590.83,235   "></polygon>
		<polygon fill="#D1E1F0" points="619.92,252.67 619.38,323.25 572.17,323.25 572.17,252.67 590.83,252.67   "></polygon>
		<polygon fill="#F6D6B1" points="619.75,188.5 619.87,235 590.83,235 590.83,188.5   "></polygon>
		<path fill="#F6D6B1" d="M608.75,154.67c0,0,12.25,8.33,11,32.33c-5-19.25-12.92-18.25-12.92-18.25h-44.58h-36.17H495h-32.75V190    h-20h-20.26h-7.49v-3v-18.25v-14.08H608.75z"></path>
		<path fill="#D1E1F0" d="M619.75,187v1.5h-28.92V235v17.67h-18.66h-9.92v-83.92h44.58C606.83,168.75,614.75,167.75,619.75,187z"></path>
		<path fill="#D1E1F1" d="M618.5,34.49v53.25c-24.13,1.77-43.05,5.25-49.02,6.43c-1.29,0.25-1.98,0.4-1.98,0.4V34.65V34.4    L618.5,34.49z"></path>
		<polygon fill="#D4DDB2" points="587.75,516.5 587.75,541 548.75,541 547.25,541 547.25,516.5   "></polygon>
		<polygon fill="#D1E1F0" points="572.17,252.67 572.17,323.25 526.08,323.25 526.08,252.67 562.25,252.67   "></polygon>
		<polygon fill="#D1E1F0" points="562.25,168.75 562.25,252.67 526.08,252.67 526.08,251.83 526.08,169.33 526.08,168.75   "></polygon>
		<path fill="#D1E1F0" d="M545.27,419.75c6.97,0,12.62,5.82,12.62,13s-5.65,13-12.62,13c-6.98,0-12.63-5.82-12.63-13    S538.29,419.75,545.27,419.75z"></path>
		<path fill="#D1E1F0" d="M533.42,134.25c0,0,31,5.44,0.48,11.9h-9.16c-31.48-6.21,0.51-11.9,0.51-11.9H533.42z"></path>
		<rect x="495" y="252.67" fill="#D1E1F0" width="31.08" height="70.58"></rect>
		<polygon fill="#D1E1F0" points="526.08,251.83 526.08,252.67 495,252.67 495,168.75 526.08,168.75 526.08,169.33   "></polygon>
		<path fill="#D1E1F1" d="M518,85.83v15.8c-22.71,0.59-40.5-1.63-40.5-1.63c-3.5-0.67-6.95-1.27-10.33-1.8V85.83H518z"></path>
		<polygon fill="#D4DDB2" points="518,63.67 518,85.83 467.17,85.83 418.5,85.83 418.5,63.67 467.17,63.67   "></polygon>
		<rect x="485.17" y="450.74" fill="#F6D6B1" width="32.16" height="11.26"></rect>
		<polygon fill="#D4DDB2" points="510.75,516.5 510.75,541 423,541 423,516.5 425.26,516.5   "></polygon>
		<polygon fill="#D1E1F0" points="495,252.67 495,323.25 462.5,323.25 462.33,252.67   "></polygon>
		<polygon fill="#D1E1F0" points="495,168.75 495,252.67 462.33,252.67 462.17,208.75 442.25,208.75 442.25,190 462.25,190     462.25,168.75   "></polygon>
		<path fill="#D1E1F0" d="M477.06,405.21c6.7,0,12.13,5.771,12.13,12.89c0,7.12-5.43,12.891-12.13,12.891    c-6.69,0-12.12-5.771-12.12-12.891C464.94,410.98,470.37,405.21,477.06,405.21z"></path>
		<path fill="#FFFFFF" d="M467.17,85.83V98.2c-26.03-4.13-48.42-4.51-66.11-3.42v-60.7l10.44,0.02l55.67,0.11v29.46H418.5v22.16    H467.17z"></path>
		<polygon fill="#FFFFFF" points="462.33,252.67 462.5,323.25 435.25,323.25 435.25,323 435.25,252.67   "></polygon>
		<polygon fill="#F6D6B1" points="462.17,208.75 462.33,252.67 435.25,252.67 435.25,242.5 367,242.5 367,210.75 367,208.75     391.25,208.75 412.25,208.75 421.99,208.75 442.25,208.75   "></polygon>
		<polygon fill="#D4DDB2" points="447.81,5.25 447.81,25.25 411.5,25.25 411.5,34.1 401.06,34.08 401.06,5.25   "></polygon>
		<rect x="421.99" y="190" fill="#D4DDB2" width="20.26" height="18.75"></rect>
		<polygon fill="#D1E1F0" points="435.25,323 435.25,323.25 400.83,323.25 400.83,323 400.83,264.33 367,264.38 367,264 367,242.5     435.25,242.5 435.25,252.67   "></polygon>
		<path fill="#D1E1F0" d="M427.93,111.11c4.15,0.72,25.19,4.88,0,11.06l-11.4,0.15c-26.33-5.12-4.25-10.38-0.48-11.21h0.03h11.84    H427.93z"></path>
		<path fill="#F6D6B1" d="M424.89,452.06c1.87,8.091-3.62,15.891-11.77,17.94c0,0-23.6-7.53-1.6-38.52    c3.39-1.98,8.8-3.78,11.25,0.21c1.74,2.829,1.39,6.829,1,9.97C423.77,441.66,423.41,445.63,424.89,452.06z"></path>
		<path fill="#F6D6B1" d="M417.03,369.08c4.83,0,8.75,3.92,8.75,8.75s-3.92,8.75-8.75,8.75c-4.83,0-8.75-3.92-8.75-8.75    S412.2,369.08,417.03,369.08z"></path>
		<polygon fill="#F6D6B1" points="421.99,190 421.99,208.75 412.25,208.75 412.25,190 414.5,190   "></polygon>
		<polygon fill="#F6D6B1" points="414.5,187 414.5,190 412.25,190 410.19,190 391.25,190 391.25,208.75 367,208.75 367,187   "></polygon>
		<polygon fill="#D4DDB2" points="414.5,168.75 414.5,187 367,187 343.75,187 343.75,168.75   "></polygon>
		<polygon fill="#D1E1F0" points="414.5,154.67 414.5,168.75 343.75,168.75 343.75,187 367,187 367,208.75 367,210.75 316,210.75     316,154.67 401.06,154.67   "></polygon>
		<polygon fill="#D4DDB2" points="412.25,190 412.25,208.75 391.25,208.75 391.25,190 410.19,190   "></polygon>
		<path fill="#D1E1F1" d="M401.06,34.08v60.7c-14.97,0.92-26.57,2.89-34.18,4.54v-65.3l33.62,0.06H401.06z"></path>
		<polygon fill="#FFFFFF" points="114.67,33.54 5.5,33.33 5.5,5.25 401.06,5.25 401.06,34.08 400.5,34.08 366.88,34.02 316,33.92     161.83,33.63   "></polygon>
		<polygon fill="#D1E1F0" points="400.83,323 400.83,323.25 367,323.25 367,323 367,264.38 400.83,264.33   "></polygon>
		<polygon fill="#D1E1F0" points="367,323 367,323.25 334.17,323.25 334.17,251.75 334.17,242.5 367,242.5 367,264 367,264.38   "></polygon>
		<polygon fill="#F6D6B1" points="367,210.75 367,242.5 334.17,242.5 316,242.5 316,210.75   "></polygon>
		<path fill="#D1E1F1" d="M366.88,34.02v65.3c-6.77,1.46-10.38,2.68-10.38,2.68H316V34v-0.08L366.88,34.02z" tisShop="0" ttype="其他" tcategory="其他"></path>
		<rect x="320" y="450.74" fill="#F6D6B1" width="32.17" height="11.26"></rect>
		<polygon fill="#D1E1F0" points="334.17,251.75 334.17,323.25 300.25,323.25 300.25,294.92 300.25,273.31 300.25,251.75   "></polygon>
		<path fill="#F6D6B1" d="M320,368c0,0,12.75,5.29,3.5,19.15c0,0-4.5,4.6-5.5,20.6c0,0-4.25,7-8.25-1.25    C309.75,406.5,293.75,364.5,320,368z"></path>
		<rect x="271.25" y="210.75" fill="#F6D6B1" width="44.75" height="31.75"></rect>
		<polygon fill="#D1E1F0" points="316,154.67 316,210.75 271.25,210.75 265.94,210.75 265.94,154.67   "></polygon>
		<path fill="#FFFFFF" d="M316,34v68H187.5c-21-3-25.67-21.67-25.67-21.67V34.67v-1.04L316,33.92V34z M300.75,88.75V70h-83.5v18.75    H300.75z M238.92,68V48.5h-21.67V68H238.92z"></path>
		<rect x="217.25" y="70" fill="#D4DDB2" width="83.5" height="18.75"></rect>
		<rect x="232.25" y="294.92" fill="#D1E1F0" width="68" height="28.33"></rect>
		<polygon fill="#F6D6B1" points="300.25,273.31 300.25,294.92 232.25,294.92 232.25,273.31 266.25,273.31   "></polygon>
		<rect x="266.25" y="251.75" fill="#F6D6B1" width="34" height="21.56"></rect>
		<polygon fill="#F6D6B1" points="271.25,210.75 271.25,242.5 215.88,242.5 215.88,210.75 265.94,210.75   "></polygon>
		<rect x="232.25" y="251.75" fill="#F6D6B1" width="34" height="21.56"></rect>
		<rect x="215.88" y="154.67" fill="#D1E1F0" width="50.06" height="56.08"></rect>
		<rect x="217.25" y="48.5" fill="#D4DDB2" width="21.67" height="19.5"></rect>
		<polygon fill="#FFFFFF" points="215.88,524.17 215.88,554 5,554 5.05,524.17 64.5,524.17 115.33,524.17   "></polygon>
		<polygon fill="#F6D6B1" points="215.88,454.5 215.88,524.17 115.33,524.17 115.33,434.02 125.92,434.02 125.92,454.5   "></polygon>
		<polygon fill="#D4DDB2" points="215.88,434.5 215.88,454.5 125.92,454.5 125.92,434.02   "></polygon>
		<polygon fill="#D2DCB2" points="215.88,402 215.88,434.5 125.92,434.02 126,402   "></polygon>
		<polygon fill="#D1E1F0" points="215.88,331.25 215.88,379.25 184.5,379.25 183.75,379.25 183.75,331.25   "></polygon>
		<polygon fill="#F6D6B1" points="215.88,323.25 215.88,331.25 183.75,331.25 183.75,317 160.5,317 160.5,294.92 215.88,294.92       "></polygon>
		<polygon fill="#F8DFB6" points="215.88,266.75 215.88,294.92 160.5,294.92 160.5,294.25 160.5,266.75   "></polygon>
		<polygon fill="#F6D6B1" points="215.88,242.5 215.88,266.75 160.5,266.75 158.67,266.75 158.62,210.75 215.88,210.75   "></polygon>
		<polygon fill="#D2DCB2" points="158.62,202.5 158.62,182.5 158.67,154.67 215.88,154.67 215.88,210.75 158.62,210.75   "></polygon>
		<polygon fill="#FFFFFF" points="160.41,339 160.5,317 183.75,317 183.75,331.25 183.75,379.25 160.25,379.25 160.35,354.12   "></polygon>
		<polygon fill="#D2DCB2" points="160.5,294.92 160.5,317 114,316.88 114,294.25 160.5,294.25   "></polygon>
		<polygon fill="#D2DCB2" points="160.5,266.75 160.5,294.25 114,294.25 114,266.75 158.67,266.75   "></polygon>
		<polygon fill="#D4DDB2" points="160.5,317 160.41,339 139.75,339 114,339 114,316.88   "></polygon>
		<polygon fill="#D4DDB2" points="160.41,339 160.35,354.12 139.75,354.12 139.75,339   "></polygon>
		<polygon fill="#F6D6B1" points="160.35,354.12 160.25,379.25 139.75,379.25 139.75,354.12   "></polygon>
		<polygon fill="#D1E1F0" points="158.67,154.67 158.62,182.5 135.75,182.5 135.75,202.5 114.67,202.5 114.67,154.67   "></polygon>
		<polygon fill="#F6D6B1" points="158.62,210.75 158.67,266.75 114,266.75 114.67,202.5 135.75,202.5 158.62,202.5   "></polygon>
		<rect x="135.75" y="182.5" fill="#F6D6B1" width="22.87" height="20"></rect>
		<polygon fill="#F6D6B1" points="139.75,354.12 139.75,379.25 114,379.25 114,339 139.75,339   "></polygon>
		<polygon fill="#F6D6B1" points="115.33,434.02 115.33,524.17 64.5,524.17 64.5,505.17 64.5,483.25 64.5,467.5 42.75,467.5     42.75,434   "></polygon>
		<polygon fill="#D2DCB2" points="115.33,433.97 115.33,434.02 42.75,434 26.75,434 26.75,391.5 115.08,391.5   "></polygon>
		<polygon fill="#F6D6B1" points="114.67,67 114.67,89.67 99,89.69 94.06,89.69 94.29,67   "></polygon>
		<polygon fill="#D4DDB2" points="114.67,48.17 114.67,67 94.29,67 94.48,48.17   "></polygon>
		<polygon fill="#D1E1F0" points="114.67,33.54 114.67,48.17 94.48,48.17 94.5,45.75 75,45.75 75,89.56 75,104 99,104 99,126.5     5.5,126.5 5.5,33.33   "></polygon>
		<rect x="69.75" y="358.25" fill="#F6D6B1" width="29.25" height="21"></rect>
		<rect x="69.75" y="337.25" fill="#F6D6B1" width="29.25" height="21"></rect>
		<rect x="41.75" y="294.92" fill="#F6D6B1" width="57.25" height="32.83"></rect>
		<rect x="41.75" y="260.75" fill="#F6D6B1" width="57.25" height="34.17"></rect>
		<rect x="69.75" y="227.75" fill="#F6D6B1" width="29.25" height="24.5"></rect>
		<polygon fill="#D1E1F0" points="99,126.5 99,227.75 69.75,227.75 41.75,227.75 5.5,227.75 5.5,226.5 5.5,126.5   "></polygon>
		<polygon fill="#F6D6B1" points="99,89.69 99,104 75,104 75,89.56 94.06,89.69   "></polygon>
		<polygon fill="#D4DDB2" points="94.5,45.75 94.48,48.17 94.29,67 94.06,89.69 75,89.56 75,45.75   "></polygon>
		<polygon fill="#F6D6B1" points="69.75,358.25 69.75,379.25 52.13,379.25 52.13,358.25 41.75,358.25 41.75,337.25 69.75,337.25       "></polygon>
		<rect x="41.75" y="227.75" fill="#F6D6B1" width="28" height="24.5"></rect>
		<polygon fill="#D2DCB2" points="64.5,505.17 64.5,524.17 5.05,524.17 5.07,505.17   "></polygon>
		<polygon fill="#D4DDB2" points="64.5,467.5 64.5,483.25 26.83,483.25 26.97,467.25 42.75,467.5   "></polygon>
		<polygon fill="#F6D6B1" points="52.13,358.25 52.13,379.25 5.27,379.25 5.3,358.25 41.75,358.25   "></polygon>
		<polygon fill="#F6D6B1" points="41.75,337.25 41.75,358.25 5.3,358.25 5.33,337.25   "></polygon>
		<polygon fill="#F6D6B1" points="41.75,294.92 41.75,327.75 5.5,327.75 5.35,327.75 5.4,294.92 5.5,294.92   "></polygon>
		<polygon fill="#F6D6B1" points="41.75,260.75 41.75,294.92 5.5,294.92 5.4,294.92 5.45,260.75 5.5,260.75   "></polygon>
		<polygon fill="#F6D6B1" points="41.75,227.75 41.75,252.25 5.5,252.25 5.46,252.25 5.5,227.75   "></polygon>
		<rect x="1695.583" y="464.495" fill="#D1E1F1" width="22.17" height="2"></rect>
		<rect x="1695.583" y="447.735" fill="#D1E1F1" width="22.17" height="1.92"></rect>
		<rect x="1622.253" y="398.375" fill="#D1E1F1" width="2.16" height="19.37"></rect>
		<rect x="1533.583" y="462.325" fill="#D1E1F1" width="21.5" height="1.88"></rect>
		<rect x="1533.583" y="447.735" fill="#D1E1F1" width="21.5" height="1.92"></rect>
		<rect x="1423.503" y="402.815" fill="#D1E1F1" width="2.25" height="17.39"></rect>
		<polygon fill="#D1E1F1" points="1399.583,251.625 1399.583,255.935 1330.984,255.935 1331.003,251.625   "></polygon>
		<path fill="#D1E1F1" d="M1355.753,454.875v2h-3.21c-0.03-0.37-0.04-0.74-0.04-1.12c0-0.3,0.01-0.59,0.03-0.88H1355.753z"></path>
		<rect x="1336.414" y="440.045" fill="#D1E1F1" width="19.34" height="2.33"></rect>
		<path fill="#D1E1F1" d="M1352.543,456.875h-16.13v-2h16.12c-0.021,0.29-0.03,0.58-0.03,0.88    C1352.503,456.135,1352.513,456.505,1352.543,456.875z"></path>
		<polygon fill="#D1E1F1" points="1331.003,251.625 1330.984,255.935 1283.003,255.935 1283.003,251.625   "></polygon>
		<rect x="1222.003" y="294.665" fill="#D1E1F1" width="3.061" height="31.88"></rect>
		<rect x="1222.253" y="401.945" fill="#D1E1F1" width="2.79" height="15.6"></rect>
		<path fill="#D1E1F1" d="M1222.003,102.435v3.23h-9v-3.66C1215.963,102.165,1218.963,102.315,1222.003,102.435z"></path>
		<rect x="1152.914" y="330.755" fill="#D1E1F1" width="55" height="3.12"></rect>
		<rect x="1155.173" y="110.775" fill="#D1E1F1" width="2.91" height="20.29"></rect>
		<rect x="1058.753" y="330.755" fill="#D1E1F1" width="58.83" height="3.12"></rect>
		<rect x="1092.083" y="464.495" fill="#D1E1F1" width="21.17" height="1.71"></rect>
		<rect x="1092.083" y="447.545" fill="#D1E1F1" width="21.17" height="2.11"></rect>
		<rect x="1018.753" y="401.945" fill="#D1E1F1" width="2.5" height="17.6"></rect>
		<rect x="963.983" y="117.835" fill="#D1E1F1" width="3.27" height="22.37"></rect>
		<rect x="907.003" y="330.755" fill="#D1E1F1" width="48.58" height="3.12"></rect>
		<rect x="941.914" y="144.995" fill="#D1E1F1" width="8.06" height="3.66"></rect>
		<rect x="890.414" y="464.495" fill="#D1E1F1" width="20.5" height="1.71"></rect>
		<rect x="890.414" y="447.545" fill="#D1E1F1" width="20.5" height="2.11"></rect>
		<rect x="830.583" y="330.755" fill="#D1E1F1" width="51.67" height="3.12"></rect>
		<rect x="817.374" y="401.945" fill="#D1E1F1" width="2.04" height="19.6"></rect>
		<polygon fill="#D1E1F1" points="785.253,252.675 785.253,255.935 774.914,255.935 774.914,252.665 784.503,252.665   "></polygon>
		<rect x="711.503" y="252.665" fill="#D1E1F1" width="19.08" height="3.18"></rect>
		<rect x="630.914" y="252.665" fill="#D1E1F1" width="80.59" height="3.18"></rect>
		<rect x="687.083" y="464.375" fill="#D1E1F1" width="19.25" height="1.75"></rect>
		<rect x="688.293" y="448.875" fill="#D1E1F1" width="18.04" height="1.87"></rect>
		<polygon fill="#D1E1F1" points="622.914,273.875 622.914,312.705 619.753,312.705 619.753,274.885 619.764,273.875   "></polygon>
		<rect x="619.374" y="400.495" fill="#D1E1F1" width="1.71" height="20.05"></rect>
		<polygon fill="#D1E1F1" points="574.253,323.255 574.253,326.205 522.914,326.205 522.914,323.255 526.083,323.255     572.173,323.255   "></polygon>
		<rect x="490.833" y="461.995" fill="#D1E1F1" width="21.75" height="2"></rect>
		<rect x="490.833" y="448.875" fill="#D1E1F1" width="21.75" height="1.87"></rect>
		<polygon fill="#D1E1F1" points="477.063,323.255 477.063,326.205 419.083,326.205 419.083,323.255 435.253,323.255     462.503,323.255   "></polygon>
		<polygon fill="#D1E1F1" points="421.843,122.255 421.843,144.535 418.503,144.535 418.503,122.295   "></polygon>
		<rect x="417.034" y="400.495" fill="#D1E1F1" width="2.05" height="20.88"></rect>
		<polygon fill="#D1E1F1" points="370.914,323.255 370.914,326.205 331.914,326.205 331.914,323.255 334.173,323.255     367.003,323.255   "></polygon>
		<rect x="324.914" y="461.995" fill="#D1E1F1" width="23" height="2.05"></rect>
		<rect x="324.914" y="448.545" fill="#D1E1F1" width="23" height="2.2"></rect>
		<rect x="297.583" y="101.995" fill="#D1E1F1" width="7.67" height="3.55"></rect>
		<rect x="114.673" y="48.165" fill="#D1E1F1" width="2.24" height="18.5"></rect>
	</g>
	<g>
		<polyline fill="none" stroke="#000000" stroke-width="3" stroke-miterlimit="10" points="447.81,5.25 654.96,5.25 702,5.25     710.33,5.25 710.5,5.25   "></polyline>
		<polyline fill="none" stroke="#000000" stroke-width="3" stroke-miterlimit="10" points="712.04,554 711.5,554 215.88,554 5,554     5.05,524.17 5.07,505.17 5.27,379.25 5.3,358.25 5.33,337.25 5.35,327.75 5.4,294.92 5.45,260.75 5.46,252.25 5.5,227.75     5.5,226.5 5.5,126.5 5.5,33.33 5.5,5.25 401.06,5.25   "></polyline>
		<polyline fill="none" stroke="#000000" stroke-miterlimit="10" points="401.06,5.25 401.06,34.08 401.06,94.78   "></polyline>
		<line fill="none" stroke="#000000" stroke-width="3" stroke-miterlimit="10" x1="447.81" y1="5.25" x2="401.06" y2="5.25"></line>
		<polyline fill="none" stroke="#000000" stroke-miterlimit="10" points="411.5,34.1 411.5,25.25 447.81,25.25 447.81,5.25   "></polyline>
		<polyline fill="none" stroke="#000000" stroke-miterlimit="10" points="690.41,34.67 690.41,34.63 690.46,25.17 654.96,25.17     654.96,5.25 654.96,5.21 702,5.21 702,5.25 702,34.65   "></polyline>
		<line fill="none" stroke="#000000" stroke-miterlimit="10" x1="114.67" y1="67" x2="94.29" y2="67"></line>
		<line fill="none" stroke="#000000" stroke-miterlimit="10" x1="94.48" y1="48.17" x2="114.67" y2="48.17"></line>
		<polyline fill="none" stroke="#000000" stroke-miterlimit="10" points="114.67,89.67 99,89.69 94.06,89.69   "></polyline>
		<polyline fill="none" stroke="#000000" stroke-miterlimit="10" points="99,89.69 99,104 75,104 75,89.56 75,45.75 94.5,45.75     94.48,48.17 94.29,67 94.06,89.69 75,89.56   "></polyline>
		<polyline fill="none" stroke="#000000" stroke-miterlimit="10" points="114.67,33.33 114.67,33.54 114.67,48.17 114.67,67     114.67,89.67 114.67,154.67 158.67,154.67 215.88,154.67 265.94,154.67 316,154.67 401.06,154.67 414.5,154.67 608.75,154.67       "></polyline>
		<path fill="none" stroke="#000000" stroke-miterlimit="10" d="M161.83,34.67v45.66c0,0,4.67,18.67,25.67,21.67H316V34"></path>
		<rect x="217.25" y="48.5" fill="none" stroke="#000000" stroke-miterlimit="10" width="21.67" height="19.5"></rect>
		<rect x="217.25" y="70" fill="none" stroke="#000000" stroke-miterlimit="10" width="83.5" height="18.75"></rect>
		<path fill="none" stroke="#000000" stroke-miterlimit="10" d="M316,102h40.5c0,0,3.61-1.22,10.38-2.68    c7.61-1.65,19.21-3.62,34.18-4.54c17.69-1.09,40.08-0.71,66.11,3.42c3.38,0.53,6.83,1.13,10.33,1.8"></path>
		<path fill="none" stroke="#000000" stroke-miterlimit="10" d="M477.5,100c0,0,17.79,2.22,40.5,1.63    c16.22-0.42,34.94-2.27,51.5-7.37"></path>
		<path fill="none" stroke="#000000" stroke-miterlimit="10" d="M710.5,94.4c-7.9-2.26-16.14-3.93-24.5-5.13    c-23.11-3.31-47.16-3.03-67.5-1.53c-24.13,1.77-43.05,5.25-49.02,6.43c-1.29,0.25-1.98,0.4-1.98,0.4V34.65"></path>
		<polyline fill="none" stroke="#000000" stroke-miterlimit="10" points="366.88,34 366.88,34.02 366.88,99.32   "></polyline>
		<polygon fill="none" stroke="#000000" stroke-miterlimit="10" points="467.17,63.67 418.5,63.67 418.5,85.83 467.17,85.83     518,85.83 518,63.67   "></polygon>
		<line fill="none" stroke="#000000" stroke-miterlimit="10" x1="467.17" y1="34.21" x2="467.17" y2="63.67"></line>
		<line fill="none" stroke="#000000" stroke-miterlimit="10" x1="467.17" y1="98.2" x2="467.17" y2="85.83"></line>
		<line fill="none" stroke="#000000" stroke-miterlimit="10" x1="518" y1="101.63" x2="518" y2="85.83"></line>
		<line fill="none" stroke="#000000" stroke-miterlimit="10" x1="618.5" y1="34.49" x2="618.5" y2="87.74"></line>
		<line fill="none" stroke="#000000" stroke-miterlimit="10" x1="686" y1="34.67" x2="686" y2="89.27"></line>
		<path fill="none" stroke="#000000" stroke-miterlimit="10" d="M824.88,95.11c0.46-0.17,0.92-0.36,1.37-0.54"></path>
		<path fill="none" stroke="#000000" stroke-miterlimit="10" d="M5,33.33h0.5l109.17,0.21l47.16,0.09L316,33.92l50.88,0.1    l33.62,0.06h0.56l10.44,0.02l55.67,0.11L567.5,34.4l51,0.09l67.5,0.13l4.41,0.01L702,34.65l8.5,0.02V94.4    c0,0,73.55,16.36,114.35,0.72"></path>
		<path fill="none" stroke="#000000" stroke-miterlimit="10" d="M416.05,111.11c-3.77,0.83-25.85,6.09,0.48,11.21    c0.02,0,0.03,0.01,0.05,0.01"></path>
		<path fill="none" stroke="#000000" stroke-miterlimit="10" d="M416.58,111c0,0-0.18,0.04-0.5,0.11"></path>
		<path fill="none" stroke="#000000" stroke-miterlimit="10" d="M427.93,111.11c4.15,0.72,25.19,4.88,0,11.06    c-0.22,0.05-0.45,0.11-0.68,0.16"></path>
		<path fill="none" stroke="#000000" stroke-miterlimit="10" d="M427.25,111c0,0,0.24,0.04,0.67,0.11"></path>
		<polyline fill="none" stroke="#000000" stroke-miterlimit="10" points="416.05,111.11 416.08,111.11 427.92,111.11 427.93,111.11       "></polyline>
		<polyline fill="none" stroke="#000000" stroke-miterlimit="10" points="415.75,122.33 416.53,122.32 427.93,122.17   "></polyline>
		<path fill="none" stroke="#000000" stroke-miterlimit="10" d="M525.25,134.25c0,0-31.99,5.69-0.51,11.9    c0.17,0.03,0.34,0.07,0.51,0.1"></path>
		<path fill="none" stroke="#000000" stroke-miterlimit="10" d="M533.42,134.25c0,0,31,5.44,0.48,11.9    c-0.16,0.03-0.32,0.07-0.48,0.1"></path>
		<polyline fill="none" stroke="#000000" stroke-miterlimit="10" points="524.74,134.25 525.25,134.25 533.42,134.25 533.9,134.25       "></polyline>
		<line fill="none" stroke="#000000" stroke-miterlimit="10" x1="524.74" y1="146.15" x2="533.9" y2="146.15"></line>
		<polyline fill="none" stroke="#000000" stroke-miterlimit="10" points="99,104 99,126.5 99,227.75 69.75,227.75 41.75,227.75     5.5,227.75   "></polyline>
		<line fill="none" stroke="#000000" stroke-miterlimit="10" x1="5.5" y1="126.5" x2="99" y2="126.5"></line>
		<polyline fill="none" stroke="#000000" stroke-miterlimit="10" points="99,227.75 99,252.25 69.75,252.25 41.75,252.25     5.5,252.25   "></polyline>
		<polyline fill="none" stroke="#000000" stroke-miterlimit="10" points="5.5,260.75 41.75,260.75 99,260.75 99,294.92 99,327.75     41.75,327.75 5.5,327.75   "></polyline>
		<polyline fill="none" stroke="#000000" stroke-miterlimit="10" points="5.33,337.25 41.75,337.25 69.75,337.25 99,337.25     99,358.25 99,379.25 69.75,379.25 52.13,379.25 5.27,379.25   "></polyline>
		<polyline fill="none" stroke="#000000" stroke-miterlimit="10" points="5.27,358.25 5.3,358.25 41.75,358.25 52.13,358.25     52.13,379.25   "></polyline>
		<polyline fill="none" stroke="#000000" stroke-miterlimit="10" points="99,358.25 69.75,358.25 69.75,379.25   "></polyline>
		<line fill="none" stroke="#000000" stroke-miterlimit="10" x1="41.75" y1="337.25" x2="41.75" y2="358.25"></line>
		<line fill="none" stroke="#000000" stroke-miterlimit="10" x1="69.75" y1="337.25" x2="69.75" y2="358.25"></line>
		<polyline fill="none" stroke="#000000" stroke-miterlimit="10" points="160.5,266.75 160.5,294.25 160.5,294.92 160.5,317     114,316.88 114,294.25 114,266.75 158.67,266.75   "></polyline>
		<line fill="none" stroke="#000000" stroke-miterlimit="10" x1="114" y1="294.25" x2="160.5" y2="294.25"></line>
		<polyline fill="none" stroke="#000000" stroke-miterlimit="10" points="114,339 139.75,339 160.41,339 160.5,339   "></polyline>
		<polyline fill="none" stroke="#000000" stroke-miterlimit="10" points="139.75,339 139.75,354.12 160.35,354.12   "></polyline>
		<line fill="none" stroke="#000000" stroke-miterlimit="10" x1="139.75" y1="354.12" x2="139.75" y2="379.25"></line>
		<polyline fill="none" stroke="#000000" stroke-miterlimit="10" points="114.67,154.67 114.67,202.5 135.75,202.5 135.75,182.5     158.62,182.5 158.67,154.67   "></polyline>
		<polyline fill="none" stroke="#000000" stroke-miterlimit="10" points="158.62,182.5 158.62,202.5 158.62,210.75 215.88,210.75     215.88,154.67   "></polyline>
		<polyline fill="none" stroke="#000000" stroke-miterlimit="10" points="316,154.67 316,210.75 271.25,210.75 265.94,210.75     215.88,210.75 215.88,242.5 271.25,242.5 316,242.5 334.17,242.5 367,242.5 367,210.75 316,210.75   "></polyline>
		<line fill="none" stroke="#000000" stroke-miterlimit="10" x1="265.94" y1="154.67" x2="265.94" y2="210.75"></line>
		<line fill="none" stroke="#000000" stroke-miterlimit="10" x1="271.25" y1="210.75" x2="271.25" y2="242.5"></line>
		<line fill="none" stroke="#000000" stroke-miterlimit="10" x1="316" y1="210.75" x2="316" y2="242.5"></line>
		<polyline fill="none" stroke="#000000" stroke-miterlimit="10" points="232.25,251.75 266.25,251.75 300.25,251.75 300.25,273.31     300.25,294.92 300.25,323.25 232.25,323.25 232.25,294.92 232.25,273.31 232.25,251.75   "></polyline>
		<polyline fill="none" stroke="#000000" stroke-miterlimit="10" points="232.25,273.31 266.25,273.31 300.25,273.31   "></polyline>
		<line fill="none" stroke="#000000" stroke-miterlimit="10" x1="266.25" y1="251.75" x2="266.25" y2="273.31"></line>
		<line fill="none" stroke="#000000" stroke-miterlimit="10" x1="232.25" y1="294.92" x2="300.25" y2="294.92"></line>
		<polyline fill="none" stroke="#000000" stroke-miterlimit="10" points="158.62,210.75 158.67,266.75 160.5,266.75 215.88,266.75     215.88,242.5   "></polyline>
		<polyline fill="none" stroke="#000000" stroke-miterlimit="10" points="215.88,266.75 215.88,294.92 215.88,323.25 215.88,331.25     183.75,331.25 183.75,317 160.5,317 160.41,339 160.35,354.12 160.25,379.25 139.75,379.25 114,379.25 114,339 114,316.88   "></polyline>
		<polyline fill="none" stroke="#000000" stroke-miterlimit="10" points="160.35,294.92 160.5,294.92 215.88,294.92   "></polyline>
		<polyline fill="none" stroke="#000000" stroke-miterlimit="10" points="160.25,379.25 183.75,379.25 184.5,379.25 215.88,379.25     215.88,331.25   "></polyline>
		<line fill="none" stroke="#000000" stroke-miterlimit="10" x1="183.75" y1="331.25" x2="183.75" y2="379.25"></line>
		<polyline fill="none" stroke="#000000" stroke-miterlimit="10" points="41.75,260.75 41.75,294.92 41.75,327.75   "></polyline>
		<polyline fill="none" stroke="#000000" stroke-miterlimit="10" points="5.5,294.92 41.75,294.92 99,294.92   "></polyline>
		<line fill="none" stroke="#000000" stroke-miterlimit="10" x1="41.75" y1="227.75" x2="41.75" y2="252.25"></line>
		<line fill="none" stroke="#000000" stroke-miterlimit="10" x1="69.75" y1="227.75" x2="69.75" y2="252.25"></line>
		<polyline fill="none" stroke="#000000" stroke-miterlimit="10" points="125.92,434.02 126,402 215.88,402 215.88,434.5     125.92,434.02 115.33,434.02 42.75,434 26.75,434 26.75,391.5 115.08,391.5 115.33,433.97 115.33,434.02 115.33,524.17     64.5,524.17   "></polyline>
		<polyline fill="none" stroke="#000000" stroke-miterlimit="10" points="125.92,434.02 125.92,454.5 215.88,454.5 215.88,434.5       "></polyline>
		<polyline fill="none" stroke="#000000" stroke-miterlimit="10" points="42.75,434 42.75,467.5 64.5,467.5 64.5,483.25     26.83,483.25 26.97,467.25 42.75,467.5   "></polyline>
		<polyline fill="none" stroke="#000000" stroke-miterlimit="10" points="5,505.17 5.07,505.17 64.5,505.17 64.5,524.17     5.05,524.17   "></polyline>
		<line fill="none" stroke="#000000" stroke-miterlimit="10" x1="64.5" y1="483.25" x2="64.5" y2="505.17"></line>
		<polyline fill="none" stroke="#000000" stroke-miterlimit="10" points="215.88,454.5 215.88,524.17 115.33,524.17   "></polyline>
		<line fill="none" stroke="#000000" stroke-miterlimit="10" x1="215.88" y1="554" x2="215.88" y2="524.17"></line>
		<path fill="none" stroke="#000000" stroke-miterlimit="10" d="M489.19,418.1c0,7.12-5.43,12.891-12.13,12.891    c-6.69,0-12.12-5.771-12.12-12.891c0-7.119,5.43-12.89,12.12-12.89C483.76,405.21,489.19,410.98,489.19,418.1z"></path>
		<path fill="none" stroke="#000000" stroke-miterlimit="10" d="M425.78,377.83c0,4.83-3.92,8.75-8.75,8.75    c-4.83,0-8.75-3.92-8.75-8.75s3.92-8.75,8.75-8.75C421.86,369.08,425.78,373,425.78,377.83z"></path>
		<path fill="none" stroke="#000000" stroke-miterlimit="10" d="M557.89,432.75c0,7.18-5.65,13-12.62,13    c-6.98,0-12.63-5.82-12.63-13s5.65-13,12.63-13C552.24,419.75,557.89,425.57,557.89,432.75z"></path>
		<path fill="none" stroke="#000000" stroke-miterlimit="10" d="M628.5,377.83c0,4.83-4.09,8.75-9.12,8.75    c-5.04,0-9.13-3.92-9.13-8.75s4.09-8.75,9.13-8.75C624.41,369.08,628.5,373,628.5,377.83z"></path>
		<path fill="none" stroke="#000000" stroke-miterlimit="10" d="M320,368c0,0,12.75,5.29,3.5,19.15"></path>
		<path fill="none" stroke="#000000" stroke-miterlimit="10" d="M323.5,387.15c0,0-4.5,4.6-5.5,20.6c0,0-4.25,7-8.25-1.25    c0,0-16-42,10.25-38.5"></path>
		<path fill="none" stroke="#000000" stroke-miterlimit="10" d="M413.12,470c0,0-23.6-7.53-1.6-38.52"></path>
		<path fill="none" stroke="#000000" stroke-miterlimit="10" d="M411.52,431.48c3.39-1.98,8.8-3.78,11.25,0.21    c1.74,2.829,1.39,6.829,1,9.97c0,0-0.36,3.97,1.12,10.399c1.87,8.091-3.62,15.891-11.77,17.94"></path>
		<polygon fill="none" stroke="#000000" stroke-miterlimit="10" points="425.26,516.5 423,516.5 423,541 510.75,541 510.75,516.5       "></polygon>
		<polygon fill="none" stroke="#000000" stroke-miterlimit="10" points="548.75,541 587.75,541 587.75,516.5 547.25,516.5     547.25,541   "></polygon>
		<path fill="none" stroke="#000000" stroke-miterlimit="10" d="M688.29,456.82c0,10.489-8.8,19-19.66,19    c-10.86,0-19.67-8.511-19.67-19c0-10.49,8.81-19,19.67-19C679.49,437.82,688.29,446.33,688.29,456.82z"></path>
		<rect x="320" y="450.74" fill="none" stroke="#000000" stroke-miterlimit="10" width="32.17" height="11.26"></rect>
		<rect x="485.17" y="450.74" fill="none" stroke="#000000" stroke-miterlimit="10" width="32.16" height="11.26"></rect>
		<polygon fill="none" stroke="#000000" stroke-miterlimit="10" points="414.5,187 367,187 343.75,187 343.75,168.75 414.5,168.75       "></polygon>
		<polygon fill="none" stroke="#000000" stroke-miterlimit="10" points="442.25,208.75 421.99,208.75 412.25,208.75 391.25,208.75     391.25,190 410.19,190 412.25,190 414.5,190 421.99,190 442.25,190   "></polygon>
		<line fill="none" stroke="#000000" stroke-miterlimit="10" x1="412.25" y1="208.75" x2="412.25" y2="190"></line>
		<line fill="none" stroke="#000000" stroke-miterlimit="10" x1="421.99" y1="190" x2="421.99" y2="208.75"></line>
		<line fill="none" stroke="#000000" stroke-miterlimit="10" x1="414.5" y1="154.67" x2="414.5" y2="168.75"></line>
		<line fill="none" stroke="#000000" stroke-miterlimit="10" x1="414.5" y1="187" x2="414.5" y2="190"></line>
		<polyline fill="none" stroke="#000000" stroke-miterlimit="10" points="367,187 367,208.75 367,210.75   "></polyline>
		<line fill="none" stroke="#000000" stroke-miterlimit="10" x1="391.25" y1="208.75" x2="367" y2="208.75"></line>
		<path fill="none" stroke="#000000" stroke-miterlimit="10" d="M619.75,187c-5-19.25-12.92-18.25-12.92-18.25h-44.58h-36.17H495    h-32.75V190h-20"></path>
		<path fill="none" stroke="#000000" stroke-miterlimit="10" d="M442.25,208.75h19.92l0.16,43.92H495h31.08h36.17h9.92h18.66h29.09    L619.87,235l-0.12-46.5V187c1.25-24-11-32.33-11-32.33"></path>
		<polyline fill="none" stroke="#000000" stroke-miterlimit="10" points="495,168.75 495,252.67 495,323.25   "></polyline>
		<line fill="none" stroke="#000000" stroke-miterlimit="10" x1="526.08" y1="169.33" x2="526.08" y2="251.83"></line>
		<line fill="none" stroke="#000000" stroke-miterlimit="10" x1="562.25" y1="168.75" x2="562.25" y2="252.67"></line>
		<polyline fill="none" stroke="#000000" stroke-miterlimit="10" points="619.84,188.5 619.75,188.5 590.83,188.5 590.83,235     590.83,252.67   "></polyline>
		<polyline fill="none" stroke="#000000" stroke-miterlimit="10" points="590.83,235 619.87,235 619.92,235   "></polyline>
		<line fill="none" stroke="#000000" stroke-miterlimit="10" x1="572.17" y1="252.67" x2="572.17" y2="323.25"></line>
		<line fill="none" stroke="#000000" stroke-miterlimit="10" x1="526.08" y1="252.67" x2="526.08" y2="323.25"></line>
		<polyline fill="none" stroke="#000000" stroke-miterlimit="10" points="462.5,323.25 435.25,323.25 400.83,323.25 367,323.25     334.17,323.25 300.25,323.25   "></polyline>
		<polyline fill="none" stroke="#000000" stroke-miterlimit="10" points="334.17,242.5 334.17,251.75 334.17,323.25   "></polyline>
		<polyline fill="none" stroke="#000000" stroke-miterlimit="10" points="367,323 367,264.38 367,264 367,242.5 435.25,242.5     435.25,252.67 435.25,323   "></polyline>
		<polyline fill="none" stroke="#000000" stroke-miterlimit="10" points="400.83,323 400.83,264.33 367,264.38   "></polyline>
		<line fill="none" stroke="#000000" stroke-miterlimit="10" x1="232.25" y1="323.25" x2="215.88" y2="323.25"></line>
		<line fill="none" stroke="#000000" stroke-miterlimit="10" x1="300.25" y1="251.75" x2="334.17" y2="251.75"></line>
		<line fill="none" stroke="#000000" stroke-miterlimit="10" x1="114.67" y1="202.5" x2="114" y2="266.75"></line>
		<polyline fill="none" stroke="#000000" stroke-miterlimit="10" points="135.75,202.5 158.62,202.5 158.67,202.5   "></polyline>
		<polyline fill="none" stroke="#000000" stroke-miterlimit="10" points="710.5,34.67 953.17,34.67 1004.5,34.67 1015.08,34.67     1020.5,34.67 1071.33,34.67 1121.17,34.67 1155,34.67 1195,34.67 1228,34.67 1239.75,34.67 1272.12,34.67 1330.39,34.67     1330.5,34.67   "></polyline>
		<polyline fill="none" stroke="#000000" stroke-miterlimit="10" points="1004.5,5.21 1004.5,34.67 1004.5,98.87   "></polyline>
		<polyline fill="none" stroke="#000000" stroke-miterlimit="10" points="1015.08,34.67 1015.17,26 1052.5,26.67 1052.5,5.21   "></polyline>
		<polyline fill="none" stroke="#000000" stroke-miterlimit="10" points="1275.25,5.21 1275.25,26 1239.75,26 1239.75,34.67     1240,102.89 1240,102.91   "></polyline>
		<line fill="none" stroke="#000000" stroke-miterlimit="10" x1="1228" y1="34.67" x2="1228" y2="5.21"></line>
		<path fill="none" stroke="#000000" stroke-miterlimit="10" d="M824.85,95.12c0,0,0.011,0,0.03-0.01    c1.36-0.41,54.25-16.42,102.12-1.61"></path>
		<path fill="none" stroke="#000000" stroke-miterlimit="10" d="M927,93.5c0,0,9.64,4.07,26.17,6.34    c13.19,1.82,30.771,2.49,51.33-0.97c5.18-0.87,10.54-2,16.08-3.44c1.05-0.28,2.11-0.56,3.17-0.86"></path>
		<path fill="none" stroke="#000000" stroke-miterlimit="10" d="M1023.75,94.57c0,0,19.2-6.62,47.59-8.06    c14.63-0.75,31.7-0.11,49.83,3.52c1.771,0.35,3.54,0.73,5.33,1.14"></path>
		<polyline fill="none" stroke="#000000" stroke-width="3" stroke-miterlimit="10" points="1330.33,5.21 1325.17,5.21 1275.25,5.21     1228,5.21 1052.5,5.21 1004.5,5.21 710.33,5.21   "></polyline>
		<path fill="none" stroke="#000000" stroke-miterlimit="10" d="M1126.5,91.17c0,0,10.79,2.35,28.5,4.95    c10.98,1.61,24.62,3.32,40,4.62c13.82,1.16,29.04,2,45,2.15c10.46,0.09,21.22-0.11,32.12-0.71c19.41-1.07,39.229-3.42,58.38-7.61"></path>
		<line fill="none" stroke="#000000" stroke-miterlimit="10" x1="1020.5" y1="34.67" x2="1020.5" y2="95.12"></line>
		<line fill="none" stroke="#000000" stroke-miterlimit="10" x1="1071.33" y1="34.67" x2="1071.33" y2="86.24"></line>
		<line fill="none" stroke="#000000" stroke-miterlimit="10" x1="1155" y1="34.67" x2="1155" y2="96.12"></line>
		<line fill="none" stroke="#000000" stroke-miterlimit="10" x1="1195" y1="34.67" x2="1195" y2="100.73"></line>
		<line fill="none" stroke="#000000" stroke-miterlimit="10" x1="1272.12" y1="34.67" x2="1272.12" y2="102.17"></line>
		<line fill="none" stroke="#000000" stroke-miterlimit="10" x1="1121.17" y1="34.67" x2="1121.17" y2="90.03"></line>
		<path fill="none" stroke="#000000" stroke-miterlimit="10" d="M1032.79,123.67c0,3.22-8.2,5.83-18.33,5.83    c-10.12,0-18.33-2.61-18.33-5.83c0-3.23,8.21-5.84,18.33-5.84C1024.59,117.83,1032.79,120.44,1032.79,123.67z"></path>
		<path fill="none" stroke="#000000" stroke-miterlimit="10" d="M1229.5,131.06c0,2.95-8.58,5.34-19.17,5.34    c-10.58,0-19.16-2.39-19.16-5.34c0-2.94,8.58-5.33,19.16-5.33C1220.92,125.73,1229.5,128.12,1229.5,131.06z"></path>
		<path fill="none" stroke="#000000" stroke-miterlimit="10" d="M814.37,470c0,0-23.601-7.53-1.601-38.52"></path>
		<path fill="none" stroke="#000000" stroke-miterlimit="10" d="M812.77,431.48c3.391-1.98,8.801-3.78,11.25,0.21    c1.74,2.829,1.381,6.829,1,9.97c0,0-0.359,3.97,1.12,10.399c1.86,8.091-3.62,15.891-11.77,17.94"></path>
		<polyline fill="none" stroke="#000000" stroke-miterlimit="10" points="756.25,252.67 756.25,330.75 818.5,330.75 1004.83,330.75     1025.5,330.75 1222,330.75 1222,294.67 1222,253.33 1222,251.62 1222,231.25 1222,188 1222,162.75 1222,144   "></polyline>
		<path fill="none" stroke="#000000" stroke-miterlimit="10" d="M1222,144c0,0-22.78-2.17-50.42-2.41    c-16.34-0.16-34.37,0.37-50.41,2.41"></path>
		<path fill="none" stroke="#000000" stroke-miterlimit="10" d="M1121.17,144c0,0-39.49,8.16-100.67,8.61    c-5.08,0.04-10.31,0.02-15.67-0.05c-10.6-0.16-21.75-0.55-33.37-1.26c-16.91-1.04-34.82-2.73-53.46-5.3"></path>
		<path fill="none" stroke="#000000" stroke-miterlimit="10" d="M840.5,163l77.5-0.25V146c0,0-29.17-5.33-77.5,4.33V163H835v17.88    h-16.5V187h-33.33h-0.67H619.75"></path>
		<polyline fill="none" stroke="#000000" stroke-miterlimit="10" points="784.5,187 784.5,232 784.5,252.67 756.25,252.67     711.5,252.67 619.92,252.67 619.38,323.25 572.17,323.25 526.08,323.25 495,323.25 462.5,323.25 462.33,252.67 435.25,252.67       "></polyline>
		<polyline fill="none" stroke="#000000" stroke-miterlimit="10" points="818.5,187 818.5,232 784.5,232   "></polyline>
		<polyline fill="none" stroke="#000000" stroke-miterlimit="10" points="835,180.88 884.17,180.93 918,180.97 971.46,181.03     1004.83,181.07 1020.5,181.08 1040.25,181.11 1155.17,181.23 1171.58,181.25 1171.58,141.59 1171.58,141.56   "></polyline>
		<polyline fill="none" stroke="#000000" stroke-miterlimit="10" points="918,162.75 918,180.97 918,181.25   "></polyline>
		<polyline fill="none" stroke="#000000" stroke-miterlimit="10" points="971.46,151.29 971.46,151.3 971.46,165.77 971.46,181.03     971.46,198   "></polyline>
		<polyline fill="none" stroke="#000000" stroke-miterlimit="10" points="1004.83,152.55 1004.83,152.56 1004.83,165.77     1004.83,181.03   "></polyline>
		<line fill="none" stroke="#000000" stroke-miterlimit="10" x1="971.46" y1="165.77" x2="1004.83" y2="165.77"></line>
		<polyline fill="none" stroke="#000000" stroke-miterlimit="10" points="1040.25,181.03 1040.25,181.11 1040.25,198 1070,198     1095.5,198 1133.25,198 1133.25,229.75 1133.25,273.5 1058.5,273.5 1025.5,273.5 1004.83,273.5 956.5,273.5 906,273.5 906,229.75     906,198 971.46,198 971.46,198.62 971.46,244.75 971.46,251.5 1040.19,251.42 1040.21,229.75 1040.25,198   "></polyline>
		<polyline fill="none" stroke="#000000" stroke-miterlimit="10" points="906,229.75 956.5,229.75 956.5,244.75 956.5,273.5   "></polyline>
		<line fill="none" stroke="#000000" stroke-miterlimit="10" x1="971.46" y1="244.75" x2="956.5" y2="244.75"></line>
		<polyline fill="none" stroke="#000000" stroke-miterlimit="10" points="1133.25,229.75 1095.5,229.75 1070,229.75 1058.75,229.75     1040.21,229.75   "></polyline>
		<line fill="none" stroke="#000000" stroke-miterlimit="10" x1="1058.5" y1="273.5" x2="1058.75" y2="229.75"></line>
		<line fill="none" stroke="#000000" stroke-miterlimit="10" x1="1070" y1="198" x2="1070" y2="229.75"></line>
		<line fill="none" stroke="#000000" stroke-miterlimit="10" x1="1095.5" y1="198" x2="1095.5" y2="229.75"></line>
		<polyline fill="none" stroke="#000000" stroke-miterlimit="10" points="884.17,180.93 884.17,253 884.17,253.12 884.17,294.67     855,294.67 818.5,294.67 818.5,264.75 818.5,253 818.5,232   "></polyline>
		<polyline fill="none" stroke="#000000" stroke-miterlimit="10" points="883.62,253.12 855,253.07 818.5,253 784.5,252.67   "></polyline>
		<polyline fill="none" stroke="#000000" stroke-miterlimit="10" points="818.5,264.75 855,264.75 855,294.67   "></polyline>
		<polyline fill="none" stroke="#000000" stroke-miterlimit="10" points="855,253 855,253.07 855,264.75   "></polyline>
		<line fill="none" stroke="#000000" stroke-miterlimit="10" x1="1004.83" y1="273.83" x2="1004.83" y2="330.75"></line>
		<line fill="none" stroke="#000000" stroke-miterlimit="10" x1="1025.5" y1="273.5" x2="1025.5" y2="330.75"></line>
		<line fill="none" stroke="#000000" stroke-miterlimit="10" x1="1020.5" y1="152.63" x2="1020.5" y2="181.03"></line>
		<polyline fill="none" stroke="#000000" stroke-miterlimit="10" points="1155.17,181.25 1155.17,253.33 1155.17,294.67   "></polyline>
		<polyline fill="none" stroke="#000000" stroke-miterlimit="10" points="1222,294.67 1200,294.67 1155.17,294.67   "></polyline>
		<polyline fill="none" stroke="#000000" stroke-miterlimit="10" points="1222,253.33 1200,253.33 1171.58,253.33 1155.17,253.33       "></polyline>
		<polyline fill="none" stroke="#000000" stroke-miterlimit="10" points="1171.58,181.25 1171.58,211 1171.58,253.33   "></polyline>
		<polyline fill="none" stroke="#000000" stroke-miterlimit="10" points="1171.58,211 1190,211 1200.17,211 1200.17,162.75     1222,162.75   "></polyline>
		<polyline fill="none" stroke="#000000" stroke-miterlimit="10" points="1222,231.25 1190,231.25 1190,211   "></polyline>
		<line fill="none" stroke="#000000" stroke-miterlimit="10" x1="1200" y1="253.33" x2="1200" y2="294.67"></line>
		<line fill="none" stroke="#000000" stroke-miterlimit="10" x1="818.5" y1="294.67" x2="818.5" y2="330.75"></line>
		<path fill="none" stroke="#000000" stroke-miterlimit="10" d="M720,375.75c0,0,14.17-2.49,7.56,20.55    c-0.02,0.061-0.04,0.13-0.06,0.2"></path>
		<path fill="none" stroke="#000000" stroke-miterlimit="10" d="M727.89,395.67c0,0-0.01,0,0,0.01    c-0.05,0.051-0.159,0.271-0.33,0.62c-1.869,3.83-10.89,23.391-10.069,2.28c0-0.11,0.01-0.22,0.01-0.33"></path>
		<path fill="none" stroke="#000000" stroke-miterlimit="10" d="M727.88,395.75c0.01-0.04,0.01-0.06,0.01-0.07"></path>
		<path fill="none" stroke="#000000" stroke-miterlimit="10" d="M720,375.75c0,0-9.55,2.68-6.5,9c3.61,7.48,3.93,13.83,3.93,13.83"></path>
		<path fill="none" stroke="#000000" stroke-miterlimit="10" d="M1029.18,378.75c0,5.11-4.02,9.25-8.979,9.25    c-4.97,0-8.99-4.14-8.99-9.25s4.021-9.25,8.99-9.25C1025.16,369.5,1029.18,373.64,1029.18,378.75z"></path>
		<circle fill="none" stroke="#000000" stroke-miterlimit="10" cx="1222.25" cy="378.75" r="9.25"></circle>
		<path fill="none" stroke="#000000" stroke-miterlimit="10" d="M1029.18,462.32c0,5.25-4.02,9.5-8.979,9.5    c-4.97,0-8.99-4.25-8.99-9.5s4.021-9.5,8.99-9.5C1025.16,452.82,1029.18,457.07,1029.18,462.32z"></path>
		<path fill="none" stroke="#000000" stroke-miterlimit="10" d="M1283,444.15c0,7-6.04,12.67-13.5,12.67s-13.5-5.67-13.5-12.67    c0-6.99,6.04-12.67,13.5-12.67S1283,437.16,1283,444.15z"></path>
		<rect x="885" y="449.65" fill="none" stroke="#000000" stroke-miterlimit="10" width="30" height="14.85"></rect>
		<rect x="1086" y="449.65" fill="none" stroke="#000000" stroke-miterlimit="10" width="31.5" height="14.85"></rect>
		<path fill="none" stroke="#000000" stroke-miterlimit="10" d="M1215.75,435.5c0,0,0.02-0.14,0.06-0.39    c0.421-2.53,3.24-16.011,13.94,0.39"></path>
		<path fill="none" stroke="#000000" stroke-miterlimit="10" d="M1229.75,434.75c0.11,0.19,0.21,0.39,0.31,0.59    c3.381,6.48,4.551,14.34,4.841,21.51c0,0,0.06,7.78-3.46,10.28c-9.71,6.91-14.16-1.939-16.221-9.81    c-0.01-0.051-0.029-0.101-0.04-0.15"></path>
		<path fill="none" stroke="#000000" stroke-miterlimit="10" d="M1215.75,434.75c0.02,0.12,0.04,0.24,0.06,0.36    c0.62,3.79,0.811,7.71,0.431,11.52"></path>
		<polyline fill="none" stroke="#000000" stroke-miterlimit="10" points="1216.24,446.63 1215.22,457.32 1215.18,457.75   "></polyline>
		<path fill="none" stroke="#000000" stroke-miterlimit="10" d="M1325.83,390.33c0,0,6.92-13.71-8.33-14.33"></path>
		<path fill="none" stroke="#000000" stroke-miterlimit="10" d="M1325.83,390.33c0,0-4.71,6.42-2.21,13.42s-3.45,4.92-3.45,4.92    s-18.67-24-2.67-32.67"></path>
		<path fill="none" stroke="#000000" stroke-miterlimit="10" d="M819.64,517.5c0,9.67-22.88,17.5-51.1,17.5    c-28.23,0-51.11-7.83-51.11-17.5s22.88-17.5,51.11-17.5C796.76,500,819.64,507.83,819.64,517.5z"></path>
		<polyline fill="none" stroke="#000000" stroke-width="3" stroke-miterlimit="10" points="1222,554 1329.5,554 1330,554   "></polyline>
		<line fill="none" stroke="#000000" stroke-width="3" stroke-miterlimit="10" x1="1131" y1="554" x2="1152.5" y2="554"></line>
		<line fill="none" stroke="#000000" stroke-width="3" stroke-miterlimit="10" x1="936.65" y1="554" x2="1104" y2="554"></line>
		<line fill="none" stroke="#000000" stroke-width="3" stroke-miterlimit="10" x1="712.04" y1="554" x2="885" y2="554"></line>
		<polyline fill="none" stroke="#000000" stroke-miterlimit="10" points="885,554 885,532.5 936.65,532.5 936.65,554   "></polyline>
		<line fill="none" stroke="#000000" stroke-width="3" stroke-miterlimit="10" x1="936.65" y1="554" x2="885" y2="554"></line>
		<polyline fill="none" stroke="#000000" stroke-miterlimit="10" points="1152.5,554 1152.25,519.25 1221.75,519.25 1222,554   "></polyline>
		<line fill="none" stroke="#000000" stroke-width="3" stroke-miterlimit="10" x1="1222" y1="554" x2="1152.5" y2="554"></line>
		<polyline fill="none" stroke="#000000" stroke-miterlimit="10" points="1104,554 1104,532.5 1131,532.5 1131,554   "></polyline>
		<line fill="none" stroke="#000000" stroke-width="3" stroke-miterlimit="10" x1="1131" y1="554" x2="1104" y2="554"></line>
		<line fill="none" stroke="#000000" stroke-miterlimit="10" x1="1222" y1="188" x2="1423.5" y2="188"></line>
		<polyline fill="none" stroke="#000000" stroke-width="3" stroke-miterlimit="10" points="1325.17,5.21 1330.33,5.22 1559.38,5.54     1559.35,34.67 1559.32,64.08 1559.3,84.67 1559.29,94.57 1559.19,188 1559.13,251.62 1559,379.08 1810,378.75 1810,554 1330,554       "></polyline>
		<line fill="none" stroke="#000000" stroke-miterlimit="10" x1="1373.5" y1="34.67" x2="1373.5" y2="87.94"></line>
		<polyline fill="none" stroke="#000000" stroke-miterlimit="10" points="1423.5,34.67 1423.5,86.85 1423.5,121.33 1423.5,155     1423.5,188 1423.5,210.67 1423.5,251.62 1331,251.62 1222,251.62   "></polyline>
		<polyline fill="none" stroke="#000000" stroke-miterlimit="10" points="1474,34.67 1474,84.67 1474,93.5   "></polyline>
		<polyline fill="none" stroke="#000000" stroke-miterlimit="10" points="1474,93.5 1474,121 1474,121.33 1474,126.67 1474,155     1474,188 1448.75,188 1423.5,188   "></polyline>
		<line fill="none" stroke="#000000" stroke-miterlimit="10" x1="1423.5" y1="121.33" x2="1474" y2="121.33"></line>
		<line fill="none" stroke="#000000" stroke-miterlimit="10" x1="1423.5" y1="155" x2="1474" y2="155"></line>
		<polyline fill="none" stroke="#000000" stroke-miterlimit="10" points="1423.5,210.67 1448.75,210.67 1474,210.67 1516.28,210.67     1516.28,188 1516.28,126.67 1516.28,84.67 1516.28,34.67   "></polyline>
		<line fill="none" stroke="#000000" stroke-miterlimit="10" x1="1474" y1="84.67" x2="1516.28" y2="84.67"></line>
		<line fill="none" stroke="#000000" stroke-miterlimit="10" x1="1474" y1="126.67" x2="1516.28" y2="126.67"></line>
		<polyline fill="none" stroke="#000000" stroke-miterlimit="10" points="1474,210.67 1474,188 1516.28,188   "></polyline>
		<polyline fill="none" stroke="#000000" stroke-miterlimit="10" points="1524.17,218.67 1524.17,188 1524.17,94.57 1524.17,84.67     1524.17,64.08 1524.17,34.67   "></polyline>
		<polyline fill="none" stroke="#000000" stroke-miterlimit="10" points="1433.5,251.62 1433.5,220.33 1469.89,220.33     1524.17,220.33   "></polyline>
		<polyline fill="none" stroke="#000000" stroke-miterlimit="10" points="1558.83,251.62 1524.17,251.62 1469.89,251.62     1433.5,251.62   "></polyline>
		<polyline fill="none" stroke="#000000" stroke-miterlimit="10" points="1524.17,218.67 1524.17,220.33 1524.17,251.62   "></polyline>
		<line fill="none" stroke="#000000" stroke-miterlimit="10" x1="1469.89" y1="220.33" x2="1469.89" y2="251.62"></line>
		<line fill="none" stroke="#000000" stroke-miterlimit="10" x1="1558.55" y1="188" x2="1524.17" y2="188"></line>
		<line fill="none" stroke="#000000" stroke-miterlimit="10" x1="1524.17" y1="94.57" x2="1559.29" y2="94.57"></line>
		<line fill="none" stroke="#000000" stroke-miterlimit="10" x1="1559.29" y1="84.67" x2="1524.17" y2="84.67"></line>
		<line fill="none" stroke="#000000" stroke-miterlimit="10" x1="1524.17" y1="64.08" x2="1559.32" y2="64.08"></line>
		<path fill="none" stroke="#000000" stroke-miterlimit="10" d="M1423.5,86.85c0,0-21.89-0.81-49.96,1.59    c-13.5,1.15-28.43,3.05-43.04,6.13l-0.11-59.9l-0.02-8.67l-0.04-20.78V5.21"></path>
		<path fill="none" stroke="#000000" stroke-miterlimit="10" d="M1392.5,455.75c0,11.18-8.95,20.25-20,20.25    c-11.04,0-20-9.07-20-20.25s8.96-20.25,20-20.25C1383.55,435.5,1392.5,444.57,1392.5,455.75z"></path>
		<path fill="none" stroke="#000000" stroke-miterlimit="10" d="M1609.17,416.74c0,7.04-5.97,12.74-13.34,12.74    c-7.36,0-13.33-5.7-13.33-12.74c0-7.03,5.97-12.74,13.33-12.74C1603.2,404,1609.17,409.71,1609.17,416.74z"></path>
		<path fill="none" stroke="#000000" stroke-miterlimit="10" d="M1677.17,431.45c0,7.569-5.97,13.7-13.34,13.7    c-7.36,0-13.33-6.131-13.33-13.7c0-7.57,5.97-13.71,13.33-13.71C1671.2,417.74,1677.17,423.88,1677.17,431.45z"></path>
		<path fill="none" stroke="#000000" stroke-miterlimit="10" d="M1432.17,378.75c0,5.11-3.729,9.25-8.34,9.25    c-4.6,0-8.33-4.14-8.33-9.25s3.73-9.25,8.33-9.25C1428.44,369.5,1432.17,373.64,1432.17,378.75z"></path>
		<path fill="none" stroke="#000000" stroke-miterlimit="10" d="M1432.5,462.32c0,5.25-4.03,9.5-9,9.5s-9-4.25-9-9.5s4.03-9.5,9-9.5    S1432.5,457.07,1432.5,462.32z"></path>
		<rect x="1528.5" y="449.65" fill="none" stroke="#000000" stroke-miterlimit="10" width="30.05" height="12.67"></rect>
		<rect x="1689.17" y="449.65" fill="none" stroke="#000000" stroke-miterlimit="10" width="33.33" height="14.85"></rect>
		<rect x="1453.17" y="519.25" fill="none" stroke="#000000" stroke-miterlimit="10" width="41.97" height="20.08"></rect>
		<rect x="1529.5" y="519.25" fill="none" stroke="#000000" stroke-miterlimit="10" width="89.33" height="20.08"></rect>
		<path fill="none" stroke="#000000" stroke-miterlimit="10" d="M1618.41,435.59c0,0,0.02-0.14,0.06-0.39    c0.42-2.53,3.24-16.01,13.94,0.39"></path>
		<path fill="none" stroke="#000000" stroke-miterlimit="10" d="M1632.41,434.84c0.109,0.19,0.21,0.391,0.31,0.59    c3.37,6.48,4.54,14.34,4.84,21.511c0,0,0.061,7.779-3.46,10.29c-9.71,6.909-14.159-1.95-16.229-9.82    c-0.01-0.05-0.03-0.101-0.04-0.15"></path>
		<path fill="none" stroke="#000000" stroke-miterlimit="10" d="M1618.41,434.84c0.02,0.12,0.04,0.24,0.06,0.36    c0.61,3.79,0.811,7.71,0.42,11.53"></path>
		<polyline fill="none" stroke="#000000" stroke-miterlimit="10" points="1618.89,446.73 1617.87,457.41 1617.83,457.84   "></polyline>
		<line fill="none" stroke="#000000" stroke-miterlimit="10" x1="953.17" y1="34.67" x2="953.17" y2="99.84"></line>
		<polyline fill="none" stroke="#000000" stroke-width="3" stroke-miterlimit="10" points="1559.38,5.54 1596,5.54 1642,5.54     2037.17,5.54 2037.17,34.67 2037.17,554 1810,554   "></polyline>
		<rect x="1882.5" y="316" fill="none" stroke="#000000" stroke-miterlimit="10" width="45.5" height="63"></rect>
		<rect x="1981" y="464.5" fill="none" stroke="#000000" stroke-miterlimit="10" width="33" height="17.5"></rect>
		<rect x="1977" y="503.5" fill="none" stroke="#000000" stroke-miterlimit="10" width="51" height="20.5"></rect>
		<rect x="1928" y="45.5" fill="none" stroke="#000000" stroke-miterlimit="10" width="39.5" height="60"></rect>
		<line fill="none" stroke="#000000" stroke-miterlimit="10" x1="1642" y1="34.67" x2="1642" y2="5.54"></line>
		<polyline fill="none" stroke="#000000" stroke-miterlimit="10" points="1596,5.54 1596,26 1631,26 1631,34.67   "></polyline>
		<polyline fill="none" stroke="#000000" stroke-miterlimit="10" points="2037.17,34.67 1642,34.67 1631,34.67 1559.77,34.67     1559.35,34.67 1524.17,34.67 1516.28,34.67 1474,34.67 1423.5,34.67 1373.5,34.67 1363,34.67 1363,26 1330.5,26   "></polyline>
		<rect x="1942.5" y="199.33" fill="none" stroke="#000000" stroke-miterlimit="10" width="38.5" height="14.67"></rect>
		<line fill="none" stroke="#000000" stroke-miterlimit="10" x1="1448.75" y1="210.67" x2="1448.75" y2="188"></line>
		<line fill="none" stroke="#000000" stroke-miterlimit="10" x1="711.5" y1="252.67" x2="711.5" y2="554"></line>
		<line fill="none" stroke="#000000" stroke-miterlimit="10" x1="1329.5" y1="554" x2="1331" y2="251.62"></line>
	</g>
</g>
<text transform='matrix(1 0 0 1 28.0 83.0)' font-size='12' tid='16088'>空侧商业</text>
<text transform='matrix(1 0 0 1 31.0 180.0)' font-size='12' tid='16089'>空侧商业</text>
<text transform='matrix(1 0 0 1 83.0 75.0)' font-size='12' tid='16090'>G楼梯LT-A-2</text>
<text transform='matrix(1 0 0 1 98.0 55.0)' font-size='12' tid='16091'>G电梯DT-A-3</text>
<text transform='matrix(1 0 0 1 111.0 88.0)' font-size='12' tid='16092'>电梯厅</text>
<text transform='matrix(1 0 0 1 85.0 100.0)' font-size='12' tid='16093'>前室</text>
<text transform='matrix(1 0 0 1 247.0 86.0)' font-size='12' tid='16094'>G扶梯FT-A-1</text>
<text transform='matrix(1 0 0 1 222.0 55.0)' font-size='12' tid='16095'>G电梯DT-A-5</text>
<text transform='matrix(1 0 0 1 412.0 21.0)' font-size='12' tid='16097'>G楼梯LT-A-5</text>
<text transform='matrix(1 0 0 1 664.0 20.0)' font-size='12' tid='16098'>G楼梯LT-A-8</text>
<text transform='matrix(1 0 0 1 1017.0 21.0)' font-size='12' tid='16099'>G楼梯LT-A-11</text>
<text transform='matrix(1 0 0 1 1238.0 23.0)' font-size='12' tid='16100'>G楼梯LT-A-10</text>
<text transform='matrix(1 0 0 1 186.0 72.0)' font-size='12' tid='16101'>走道</text>
<text transform='matrix(1 0 0 1 326.0 77.0)' font-size='12' tid='16102'>S西提岛咖啡厅T4-2-52</text>
<text transform='matrix(1 0 0 1 371.0 54.0)' font-size='12' tid='16103'>S数码专门店T4-2-51</text>
<text transform='matrix(1 0 0 1 450.0 82.0)' font-size='12' tid='16104'>G扶梯FT-A-J2</text>
<text transform='matrix(1 0 0 1 450.0 55.0)' font-size='12' tid='16105'>走道</text>
<text transform='matrix(1 0 0 1 481.0 97.0)' font-size='12' tid='16106'>Sshe's品牌店</text>
<text transform='matrix(1 0 0 1 487.0 50.0)' font-size='12' tid='16107'>S天福茶叶店T4-2-49</text>
<text transform='matrix(1 0 0 1 571.0 61.0)' font-size='12' tid='16108'>Sg-linkT4-2-48</text>
<text transform='matrix(1 0 0 1 634.0 46.0)' font-size='12' tid='16109'>S连天红T4-2-47</text>
<text transform='matrix(1 0 0 1 698.0 75.0)' font-size='12' tid='16110'>走道</text>
<text transform='matrix(1 0 0 1 744.0 56.0)' font-size='12' tid='16111'>G名品集成标段T4-2-46</text>
<text transform='matrix(1 0 0 1 958.0 53.0)' font-size='12' tid='16112'>S迪桑娜T4-2-45</text>
<text transform='matrix(1 0 0 1 1013.0 80.0)' font-size='12' tid='16113'>走道</text>
<text transform='matrix(1 0 0 1 1207.0 71.0)' font-size='12' tid='16114'>走道</text>
<text transform='matrix(1 0 0 1 1025.0 63.0)' font-size='12' tid='16115'>S贝利龙T4-2-44</text>
<text transform='matrix(1 0 0 1 1076.0 42.0)' font-size='12' tid='16116'>S品牌店T4-2-43</text>
<text transform='matrix(1 0 0 1 1127.0 64.0)' font-size='12' tid='16117'>S鑫泉阁T4-2-42</text>
<text transform='matrix(1 0 0 1 1160.0 50.0)' font-size='12' tid='16118'>S金色世纪T4-2-41</text>
<text transform='matrix(1 0 0 1 1243.0 59.0)' font-size='12' tid='16119'>S黔粹行T4-2-40</text>
<text transform='matrix(1 0 0 1 1276.0 75.0)' font-size='12' tid='16120'>S品牌店T4-2-39</text>
<text transform='matrix(1 0 0 1 1335.0 47.0)' font-size='12' tid='16121'>S品牌店T4-2-38</text>
<text transform='matrix(1 0 0 1 1377.0 61.0)' font-size='12' tid='16122'>S茶叶店T4-2-37</text>
<text transform='matrix(1 0 0 1 1437.0 73.0)' font-size='12' tid='16123'>S茶叶店T4-2-36</text>
<text transform='matrix(1 0 0 1 1428.0 130.0)' font-size='12' tid='16124'>S台湾原产食品店T4-2-35</text>
<text transform='matrix(1 0 0 1 1428.0 165.0)' font-size='12' tid='16125'>S品牌店T4-2-34</text>
<text transform='matrix(1 0 0 1 1490.0 53.0)' font-size='12' tid='16126'>山航</text>
<text transform='matrix(1 0 0 1 1539.0 54.0)' font-size='12' tid='16127'>山航</text>
<text transform='matrix(1 0 0 1 1607.0 22.0)' font-size='12' tid='16128'>G楼梯LT-C-5</text>
<text transform='matrix(1 0 0 1 1536.0 94.0)' font-size='12' tid='16131'>走道</text>
<text transform='matrix(1 0 0 1 1538.0 143.0)' font-size='12' tid='16132'>国航</text>
<text transform='matrix(1 0 0 1 1490.0 110.0)' font-size='12' tid='16133'>海航</text>
<text transform='matrix(1 0 0 1 1491.0 160.0)' font-size='12' tid='16134'>东航</text>
<text transform='matrix(1 0 0 1 1492.0 202.0)' font-size='12' tid='16135'>春秋</text>
<text transform='matrix(1 0 0 1 1536.0 220.0)' font-size='12' tid='16136'>深航</text>
<text transform='matrix(1 0 0 1 1430.0 195.0)' font-size='12' tid='16138'>F搜身室-东侧</text>
<text transform='matrix(1 0 0 1 1942.0 77.0)' font-size='12' tid='16139'>G楼梯LT-C-3</text>
<text transform='matrix(1 0 0 1 1912.0 350.0)' font-size='12' tid='16140'>G楼梯LT-C-2</text>
<text transform='matrix(1 0 0 1 1994.0 523.0)' font-size='12' tid='16141'>G楼梯LT-C-1</text>
<text transform='matrix(1 0 0 1 1990.0 483.0)' font-size='12' tid='16142'>G电梯-DT-C-4</text>
<text transform='matrix(1 0 0 1 1950.0 215.0)' font-size='12' tid='16143'>配电间C2-2</text>
<text transform='matrix(1 0 0 1 1746.0 246.0)' font-size='12' tid='16144'>走道</text>
<text transform='matrix(1 0 0 1 1438.0 226.0)' font-size='12' tid='16145'>Sarden工艺礼品T4-2-54</text>
<text transform='matrix(1 0 0 1 1475.0 236.0)' font-size='12' tid='16146'>S面包公爵T4-2-55</text>
<text transform='matrix(1 0 0 1 1301.0 221.0)' font-size='12' tid='16147'>安检通道</text>
<text transform='matrix(1 0 0 1 1426.0 379.0)' font-size='12' tid='16148'>G围住座椅5</text>
<text transform='matrix(1 0 0 1 1464.0 536.0)' font-size='12' tid='16150'>G电梯-DT-C-1</text>
<text transform='matrix(1 0 0 1 1560.0 537.0)' font-size='12' tid='16151'>G扶梯FT-C-1</text>
<text transform='matrix(1 0 0 1 1424.0 473.0)' font-size='12' tid='16152'>G自助值机7</text>
<text transform='matrix(1 0 0 1 1594.0 425.0)' font-size='12' tid='16153'>S品牌店T4-2-14</text>
<text transform='matrix(1 0 0 1 1669.0 440.0)' font-size='12' tid='16154'>S统联便利店T4-2-15</text>
<text transform='matrix(1 0 0 1 1628.0 459.0)' font-size='12' tid='16155'>G绿岛7</text>
<text transform='matrix(1 0 0 1 1537.0 467.0)' font-size='12' tid='16156'>G自助值机8</text>
<text transform='matrix(1 0 0 1 1698.0 465.0)' font-size='12' tid='16157'>G自助值机9</text>
<text transform='matrix(1 0 0 1 1198.0 130.0)' font-size='12' tid='16158'>S海产品专卖T4-2-33</text>
<text transform='matrix(1 0 0 1 1013.0 121.0)' font-size='12' tid='16159'>S上好仁真品T4-2-30</text>
<text transform='matrix(1 0 0 1 1184.0 163.0)' font-size='12' tid='16160'>G楼梯LT-A-J5</text>
<text transform='matrix(1 0 0 1 1212.0 204.0)' font-size='12' tid='16161'>配电间</text>
<text transform='matrix(1 0 0 1 1181.0 241.0)' font-size='12' tid='16162'>F安检保卫部42-Z-14</text>
<text transform='matrix(1 0 0 1 1058.0 164.0)' font-size='12' tid='16163'>S兴航便利店F库房T4-2-31</text>
<text transform='matrix(1 0 0 1 1163.0 232.0)' font-size='12' tid='16164'>库房</text>
<text transform='matrix(1 0 0 1 1206.0 280.0)' font-size='12' tid='16165'>F库房42-Z-13</text>
<text transform='matrix(1 0 0 1 1160.0 271.0)' font-size='12' tid='16166'>F库房42-B-21</text>
<text transform='matrix(1 0 0 1 815.0 454.0)' font-size='12' tid='16167'>G绿岛4</text>
<text transform='matrix(1 0 0 1 1226.0 471.0)' font-size='12' tid='16168'>G绿岛5</text>
<text transform='matrix(1 0 0 1 722.0 392.0)' font-size='12' tid='16169'>G绿岛3</text>
<text transform='matrix(1 0 0 1 1319.0 390.0)' font-size='12' tid='16170'>G绿岛6</text>
<text transform='matrix(1 0 0 1 889.0 457.0)' font-size='12' tid='16171'>G自助值机4</text>
<text transform='matrix(1 0 0 1 1018.0 461.0)' font-size='12' tid='16172'>G自助值机5</text>
<text transform='matrix(1 0 0 1 1102.0 468.0)' font-size='12' tid='16173'>G自助值机6</text>
<text transform='matrix(1 0 0 1 1267.0 448.0)' font-size='12' tid='16174'>S品牌店T4-2-12</text>
<text transform='matrix(1 0 0 1 1023.0 383.0)' font-size='12' tid='16175'>G围住座椅3</text>
<text transform='matrix(1 0 0 1 758.0 523.0)' font-size='12' tid='16176'>G售票柜台</text>
<text transform='matrix(1 0 0 1 897.0 551.0)' font-size='12' tid='16177'>G行李打包1</text>
<text transform='matrix(1 0 0 1 1112.0 552.0)' font-size='12' tid='16178'>G行李打包2</text>
<text transform='matrix(1 0 0 1 1168.0 533.0)' font-size='12' tid='16180'>G手礼网T4-2-13</text>
<text transform='matrix(1 0 0 1 984.0 215.0)' font-size='12' tid='16181'>G男女卫生间42-w-9</text>
<text transform='matrix(1 0 0 1 1015.0 175.0)' font-size='12' tid='16182'>走道</text>
<text transform='matrix(1 0 0 1 1008.0 264.0)' font-size='12' tid='16183'>走道</text>
<text transform='matrix(1 0 0 1 1016.0 308.0)' font-size='12' tid='16184'>走道</text>
<text transform='matrix(1 0 0 1 909.0 308.0)' font-size='12' tid='16185'>行李</text>
<text transform='matrix(1 0 0 1 1085.0 304.0)' font-size='12' tid='16186'>行李</text>
<text transform='matrix(1 0 0 1 912.0 251.0)' font-size='12' tid='16187'>F开包间42-Z-8</text>
<text transform='matrix(1 0 0 1 912.0 207.0)' font-size='12' tid='16188'>F安检保卫部42-Z-9</text>
<text transform='matrix(1 0 0 1 1048.0 211.0)' font-size='12' tid='16189'>F安检保卫部42-J-5</text>
<text transform='matrix(1 0 0 1 1080.0 227.0)' font-size='12' tid='16190'>安检保卫部</text>
<text transform='matrix(1 0 0 1 1121.0 209.0)' font-size='12' tid='16191'>安检保卫部</text>
<text transform='matrix(1 0 0 1 930.0 167.0)' font-size='12' tid='16192'>F配电间A2-3</text>
<text transform='matrix(1 0 0 1 975.0 158.0)' font-size='12' tid='16193'>S兴航水果店T4-2-29</text>
<text transform='matrix(1 0 0 1 979.0 179.0)' font-size='12' tid='16194'>配电间</text>
<text transform='matrix(1 0 0 1 852.0 156.0)' font-size='12' tid='16195'>S圣祖品牌店T4-2-28</text>
<text transform='matrix(1 0 0 1 846.0 178.0)' font-size='12' tid='16196'>G扶梯FT-A-J3</text>
<text transform='matrix(1 0 0 1 836.0 219.0)' font-size='12' tid='16197'>G安检保卫部42-Z-07</text>
<text transform='matrix(1 0 0 1 790.0 212.0)' font-size='12' tid='16198'>SoffermanT4-2-27</text>
<text transform='matrix(1 0 0 1 824.0 282.0)' font-size='12' tid='16200'>F值班室42-B-19</text>
<text transform='matrix(1 0 0 1 863.0 264.0)' font-size='12' tid='16201'>F值班室42-Z-6</text>
<text transform='matrix(1 0 0 1 1079.0 250.0)' font-size='12' tid='16203'>F开包间42-Z-12</text>
<text transform='matrix(1 0 0 1 765.0 307.0)' font-size='12' tid='16204'>F贵宾值机区-安检西</text>
<text transform='matrix(1 0 0 1 691.0 226.0)' font-size='12' tid='16205'>安检通道</text>
<text transform='matrix(1 0 0 1 416.0 460.0)' font-size='12' tid='16206'>G绿岛2</text>
<text transform='matrix(1 0 0 1 313.0 394.0)' font-size='12' tid='16207'>G绿岛1</text>
<text transform='matrix(1 0 0 1 445.0 533.0)' font-size='12' tid='16208'>G扶梯FT-A-3</text>
<text transform='matrix(1 0 0 1 558.0 538.0)' font-size='12' tid='16209'>G电梯-DT-A-8</text>
<text transform='matrix(1 0 0 1 474.0 431.0)' font-size='12' tid='16210'>S友鱼T4-2-10</text>
<text transform='matrix(1 0 0 1 546.0 437.0)' font-size='12' tid='16211'>S烟草专卖店T4-2-11</text>
<text transform='matrix(1 0 0 1 334.0 466.0)' font-size='12' tid='16212'>LCF3-02</text>
<text transform='matrix(1 0 0 1 493.0 457.0)' font-size='12' tid='16213'>G自助值机2</text>
<text transform='matrix(1 0 0 1 618.0 383.0)' font-size='12' tid='16214'>G围住座椅2</text>
<text transform='matrix(1 0 0 1 419.0 388.0)' font-size='12' tid='16215'>G围住座椅1</text>
<text transform='matrix(1 0 0 1 657.0 463.0)' font-size='12' tid='16216'>G综合服务台1</text>
<text transform='matrix(1 0 0 1 569.0 177.0)' font-size='12' tid='16217'>S迪士尼T4-2-25</text>
<text transform='matrix(1 0 0 1 602.0 215.0)' font-size='12' tid='16218'>安检保卫部</text>
<text transform='matrix(1 0 0 1 602.0 247.0)' font-size='12' tid='16219'>库房</text>
<text transform='matrix(1 0 0 1 443.0 171.0)' font-size='12' tid='16220'>走道</text>
<text transform='matrix(1 0 0 1 349.0 178.0)' font-size='12' tid='16221'>G扶梯FT-A-J5</text>
<text transform='matrix(1 0 0 1 395.0 202.0)' font-size='12' tid='16222'>G电梯DT-A-6</text>
<text transform='matrix(1 0 0 1 426.0 207.0)' font-size='12' tid='16223'>G电梯DT-A-7</text>
<text transform='matrix(1 0 0 1 534.0 202.0)' font-size='12' tid='16224'>S纳斯达斯T4-2-24</text>
<text transform='matrix(1 0 0 1 499.0 190.0)' font-size='12' tid='16225'>SswisswinT4-2-23</text>
<text transform='matrix(1 0 0 1 466.0 177.0)' font-size='12' tid='16226'>S与狼共舞T4-2-22</text>
<text transform='matrix(1 0 0 1 576.0 277.0)' font-size='12' tid='16227'>S聚丰T4-2-9</text>
<text transform='matrix(1 0 0 1 528.0 267.0)' font-size='12' tid='16228'>S万仟堂T4-2-8</text>
<text transform='matrix(1 0 0 1 499.0 291.0)' font-size='12' tid='16229'>S大宋官窑T4-2-7</text>
<text transform='matrix(1 0 0 1 467.0 310.0)' font-size='12' tid='16230'>S品牌店T4-2-6</text>
<text transform='matrix(1 0 0 1 400.0 232.0)' font-size='12' tid='16231'>配电间</text>
<text transform='matrix(1 0 0 1 451.0 291.0)' font-size='12' tid='16232'>走道</text>
<text transform='matrix(1 0 0 1 373.0 259.0)' font-size='12' tid='16233'>S华祥苑茶叶店T4-2-5</text>
<text transform='matrix(1 0 0 1 373.0 307.0)' font-size='12' tid='16234'>S中信书店T4-2-4</text>
<text transform='matrix(1 0 0 1 320.0 165.0)' font-size='12' tid='16235'>S日春茶叶T4-2-20</text>
<text transform='matrix(1 0 0 1 270.0 204.0)' font-size='12' tid='16236'>S台湾原产食品T4-2-19</text>
<text transform='matrix(1 0 0 1 220.0 195.0)' font-size='12' tid='16237'>S中信书店T4-2-18</text>
<text transform='matrix(1 0 0 1 170.0 181.0)' font-size='12' tid='16238'>G男女卫生间42-w-6</text>
<text transform='matrix(1 0 0 1 118.0 161.0)' font-size='12' tid='16239'>S名品牌集成标段T4-2-17</text>
<text transform='matrix(1 0 0 1 143.0 199.0)' font-size='12' tid='16240'>配电间</text>
<text transform='matrix(1 0 0 1 228.0 231.0)' font-size='12' tid='16243'>F安检监控室42-J-02</text>
<text transform='matrix(1 0 0 1 339.0 253.0)' font-size='12' tid='16246'>S伊示雅T4-2-3</text>
<text transform='matrix(1 0 0 1 310.0 297.0)' font-size='12' tid='16247'>ATM</text>
<text transform='matrix(1 0 0 1 240.0 282.0)' font-size='12' tid='16248'>F配电间A2-2</text>
<text transform='matrix(1 0 0 1 238.0 307.0)' font-size='12' tid='16249'>S银行T4-2-2</text>
<text transform='matrix(1 0 0 1 196.0 362.0)' font-size='12' tid='16250'>S外交官品牌店T4-2-53</text>
<text transform='matrix(1 0 0 1 517.0 140.0)' font-size='12' tid='16251'>S兴航烟草专卖T4-2-26</text>
<text transform='matrix(1 0 0 1 413.0 116.0)' font-size='12' tid='16252'>S大智慧品牌店T4-2-21</text>
<text transform='matrix(1 0 0 1 123.0 335.0)' font-size='12' tid='16253'>G楼梯LT-A-3</text>
<text transform='matrix(1 0 0 1 148.0 353.0)' font-size='12' tid='16254'>G电梯DT-A-4</text>
<text transform='matrix(1 0 0 1 148.0 381.0)' font-size='12' tid='16255'>G电梯厅-出发层西侧</text>
<text transform='matrix(1 0 0 1 169.0 336.0)' font-size='12' tid='16256'>走道</text>
<text transform='matrix(1 0 0 1 117.0 364.0)' font-size='12' tid='16257'>F前室-出发层西侧</text>
<text transform='matrix(1 0 0 1 165.0 314.0)' font-size='12' tid='16258'>F警卫室42-Z-2</text>
<text transform='matrix(1 0 0 1 123.0 276.0)' font-size='12' tid='16259'>G女卫生间42-W-5</text>
<text transform='matrix(1 0 0 1 119.0 308.0)' font-size='12' tid='16260'>G男卫生间42-W-4</text>
<text transform='matrix(1 0 0 1 163.0 285.0)' font-size='12' tid='16261'>F值班室42-Z-4</text>
<text transform='matrix(1 0 0 1 120.0 216.0)' font-size='12' tid='16262'>F货物安检区-出发层西侧</text>
<text transform='matrix(1 0 0 1 170.0 251.0)' font-size='12' tid='16263'>F机房42-J-1</text>
<text transform='matrix(1 0 0 1 73.0 249.0)' font-size='12' tid='16264'>F兆翔物业仓库</text>
<text transform='matrix(1 0 0 1 88.0 541.0)' font-size='12' tid='16266'>走道</text>
<text transform='matrix(1 0 0 1 40.0 425.0)' font-size='12' tid='16267'>G卫生间42-W-1</text>
<text transform='matrix(1 0 0 1 147.0 422.0)' font-size='12' tid='16268'>G无障碍卫生间42-W-3</text>
<text transform='matrix(1 0 0 1 139.0 450.0)' font-size='12' tid='16269'>G扶梯FT-A-J1</text>
<text transform='matrix(1 0 0 1 34.0 486.0)' font-size='12' tid='16270'>G电梯T4-A-1</text>
<text transform='matrix(1 0 0 1 15.0 521.0)' font-size='12' tid='16271'>G楼梯LT-A-1</text>
<text transform='matrix(1 0 0 1 80.0 474.0)' font-size='12' tid='16272'>厨房</text>
<text transform='matrix(1 0 0 1 129.0 486.0)' font-size='12' tid='16273'>SCOSTA麦当劳锦一味T4-2-1</text>
<text transform='matrix(1 0 0 1 45.0 242.0)' font-size='12' tid='16274'>F兆翔物业经理办公室42-B-11</text>
<text transform='matrix(1 0 0 1 9.0 234.0)' font-size='12' tid='16275'>F兆翔物业办公室42-B-12</text>
<text transform='matrix(1 0 0 1 47.0 288.0)' font-size='12' tid='16276'>F元翔地勤办公室</text>
<text transform='matrix(1 0 0 1 10.0 273.0)' font-size='12' tid='16277'>F预留办公室42-B-7</text>
<text transform='matrix(1 0 0 1 65.0 317.0)' font-size='12' tid='16278'>办公室</text>
<text transform='matrix(1 0 0 1 10.0 312.0)' font-size='12' tid='16279'>F预留办公室42-B-6</text>
<text transform='matrix(1 0 0 1 72.0 348.0)' font-size='12' tid='16280'>F手推车休息室42-b-03</text>
<text transform='matrix(1 0 0 1 44.0 343.0)' font-size='12' tid='16281'>F交警办公室42-b-2</text>
<text transform='matrix(1 0 0 1 10.0 349.0)' font-size='12' tid='16282'>F预留办公室42-B-1</text>
<text transform='matrix(1 0 0 1 11.0 369.0)' font-size='12' tid='16283'>F配电间4A-8</text>
<text transform='matrix(1 0 0 1 73.0 375.0)' font-size='12' tid='16284'>F弱电室4A-7</text>
<text transform='matrix(1 0 0 1 1370.0 478.0)' font-size='12' tid='19912'>G综合服务台2</text>
<text transform='matrix(1 0 0 1 699.0 144.0)' font-size='12' tid='19913'>出发大厅（安检后）</text>
<text transform='matrix(1 0 0 1 487.0 361.0)' font-size='12' tid='19914'>西侧出发大厅（安检前）</text>
<text transform='matrix(1 0 0 1 1387.0 338.0)' font-size='12' tid='19915'>东侧出发大厅（安检前）</text>
<text transform='matrix(1 0 0 1 896.0 389.0)' font-size='12' tid='19916'>办票厅</text>
<text transform='matrix(1 0 0 1 119.0 63.0)' font-size='12' tid='19917'>LCF3-17</text>
<text transform='matrix(1 0 0 1 305.0 107.0)' font-size='12' tid='19918'>ZDF3-01</text>
<text transform='matrix(1 0 0 1 423.0 138.0)' font-size='12' tid='19919'>HLF3-08</text>
<text transform='matrix(1 0 0 1 947.0 151.0)' font-size='12' tid='19920'>ZDF3-02</text>
<text transform='matrix(1 0 0 1 968.0 132.0)' font-size='12' tid='19921'>HLF3-09</text>
<text transform='matrix(1 0 0 1 1160.0 126.0)' font-size='12' tid='19922'>HLF3-10</text>
<text transform='matrix(1 0 0 1 1219.0 108.0)' font-size='12' tid='19923'>ZDF3-03</text>
<text transform='matrix(1 0 0 1 353.0 329.0)' font-size='12' tid='19924'>HLF3-01</text>
<text transform='matrix(1 0 0 1 448.0 329.0)' font-size='12' tid='19925'>HLF3-02</text>
<text transform='matrix(1 0 0 1 551.0 330.0)' font-size='12' tid='19926'>HLF3-03</text>
<text transform='matrix(1 0 0 1 624.0 303.0)' font-size='12' tid='19927'>LCF3-18</text>
<text transform='matrix(1 0 0 1 677.0 259.0)' font-size='12' tid='19928'>LTF3-01-06</text>
<text transform='matrix(1 0 0 1 783.0 259.0)' font-size='12' tid='19929'>ETF3-01</text>
<text transform='matrix(1 0 0 1 856.0 337.0)' font-size='12' tid='19930'>HLF3-04</text>
<text transform='matrix(1 0 0 1 939.0 337.0)' font-size='12' tid='19931'>HLF3-05</text>
<text transform='matrix(1 0 0 1 1084.0 337.0)' font-size='12' tid='19932'>HLF3-06</text>
<text transform='matrix(1 0 0 1 1178.0 337.0)' font-size='12' tid='19933'>HLF3-07</text>
<text transform='matrix(1 0 0 1 1227.0 320.0)' font-size='12' tid='19934'>LCF3-19</text>
<text transform='matrix(1 0 0 1 1344.0 258.0)' font-size='12' tid='19935'>LTF3-07-13</text>
<text transform='matrix(1 0 0 1 1317.0 260.0)' font-size='12' tid='19936'>ETF3-02</text>
<text transform='matrix(1 0 0 1 1710.0 470.0)' font-size='12' tid='19937'>LCF3-16</text>
<text transform='matrix(1 0 0 1 1703.0 454.0)' font-size='12' tid='19938'>LCF3-15</text>
<text transform='matrix(1 0 0 1 1627.0 409.0)' font-size='12' tid='19939'>DQF3-07</text>
<text transform='matrix(1 0 0 1 1543.0 468.0)' font-size='12' tid='19940'>LCF3-14</text>
<text transform='matrix(1 0 0 1 1538.0 454.0)' font-size='12' tid='19941'>LCF3-13</text>
<text transform='matrix(1 0 0 1 1429.0 419.0)' font-size='12' tid='19942'>DQF3-06</text>
<text transform='matrix(1 0 0 1 1347.0 461.0)' font-size='12' tid='19943'>LCF3-12</text>
<text transform='matrix(1 0 0 1 1348.0 446.0)' font-size='12' tid='19944'>LCF3-11</text>
<text transform='matrix(1 0 0 1 1227.0 417.0)' font-size='12' tid='19945'>DQF3-05</text>
<text transform='matrix(1 0 0 1 1023.0 420.0)' font-size='12' tid='19946'>DQF3-04</text>
<text transform='matrix(1 0 0 1 821.0 420.0)' font-size='12' tid='19947'>DQF3-03</text>
<text transform='matrix(1 0 0 1 624.0 416.0)' font-size='12' tid='19948'>DQF3-02</text>
<text transform='matrix(1 0 0 1 421.0 416.0)' font-size='12' tid='19949'>DQF3-01</text>
<text transform='matrix(1 0 0 1 1104.0 470.0)' font-size='12' tid='19950'>LCF3-10</text>
<text transform='matrix(1 0 0 1 1107.0 453.0)' font-size='12' tid='19951'>LCF3-09</text>
<text transform='matrix(1 0 0 1 901.0 470.0)' font-size='12' tid='19952'>LCF3-08</text>
<text transform='matrix(1 0 0 1 902.0 454.0)' font-size='12' tid='19953'>LCF3-07</text>
<text transform='matrix(1 0 0 1 704.0 470.0)' font-size='12' tid='19954'>LCF3-06</text>
<text transform='matrix(1 0 0 1 700.0 455.0)' font-size='12' tid='19955'>LCF3-05</text>
<text transform='matrix(1 0 0 1 508.0 468.0)' font-size='12' tid='19956'>LCF3-04</text>
<text transform='matrix(1 0 0 1 499.0 454.0)' font-size='12' tid='19957'>LCF3-03</text>
<text transform='matrix(1 0 0 1 341.0 454.0)' font-size='12' tid='19958'>LCF3-01</text>
<text transform='matrix(1 0 0 1 370.0 192.0)' font-size='12' tid='21827'>F安检用房42-B-17</text>
<text transform='matrix(1 0 0 1 834.0 257.0)' font-size='12' tid='21828'>通道</text>
</svg>
