<?xml version="1.0" encoding="utf-8"?>
<!-- Generator: Adobe Illustrator 15.0.0, SVG Export Plug-In . SVG Version: 6.00 Build 0)  -->
<!DOCTYPE svg PUBLIC "-//W3C//DTD SVG 1.1//EN" "http://www.w3.org/Graphics/SVG/1.1/DTD/svg11.dtd">
<svg version="1.1" id="&#x56FE;&#x5C42;_1" xmlns="http://www.w3.org/2000/svg" xmlns:xlink="http://www.w3.org/1999/xlink" x="0px"
	 y="0px" width="1322.877px" height="371.4px" viewBox="0 0 1322.877 371.4" style="enable-background:new 0 0 1322.877 371.4;"
	 xml:space="preserve">
<g id="&#x56FE;&#x5C42;_1_1_">
</g>
<g id="XMLID_1_">
	<g>
		<g id="XMLID_2_">
			<g>
				<rect x="1293.879" y="333.4" style="fill:#F6CCAB;" width="23" height="35"/>
				<path style="fill:#FFFFFF;" d="M1316.879,189.1v144.3h-23v-21h-76v21h76v35h-792v-56h-27v20.5h-32v-74.5h103v18v10v10v9v10v11v7
					h51h199v-64v-82h43h20.5h0.5h57h22h81h22h34h22h97h18h55.5h0.5h17h0.439v2.399L1316.879,189.1z M1301.879,288.4v-86h-38v86
					H1301.879z M1222.879,288.4v-81h-30v81H1222.879z M1104.879,286.4v-84h-32v84H1104.879z M1046.879,287.4v-79h-32v79H1046.879z
					 M952.879,287.4v-84h-36v84H952.879z M867.879,286.4v-83h-34v83H867.879z"/>
				<rect x="1263.879" y="202.4" style="fill:#F6CCAB;" width="38" height="86"/>
				<rect x="1217.879" y="312.4" style="fill:#F6CCAB;" width="76" height="21"/>
				<polygon style="fill:#F6CCAB;" points="1286.608,23.44 1286.318,187.4 1285.879,187.4 1285.879,57.4 1285.379,57.4 
					1268.879,57.4 1212.879,57.4 1194.879,57.4 1097.879,57.4 1075.879,57.4 1041.879,57.4 1019.879,57.4 938.879,57.4 
					916.879,57.4 859.879,57.4 838.879,57.4 392.878,57.4 370.878,57.4 319.878,57.4 298.878,57.4 235.878,57.4 217.878,57.4 
					136.878,57.4 118.878,57.4 4.878,57.4 4.878,4.4 442.378,4.4 443.208,22.81 				"/>
				<polygon style="fill:#F6CCAB;" points="1285.879,57.4 1285.879,187.4 1268.879,187.4 1268.879,57.4 1285.379,57.4 				"/>
				<polygon style="fill:#FFFFFF;" points="1268.879,57.4 1268.879,187.4 1268.379,187.4 1212.879,187.4 1212.879,57.4 				"/>
				<rect x="1192.879" y="207.4" style="fill:#F6CCAB;" width="30" height="81"/>
				<rect x="1194.879" y="57.4" style="fill:#F6CCAB;" width="18" height="130"/>
				<rect x="1097.879" y="57.4" style="fill:#FFFFFF;" width="97" height="130"/>
				<rect x="1072.879" y="202.4" style="fill:#F6CCAB;" width="32" height="84"/>
				<rect x="1075.879" y="57.4" style="fill:#F6CCAB;" width="22" height="130"/>
				<rect x="1041.879" y="57.4" style="fill:#FFFFFF;" width="34" height="130"/>
				<rect x="1014.879" y="208.4" style="fill:#F6CCAB;" width="32" height="79"/>
				<rect x="1019.879" y="57.4" style="fill:#F6CCAB;" width="22" height="130"/>
				<rect x="938.879" y="57.4" style="fill:#FFFFFF;" width="81" height="130"/>
				<rect x="916.879" y="203.4" style="fill:#F6CCAB;" width="36" height="84"/>
				<rect x="916.879" y="57.4" style="fill:#F6CCAB;" width="22" height="130"/>
				<rect x="859.879" y="57.4" style="fill:#FFFFFF;" width="57" height="130"/>
				<rect x="833.879" y="203.4" style="fill:#F6CCAB;" width="34" height="83"/>
				<polygon style="fill:#F6CCAB;" points="859.879,57.4 859.879,187.4 859.379,187.4 838.879,187.4 838.879,57.4 				"/>
				<polygon style="fill:#FFFFFF;" points="838.879,57.4 838.879,187.4 795.879,187.4 596.878,187.4 545.878,187.4 442.878,187.4 
					392.878,187.23 392.878,57.4 				"/>
				<rect x="596.878" y="269.4" style="fill:#F6CCAB;" width="199" height="64"/>
				<rect x="596.878" y="187.4" style="fill:#F6CCAB;" width="199" height="82"/>
				<rect x="545.878" y="247.4" style="fill:#F6CCAB;" width="20" height="11"/>
				<rect x="545.878" y="296.4" style="fill:#F6CCAB;" width="17" height="9"/>
				<rect x="545.878" y="276.4" style="fill:#F6CCAB;" width="16" height="10"/>
				<rect x="545.878" y="227.4" style="fill:#F6CCAB;" width="16" height="12"/>
				<rect x="545.878" y="206.4" style="fill:#F6CCAB;" width="16" height="11"/>
				<rect x="545.878" y="315.4" style="fill:#F6CCAB;" width="15" height="11"/>
				<polygon style="fill:#F6CCAB;" points="545.878,247.4 545.878,258.4 442.878,258.4 442.878,187.4 545.878,187.4 545.878,206.4 
					545.878,217.4 545.878,227.4 545.878,239.4 				"/>
				<polygon style="fill:#F6CCAB;" points="501.878,312.4 501.878,368.4 474.878,368.4 474.878,367.9 474.878,332.9 474.878,312.4 
									"/>
				<rect x="442.878" y="367.9" style="fill:#FFFFFF;" width="32" height="0.5"/>
				<rect x="442.878" y="332.9" style="fill:#F6CCAB;" width="32" height="35"/>
				<path style="fill:#FFFFFF;" d="M442.878,367.9v0.5h-78v-81h37v-85h-37v85h-45v-81h-31v81h-37v-81h-34v81h22v81h-32.83v-35h-32
					v35h-83.17v-71.5l-87,0.069V185.95l114,0.38v0.07h18v-0.01l81,0.27l81,0.26l72,0.24v0.24h22h50v71v74.5V367.9z M142.878,287.4
					v-76h-25v76H142.878z"/>
				<polygon style="fill:#FFFFFF;" points="442.878,187.4 392.878,187.4 392.878,187.23 				"/>
				<rect x="364.878" y="202.4" style="fill:#F6CCAB;" width="37" height="85"/>
				<polygon style="fill:#FFFFFF;" points="392.878,187.23 392.878,187.4 370.878,187.4 370.878,187.16 				"/>
				<polygon style="fill:#F6CCAB;" points="392.878,57.4 392.878,187.23 370.878,187.16 370.878,57.4 				"/>
				<polygon style="fill:#FFFFFF;" points="370.878,57.4 370.878,187.16 298.878,186.92 298.878,186.4 319.878,186.4 319.878,57.4 
									"/>
				<polygon style="fill:#F6CCAB;" points="364.878,287.4 364.878,368.4 239.878,368.4 239.878,287.4 251.878,287.4 288.878,287.4 
					319.878,287.4 				"/>
				<rect x="288.878" y="206.4" style="fill:#F6CCAB;" width="31" height="81"/>
				<rect x="298.878" y="57.4" style="fill:#F6CCAB;" width="21" height="129"/>
				<polygon style="fill:#FFFFFF;" points="298.878,186.4 298.878,186.92 217.878,186.66 217.878,186.4 235.878,186.4 235.878,57.4 
					298.878,57.4 				"/>
				<polygon style="fill:#F6CCAB;" points="251.878,206.4 251.878,287.4 239.878,287.4 217.878,287.4 217.878,206.4 				"/>
				<rect x="217.878" y="57.4" style="fill:#F6CCAB;" width="18" height="129"/>
				<polygon style="fill:#FFFFFF;" points="217.878,186.4 217.878,186.66 136.878,186.39 136.878,57.4 217.878,57.4 				"/>
				<rect x="175.048" y="333.4" style="fill:#F6CCAB;" width="32" height="35"/>
				<rect x="117.878" y="211.4" style="fill:#F6CCAB;" width="25" height="76"/>
				<polygon style="fill:#F6CCAB;" points="136.878,186.39 136.878,186.4 118.878,186.4 118.878,186.33 				"/>
				<polygon style="fill:#F6CCAB;" points="136.878,57.4 136.878,186.39 118.878,186.33 118.878,57.4 				"/>
				<polygon style="fill:#FFFFFF;" points="118.878,57.4 118.878,186.33 4.878,185.95 4.878,57.4 				"/>
			</g>
			<g>
				<polyline style="fill:none;stroke:#000000;stroke-miterlimit:10;" points="175.048,368.4 91.878,368.4 91.878,296.9 
					4.878,296.969 4.878,185.95 4.878,57.4 4.878,4.4 442.378,4.4 443.208,22.81 1286.608,23.44 1286.318,187.4 1286.318,189.8 
					1316.879,189.1 1316.879,333.4 				"/>
				<line style="fill:none;stroke:#000000;stroke-miterlimit:10;" x1="239.878" y1="368.4" x2="207.048" y2="368.4"/>
				<polyline style="fill:none;stroke:#000000;stroke-miterlimit:10;" points="474.878,368.4 442.878,368.4 364.878,368.4 				"/>
				<line style="fill:none;stroke:#000000;stroke-miterlimit:10;" x1="1293.879" y1="368.4" x2="501.878" y2="368.4"/>
				<polyline style="fill:none;stroke:#000000;stroke-miterlimit:10;" points="136.878,57.4 136.878,186.39 136.878,186.4 
					118.878,186.4 118.878,186.33 118.878,57.4 				"/>
				<polyline style="fill:none;stroke:#000000;stroke-miterlimit:10;" points="235.878,57.4 235.878,186.4 217.878,186.4 
					217.878,57.4 				"/>
				<polyline style="fill:none;stroke:#000000;stroke-miterlimit:10;" points="319.878,57.4 319.878,186.4 298.878,186.4 
					298.878,57.4 				"/>
				<polyline style="fill:none;stroke:#000000;stroke-miterlimit:10;" points="392.878,187.4 370.878,187.4 370.878,187.16 
					370.878,57.4 				"/>
				<line style="fill:none;stroke:#000000;stroke-miterlimit:10;" x1="859.879" y1="57.4" x2="859.879" y2="187.4"/>
				<line style="fill:none;stroke:#000000;stroke-miterlimit:10;" x1="859.379" y1="187.4" x2="838.879" y2="187.4"/>
				<line style="fill:none;stroke:#000000;stroke-miterlimit:10;" x1="938.879" y1="57.4" x2="938.879" y2="187.4"/>
				<line style="fill:none;stroke:#000000;stroke-miterlimit:10;" x1="916.879" y1="187.4" x2="916.879" y2="57.4"/>
				<line style="fill:none;stroke:#000000;stroke-miterlimit:10;" x1="1041.879" y1="57.4" x2="1041.879" y2="187.4"/>
				<line style="fill:none;stroke:#000000;stroke-miterlimit:10;" x1="1019.879" y1="187.4" x2="1019.879" y2="57.4"/>
				<line style="fill:none;stroke:#000000;stroke-miterlimit:10;" x1="1097.879" y1="57.4" x2="1097.879" y2="187.4"/>
				<line style="fill:none;stroke:#000000;stroke-miterlimit:10;" x1="1075.879" y1="187.4" x2="1075.879" y2="57.4"/>
				<line style="fill:none;stroke:#000000;stroke-miterlimit:10;" x1="1212.879" y1="57.4" x2="1212.879" y2="187.4"/>
				<line style="fill:none;stroke:#000000;stroke-miterlimit:10;" x1="1194.879" y1="187.4" x2="1194.879" y2="57.4"/>
				<polyline style="fill:none;stroke:#000000;stroke-miterlimit:10;" points="1285.379,57.4 1285.879,57.4 1285.879,187.4 
					1268.879,187.4 1268.879,57.4 				"/>
				<rect x="117.878" y="211.4" style="fill:none;stroke:#000000;stroke-miterlimit:10;" width="25" height="76"/>
				<polyline style="fill:none;stroke:#000000;stroke-miterlimit:10;" points="239.878,287.4 217.878,287.4 217.878,206.4 
					251.878,206.4 251.878,287.4 				"/>
				<polyline style="fill:none;stroke:#000000;stroke-miterlimit:10;" points="288.878,287.4 288.878,206.4 319.878,206.4 
					319.878,287.4 				"/>
				<rect x="364.878" y="202.4" style="fill:none;stroke:#000000;stroke-miterlimit:10;" width="37" height="85"/>
				<line style="fill:none;stroke:#000000;stroke-miterlimit:10;" x1="442.878" y1="332.9" x2="474.878" y2="332.9"/>
				<line style="fill:none;stroke:#000000;stroke-miterlimit:10;" x1="474.878" y1="367.9" x2="442.878" y2="367.9"/>
				<polygon style="fill:none;stroke:#000000;stroke-miterlimit:10;" points="501.878,368.4 474.878,368.4 474.878,367.9 
					474.878,332.9 474.878,312.4 501.878,312.4 				"/>
				<line style="fill:none;stroke:#000000;stroke-miterlimit:10;" x1="545.878" y1="258.4" x2="442.878" y2="258.4"/>
				<polyline style="fill:none;stroke:#000000;stroke-miterlimit:10;" points="545.878,206.4 561.878,206.4 561.878,217.4 
					545.878,217.4 				"/>
				<polyline style="fill:none;stroke:#000000;stroke-miterlimit:10;" points="545.878,227.4 561.878,227.4 561.878,239.4 
					545.878,239.4 				"/>
				<polyline style="fill:none;stroke:#000000;stroke-miterlimit:10;" points="545.878,247.4 565.878,247.4 565.878,258.4 
					545.878,258.4 				"/>
				<polyline style="fill:none;stroke:#000000;stroke-miterlimit:10;" points="545.878,276.4 561.878,276.4 561.878,286.4 
					545.878,286.4 				"/>
				<polyline style="fill:none;stroke:#000000;stroke-miterlimit:10;" points="545.878,315.4 560.878,315.4 560.878,326.4 
					545.878,326.4 				"/>
				<polyline style="fill:none;stroke:#000000;stroke-miterlimit:10;" points="545.878,296.4 562.878,296.4 562.878,305.4 
					545.878,305.4 				"/>
				<line style="fill:none;stroke:#000000;stroke-miterlimit:10;" x1="795.879" y1="187.4" x2="795.879" y2="269.4"/>
				<polyline style="fill:none;stroke:#000000;stroke-miterlimit:10;" points="596.878,269.4 795.879,269.4 795.879,333.4 
					596.878,333.4 				"/>
				<rect x="833.879" y="203.4" style="fill:none;stroke:#000000;stroke-miterlimit:10;" width="34" height="83"/>
				<rect x="916.879" y="203.4" style="fill:none;stroke:#000000;stroke-miterlimit:10;" width="36" height="84"/>
				<rect x="1014.879" y="208.4" style="fill:none;stroke:#000000;stroke-miterlimit:10;" width="32" height="79"/>
				<rect x="1072.879" y="202.4" style="fill:none;stroke:#000000;stroke-miterlimit:10;" width="32" height="84"/>
				<rect x="1192.879" y="207.4" style="fill:none;stroke:#000000;stroke-miterlimit:10;" width="30" height="81"/>
				<rect x="1263.879" y="202.4" style="fill:none;stroke:#000000;stroke-miterlimit:10;" width="38" height="86"/>
				<rect x="1217.879" y="312.4" style="fill:none;stroke:#000000;stroke-miterlimit:10;" width="76" height="21"/>
				<polyline style="fill:none;stroke:#000000;stroke-miterlimit:10;" points="596.878,187.4 596.878,269.4 596.878,333.4 
					545.878,333.4 545.878,326.4 545.878,315.4 545.878,305.4 545.878,296.4 545.878,286.4 545.878,276.4 545.878,258.4 
					545.878,247.4 545.878,239.4 545.878,227.4 545.878,217.4 545.878,206.4 545.878,187.4 				"/>
				<polyline style="fill:none;stroke:#000000;stroke-miterlimit:10;" points="239.878,368.4 239.878,287.4 251.878,287.4 
					288.878,287.4 319.878,287.4 364.878,287.4 364.878,368.4 				"/>
				<polyline style="fill:none;stroke:#000000;stroke-miterlimit:10;" points="442.878,187.4 442.878,258.4 442.878,332.9 
					442.878,367.9 442.878,368.4 442.878,368.9 				"/>
				<polyline style="fill:none;stroke:#000000;stroke-miterlimit:10;" points="4.878,185.95 118.878,186.33 136.878,186.39 
					217.878,186.66 298.878,186.92 370.878,187.16 392.878,187.23 				"/>
				<polyline style="fill:none;stroke:#000000;stroke-miterlimit:10;" points="838.879,57.4 859.879,57.4 916.879,57.4 
					938.879,57.4 1019.879,57.4 1041.879,57.4 1075.879,57.4 1097.879,57.4 1194.879,57.4 1212.879,57.4 1268.879,57.4 
					1285.379,57.4 				"/>
				<polyline style="fill:none;stroke:#000000;stroke-miterlimit:10;" points="4.378,57.4 4.878,57.4 118.878,57.4 136.878,57.4 
					217.878,57.4 235.878,57.4 298.878,57.4 319.878,57.4 370.878,57.4 392.878,57.4 				"/>
				<polygon style="fill:none;stroke:#000000;stroke-miterlimit:10;" points="838.879,187.4 795.879,187.4 596.878,187.4 
					545.878,187.4 442.878,187.4 392.878,187.4 392.878,187.23 392.878,57.4 838.879,57.4 				"/>
				<polyline style="fill:none;stroke:#000000;stroke-miterlimit:10;" points="859.379,187.4 859.879,187.4 916.879,187.4 
					938.879,187.4 1019.879,187.4 1041.879,187.4 1075.879,187.4 1097.879,187.4 1194.879,187.4 1212.879,187.4 1268.379,187.4 				
					"/>
				
					<rect x="175.048" y="333.4" style="fill:none;stroke:#000000;stroke-linecap:round;stroke-linejoin:round;" width="32" height="35"/>
				<rect x="1293.879" y="333.4" style="fill:none;stroke:#000000;stroke-miterlimit:10;" width="23" height="35"/>
			</g>
		</g>
	</g>
</g>
<text transform='matrix(1 0 0 1 644.0 39.0)' font-size='12'>新风道</text>
<text transform='matrix(1 0 0 1 129.0 127.0)' font-size='12'>新风道</text>
<text transform='matrix(1 0 0 1 228.0 131.0)' font-size='12'>新风道</text>
<text transform='matrix(1 0 0 1 310.0 126.0)' font-size='12'>新风道</text>
<text transform='matrix(1 0 0 1 383.0 129.0)' font-size='12'>新风道</text>
<text transform='matrix(1 0 0 1 849.0 128.0)' font-size='12'>新风道</text>
<text transform='matrix(1 0 0 1 929.0 123.0)' font-size='12'>新风道</text>
<text transform='matrix(1 0 0 1 1032.0 126.0)' font-size='12'>新风道</text>
<text transform='matrix(1 0 0 1 1088.0 127.0)' font-size='12'>新风道</text>
<text transform='matrix(1 0 0 1 1207.0 130.0)' font-size='12'>新风道</text>
<text transform='matrix(1 0 0 1 1280.0 126.0)' font-size='12'>新风道</text>
<text transform='matrix(1 0 0 1 134.0 245.0)' font-size='12'>AK2-3基础</text>
<text transform='matrix(1 0 0 1 234.0 251.0)' font-size='12'>Ak2-6基础</text>
<text transform='matrix(1 0 0 1 306.0 250.0)' font-size='12'>Ak2-4基础</text>
<text transform='matrix(1 0 0 1 388.0 246.0)' font-size='12'>Ak2-5基础</text>
<text transform='matrix(1 0 0 1 495.0 223.0)' font-size='12'>水泵房</text>
<text transform='matrix(1 0 0 1 692.0 231.0)' font-size='12'>消防水池</text>
<text transform='matrix(1 0 0 1 696.0 302.0)' font-size='12'>消防水池</text>
<text transform='matrix(1 0 0 1 189.0 351.0)' font-size='12'>前室</text>
<text transform='matrix(1 0 0 1 300.0 331.0)' font-size='12'>A1空调机房</text>
<text transform='matrix(1 0 0 1 459.0 351.0)' font-size='12'>前室</text>
<text transform='matrix(1 0 0 1 490.0 340.0)' font-size='12'>控制室</text>
<text transform='matrix(1 0 0 1 851.0 247.0)' font-size='12'>AK2-9基础</text>
<text transform='matrix(1 0 0 1 933.0 246.0)' font-size='12'>AK2-7基础</text>
<text transform='matrix(1 0 0 1 1031.0 245.0)' font-size='12'>AK2-8基础</text>
<text transform='matrix(1 0 0 1 1089.0 250.0)' font-size='12'>AK1-3基础</text>
<text transform='matrix(1 0 0 1 1211.0 247.0)' font-size='12'>AK1-4基础</text>
<text transform='matrix(1 0 0 1 1285.0 248.0)' font-size='12'>预留机位</text>
<text transform='matrix(1 0 0 1 1299.0 350.0)' font-size='12'>前室</text>
<text transform='matrix(1 0 0 1 1257.0 324.0)' font-size='12'>控制室</text>
<text transform='matrix(1 0 0 1 553.0 212.0)' font-size='12'>喷淋基础</text>
<text transform='matrix(1 0 0 1 557.0 252.0)' font-size='12'>水泡基础</text>
<text transform='matrix(1 0 0 1 554.0 302.0)' font-size='12'>消火栓基础</text>
<text transform='matrix(1 0 0 1 174.0 274.0)' font-size='12'>暖通</text>
<text transform='matrix(1 0 0 1 927.0 303.0)' font-size='12'>暖通</text>
<text transform='matrix(1 0 0 1 618.0 122.0)' font-size='12'>走道</text>
<text transform='matrix(1 0 0 1 69.0 124.0)' font-size='12'>走道</text>
</svg>
