<?xml version="1.0" encoding="utf-8"?>
<!-- Generator: Adobe Illustrator 15.0.0, SVG Export Plug-In . SVG Version: 6.00 Build 0)  -->
<!DOCTYPE svg PUBLIC "-//W3C//DTD SVG 1.1//EN" "http://www.w3.org/Graphics/SVG/1.1/DTD/svg11.dtd">
<svg version="1.1" id="图层_1" xmlns="http://www.w3.org/2000/svg" xmlns:xlink="http://www.w3.org/1999/xlink" x="0px" y="0px"
	 width="1324px" height="4016.432px" viewBox="0 0 1324 4016.432" enable-background="new 0 0 1324 4016.432" xml:space="preserve">
<g id="图层_1_1_" display="none">
	
		<image display="inline" overflow="visible" enable-background="new    " width="1362" height="781" xlink:href="498A28F8.jpeg"  transform="matrix(0.9993 0 0 0.9987 -5.4993 -1.4939)">
	</image>
</g>
<g id="图层_2" display="none">
	
		<image display="inline" overflow="visible" enable-background="new    " width="1375" height="775" xlink:href="498A28F8.jpeg"  transform="matrix(0.9993 0 0 1 -3.9573 724.5002)">
	</image>
</g>
<g id="图层_3" display="none">
	
		<image display="inline" overflow="visible" enable-background="new    " width="1354" height="741" xlink:href="498A28F8.jpeg"  transform="matrix(1 0 0 1 -14.0002 1499.5002)">
	</image>
</g>
<g id="图层_4" display="none">
	
		<image display="inline" overflow="visible" enable-background="new    " width="1350" height="761" xlink:href="498A28F8.jpeg"  transform="matrix(1 0 0 1 -9.0002 2240.5002)">
	</image>
</g>
<g id="图层_5" display="none">
	
		<image display="inline" overflow="visible" enable-background="new    " width="1349" height="679" xlink:href="498A28F8.jpeg"  transform="matrix(1 0 0 1 -2.441406e-004 2998.5002)">
	</image>
</g>
<g id="图层_6" display="none">
	
		<image display="inline" overflow="visible" enable-background="new    " width="1005" height="331" xlink:href="498A28F8.jpeg"  transform="matrix(1 0 0 1 202.9998 3676.5002)">
	</image>
</g>
<g id="图层_7">
	<g id="XMLID_3_">
		<g>
			<path fill="#FFD2AD" d="M841.67,2468.496v164h-80v-164H841.67z M804.5,2630.716v-15.5H797v15.5H804.5z"/>
			<rect x="797" y="2801.716" fill="#B5DFFF" width="7.5" height="17.5"/>
			<polygon fill="#FFD2AD" points="1281,3416.996 1281,3449.496 1172.5,3449.496 1057.5,3449.496 935.75,3449.496 935.75,3416.996 
				1057.5,3416.996 1172.5,3416.996 			"/>
			<polygon fill="#FFD2AD" points="1281,2380.496 1281,2413.496 1164,2413.496 1060,2413.496 935.78,2413.496 935.78,2380.976 
				935.78,2380.496 1060,2380.496 1164,2380.496 			"/>
			<polygon fill="#FFD2AD" points="1280.67,363.496 1280.67,395.496 1178.5,395.496 1074.17,395.496 935.809,395.496 
				935.75,368.246 935.75,363.496 1074.17,363.496 1178.5,363.496 			"/>
			<polygon fill="#FFD2AD" points="1280.5,2898.996 1280.5,2931.496 1170,2931.496 1057.5,2931.496 936.5,2931.496 936.5,2904.496 
				936.5,2898.996 1057.5,2898.996 1170,2898.996 			"/>
			<polygon fill="#FFD2AD" points="1280.5,1863.996 1280.5,1896.496 1167.5,1896.496 1057,1896.496 935.809,1896.496 
				935.76,1874.506 935.76,1865.926 935.76,1863.996 1057,1863.996 1167.5,1863.996 			"/>
			<polygon fill="#FFD2AD" points="1280.5,828.496 1280.5,859.996 1181.5,859.996 1089.5,859.996 936.5,859.996 936.5,828.496 
				1089.5,828.496 1181.5,828.496 			"/>
			<polygon fill="#FFD2AD" points="1279,1343.496 1279,1377.996 1168.5,1377.996 1067,1377.996 935.84,1377.996 935.769,1357.496 
				935.769,1344.606 935.769,1343.496 1067,1343.496 1168.5,1343.496 			"/>
			<rect x="1089.5" y="859.996" fill="#B5DFFF" width="92" height="5.25"/>
			<rect x="1089.5" y="822.216" fill="#B5DFFF" width="92" height="6.28"/>
			<rect x="1074.17" y="395.496" fill="#B5DFFF" width="104.33" height="4.22"/>
			<rect x="1074.17" y="358.716" fill="#B5DFFF" width="104.33" height="4.78"/>
			<rect x="1057.5" y="3449.496" fill="#B5DFFF" width="115" height="5.75"/>
			<rect x="1057.5" y="3410.496" fill="#B5DFFF" width="115" height="6.5"/>
			<rect x="1057.5" y="2931.496" fill="#B5DFFF" width="112.5" height="5.75"/>
			<rect x="1057.5" y="2892.496" fill="#B5DFFF" width="112.5" height="6.5"/>
			<rect x="1067" y="1377.996" fill="#B5DFFF" width="101.5" height="5.25"/>
			<rect x="1067" y="1336.716" fill="#B5DFFF" width="101.5" height="6.78"/>
			<rect x="1057" y="1896.496" fill="#B5DFFF" width="110.5" height="6.5"/>
			<rect x="1057" y="1857.496" fill="#B5DFFF" width="110.5" height="6.5"/>
			<rect x="1060" y="2413.496" fill="#B5DFFF" width="104" height="5.25"/>
			<rect x="1060" y="2374.216" fill="#B5DFFF" width="104" height="6.28"/>
			<polygon fill="#FFFFFF" points="935.809,395.496 936.5,724.496 936.33,1142.326 935.769,1343.496 935.769,1344.606 
				935.75,1351.826 935.769,1357.496 935.769,1377.996 935.84,1377.996 936.5,1564.496 935.76,1863.996 935.76,1865.926 
				935.75,1869.996 935.76,1874.506 935.76,1896.496 935.809,1896.496 936.5,2208.496 935.78,2380.496 935.78,2380.976 
				935.75,2388.166 935.75,2716.496 936.5,2904.496 935.75,3169.826 935.75,3416.996 935.75,3449.496 935.75,3474.496 
				935.75,3649.826 866.5,3650.176 866.5,3649.826 866.5,3544.496 866.5,3217.166 866.5,2878.496 866.5,2651.826 866.5,2363.826 
				866.5,1958.496 866.5,1869.996 866.5,1564.496 866.5,1347.826 866.5,1142.326 866.5,724.496 866.5,368.246 935.75,368.246 
				935.75,395.496 			"/>
			<polygon fill="#FFFFFF" points="935.75,363.496 935.75,368.246 866.5,368.246 866.25,83.246 462.17,83.326 462.17,25.246 
				935.75,25.246 			"/>
			<path fill="#FFFFFF" d="M866.5,3649.826v0.35l-264.5,1.32v-123.67v-108.66h47v-49.67v-30.66h6.5v-17.12H649v-63.22h-49.33v51.33
				h-44v109.34h44H602l-139.67,0.5l-0.5-0.5l0.55-200.67l0.37-413.33v-415.42v-431.5v-125.25v-32.5v-235.75l-0.25-421.58
				l-0.5-418.67l0.17-350l0.33-259.5l-0.33-31.67l404.08-0.08l0.25,285v356.25v417.83v205.5v216.67v305.5v88.5v405.331v288v226.67
				v338.67v327.33V3649.826z M858.5,439.386v-18h-4.67v18H858.5z M856.5,889.716v-18.5H851v18.5H856.5z M853.5,1933.716v-19.5H848
				v19.5H853.5z M852,2931.496v-15h-6v15H852z M851.5,3483.216v-17.5H845v17.5H851.5z M851,2448.216v-18.5h-6.5v18.5H851z
				 M850.5,1363.216v-19.72H845v19.72H850.5z M841.67,3628.496v-87.5H762.5v87.5H841.67z M841.67,3458.996v-23H828v23H841.67z
				 M841.67,3407.166v-462.67h-81.34v462.67H841.67z M841.67,2916.496v-24h-13.34v24H841.67z M841.67,2855.166v-90.67h-80v90.67
				H841.67z M841.67,2632.496v-164h-80v164H841.67z M841.67,2403.826v-23.33h-13.34v23.33H841.67z M841.67,2377.166v-428.67h-80
				v428.67H841.67z M841.67,1524.496v-90.67h-79v90.67H841.67z M841.67,1390.496v-24h-13.34v24H841.67z M841.67,1343.496v-432.5h-79
				v432.5H841.67z M841.67,851.496v-23H828.5v23H841.67z M841.67,823.996v-113.5h-79v113.5H841.67z M841.67,578.496v-129.67h-79
				v129.67H841.67z M841.67,407.826v-24.66h-13.34v24.66H841.67z M841.67,355.826v-240.83h-79.34v240.83H841.67z M841,1906.996v-21
				h-13.5v21H841z M841,1857.496v-200.5h-79.5v200.5H841z M838,640.996c0-17.4-14.18-31.5-31.67-31.5s-31.66,14.1-31.66,31.5
				c0,17.4,14.17,31.5,31.66,31.5S838,658.396,838,640.996z M834.33,1590.496c0-17.67-14.17-32-31.66-32s-31.67,14.33-31.67,32
				c0,17.67,14.18,32,31.67,32S834.33,1608.166,834.33,1590.496z M832.33,2699.166c0-17.12-13.58-31-30.33-31s-30.33,13.88-30.33,31
				s13.58,31,30.33,31S832.33,2716.286,832.33,2699.166z M787,2752.716v-6h-25.33v6H787z M784.5,1642.216v-6.5h-23v6.5H784.5z
				 M784,690.166v-4.95h-21.33v4.95H784z M655,1584.216v-17.5h-6v-142.89v-86.66h-55.25h-91.42v86v0.66v209.67v73H649v-34v-39
				v-49.28H655z M654.5,615.716v-18.5H649v-10.05v-108v-169.12h4.83v-14H649v-48.88H502.33v232v67.33v40.67v77.33h73.34H649v-48.78
				H654.5z M652,2598.216v-20h-6v-46.39v-40H502.33v40v306.67H591h55v-83v-157.28H652z M649,1324.496v-49.33v-72.67v-62v-72H502.33
				v72v62v72.67v49.33H649z M649,209.826v-54H488.33v54H649z M647,769.166v-38.84v-40.16H502.33v40.16v38.84H647z M646,2998.496
				v-154.67H502.33v154.67H572v6.72h21.5v-6.72H646z M645.5,2231.496v-64v-78v-121.5h-81.25H501.5v122v141.5H645.5z M649,3198.166
				c0-17.12-13.51-31-30.17-31s-30.16,13.88-30.16,31s13.5,31,30.16,31S649,3215.286,649,3198.166z M646,2357.996
				c0-16.66-13.43-30.17-30-30.17s-30,13.51-30,30.17c0,16.67,13.43,30.17,30,30.17S646,2374.666,646,2357.996z M643,999.996
				c0-16.57-13.43-30-30-30s-30,13.43-30,30c0,16.57,13.43,30,30,30S643,1016.566,643,999.996z M517,2488.496v-22h-15.5v22H517z
				 M516,1823.496v-23h-13.67v23H516z M516,935.996v-25h-13.67v25H516z M515.67,111.166v-24h-12v24H515.67z M513.5,3404.496v-35H473
				v35H513.5z M513.5,3117.996v-23H501v23H513.5z M478.5,3164.716v-18H473v18H478.5z M476,2466.496v-18.28h-6v18.28H476z
				 M475.5,964.216v-20H470v20H475.5z M475.5,163.716v-19h-5v19H475.5z M475,1854.716v-18.5h-6v18.5H475z"/>
			<rect x="853.83" y="421.386" fill="#B5DFFF" width="4.67" height="18"/>
			<rect x="851" y="871.216" fill="#B5DFFF" width="5.5" height="18.5"/>
			<rect x="848" y="1914.216" fill="#B5DFFF" width="5.5" height="19.5"/>
			<rect x="846" y="2916.496" fill="#B5DFFF" width="6" height="15"/>
			<rect x="845" y="3465.716" fill="#B5DFFF" width="6.5" height="17.5"/>
			<rect x="844.5" y="2429.716" fill="#B5DFFF" width="6.5" height="18.5"/>
			<rect x="845" y="1343.496" fill="#B5DFFF" width="5.5" height="19.72"/>
			<path fill="#FFD2AD" d="M841.67,3540.996v87.5H762.5v-87.5H841.67z M804,3595.216v-18h-7v18H804z"/>
			<rect x="828" y="3435.996" fill="#F6D7B5" width="13.67" height="23"/>
			<path fill="#FFD2AD" d="M841.67,2944.496v462.67h-81.34v-462.67H841.67z M804.5,3038.716v-16H797v16H804.5z M804,3404.496v-14.28
				h-7v14.28H804z M804,3227.216v-19.5h-7v19.5H804z"/>
			<rect x="828.33" y="2892.496" fill="#FFD2AD" width="13.34" height="24"/>
			<path fill="#FFD2AD" d="M841.67,2764.496v90.67h-80v-90.67H841.67z M804.5,2819.216v-17.5H797v17.5H804.5z"/>
			<rect x="828.33" y="2380.496" fill="#F6D7B5" width="13.34" height="23.33"/>
			<path fill="#FFD2AD" d="M841.67,1948.496v428.67h-80v-428.67H841.67z M804,2374.216v-16.22h-7v16.22H804z M804,2229.716v-18.5h-7
				v18.5H804z M803.5,2008.216v-17.5h-6v17.5H803.5z"/>
			<path fill="#FFD2AD" d="M841.67,1433.826v90.67h-79v-90.67H841.67z M802.67,1487.216v-17.5H797v17.5H802.67z"/>
			<rect x="828.33" y="1366.496" fill="#F6D7B5" width="13.34" height="24"/>
			<path fill="#FFD2AD" d="M841.67,910.996v432.5h-79v-432.5H841.67z M802.17,1265.716v-17.5H797v17.5H802.17z M802.17,1044.216v-18
				H797v18H802.17z"/>
			<rect x="828.5" y="828.496" fill="#F6D7B5" width="13.17" height="23"/>
			<path fill="#FFD2AD" d="M841.67,710.496v113.5h-79v-113.5H841.67z M802.17,767.246v-19.53h-4v19.53H802.17z"/>
			<path fill="#FFD2AD" d="M841.67,448.826v129.67h-79v-129.67H841.67z M802.17,523.046v-15h-4v15H802.17z"/>
			<rect x="828.33" y="383.166" fill="#FFD2AD" width="13.34" height="24.66"/>
			<path fill="#FFD2AD" d="M841.67,114.996v240.83h-79.34v-240.83H841.67z M802.17,244.046v-16h-3.67v16H802.17z"/>
			<rect x="827.5" y="1885.996" fill="#FFD2AD" width="13.5" height="21"/>
			<path fill="#FFD2AD" d="M841,1656.996v200.5h-79.5v-200.5H841z M802.67,1744.716v-17h-5.17v17H802.67z"/>
			<rect x="637.67" y="3651.996" fill="#FFFFFF" width="196.66" height="350.5"/>
			<path fill="#B5DFFF" d="M806.33,609.496c17.49,0,31.67,14.1,31.67,31.5c0,17.4-14.18,31.5-31.67,31.5s-31.66-14.1-31.66-31.5
				C774.67,623.596,788.84,609.496,806.33,609.496z"/>
			<path fill="#B5DFFF" d="M802.67,1558.496c17.49,0,31.66,14.33,31.66,32c0,17.67-14.17,32-31.66,32s-31.67-14.33-31.67-32
				C771,1572.826,785.179,1558.496,802.67,1558.496z"/>
			<ellipse fill="#B5DFFF" cx="802" cy="2699.166" rx="30.33" ry="31"/>
			<rect x="797" y="3022.716" fill="#B5DFFF" width="7.5" height="16"/>
			<rect x="797" y="2615.216" fill="#B5DFFF" width="7.5" height="15.5"/>
			<rect x="797" y="3577.216" fill="#B5DFFF" width="7" height="18"/>
			<rect x="797" y="3390.216" fill="#B5DFFF" width="7" height="14.28"/>
			<rect x="797" y="3207.716" fill="#B5DFFF" width="7" height="19.5"/>
			<rect x="797" y="2357.996" fill="#B5DFFF" width="7" height="16.22"/>
			<rect x="797" y="2211.216" fill="#B5DFFF" width="7" height="18.5"/>
			<rect x="797.5" y="1990.716" fill="#B5DFFF" width="6" height="17.5"/>
			<rect x="797.5" y="1727.716" fill="#B5DFFF" width="5.17" height="17"/>
			<rect x="797" y="1469.716" fill="#B5DFFF" width="5.67" height="17.5"/>
			<rect x="797" y="1248.216" fill="#B5DFFF" width="5.17" height="17.5"/>
			<rect x="797" y="1026.216" fill="#B5DFFF" width="5.17" height="18"/>
			<rect x="798.17" y="747.716" fill="#B5DFFF" width="4" height="19.53"/>
			<rect x="798.17" y="508.046" fill="#B5DFFF" width="4" height="15"/>
			<rect x="798.5" y="228.046" fill="#B5DFFF" width="3.67" height="16"/>
			<rect x="761.67" y="2746.716" fill="#B5DFFF" width="25.33" height="6"/>
			<rect x="761.5" y="1635.716" fill="#B5DFFF" width="23" height="6.5"/>
			<rect x="762.67" y="685.216" fill="#B5DFFF" width="21.33" height="4.95"/>
			<rect x="649" y="3321.716" fill="#B5DFFF" width="6.5" height="17.12"/>
			<rect x="649" y="1566.716" fill="#B5DFFF" width="6" height="17.5"/>
			<rect x="649" y="597.216" fill="#B5DFFF" width="5.5" height="18.5"/>
			<rect x="649" y="296.046" fill="#B5DFFF" width="4.83" height="14"/>
			<rect x="646" y="2578.216" fill="#B5DFFF" width="6" height="20"/>
			<polygon fill="#B5DFFF" points="649,3369.496 649,3419.166 602,3419.166 599.67,3419.166 599.67,3369.496 			"/>
			<polygon fill="#FFD2AD" points="649,3321.716 649,3338.836 649,3369.496 599.67,3369.496 599.67,3309.826 599.67,3258.496 
				649,3258.496 			"/>
			<polygon fill="#B5DFFF" points="649,1672.496 649,1706.496 502.33,1706.496 502.33,1633.496 573.33,1633.496 573.33,1672.496 			
				"/>
			<rect x="573.33" y="1633.496" fill="#D2DCB0" width="75.67" height="39"/>
			<polygon fill="#FFD2AD" points="649,1566.716 649,1584.216 649,1633.496 573.33,1633.496 502.33,1633.496 502.33,1423.826 
				593.75,1423.826 649,1423.826 			"/>
			<rect x="593.75" y="1337.166" fill="#D1E1F2" width="55.25" height="86.66"/>
			<rect x="502.33" y="1275.166" fill="#D2DFB2" width="146.67" height="49.33"/>
			<rect x="502.33" y="1202.496" fill="#B5DFFF" width="146.67" height="72.67"/>
			<rect x="502.33" y="1140.496" fill="#B5DFFF" width="146.67" height="62"/>
			<rect x="502.33" y="1068.496" fill="#B5DFFF" width="146.67" height="72"/>
			<polygon fill="#D2DFB2" points="649,597.216 649,615.716 649,664.496 575.67,664.496 575.67,587.166 595,587.166 649,587.166 			
				"/>
			<polygon fill="#B5DFFF" points="649,479.166 649,587.166 595,587.166 595,546.496 502.33,546.496 502.33,479.166 			"/>
			<polygon fill="#D2DFB2" points="649,296.046 649,310.046 649,479.166 502.33,479.166 502.33,247.166 649,247.166 			"/>
			<rect x="488.33" y="155.826" fill="#FFD2AD" width="160.67" height="54"/>
			<rect x="502.33" y="730.326" fill="#B5DFFF" width="144.67" height="38.84"/>
			<rect x="502.33" y="690.166" fill="#B5DFFF" width="144.67" height="40.16"/>
			<path fill="#FFFFFF" d="M646,2843.826v154.67h-52.5H572h-69.67v-154.67H646z M641.67,2973.166v-124.67h-56v124.67H641.67z
				 M555.67,2932.496v-36H515v36H555.67z"/>
			<rect x="591" y="2755.496" fill="#B5DFFF" width="55" height="83"/>
			<polygon fill="#D2DFB2" points="646,2578.216 646,2598.216 646,2755.496 591,2755.496 591,2838.496 502.33,2838.496 
				502.33,2531.826 646,2531.826 			"/>
			<rect x="502.33" y="2491.826" fill="#D2DFB2" width="143.67" height="40"/>
			<polygon fill="#B5DFFF" points="645.5,2167.496 645.5,2231.496 501.5,2231.496 501.5,2089.996 564.25,2089.776 564.25,2167.496 
							"/>
			<polygon fill="#B5DFFF" points="645.5,2089.496 645.5,2167.496 564.25,2167.496 564.25,2089.776 			"/>
			<polygon fill="#B5DFFF" points="645.5,1967.996 645.5,2089.496 564.25,2089.776 564.25,2089.746 564.25,1967.996 			"/>
			<rect x="585.67" y="2848.496" fill="#D2DFB2" width="56" height="124.67"/>
			<path fill="#B5DFFF" d="M618.83,3167.166c16.66,0,30.17,13.88,30.17,31s-13.51,31-30.17,31s-30.16-13.88-30.16-31
				S602.17,3167.166,618.83,3167.166z"/>
			<path fill="#B5DFFF" d="M616,2327.826c16.57,0,30,13.51,30,30.17c0,16.67-13.43,30.17-30,30.17s-30-13.5-30-30.17
				C586,2341.336,599.43,2327.826,616,2327.826z"/>
			<circle fill="#B5DFFF" cx="613" cy="999.996" r="30"/>
			<polygon fill="#B5DFFF" points="602,3527.826 602,3651.496 462.33,3651.996 462.33,3527.826 			"/>
			<polygon fill="#B5DFFF" points="602,3419.166 602,3527.826 462.33,3527.826 462.33,3419.666 			"/>
			<polygon fill="#D2DFB2" points="599.67,3369.496 599.67,3419.166 555.67,3419.166 555.67,3309.826 599.67,3309.826 			"/>
			<polygon fill="#FFD2AD" points="595,546.496 595,587.166 575.67,587.166 502.33,587.166 502.33,546.496 			"/>
			<polygon fill="#FFD2AD" points="593.75,1337.166 593.75,1423.826 502.33,1423.826 502.33,1423.166 502.33,1337.166 			"/>
			<rect x="572" y="2998.496" fill="#B5DFFF" width="21.5" height="6.72"/>
			<rect x="502.33" y="587.166" fill="#D2DFB2" width="73.34" height="77.33"/>
			<polygon fill="#B5DFFF" points="564.25,2089.746 564.25,2089.776 501.5,2089.996 501.5,1967.996 564.25,1967.996 			"/>
			<rect x="515" y="2896.496" fill="#D2DFB2" width="40.67" height="36"/>
			<rect x="501.5" y="2466.496" fill="#FFD2AD" width="15.5" height="22"/>
			<rect x="502.33" y="1800.496" fill="#FFD2AD" width="13.67" height="23"/>
			<rect x="502.33" y="910.996" fill="#FFD2AD" width="13.67" height="25"/>
			<rect x="503.67" y="87.166" fill="#FFD2AD" width="12" height="24"/>
			<rect x="473" y="3369.496" fill="#D2DFB2" width="40.5" height="35"/>
			<rect x="501" y="3094.996" fill="#F6D7B5" width="12.5" height="23"/>
			<rect x="473" y="3146.716" fill="#B5DFFF" width="5.5" height="18"/>
			<rect x="470" y="2448.216" fill="#B5DFFF" width="6" height="18.28"/>
			<rect x="470" y="944.216" fill="#B5DFFF" width="5.5" height="20"/>
			<rect x="470.5" y="144.716" fill="#B5DFFF" width="5" height="19"/>
			<rect x="469" y="1836.216" fill="#B5DFFF" width="6" height="18.5"/>
			<polygon fill="#FFD2AD" points="462.75,1800.496 462.75,1832.996 287.5,1832.996 177.5,1832.996 43.5,1832.996 43.5,1800.496 
				177.5,1800.496 287.5,1800.496 			"/>
			<polygon fill="#FFD2AD" points="462.17,83.326 462.5,114.996 343.5,114.996 156.5,114.996 44.5,114.996 45,83.326 			"/>
			<polygon fill="#FFD2AD" points="461.83,3091.996 461.83,3126.996 282,3126.996 169,3126.996 44.5,3126.996 44.5,3091.996 
				169,3091.996 282,3091.996 			"/>
			<polygon fill="#FFD2AD" points="461.83,2466.496 461.83,2499.496 281.5,2499.496 169,2499.496 44.5,2499.496 44.5,2466.496 
				169,2466.496 281.5,2466.496 			"/>
			<polygon fill="#FFD2AD" points="461.83,906.496 461.83,939.996 262.5,939.996 148.5,939.996 44,939.996 44,906.496 
				148.5,906.496 262.5,906.496 			"/>
			<rect x="156.5" y="114.996" fill="#B5DFFF" width="187" height="5.72"/>
			<rect x="156.5" y="75.716" fill="#B5DFFF" width="187" height="5.57"/>
			<rect x="177.5" y="1832.996" fill="#B5DFFF" width="110" height="6.72"/>
			<rect x="177.5" y="1794.216" fill="#B5DFFF" width="110" height="6.28"/>
			<rect x="169" y="3126.996" fill="#B5DFFF" width="113" height="7"/>
			<rect x="169" y="3086.216" fill="#B5DFFF" width="113" height="5.78"/>
			<rect x="169" y="2499.496" fill="#B5DFFF" width="112.5" height="6.5"/>
			<rect x="169" y="2460.996" fill="#B5DFFF" width="112.5" height="5.5"/>
			<rect x="148.5" y="939.996" fill="#B5DFFF" width="114" height="6.22"/>
			<rect x="148.5" y="900.216" fill="#B5DFFF" width="114" height="6.28"/>
		</g>
		<g>
			<polygon fill="none" stroke="#000000" stroke-miterlimit="10" points="104.75,35.576 8,35.826 7.88,3.626 104.62,3.376 			"/>
			<polygon fill="none" stroke="#000000" stroke-miterlimit="10" points="44.5,114.996 44.5,126.746 8,126.746 8,35.826 
				44.5,35.826 			"/>
			<polyline fill="none" stroke="#000000" stroke-miterlimit="10" points="156.5,114.996 44.5,114.996 45,83.326 462.17,83.326 
				462.5,114.996 343.5,114.996 			"/>
			<polyline fill="none" stroke="#000000" stroke-miterlimit="10" points="935.75,363.496 935.75,25.246 462.17,25.246 
				462.17,83.326 866.25,83.246 866.5,368.246 935.75,368.246 			"/>
			<polyline fill="none" stroke="#000000" stroke-miterlimit="10" points="462.75,1832.996 462.75,1958.246 462.75,2389.746 
				462.75,2805.166 462.38,3218.496 461.83,3419.166 			"/>
			<polyline fill="none" stroke="#000000" stroke-miterlimit="10" points="462.5,114.996 462.17,374.496 462,724.496 
				462.5,1143.166 462.75,1564.746 462.75,1800.496 			"/>
			<rect x="762.33" y="114.996" fill="none" stroke="#000000" stroke-miterlimit="10" width="79.34" height="240.83"/>
			<rect x="488.33" y="155.826" fill="none" stroke="#000000" stroke-miterlimit="10" width="160.67" height="54"/>
			<rect x="503.67" y="87.166" fill="none" stroke="#000000" stroke-miterlimit="10" width="12" height="24"/>
			<rect x="828.33" y="383.166" fill="none" stroke="#000000" stroke-miterlimit="10" width="13.34" height="24.66"/>
			<polyline fill="none" stroke="#000000" stroke-miterlimit="10" points="649,310.046 649,479.166 649,587.166 649,597.216 			"/>
			<polyline fill="none" stroke="#000000" stroke-miterlimit="10" points="649,615.716 649,664.496 575.67,664.496 502.33,664.496 
				502.33,587.166 502.33,546.496 502.33,479.166 502.33,247.166 649,247.166 649,296.046 			"/>
			<line fill="none" stroke="#000000" stroke-miterlimit="10" x1="649" y1="479.166" x2="502.33" y2="479.166"/>
			<polyline fill="none" stroke="#000000" stroke-miterlimit="10" points="502.33,546.496 595,546.496 595,587.166 649,587.166 			
				"/>
			<polyline fill="none" stroke="#000000" stroke-miterlimit="10" points="502.33,587.166 575.67,587.166 595,587.166 			"/>
			<line fill="none" stroke="#000000" stroke-miterlimit="10" x1="575.67" y1="587.166" x2="575.67" y2="664.496"/>
			<path fill="none" stroke="#000000" stroke-miterlimit="10" d="M806.33,609.496c17.49,0,31.67,14.1,31.67,31.5
				c0,17.4-14.18,31.5-31.67,31.5s-31.66-14.1-31.66-31.5C774.67,623.596,788.84,609.496,806.33,609.496z"/>
			<polygon fill="none" stroke="#000000" stroke-miterlimit="10" points="647,730.326 647,769.166 502.33,769.166 502.33,730.326 
				502.33,690.166 647,690.166 			"/>
			<rect x="762.67" y="448.826" fill="none" stroke="#000000" stroke-miterlimit="10" width="79" height="129.67"/>
			<rect x="762.67" y="710.496" fill="none" stroke="#000000" stroke-miterlimit="10" width="79" height="113.5"/>
			<rect x="828.5" y="828.496" fill="none" stroke="#000000" stroke-miterlimit="10" width="13.17" height="23"/>
			<rect x="502.33" y="910.996" fill="none" stroke="#000000" stroke-miterlimit="10" width="13.67" height="25"/>
			<circle fill="none" stroke="#000000" stroke-miterlimit="10" cx="613" cy="999.996" r="30"/>
			<rect x="762.67" y="910.996" fill="none" stroke="#000000" stroke-miterlimit="10" width="79" height="432.5"/>
			<polygon fill="none" stroke="#000000" stroke-miterlimit="10" points="649,1275.166 649,1324.496 502.33,1324.496 
				502.33,1275.166 502.33,1202.496 502.33,1140.496 502.33,1068.496 649,1068.496 649,1140.496 649,1202.496 			"/>
			<line fill="none" stroke="#000000" stroke-miterlimit="10" x1="502.33" y1="1140.496" x2="649" y2="1140.496"/>
			<line fill="none" stroke="#000000" stroke-miterlimit="10" x1="502.33" y1="1275.166" x2="649" y2="1275.166"/>
			<line fill="none" stroke="#000000" stroke-miterlimit="10" x1="502.33" y1="1202.496" x2="649" y2="1202.496"/>
			<rect x="762.67" y="1433.826" fill="none" stroke="#000000" stroke-miterlimit="10" width="79" height="90.67"/>
			<path fill="none" stroke="#000000" stroke-miterlimit="10" d="M802.67,1558.496c17.49,0,31.66,14.33,31.66,32
				c0,17.67-14.17,32-31.66,32s-31.67-14.33-31.67-32C771,1572.826,785.179,1558.496,802.67,1558.496z"/>
			<polyline fill="none" stroke="#000000" stroke-miterlimit="10" points="649,1584.216 649,1633.496 649,1672.496 649,1706.496 
				502.33,1706.496 502.33,1633.496 502.33,1423.826 502.33,1423.166 502.33,1337.166 593.75,1337.166 649,1337.166 649,1423.826 
				649,1566.716 			"/>
			<polyline fill="none" stroke="#000000" stroke-miterlimit="10" points="649,1423.826 593.75,1423.826 502.33,1423.826 			"/>
			<line fill="none" stroke="#000000" stroke-miterlimit="10" x1="593.75" y1="1337.166" x2="593.75" y2="1423.826"/>
			<polyline fill="none" stroke="#000000" stroke-miterlimit="10" points="502.33,1633.496 573.33,1633.496 573.33,1672.496 
				649,1672.496 			"/>
			<line fill="none" stroke="#000000" stroke-miterlimit="10" x1="649" y1="1633.496" x2="573.33" y2="1633.496"/>
			<rect x="761.5" y="1656.996" fill="none" stroke="#000000" stroke-miterlimit="10" width="79.5" height="200.5"/>
			<rect x="502.33" y="1800.496" fill="none" stroke="#000000" stroke-miterlimit="10" width="13.67" height="23"/>
			<rect x="827.5" y="1885.996" fill="none" stroke="#000000" stroke-miterlimit="10" width="13.5" height="21"/>
			<polygon fill="none" stroke="#000000" stroke-miterlimit="10" points="645.5,2167.496 645.5,2231.496 501.5,2231.496 
				501.5,2089.996 501.5,1967.996 564.25,1967.996 645.5,1967.996 645.5,2089.496 			"/>
			<polyline fill="none" stroke="#000000" stroke-miterlimit="10" points="501.5,2089.996 564.25,2089.776 645.5,2089.496 			"/>
			<polyline fill="none" stroke="#000000" stroke-miterlimit="10" points="564.25,1967.996 564.25,2089.746 564.25,2089.776 
				564.25,2167.496 645.5,2167.496 			"/>
			<rect x="761.67" y="1948.496" fill="none" stroke="#000000" stroke-miterlimit="10" width="80" height="428.67"/>
			<rect x="828.33" y="2380.496" fill="none" stroke="#000000" stroke-miterlimit="10" width="13.34" height="23.33"/>
			<path fill="none" stroke="#000000" stroke-miterlimit="10" d="M616,2327.826c16.57,0,30,13.51,30,30.17
				c0,16.67-13.43,30.17-30,30.17s-30-13.5-30-30.17C586,2341.336,599.43,2327.826,616,2327.826z"/>
			<rect x="761.67" y="2468.496" fill="none" stroke="#000000" stroke-miterlimit="10" width="80" height="164"/>
			<line fill="none" stroke="#000000" stroke-miterlimit="10" x1="646" y1="2598.216" x2="646" y2="2755.496"/>
			<polyline fill="none" stroke="#000000" stroke-miterlimit="10" points="591,2838.496 502.33,2838.496 502.33,2531.826 
				502.33,2491.826 646,2491.826 646,2531.826 646,2578.216 			"/>
			<ellipse fill="none" stroke="#000000" stroke-miterlimit="10" cx="802" cy="2699.166" rx="30.33" ry="31"/>
			<rect x="761.67" y="2764.496" fill="none" stroke="#000000" stroke-miterlimit="10" width="80" height="90.67"/>
			<rect x="828.33" y="2892.496" fill="none" stroke="#000000" stroke-miterlimit="10" width="13.34" height="24"/>
			<rect x="760.33" y="2944.496" fill="none" stroke="#000000" stroke-miterlimit="10" width="81.34" height="462.67"/>
			<polyline fill="none" stroke="#000000" stroke-miterlimit="10" points="572,2998.496 502.33,2998.496 502.33,2843.826 
				646,2843.826 646,2998.496 593.5,2998.496 			"/>
			<rect x="585.67" y="2848.496" fill="none" stroke="#000000" stroke-miterlimit="10" width="56" height="124.67"/>
			<rect x="515" y="2896.496" fill="none" stroke="#000000" stroke-miterlimit="10" width="40.67" height="36"/>
			<path fill="none" stroke="#000000" stroke-miterlimit="10" d="M618.83,3167.166c16.66,0,30.17,13.88,30.17,31s-13.51,31-30.17,31
				s-30.16-13.88-30.16-31S602.17,3167.166,618.83,3167.166z"/>
			<polyline fill="none" stroke="#000000" stroke-miterlimit="10" points="649,3338.836 649,3369.496 649,3419.166 602,3419.166 
				599.67,3419.166 			"/>
			<polyline fill="none" stroke="#000000" stroke-miterlimit="10" points="599.67,3309.826 599.67,3258.496 649,3258.496 
				649,3321.716 			"/>
			<polygon fill="none" stroke="#000000" stroke-miterlimit="10" points="599.67,3419.166 555.67,3419.166 555.67,3309.826 
				599.67,3309.826 599.67,3369.496 			"/>
			<rect x="473" y="3369.496" fill="none" stroke="#000000" stroke-miterlimit="10" width="40.5" height="35"/>
			<polygon fill="none" stroke="#000000" stroke-miterlimit="10" points="602,3651.496 462.33,3651.996 462.33,3527.826 
				462.33,3419.666 602,3419.166 602,3527.826 			"/>
			<rect x="762.5" y="3540.996" fill="none" stroke="#000000" stroke-miterlimit="10" width="79.17" height="87.5"/>
			<rect x="828" y="3435.996" fill="none" stroke="#000000" stroke-miterlimit="10" width="13.67" height="23"/>
			<rect x="501" y="3094.996" fill="none" stroke="#000000" stroke-miterlimit="10" width="12.5" height="23"/>
			<polyline fill="none" stroke="#000000" stroke-miterlimit="10" points="1280.67,355.826 1222,355.826 1222,324.166 1318,324.166 
				1318,355.826 			"/>
			<polyline fill="none" stroke="#000000" stroke-miterlimit="10" points="1280.67,363.496 1280.67,355.826 1318,355.826 
				1318,446.496 1280.67,446.496 1280.67,395.496 			"/>
			<polyline fill="none" stroke="#000000" stroke-miterlimit="10" points="1178.5,363.496 1280.67,363.496 1280.67,395.496 
				1178.5,395.496 			"/>
			<polyline fill="none" stroke="#000000" stroke-miterlimit="10" points="1074.17,395.496 935.809,395.496 935.75,395.496 
				935.75,368.246 935.75,363.496 1074.17,363.496 			"/>
			<polyline fill="none" stroke="#000000" stroke-miterlimit="10" points="866.5,368.246 866.5,724.496 866.5,1142.326 
				866.5,1347.826 866.5,1564.496 866.5,1869.996 866.5,1958.496 866.5,2363.826 866.5,2651.826 866.5,2878.496 866.5,3217.166 
				866.5,3544.496 866.5,3649.826 			"/>
			<polyline fill="none" stroke="#000000" stroke-miterlimit="10" points="935.769,1343.496 936.33,1142.326 936.5,724.496 
				935.809,395.496 935.75,368.246 			"/>
			<polyline fill="none" stroke="#000000" stroke-miterlimit="10" points="935.76,1863.996 936.5,1564.496 935.84,1377.996 
				935.769,1357.496 935.75,1351.826 935.769,1344.606 			"/>
			<polyline fill="none" stroke="#000000" stroke-miterlimit="10" points="935.78,2380.496 936.5,2208.496 935.809,1896.496 
				935.76,1874.506 935.75,1869.996 935.76,1865.926 			"/>
			<polyline fill="none" stroke="#000000" stroke-miterlimit="10" points="935.75,3416.996 935.75,3169.826 936.5,2904.496 
				935.75,2716.496 935.75,2388.166 935.78,2380.976 			"/>
			<polyline fill="none" stroke="#000000" stroke-miterlimit="10" points="602,3651.496 866.5,3650.176 935.75,3649.826 
				935.75,3474.496 935.75,3449.496 			"/>
			<line fill="none" stroke="#000000" stroke-miterlimit="10" x1="462.33" y1="3527.826" x2="602" y2="3527.826"/>
			<rect x="637.67" y="3651.996" fill="none" stroke="#000000" stroke-miterlimit="10" width="196.66" height="350.5"/>
			<polyline fill="none" stroke="#000000" stroke-miterlimit="10" points="1280.5,819.496 1222.5,819.496 1222.5,787.996 
				1317,787.996 1317,819.496 			"/>
			<polyline fill="none" stroke="#000000" stroke-miterlimit="10" points="1280.5,828.496 1280.5,819.496 1317,819.496 
				1317,910.996 1280.5,910.996 1280.5,859.996 			"/>
			<polyline fill="none" stroke="#000000" stroke-miterlimit="10" points="1181.5,828.496 1280.5,828.496 1280.5,859.996 
				1181.5,859.996 			"/>
			<polyline fill="none" stroke="#000000" stroke-miterlimit="10" points="1089.5,859.996 936.5,859.996 936.5,828.496 
				1089.5,828.496 			"/>
			<polyline fill="none" stroke="#000000" stroke-miterlimit="10" points="1279,1338.996 1221.5,1338.996 1221.5,1305.496 
				1318,1305.496 1318,1338.996 			"/>
			<polyline fill="none" stroke="#000000" stroke-miterlimit="10" points="1279,1343.496 1279,1338.996 1318,1338.996 
				1318,1427.496 1279,1427.496 1279,1377.996 			"/>
			<polyline fill="none" stroke="#000000" stroke-miterlimit="10" points="1168.5,1343.496 1279,1343.496 1279,1377.996 
				1168.5,1377.996 			"/>
			<polyline fill="none" stroke="#000000" stroke-miterlimit="10" points="1067,1377.996 935.84,1377.996 935.769,1377.996 
				935.769,1357.496 935.769,1344.606 935.769,1343.496 1067,1343.496 			"/>
			<polyline fill="none" stroke="#000000" stroke-miterlimit="10" points="1280.5,1857.496 1221.5,1857.496 1221.5,1822.996 
				1318,1822.996 1318,1857.496 			"/>
			<polyline fill="none" stroke="#000000" stroke-miterlimit="10" points="1280.5,1863.996 1280.5,1857.496 1318,1857.496 
				1318,1948.496 1280.5,1948.496 1280.5,1896.496 			"/>
			<polyline fill="none" stroke="#000000" stroke-miterlimit="10" points="1167.5,1863.996 1280.5,1863.996 1280.5,1896.496 
				1167.5,1896.496 			"/>
			<polyline fill="none" stroke="#000000" stroke-miterlimit="10" points="1057,1896.496 935.809,1896.496 935.76,1896.496 
				935.76,1874.506 935.76,1865.926 935.76,1863.996 1057,1863.996 			"/>
			<polyline fill="none" stroke="#000000" stroke-miterlimit="10" points="1281,2373.496 1221.5,2373.496 1221.5,2340.996 
				1316.5,2340.996 1316.5,2373.496 			"/>
			<polyline fill="none" stroke="#000000" stroke-miterlimit="10" points="1281,2380.496 1281,2373.496 1316.5,2373.496 
				1316.5,2463.996 1281,2463.996 1281,2413.496 			"/>
			<polyline fill="none" stroke="#000000" stroke-miterlimit="10" points="1164,2380.496 1281,2380.496 1281,2413.496 
				1164,2413.496 			"/>
			<polyline fill="none" stroke="#000000" stroke-miterlimit="10" points="1060,2413.496 935.78,2413.496 935.78,2380.976 
				935.78,2380.496 1060,2380.496 			"/>
			<polyline fill="none" stroke="#000000" stroke-miterlimit="10" points="1280.5,2892.496 1221.5,2892.496 1221.5,2858.496 
				1318,2858.496 1318,2892.496 			"/>
			<line fill="none" stroke="#000000" stroke-miterlimit="10" x1="1170" y1="2898.996" x2="1280.5" y2="2898.996"/>
			<polyline fill="none" stroke="#000000" stroke-miterlimit="10" points="1057.5,2931.496 936.5,2931.496 936.5,2904.496 
				936.5,2898.996 1057.5,2898.996 			"/>
			<line fill="none" stroke="#000000" stroke-miterlimit="10" x1="1280.5" y1="2931.496" x2="1170" y2="2931.496"/>
			<polygon fill="none" stroke="#000000" stroke-miterlimit="10" points="1318,2892.496 1318,2981.996 1280.5,2981.996 
				1280.5,2931.496 1280.5,2898.996 1280.5,2892.496 			"/>
			<polyline fill="none" stroke="#000000" stroke-miterlimit="10" points="1281,3410.496 1222.5,3410.496 1222.5,3376.496 
				1318,3376.496 1318,3410.496 			"/>
			<polyline fill="none" stroke="#000000" stroke-miterlimit="10" points="1281,3416.996 1281,3410.496 1318,3410.496 
				1318,3499.996 1281,3499.996 1281,3449.496 			"/>
			<polyline fill="none" stroke="#000000" stroke-miterlimit="10" points="1057.5,3449.496 935.75,3449.496 935.75,3416.996 
				1057.5,3416.996 			"/>
			<polyline fill="none" stroke="#000000" stroke-miterlimit="10" points="1172.5,3416.996 1281,3416.996 1281,3449.496 
				1172.5,3449.496 			"/>
			<line fill="none" stroke="#000000" stroke-miterlimit="10" x1="44.5" y1="3126.996" x2="44.5" y2="3133.996"/>
			<polyline fill="none" stroke="#000000" stroke-miterlimit="10" points="8,3133.996 8,3042.496 44.5,3042.496 44.5,3091.996 			
				"/>
			<polygon fill="none" stroke="#000000" stroke-miterlimit="10" points="44.5,3133.996 103.5,3133.996 103.5,3167.166 8,3167.166 
				8,3133.996 			"/>
			<polyline fill="none" stroke="#000000" stroke-miterlimit="10" points="169,3126.996 44.5,3126.996 44.5,3091.996 169,3091.996 
							"/>
			<polyline fill="none" stroke="#000000" stroke-miterlimit="10" points="282,3091.996 461.83,3091.996 461.83,3126.996 
				282,3126.996 			"/>
			<line fill="none" stroke="#000000" stroke-miterlimit="10" x1="44.5" y1="2499.496" x2="44.5" y2="2505.996"/>
			<polyline fill="none" stroke="#000000" stroke-miterlimit="10" points="7,2505.996 7,2415.996 44.5,2415.996 44.5,2466.496 			
				"/>
			<polygon fill="none" stroke="#000000" stroke-miterlimit="10" points="44.5,2505.996 104.5,2505.996 104.5,2538.996 7,2538.996 
				7,2505.996 			"/>
			<polyline fill="none" stroke="#000000" stroke-miterlimit="10" points="169,2499.496 44.5,2499.496 44.5,2466.496 169,2466.496 
							"/>
			<polyline fill="none" stroke="#000000" stroke-miterlimit="10" points="281.5,2466.496 461.83,2466.496 461.83,2499.496 
				281.5,2499.496 			"/>
			<line fill="none" stroke="#000000" stroke-miterlimit="10" x1="43.5" y1="1832.996" x2="43.5" y2="1841.996"/>
			<polyline fill="none" stroke="#000000" stroke-miterlimit="10" points="8,1841.996 8,1750.996 43.5,1750.996 43.5,1800.496 			
				"/>
			<polygon fill="none" stroke="#000000" stroke-miterlimit="10" points="43.5,1841.996 104.5,1841.996 104.5,1872.996 8,1872.996 
				8,1841.996 			"/>
			<polyline fill="none" stroke="#000000" stroke-miterlimit="10" points="177.5,1832.996 43.5,1832.996 43.5,1800.496 
				177.5,1800.496 			"/>
			<polyline fill="none" stroke="#000000" stroke-miterlimit="10" points="287.5,1800.496 462.75,1800.496 462.75,1832.996 
				287.5,1832.996 			"/>
			<polyline fill="none" stroke="#000000" stroke-miterlimit="10" points="8.5,857.496 8.5,827.996 100.5,827.996 100.5,857.496 
				44,857.496 			"/>
			<polyline fill="none" stroke="#000000" stroke-miterlimit="10" points="44,939.996 44,949.996 8.5,949.996 8.5,857.496 
				44,857.496 44,906.496 			"/>
			<polyline fill="none" stroke="#000000" stroke-miterlimit="10" points="148.5,939.996 44,939.996 44,906.496 148.5,906.496 			
				"/>
			<polyline fill="none" stroke="#000000" stroke-miterlimit="10" points="262.5,906.496 461.83,906.496 461.83,939.996 
				262.5,939.996 			"/>
			<rect x="828.33" y="1366.496" fill="none" stroke="#000000" stroke-miterlimit="10" width="13.34" height="24"/>
			<rect x="501.5" y="2466.496" fill="none" stroke="#000000" stroke-miterlimit="10" width="15.5" height="22"/>
			<line fill="none" stroke="#000000" stroke-miterlimit="10" x1="502.33" y1="2531.826" x2="646" y2="2531.826"/>
			<rect x="591" y="2755.496" fill="none" stroke="#000000" stroke-miterlimit="10" width="55" height="83"/>
			<line fill="none" stroke="#000000" stroke-miterlimit="10" x1="599.67" y1="3369.496" x2="649" y2="3369.496"/>
			<line fill="none" stroke="#000000" stroke-miterlimit="10" x1="502.33" y1="730.326" x2="647" y2="730.326"/>
			<rect x="156.5" y="75.716" fill="none" stroke="#000000" stroke-miterlimit="10" width="187" height="5.57"/>
			<rect x="156.5" y="114.996" fill="none" stroke="#000000" stroke-miterlimit="10" width="187" height="5.72"/>
		</g>
	</g>
</g>
<text transform='matrix(1 0 0 1 670.0 894.0)' font-size='12'>走道</text>
<text transform='matrix(1 0 0 1 549.0 2986.0)' font-size='12'>走道</text>
<text transform='matrix(1 0 0 1 375.0 97.0)' font-size='12'>G12登机走廊</text>
<text transform='matrix(1 0 0 1 514.0 108.0)' font-size='12'>12号登机口</text>
<text transform='matrix(1 0 0 1 971.0 382.0)' font-size='12'>G11登机走廊</text>
<text transform='matrix(1 0 0 1 504.0 184.0)' font-size='12'>F12登机口候机座位</text>
<text transform='matrix(1 0 0 1 771.0 188.0)' font-size='12'>F11登机口候机座位(北)</text>
<text transform='matrix(1 0 0 1 519.0 363.0)' font-size='12'>G卫生间T-B2-P3</text>
<text transform='matrix(1 0 0 1 840.0 397.0)' font-size='12'>11号登机口</text>
<text transform='matrix(1 0 0 1 516.0 515.0)' font-size='12'>S兴航咖啡厅T4-3-22</text>
<text transform='matrix(1 0 0 1 510.0 570.0)' font-size='12'>G12#配电室</text>
<text transform='matrix(1 0 0 1 520.0 622.0)' font-size='12'>G电梯1</text>
<text transform='matrix(1 0 0 1 601.0 626.0)' font-size='12'>G楼梯1</text>
<text transform='matrix(1 0 0 1 773.0 477.0)' font-size='12'>F11登机口候机座位</text>
<text transform='matrix(1 0 0 1 786.0 640.0)' font-size='12'>S富拉数码店T4-3-21</text>
<text transform='matrix(1 0 0 1 529.0 716.0)' font-size='12'>S伊示雅便利店T4-3-20</text>
<text transform='matrix(1 0 0 1 513.0 748.0)' font-size='12'>S恬密食品品牌店T4-3-19</text>
<text transform='matrix(1 0 0 1 779.0 730.0)' font-size='12'>F10登机口候机座位北</text>
<text transform='matrix(1 0 0 1 836.0 842.0)' font-size='12'>10号登机口</text>
<text transform='matrix(1 0 0 1 509.0 925.0)' font-size='12'>9号登机口</text>
<text transform='matrix(1 0 0 1 973.0 843.0)' font-size='12'>G10登机走廊</text>
<text transform='matrix(1 0 0 1 359.0 922.0)' font-size='12'>G9登机走廊</text>
<text transform='matrix(1 0 0 1 783.0 1072.0)' font-size='12'>F10和8登机口候机座位</text>
<text transform='matrix(1 0 0 1 516.0 1097.0)' font-size='12'>S中信书店T4-3-17</text>
<text transform='matrix(1 0 0 1 519.0 1168.0)' font-size='12'>S兴航便利店T4-3-16</text>
<text transform='matrix(1 0 0 1 518.0 1226.0)' font-size='12'>S台秀品牌店T4-3-15</text>
<text transform='matrix(1 0 0 1 520.0 1296.0)' font-size='12'>G母婴候机室43-Z-30</text>
<text transform='matrix(1 0 0 1 603.0 1380.0)' font-size='12'>S片仔癀T4-3-14</text>
<text transform='matrix(1 0 0 1 835.0 1378.0)' font-size='12'>8号登机口</text>
<text transform='matrix(1 0 0 1 966.0 1362.0)' font-size='12'>G8登机走廊</text>
<text transform='matrix(1 0 0 1 552.0 1522.0)' font-size='12'>G卫生间T-B2-P2</text>
<text transform='matrix(1 0 0 1 779.0 1452.0)' font-size='12'>F8登机口候机座位</text>
<text transform='matrix(1 0 0 1 513.0 1685.0)' font-size='12'>S伊示雅咖啡厅T4-3-12</text>
<text transform='matrix(1 0 0 1 593.0 1654.0)' font-size='12'>楼梯</text>
<text transform='matrix(1 0 0 1 781.0 1591.0)' font-size='12'>S兴航圣祖食品店T4-3-13</text>
<text transform='matrix(1 0 0 1 781.0 1707.0)' font-size='12'>F7登机口候机座位北</text>
<text transform='matrix(1 0 0 1 509.0 1812.0)' font-size='12'>7号登机口</text>
<text transform='matrix(1 0 0 1 360.0 1817.0)' font-size='12'>G7登机走廊</text>
<text transform='matrix(1 0 0 1 835.0 1895.0)' font-size='12'>6号登机口</text>
<text transform='matrix(1 0 0 1 955.0 1885.0)' font-size='12'>G6登机走廊</text>
<text transform='matrix(1 0 0 1 507.0 2006.0)' font-size='12'>S伊示雅便利店T4-3-10</text>
<text transform='matrix(1 0 0 1 577.0 2037.0)' font-size='12'>S中信书店T4-3-11</text>
<text transform='matrix(1 0 0 1 510.0 2190.0)' font-size='12'>S山国饮艺茶叶店T4-3-8</text>
<text transform='matrix(1 0 0 1 574.0 2126.0)' font-size='12'>S美珍香品牌店T4-3-9</text>
<text transform='matrix(1 0 0 1 780.0 2090.0)' font-size='12'>F5和6登机口候机座位</text>
<text transform='matrix(1 0 0 1 834.0 2394.0)' font-size='12'>5号登机口</text>
<text transform='matrix(1 0 0 1 956.0 2399.0)' font-size='12'>G5登机走廊</text>
<text transform='matrix(1 0 0 1 509.0 2475.0)' font-size='12'>4号登机口</text>
<text transform='matrix(1 0 0 1 364.0 2487.0)' font-size='12'>G4登机走廊</text>
<text transform='matrix(1 0 0 1 778.0 2540.0)' font-size='12'>F5登机口候机座位</text>
<text transform='matrix(1 0 0 1 545.0 2516.0)' font-size='12'>楼梯</text>
<text transform='matrix(1 0 0 1 565.0 2643.0)' font-size='12'>G卫生间T-B2-P1</text>
<text transform='matrix(1 0 0 1 600.0 2792.0)' font-size='12'>S兴航甜品店T4-3-5</text>
<text transform='matrix(1 0 0 1 772.0 2811.0)' font-size='12'>F3登机口候机座位北</text>
<text transform='matrix(1 0 0 1 600.0 2911.0)' font-size='12'>G扶梯FT-B-2</text>
<text transform='matrix(1 0 0 1 522.0 2913.0)' font-size='12'>G电梯DT-B-2</text>
<text transform='matrix(1 0 0 1 836.0 2905.0)' font-size='12'>3号登机口</text>
<text transform='matrix(1 0 0 1 954.0 2917.0)' font-size='12'>G3登机走廊</text>
<text transform='matrix(1 0 0 1 774.0 3125.0)' font-size='12'>F1和3登机口候机座位</text>
<text transform='matrix(1 0 0 1 508.0 3107.0)' font-size='12'>2号登机口</text>
<text transform='matrix(1 0 0 1 368.0 3108.0)' font-size='12'>G2登机走廊</text>
<text transform='matrix(1 0 0 1 597.0 3196.0)' font-size='12'>S逸臣便利店T4-3-4</text>
<text transform='matrix(1 0 0 1 607.0 3394.0)' font-size='12'>S日光岩T4-3-3</text>
<text transform='matrix(1 0 0 1 569.0 3364.0)' font-size='12'>G扶梯FT-B-1</text>
<text transform='matrix(1 0 0 1 482.0 3388.0)' font-size='12'>G电梯DT-B-1</text>
<text transform='matrix(1 0 0 1 496.0 3475.0)' font-size='12'>S连天红品牌店T4-3-2</text>
<text transform='matrix(1 0 0 1 496.0 3593.0)' font-size='12'>S兴航药品保健店T4-3-1</text>
<text transform='matrix(1 0 0 1 836.0 3449.0)' font-size='12'>1号登机口</text>
<text transform='matrix(1 0 0 1 775.0 3560.0)' font-size='12'>F1登机口候机座位</text>
<text transform='matrix(1 0 0 1 700.0 3785.0)' font-size='12'>出发连廊</text>
<text transform='matrix(1 0 0 1 960.0 3432.0)' font-size='12'>G1登机走廊</text>
<text transform='matrix(1 0 0 1 246.0 79.0)' font-size='12'>QTF3-01</text>
<text transform='matrix(1 0 0 1 246.0 120.0)' font-size='12'>QTF3-02</text>
<text transform='matrix(1 0 0 1 474.0 151.0)' font-size='12'>LTF3-21</text>
<text transform='matrix(1 0 0 1 652.0 303.0)' font-size='12'>ZDF3-09</text>
<text transform='matrix(1 0 0 1 651.0 609.0)' font-size='12'>ZDF3-08</text>
<text transform='matrix(1 0 0 1 801.0 237.0)' font-size='12'>DCF3-01</text>
<text transform='matrix(1 0 0 1 857.0 435.0)' font-size='12'>LTF3-14</text>
<text transform='matrix(1 0 0 1 1114.0 362.0)' font-size='12'>QTF3-11</text>
<text transform='matrix(1 0 0 1 1118.0 400.0)' font-size='12'>QTF3-12</text>
<text transform='matrix(1 0 0 1 802.0 517.0)' font-size='12'>DCF3-02</text>
<text transform='matrix(1 0 0 1 775.0 689.0)' font-size='12'>LTF3-01</text>
<text transform='matrix(1 0 0 1 801.0 758.0)' font-size='12'>DCF3-03</text>
<text transform='matrix(1 0 0 1 1128.0 828.0)' font-size='12'>QTF3-13</text>
<text transform='matrix(1 0 0 1 1132.0 864.0)' font-size='12'>QTF3-14</text>
<text transform='matrix(1 0 0 1 854.0 884.0)' font-size='12'>LTF3-15</text>
<text transform='matrix(1 0 0 1 474.0 956.0)' font-size='12'>LTF3-22</text>
<text transform='matrix(1 0 0 1 191.0 905.0)' font-size='12'>QTF3-03</text>
<text transform='matrix(1 0 0 1 188.0 944.0)' font-size='12'>QTF3-04</text>
<text transform='matrix(1 0 0 1 800.0 1038.0)' font-size='12'>DCF3-04</text>
<text transform='matrix(1 0 0 1 800.0 1259.0)' font-size='12'>DCF3-05</text>
<text transform='matrix(1 0 0 1 847.0 1353.0)' font-size='12'>LTF3-16</text>
<text transform='matrix(1 0 0 1 1103.0 1341.0)' font-size='12'>QTF3-15</text>
<text transform='matrix(1 0 0 1 1110.0 1384.0)' font-size='12'>QTF3-16</text>
<text transform='matrix(1 0 0 1 801.0 1482.0)' font-size='12'>DCF3-06</text>
<text transform='matrix(1 0 0 1 777.0 1641.0)' font-size='12'>LTF3-02</text>
<text transform='matrix(1 0 0 1 654.0 1579.0)' font-size='12'>ZDF3-07</text>
<text transform='matrix(1 0 0 1 472.0 1848.0)' font-size='12'>LTF3-23</text>
<text transform='matrix(1 0 0 1 802.0 1738.0)' font-size='12'>DCF3-07</text>
<text transform='matrix(1 0 0 1 215.0 1798.0)' font-size='12'>QTF3-05</text>
<text transform='matrix(1 0 0 1 217.0 1839.0)' font-size='12'>QTF3-06</text>
<text transform='matrix(1 0 0 1 853.0 1923.0)' font-size='12'>LTF3-17</text>
<text transform='matrix(1 0 0 1 1099.0 1862.0)' font-size='12'>QTF3-17</text>
<text transform='matrix(1 0 0 1 1102.0 1902.0)' font-size='12'>QTF3-18</text>
<text transform='matrix(1 0 0 1 801.0 2000.0)' font-size='12'>DCF3-08</text>
<text transform='matrix(1 0 0 1 801.0 2227.0)' font-size='12'>DCF3-09</text>
<text transform='matrix(1 0 0 1 802.0 2368.0)' font-size='12'>DCF3-10</text>
<text transform='matrix(1 0 0 1 849.0 2440.0)' font-size='12'>LTF3-18</text>
<text transform='matrix(1 0 0 1 1098.0 2377.0)' font-size='12'>QTF3-19</text>
<text transform='matrix(1 0 0 1 1106.0 2417.0)' font-size='12'>QTF3-20</text>
<text transform='matrix(1 0 0 1 473.0 2461.0)' font-size='12'>LTF3-24</text>
<text transform='matrix(1 0 0 1 214.0 2464.0)' font-size='12'>QTF3-07</text>
<text transform='matrix(1 0 0 1 213.0 2506.0)' font-size='12'>QTF3-08</text>
<text transform='matrix(1 0 0 1 651.0 2591.0)' font-size='12'>ZDF3-06</text>
<text transform='matrix(1 0 0 1 802.0 2627.0)' font-size='12'>DCF3-11</text>
<text transform='matrix(1 0 0 1 770.0 2751.0)' font-size='12'>TLF3-03</text>
<text transform='matrix(1 0 0 1 800.0 2812.0)' font-size='12'>DCF3-12</text>
<text transform='matrix(1 0 0 1 850.0 2925.0)' font-size='12'>LTF3-19</text>
<text transform='matrix(1 0 0 1 1092.0 2898.0)' font-size='12'>QTF3-21</text>
<text transform='matrix(1 0 0 1 1101.0 2936.0)' font-size='12'>QTF3-22</text>
<text transform='matrix(1 0 0 1 801.0 3031.0)' font-size='12'>DCF3-13</text>
<text transform='matrix(1 0 0 1 577.0 3004.0)' font-size='12'>ZDF3-05</text>
<text transform='matrix(1 0 0 1 229.0 3093.0)' font-size='12'>QTF3-09</text>
<text transform='matrix(1 0 0 1 223.0 3133.0)' font-size='12'>QTF3-10</text>
<text transform='matrix(1 0 0 1 801.0 3221.0)' font-size='12'>DCF3-14</text>
<text transform='matrix(1 0 0 1 802.0 3397.0)' font-size='12'>DCF3-15</text>
<text transform='matrix(1 0 0 1 654.0 3333.0)' font-size='12'>ZDF3-04</text>
<text transform='matrix(1 0 0 1 478.0 3159.0)' font-size='12'>LTF3-25</text>
<text transform='matrix(1 0 0 1 849.0 3475.0)' font-size='12'>LTF3-20</text>
<text transform='matrix(1 0 0 1 802.0 3585.0)' font-size='12'>DCF3-16</text>
<text transform='matrix(1 0 0 1 1088.0 3416.0)' font-size='12'>QTF3-23</text>
<text transform='matrix(1 0 0 1 1097.0 3454.0)' font-size='12'>QTF3-24</text>
<text transform='matrix(1 0 0 1 595.0 2351.0)' font-size='12'>S兴行烟草专卖店T4-3-7</text>
</svg>
