<?xml version="1.0" encoding="utf-8"?>
<!-- Generator: Adobe Illustrator 15.0.0, SVG Export Plug-In . SVG Version: 6.00 Build 0)  -->
<!DOCTYPE svg PUBLIC "-//W3C//DTD SVG 1.1//EN" "http://www.w3.org/Graphics/SVG/1.1/DTD/svg11.dtd">
<svg version="1.1" id="图层_2" xmlns="http://www.w3.org/2000/svg" xmlns:xlink="http://www.w3.org/1999/xlink" x="0px" y="0px"
	 width="2527.33398px" height="658.5px" viewBox="0.00024 0 2527.33398 658.5" enable-background="new 0.00024 0 2527.33398 658.5"
	 xml:space="preserve">
<g id="XMLID_2_">
	<g>
		<g id="XMLID_1_">
			<g>
				<path fill="#FFFFFF" d="M275.3772,625.03027l-0.37988,30.54004H5.11743V421h146.87988h58h67.93994l-0.16016,13H151.99731v53h92
					v104l31.81982-1L275.3772,625.03027z M28.99731,615h52.5h8h44.5V487v-53h-68h-21v53v51v29v7h-16v16V615z M228.99731,534v-27h-73
					v27H228.99731z"/>
				<path fill="#FFFFFF" d="M2126.01685,96.5498l160.49023-1c0,0,16.99023-2.44971,29.49023-27.94971l-0.24023-62.99023h56.25V28
					v26.5V164h-368.97949h-57v22.5h-434.03027v-38.25977h-25h-6l-34,0.31982V77.2002
					c21.51953,1.97998,45.26953,5.13965,71.5498,9.7998c32.04004,5.68994,63.87988,9.2998,94.40039,11.37012
					c74.0498,5.0498,140.33008,1.08008,182.75-4.09033c19.92969-2.42969,34.59961-5.12988,42.33008-7.27979
					c33.33008-9.27002,132.10938-14.12988,235.48926,9.87988l24.76074-0.1499L2126.01685,96.5498z"/>
				<path fill="#FFFFFF" d="M1401.32739,74.56982V149c0-4-74.33008,9-74.33008,9l-139-1v-50.08984
					c17.16992-2.30029,32.16992-5.11035,43.93994-7.56006h0.00977c7.37012-1.54004,13.47021-2.93994,18.05029-3.99023
					C1281.50708,88.12988,1323.83716,73.02002,1401.32739,74.56982z"/>
				<path fill="#FFFFFF" d="M427.18726,95.3999l23.41016,0.29004c0,0,76.5-30.3999,182.98975,0
					c4.99023,1.41992,9.91992,2.70996,14.83008,3.87988c0,0,0,0,0.00977,0c75.17041,17.87012,140.07031,6.65039,167.59033,0h0.00977
					c9.04004-2.18994,14.05029-3.87988,14.05029-3.87988s90.84961-31.8999,184.91992,0
					c4.1499,1.41016,8.31982,2.7002,12.52002,3.89014c9.6001,2.72998,19.2998,4.91992,29.02002,6.62988
					c9.00977,1.58984,18.04004,2.79004,27,3.62988c20.75977,1.97021,41.18994,2.11035,60.35986,1.16016
					c0.04004,0,0.08008,0,0.10986-0.00977c5.79004-0.28027,11.45996-0.67041,16.99023-1.13037v1.79004V157c-10-8-63-8-63-8
					c-2.70996,0-11.43018,1.0498-21.08984,2.33984C1061.63745,153.37012,1043.99731,156,1043.99731,156v41h-29v-19h-436v-14h-57
					h-366V4.60986h48.60986V67.6001c0,0,8.28027,30.3999,39.39014,27.94971l159-0.44971L427.18726,95.3999z"/>
				<path fill="#FFFFFF" d="M1446.99731,77.2002c-16.46973-1.52002-31.65039-2.3501-45.66992-2.63037
					c-77.49023-1.5498-119.82031,13.56006-151.33008,20.79004c-4.58008,1.05029-10.68018,2.4502-18.05029,3.99023h-0.00977
					c-11.77002,2.44971-26.77002,5.25977-43.93994,7.56006c-8.51025,1.13965-17.55029,2.15967-27,2.94971v-0.6499
					c-45.16016-34.75-126.4502-13.0498-133.47998-9.64014v0.01025c-4.2002-1.18994-8.37012-2.47998-12.52002-3.89014
					c-94.07031-31.8999-184.91992,0-184.91992,0s-5.01025,1.68994-14.05029,3.87988h-0.00977
					c-96.04004-32.35986-166.85986-0.33984-167.59033,0c-0.00977,0-0.00977,0-0.00977,0
					c-4.91016-1.16992-9.83984-2.45996-14.83008-3.87988c-106.48975-30.3999-182.98975,0-182.98975,0l-23.41016-0.29004V26
					h-24.18994V4.60986h1670.51953v92.27002C1970.13696,72.87012,1871.35767,77.72998,1838.02759,87
					c-7.73047,2.1499-22.40039,4.8501-42.33008,7.27979l-0.0498-0.3999c-106.87012-39.70996-182.7002,4.49023-182.7002,4.49023
					C1582.427,96.2998,1550.58716,92.68994,1518.54712,87C1492.26685,82.33984,1468.51685,79.18018,1446.99731,77.2002z
					 M1946.02759,72.41992V43.60986h-66v28.81006H1946.02759z M666.58716,75.1001V50.1499h-80.98975v24.9502H666.58716z"/>
				<rect x="65.99731" y="434" fill="#DEE3F5" width="68" height="53"/>
				<polygon fill="#DBDEE9" points="2454.99731,234 2454.99731,299 2393.99731,299 2389.99731,299 2389.99731,234 				"/>
				<rect x="2389.99731" y="164" fill="#DBDEE9" width="65" height="70"/>
				<path fill="#FFFFFF" d="M2521.99731,422v233.57031h-271.49023V422h65.49023v50h60v-50H2521.99731z M2495.99731,614v-22v-18h-15
					v-14v-20h-20v-32h20v-71h-20h-67v45v132h51H2495.99731z M2365.99731,534v-31h-71v31H2365.99731z"/>
				<path fill="#FFFFFF" d="M2172.51685,234v-56h-30v8.5V234H2172.51685z M2315.99731,253v46v59.25V385v37h-65.49023v-42v-43.5
					h-247.47949V164h368.97949V54.5h21.99023V85h28.5h17.5V24h-17.5h-28.5v4h-21.99023V4.60986h149.99023V422h-146v-37v-26.75V299
					v-46H2315.99731z M2389.99731,234v65h4h61v-65v-70v-35h-65v35V234z"/>
				<rect x="2444.99731" y="592" fill="#EBEBA6" width="51" height="22"/>
				<polygon fill="#DBDEE9" points="2495.99731,574 2495.99731,592 2444.99731,592 2444.99731,560 2480.99731,560 2480.99731,574 
									"/>
				<polygon fill="#DBDEE9" points="2480.99731,540 2480.99731,560 2444.99731,560 2444.99731,540 2460.99731,540 				"/>
				<polygon fill="#EBEBA6" points="2480.99731,437 2480.99731,508 2460.99731,508 2460.99731,482 2460.99731,437 				"/>
				<polygon fill="#EBEBA6" points="2460.99731,508 2460.99731,540 2444.99731,540 2444.99731,560 2444.99731,592 2444.99731,614 
					2393.99731,614 2393.99731,482 2460.99731,482 				"/>
				<rect x="2393.99731" y="437" fill="#DBDEE9" width="67" height="45"/>
				<rect x="2389.99731" y="129" fill="#F9F9E4" width="65" height="35"/>
				<rect x="2422.49731" y="24" fill="#F9F9E4" width="17.5" height="61"/>
				<polygon fill="#EBEBA6" points="2422.49731,24 2422.49731,85 2393.99731,85 2393.99731,54.5 2393.99731,28 2393.99731,24 				
					"/>
				<rect x="2372.00708" y="28" fill="#F9F9E4" width="21.99023" height="26.5"/>
				<rect x="2315.99731" y="422" fill="#EBEBA6" width="60" height="50"/>
				<rect x="2315.99731" y="385" fill="#F9F9E4" width="60" height="37"/>
				<rect x="2315.99731" y="358.25" fill="#EBEBA6" width="60" height="26.75"/>
				<rect x="2315.99731" y="299" fill="#EBEBA6" width="60" height="59.25"/>
				<rect x="2315.99731" y="253" fill="#F9F9E4" width="60" height="46"/>
				<rect x="2294.99731" y="503" fill="#EBEBA6" width="71" height="31"/>
				<path fill="#EBEBA6" d="M2315.75708,4.60986l0.24023,62.99023c-12.5,25.5-29.49023,27.94971-29.49023,27.94971l-160.49023,1
					V4.60986H2315.75708z"/>
				<polygon fill="#FFFFFF" points="277.7771,434 277.93726,421 278.44702,380 521.99731,380 578.99731,380 578.99731,285 
					1014.99731,285 1014.99731,336.5 1031.99731,336.5 1031.99731,380 1468.99731,380 1474.99731,380 1511.99731,380 
					1511.99731,286.25 1946.02759,285 1946.02759,380 2004.52759,380 2250.50708,380 2250.50708,422 2250.50708,655.57031 
					274.99731,655.57031 275.3772,625.03027 275.81714,590 277.10718,487 				"/>
				<polygon fill="#F9F9E4" points="2250.50708,336.5 2250.50708,380 2004.52759,380 2003.02759,358.25 2003.02759,336.5 				"/>
				<polygon fill="#F9F9E4" points="2172.51685,178 2172.51685,234 2142.51685,234 2142.51685,186.5 2142.51685,178 				"/>
				<polygon fill="#F9F9E4" points="2126.01685,4.60986 2126.01685,96.5498 2098.27759,96.72998 2098.26685,95.68994 
					2098.26685,4.60986 				"/>
				<polygon fill="#EBEBA6" points="2098.26685,95.68994 2098.27759,96.72998 2073.51685,96.87988 2073.51685,4.60986 
					2098.26685,4.60986 				"/>
				<polygon fill="#F8E6E2" points="2003.02759,358.25 2004.52759,380 1946.02759,380 1946.02759,285 1946.02759,186.5 
					1946.02759,164 2003.02759,164 2003.02759,336.5 				"/>
				<polygon fill="#F8E6E2" points="1946.02759,186.5 1946.02759,285 1511.99731,286.25 1511.99731,186.5 				"/>
				<rect x="1880.02759" y="43.60986" fill="#EBEBA6" width="66" height="28.81006"/>
				<path fill="#DA6F6F" d="M1795.64771,93.87988l0.0498,0.3999c-42.41992,5.17041-108.7002,9.14014-182.75,4.09033
					C1612.94751,98.37012,1688.77759,54.16992,1795.64771,93.87988z"/>
				<polygon fill="#F9F9E4" points="1511.99731,286.25 1511.99731,380 1474.99731,380 1468.99731,380 1468.99731,336.5 
					1446.99731,336.5 1446.99731,236 1486.99731,236 1486.99731,148.24023 1511.99731,148.24023 1511.99731,186.5 				"/>
				<polygon fill="#F8E6E2" points="1486.99731,148.24023 1486.99731,236 1446.99731,236 1446.99731,149 1446.99731,148.56006 
					1480.99731,148.24023 				"/>
				<polygon fill="#F8E6E2" points="1468.99731,336.5 1468.99731,380 1031.99731,380 1031.99731,336.5 1076.90747,336.5 
					1221.99731,336.5 1446.99731,336.5 				"/>
				<polygon fill="#F9F9E4" points="1446.99731,236 1446.99731,336.5 1221.99731,336.5 1221.99731,272 1294.66724,272 
					1385.99731,272 1385.99731,200 1385.99731,195 1401.32739,149 1446.99731,148.56006 1446.99731,149 				"/>
				<path fill="#E8F2D9" d="M1446.99731,77.2002v71.35986L1401.32739,149V74.56982
					C1415.34692,74.8501,1430.52759,75.68018,1446.99731,77.2002z"/>
				<path fill="#C1BE98" d="M1401.32739,149l-15.33008,46v5h-91.33008h-77.66992h-29v-43l139,1
					C1326.99731,158,1401.32739,145,1401.32739,149z"/>
				<polygon fill="#C1BE98" points="1385.99731,200 1385.99731,272 1294.66724,272 1294.66724,236 1294.66724,200 				"/>
				<polygon fill="#F8E6E2" points="1294.66724,236 1294.66724,272 1221.99731,272 1216.99731,272 1216.99731,236 				"/>
				<rect x="1216.99731" y="200" fill="#F8E6E2" width="77.66992" height="36"/>
				<path fill="#F8E6E2" d="M1221.99731,272v64.5h-145.08984V200h84.08984v-27h-84.08984v-21.66016
					c9.65967-1.29004,18.37988-2.33984,21.08984-2.33984c0,0,53,0,63,8h27v43v72h29H1221.99731z"/>
				<polygon fill="#C1BE98" points="1216.99731,236 1216.99731,272 1187.99731,272 1187.99731,200 1216.99731,200 				"/>
				<path fill="#E8F2D9" d="M1187.99731,106.91016V157h-27v-45.3501v-1.79004
					C1170.44702,109.06982,1179.48706,108.0498,1187.99731,106.91016z"/>
				<rect x="1076.90747" y="173" fill="#C1BE98" width="84.08984" height="27"/>
				<path fill="#DA6F6F" d="M1160.99731,109.20996c-5.7002,0.68018-11.31006,1.2998-16.99023,1.78027
					C1143.97729,111,1143.93726,111,1143.89722,111c-19.16992,0.9502-39.6001,0.81006-60.35986-1.16016
					c-15.77002-1.8999-33.97021-5.1499-56.02002-10.27002C1034.54712,96.16016,1115.83716,74.45996,1160.99731,109.20996z"/>
				<path fill="#F9F9E4" d="M1076.90747,200v136.5h-44.91016h-17V285v-85v-3h29v-41c0,0,17.64014-2.62988,32.91016-4.66016V173V200z
					"/>
				<rect x="578.99731" y="200" fill="#F8E6E2" width="436" height="85"/>
				<polygon fill="#EBEBA6" points="1014.99731,197 1014.99731,200 578.99731,200 578.99731,178 1014.99731,178 				"/>
				<path fill="#DA6F6F" d="M816.01733,99.56982c-27.52002,6.65039-92.41992,17.87012-167.59033,0
					C649.15747,99.22998,719.97729,67.20996,816.01733,99.56982z"/>
				<rect x="585.59741" y="50.1499" fill="#EBEBA6" width="80.98975" height="24.9502"/>
				<polygon fill="#F9F9E4" points="578.99731,285 578.99731,380 521.99731,380 521.99731,336.5 521.99731,164 578.99731,164 
					578.99731,178 578.99731,200 				"/>
				<polygon fill="#EBEBA6" points="521.99731,336.5 521.99731,380 278.44702,380 278.99731,336.5 				"/>
				<path fill="#FFFFFF" d="M381.99731,234v-56h-31v56H381.99731z M133.99731,234v-70v-37h-60v37v70v65h60V234z M209.99731,252h-58
					v47v62v26v34H5.11743V4.60986h150.87988V164h366v172.5h-243l-0.55029,43.5l-0.50977,41h-67.93994v-34v-26v-62V252z
					 M146.99731,56.5V32h-18v-6h-23.5h-23.5v61h23.5h23.5V56.5H146.99731z"/>
				<polygon fill="#EBEBA6" points="427.18726,26 427.18726,95.3999 402.99731,95.1001 402.99731,26 				"/>
				<path fill="#F9F9E4" d="M402.99731,26v69.1001l-159,0.44971C212.88745,98,204.60718,67.6001,204.60718,67.6001V4.60986
					h198.39014V26z"/>
				<rect x="350.99731" y="178" fill="#F8E6E2" width="31" height="56"/>
				<polygon fill="#EBEBA6" points="277.7771,434 277.10718,487 243.99731,487 151.99731,487 151.99731,434 				"/>
				<polygon fill="#F9F9E4" points="277.10718,487 275.81714,590 243.99731,591 243.99731,487 				"/>
				<rect x="155.99731" y="507" fill="#C1BE98" width="73" height="27"/>
				<rect x="151.99731" y="387" fill="#C1BE98" width="58" height="34"/>
				<rect x="151.99731" y="361" fill="#F8E6E2" width="58" height="26"/>
				<rect x="151.99731" y="299" fill="#F8E6E2" width="58" height="62"/>
				<rect x="151.99731" y="252" fill="#EBEBA6" width="58" height="47"/>
				<rect x="128.99731" y="32" fill="#F8E6E2" width="18" height="24.5"/>
				<polygon fill="#BDD4A9" points="133.99731,487 133.99731,615 89.49731,615 89.49731,567 89.49731,538 65.99731,538 
					65.99731,487 				"/>
				<rect x="73.99731" y="234" fill="#BDD4A9" width="60" height="65"/>
				<rect x="73.99731" y="164" fill="#BDD4A9" width="60" height="70"/>
				<rect x="73.99731" y="127" fill="#C1BE98" width="60" height="37"/>
				<polygon fill="#C2DFAE" points="128.99731,56.5 128.99731,87 105.49731,87 105.49731,26 128.99731,26 128.99731,32 				"/>
				<rect x="81.99731" y="26" fill="#C2DFAE" width="23.5" height="61"/>
				<polygon fill="#EBEBA6" points="89.49731,567 89.49731,615 81.49731,615 81.49731,590 28.99731,590 28.99731,574 44.99731,574 
					44.99731,567 				"/>
				<polygon fill="#F9F9E4" points="89.49731,538 89.49731,567 44.99731,567 44.99731,538 65.99731,538 				"/>
				<rect x="28.99731" y="590" fill="#F8E6E2" width="52.5" height="25"/>
				<rect x="44.99731" y="487" fill="#C1BE98" width="21" height="51"/>
				<rect x="44.99731" y="434" fill="#F9F9E4" width="21" height="53"/>
			</g>
			<g>
				<polyline fill="none" stroke="#A6CC2C" stroke-miterlimit="10" points="2480.99731,560 2480.99731,574 2495.99731,574 
					2495.99731,592 				"/>
				<polyline fill="none" stroke="#169845" stroke-miterlimit="10" points="2460.99731,540 2480.99731,540 2480.99731,560 				"/>
				<polyline fill="none" stroke="#46B035" stroke-miterlimit="10" points="2460.99731,437 2480.99731,437 2480.99731,508 
					2460.99731,508 				"/>
				<polyline fill="none" stroke="#6AB934" stroke-miterlimit="10" points="2454.99731,234 2454.99731,299 2393.99731,299 
					2389.99731,299 2389.99731,234 				"/>
				<line fill="none" stroke="#40AF36" stroke-miterlimit="10" x1="2454.99731" y1="164" x2="2454.99731" y2="234"/>
				<polyline fill="none" stroke="#367C38" stroke-miterlimit="10" points="133.99731,487 133.99731,615 89.49731,615 				"/>
				<polyline fill="none" stroke="#0F7B3B" stroke-miterlimit="10" points="65.99731,434 133.99731,434 133.99731,487 				"/>
				<polyline fill="none" stroke="#21983A" stroke-miterlimit="10" points="133.99731,234 133.99731,299 73.99731,299 73.99731,234 
									"/>
				<line fill="none" stroke="#29983A" stroke-miterlimit="10" x1="133.99731" y1="164" x2="133.99731" y2="234"/>
				<line fill="none" stroke="#095D31" stroke-miterlimit="10" x1="1231.94702" y1="99.3501" x2="1231.93726" y2="99.3501"/>
				<polygon fill="none" stroke="#000000" stroke-width="3" stroke-miterlimit="10" points="155.99731,4.60986 5.11743,4.60986 
					5.11743,421 5.11743,655.57031 274.99731,655.57031 2250.50708,655.57031 2521.99731,655.57031 2521.99731,422 
					2521.99731,4.60986 2372.00708,4.60986 2315.75708,4.60986 2126.01685,4.60986 2098.26685,4.60986 2073.51685,4.60986 
					402.99731,4.60986 204.60718,4.60986 				"/>
				<polygon fill="none" stroke="#073E21" stroke-miterlimit="10" points="105.49731,87 81.99731,87 81.99731,26 105.49731,26 
					128.99731,26 128.99731,32 128.99731,56.5 128.99731,87 				"/>
				<polyline fill="none" stroke="#073E21" stroke-miterlimit="10" points="128.99731,32 146.99731,32 146.99731,56.5 
					128.99731,56.5 				"/>
				<line fill="none" stroke="#3BAF36" stroke-miterlimit="10" x1="105.49731" y1="26" x2="105.49731" y2="87"/>
				<polyline fill="none" stroke="#E60012" stroke-miterlimit="10" points="73.99731,234 73.99731,164 73.99731,127 133.99731,127 
					133.99731,164 				"/>
				<line fill="none" stroke="#E60012" stroke-miterlimit="10" x1="133.99731" y1="164" x2="73.99731" y2="164"/>
				<polyline fill="none" stroke="#E60012" stroke-miterlimit="10" points="151.99731,421 151.99731,387 151.99731,361 
					151.99731,299 151.99731,252 209.99731,252 209.99731,299 209.99731,361 209.99731,387 209.99731,421 				"/>
				<line fill="none" stroke="#E60012" stroke-miterlimit="10" x1="151.99731" y1="299" x2="209.99731" y2="299"/>
				<line fill="none" stroke="#E60012" stroke-miterlimit="10" x1="209.99731" y1="361" x2="151.99731" y2="361"/>
				<line fill="none" stroke="#E60012" stroke-miterlimit="10" x1="209.99731" y1="387" x2="151.99731" y2="387"/>
				<polyline fill="none" stroke="#E60012" stroke-miterlimit="10" points="381.99731,234 381.99731,178 350.99731,178 
					350.99731,234 				"/>
				<polyline fill="none" stroke="#E60012" stroke-miterlimit="10" points="155.99731,4.60986 155.99731,164 521.99731,164 
					521.99731,336.5 278.99731,336.5 278.44702,380 277.93726,421 277.7771,434 277.10718,487 275.81714,590 275.3772,625.03027 
					274.99731,655.57031 				"/>
				<polyline fill="none" stroke="#E60012" stroke-miterlimit="10" points="277.93726,421 209.99731,421 151.99731,421 5.11743,421 
									"/>
				<polyline fill="none" stroke="#E60012" stroke-miterlimit="10" points="89.49731,615 81.49731,615 28.99731,615 28.99731,590 
					28.99731,574 44.99731,574 44.99731,567 44.99731,538 44.99731,487 44.99731,434 65.99731,434 				"/>
				<line fill="none" stroke="#0F7B3B" stroke-miterlimit="10" x1="65.99731" y1="487" x2="133.99731" y2="487"/>
				<line fill="none" stroke="#E60012" stroke-miterlimit="10" x1="44.99731" y1="487" x2="65.99731" y2="487"/>
				<line fill="none" stroke="#E60012" stroke-miterlimit="10" x1="65.99731" y1="487" x2="65.99731" y2="538"/>
				<line fill="none" stroke="#0F7B3B" stroke-miterlimit="10" x1="65.99731" y1="434" x2="65.99731" y2="487"/>
				<polyline fill="none" stroke="#E60012" stroke-miterlimit="10" points="44.99731,538 65.99731,538 89.49731,538 89.49731,567 
					44.99731,567 				"/>
				<polyline fill="none" stroke="#E60012" stroke-miterlimit="10" points="28.99731,590 81.49731,590 81.49731,615 				"/>
				<line fill="none" stroke="#E60012" stroke-miterlimit="10" x1="89.49731" y1="567" x2="89.49731" y2="615"/>
				<rect x="155.99731" y="507" fill="none" stroke="#E60012" stroke-miterlimit="10" width="73" height="27"/>
				<polyline fill="none" stroke="#E60012" stroke-miterlimit="10" points="277.93726,434 277.7771,434 151.99731,434 
					151.99731,487 243.99731,487 277.10718,487 277.93726,487 				"/>
				<polyline fill="none" stroke="#E60012" stroke-miterlimit="10" points="243.99731,487 243.99731,591 275.81714,590 				"/>
				<polyline fill="none" stroke="#E60012" stroke-miterlimit="10" points="275.3772,625.03027 28.99731,625.03027 28.99731,615 
									"/>
				<polyline fill="none" stroke="#E60012" stroke-miterlimit="10" points="521.99731,164 578.99731,164 578.99731,178 
					578.99731,200 578.99731,285 578.99731,380 521.99731,380 278.44702,380 275.3772,380 				"/>
				<line fill="none" stroke="#E60012" stroke-miterlimit="10" x1="521.99731" y1="336.5" x2="521.99731" y2="380"/>
				<polyline fill="none" stroke="#E60012" stroke-miterlimit="10" points="1030.99731,380 1031.99731,380 1468.99731,380 
					1468.99731,336.5 1446.99731,336.5 1221.99731,336.5 1076.90747,336.5 1031.99731,336.5 1031.99731,380 				"/>
				<polyline fill="none" stroke="#E60012" stroke-miterlimit="10" points="578.99731,178 1014.99731,178 1014.99731,197 
					1014.99731,200 1014.99731,285 1014.99731,336.5 1031.99731,336.5 				"/>
				<line fill="none" stroke="#E60012" stroke-miterlimit="10" x1="1014.99731" y1="285" x2="578.99731" y2="285"/>
				<polyline fill="none" stroke="#E60012" stroke-miterlimit="10" points="1076.90747,151.33984 1076.90747,173 1076.90747,200 
					1076.90747,336.5 				"/>
				<polyline fill="none" stroke="#E60012" stroke-miterlimit="10" points="1076.90747,173 1160.99731,173 1160.99731,200 
					1076.90747,200 				"/>
				<polyline fill="none" stroke="#E60012" stroke-miterlimit="10" points="1187.99731,157 1187.99731,200 1187.99731,272 
					1216.99731,272 1221.99731,272 1294.66724,272 1385.99731,272 1385.99731,200 1385.99731,195 1401.32739,149 				"/>
				<polyline fill="none" stroke="#E60012" stroke-miterlimit="10" points="1187.99731,200 1216.99731,200 1294.66724,200 
					1385.99731,200 				"/>
				<polyline fill="none" stroke="#E60012" stroke-miterlimit="10" points="1216.99731,200 1216.99731,236 1216.99731,272 				"/>
				<polyline fill="none" stroke="#E60012" stroke-miterlimit="10" points="1294.66724,200 1294.66724,236 1294.66724,272 				"/>
				<line fill="none" stroke="#E60012" stroke-miterlimit="10" x1="1216.99731" y1="236" x2="1294.66724" y2="236"/>
				<line fill="none" stroke="#E60012" stroke-miterlimit="10" x1="1221.99731" y1="272" x2="1221.99731" y2="336.5"/>
				<path fill="none" stroke="#E60012" stroke-miterlimit="10" d="M1014.99731,197h29v-41c0,0,17.64014-2.62988,32.91016-4.66016
					c9.65967-1.29004,18.37988-2.33984,21.08984-2.33984c0,0,53,0,63,8h27l139,1c0,0,74.33008-13,74.33008-9l45.66992-0.43994
					l34-0.31982h6h25V186.5v99.75V380h-37h-6"/>
				<polyline fill="none" stroke="#E60012" stroke-miterlimit="10" points="1446.99731,75.1001 1446.99731,77.2002 
					1446.99731,148.56006 1446.99731,149 1446.99731,236 1486.99731,236 1486.99731,148.24023 				"/>
				<line fill="none" stroke="#E60012" stroke-miterlimit="10" x1="1446.99731" y1="236" x2="1446.99731" y2="336.5"/>
				<line fill="none" stroke="#E60012" stroke-miterlimit="10" x1="1014.99731" y1="200" x2="578.99731" y2="200"/>
				<polyline fill="none" stroke="#E60012" stroke-miterlimit="10" points="1511.99731,186.5 1946.02759,186.5 1946.02759,285 
					1511.99731,286.25 				"/>
				<polyline fill="none" stroke="#E60012" stroke-miterlimit="10" points="1946.02759,186.5 1946.02759,164 2003.02759,164 
					2372.00708,164 2372.00708,54.5 2372.00708,28 2372.00708,4.60986 				"/>
				<polyline fill="none" stroke="#E60012" stroke-miterlimit="10" points="1946.02759,285 1946.02759,380 2004.52759,380 
					2250.50708,380 2250.50708,336.5 2003.02759,336.5 2003.02759,164 				"/>
				<polyline fill="none" stroke="#E60012" stroke-miterlimit="10" points="2003.02759,336.5 2003.02759,358.25 2004.52759,380 				
					"/>
				<polyline fill="none" stroke="#E60012" stroke-miterlimit="10" points="2250.50708,380 2250.50708,422 2250.50708,655.57031 
									"/>
				<polygon fill="none" stroke="#E60012" stroke-miterlimit="10" points="2142.51685,234 2142.51685,186.5 2142.51685,178 
					2172.51685,178 2172.51685,234 				"/>
				<polyline fill="none" stroke="#E60012" stroke-miterlimit="10" points="2250.50708,422 2315.99731,422 2375.99731,422 
					2521.99731,422 				"/>
				<polygon fill="none" stroke="#E60012" stroke-miterlimit="10" points="2315.99731,253 2315.99731,299 2315.99731,358.25 
					2315.99731,385 2315.99731,422 2315.99731,472 2375.99731,472 2375.99731,422 2375.99731,385 2375.99731,358.25 2375.99731,299 
					2375.99731,253 				"/>
				<line fill="none" stroke="#E60012" stroke-miterlimit="10" x1="2375.99731" y1="299" x2="2315.99731" y2="299"/>
				<line fill="none" stroke="#E60012" stroke-miterlimit="10" x1="2375.99731" y1="358.25" x2="2315.99731" y2="358.25"/>
				<line fill="none" stroke="#E60012" stroke-miterlimit="10" x1="2315.99731" y1="385" x2="2375.99731" y2="385"/>
				<polyline fill="none" stroke="#E60012" stroke-miterlimit="10" points="2393.99731,482 2393.99731,437 2460.99731,437 				"/>
				<polyline fill="none" stroke="#84C142" stroke-miterlimit="10" points="2444.99731,614 2393.99731,614 2393.99731,482 				"/>
				<polyline fill="none" stroke="#E60012" stroke-miterlimit="10" points="2495.99731,592 2495.99731,614 2444.99731,614 				"/>
				<polyline fill="none" stroke="#84C142" stroke-miterlimit="10" points="2460.99731,508 2460.99731,482 2393.99731,482 				"/>
				<line fill="none" stroke="#84C142" stroke-miterlimit="10" x1="2444.99731" y1="592" x2="2444.99731" y2="614"/>
				<line fill="none" stroke="#A6CC2C" stroke-miterlimit="10" x1="2444.99731" y1="560" x2="2444.99731" y2="592"/>
				<polyline fill="none" stroke="#169845" stroke-miterlimit="10" points="2460.99731,540 2444.99731,540 2444.99731,560 				"/>
				<line fill="none" stroke="#A6CC2C" stroke-miterlimit="10" x1="2480.99731" y1="560" x2="2444.99731" y2="560"/>
				<line fill="none" stroke="#A6CC2C" stroke-miterlimit="10" x1="2495.99731" y1="592" x2="2444.99731" y2="592"/>
				<line fill="none" stroke="#46B035" stroke-miterlimit="10" x1="2460.99731" y1="482" x2="2460.99731" y2="437"/>
				<rect x="2294.99731" y="503" fill="none" stroke="#E60012" stroke-miterlimit="10" width="71" height="31"/>
				<polyline fill="none" stroke="#E60012" stroke-miterlimit="10" points="2315.99731,253 2142.51685,253 2142.51685,234 				"/>
				<polyline fill="none" stroke="#E60012" stroke-miterlimit="10" points="2389.99731,164 2389.99731,129 2454.99731,129 
					2454.99731,164 				"/>
				<line fill="none" stroke="#40AF36" stroke-miterlimit="10" x1="2389.99731" y1="234" x2="2389.99731" y2="164"/>
				<line fill="none" stroke="#E60012" stroke-miterlimit="10" x1="2172.51685" y1="234" x2="2389.99731" y2="234"/>
				<line fill="none" stroke="#40AF36" stroke-miterlimit="10" x1="2454.99731" y1="164" x2="2389.99731" y2="164"/>
				<line fill="none" stroke="#40AF36" stroke-miterlimit="10" x1="2389.99731" y1="234" x2="2454.99731" y2="234"/>
				<polygon fill="none" stroke="#E60012" stroke-miterlimit="10" points="2393.99731,28 2393.99731,24 2422.49731,24 
					2439.99731,24 2439.99731,85 2422.49731,85 2393.99731,85 2393.99731,54.5 				"/>
				<line fill="none" stroke="#E60012" stroke-miterlimit="10" x1="2422.49731" y1="24" x2="2422.49731" y2="85"/>
				<line fill="none" stroke="#E60012" stroke-miterlimit="10" x1="2393.99731" y1="28" x2="2372.00708" y2="28"/>
				<line fill="none" stroke="#E60012" stroke-miterlimit="10" x1="2393.99731" y1="54.5" x2="2372.00708" y2="54.5"/>
				<path fill="none" stroke="#E60012" stroke-miterlimit="10" d="M402.99731,95.1001l-159,0.44971
					C212.88745,98,204.60718,67.6001,204.60718,67.6001V4.60986"/>
				<line fill="none" stroke="#E60012" stroke-miterlimit="10" x1="402.99731" y1="4.60986" x2="402.99731" y2="26"/>
				<line fill="none" stroke="#E60012" stroke-miterlimit="10" x1="402.99731" y1="26" x2="402.99731" y2="95.1001"/>
				<path fill="none" stroke="#E60012" stroke-miterlimit="10" d="M648.41724,99.56982
					c-4.91016-1.16992-9.83984-2.45996-14.83008-3.87988c-106.48975-30.3999-182.98975,0-182.98975,0l-23.41016-0.29004
					l-24.18994-0.2998"/>
				<path fill="none" stroke="#E60012" stroke-miterlimit="10" d="M816.01733,99.56982
					c-27.52002,6.65039-92.41992,17.87012-167.59033,0"/>
				<path fill="none" stroke="#E60012" stroke-miterlimit="10" d="M1143.89722,111
					c-19.16992,0.9502-39.6001,0.81006-60.35986-1.16016c-8.95996-0.83984-17.99023-2.04004-27-3.62988
					c-9.72021-1.70996-19.41992-3.8999-29.02002-6.62988c-4.2002-1.18994-8.37012-2.47998-12.52002-3.89014
					c-94.07031-31.8999-184.91992,0-184.91992,0s-5.01025,1.68994-14.05029,3.87988"/>
				<path fill="none" stroke="#E60012" stroke-miterlimit="10" d="M1231.93726,99.3501
					c-11.77002,2.44971-26.77002,5.25977-43.93994,7.56006c-8.51025,1.13965-17.55029,2.15967-27,2.94971
					c-5.53027,0.45996-11.2002,0.8501-16.99023,1.13037"/>
				<path fill="none" stroke="#E60012" stroke-miterlimit="10" d="M2073.51685,96.87988
					C1970.13696,72.87012,1871.35767,77.72998,1838.02759,87c-7.73047,2.1499-22.40039,4.8501-42.33008,7.27979
					c-42.41992,5.17041-108.7002,9.14014-182.75,4.09033C1582.427,96.2998,1550.58716,92.68994,1518.54712,87
					c-26.28027-4.66016-50.03027-7.81982-71.5498-9.7998c-16.46973-1.52002-31.65039-2.3501-45.66992-2.63037
					c-77.49023-1.5498-119.82031,13.56006-151.33008,20.79004c-4.58008,1.05029-10.68018,2.4502-18.05029,3.99023"/>
				<path fill="none" stroke="#E60012" stroke-miterlimit="10" d="M648.41724,99.56982c0,0,0,0,0.00977,0
					c0.73047-0.33984,71.55029-32.35986,167.59033,0h0.00977"/>
				<path fill="none" stroke="#E60012" stroke-miterlimit="10" d="M1612.94751,98.37012c0,0,75.83008-44.2002,182.7002-4.49023"/>
				<path fill="none" stroke="#E60012" stroke-miterlimit="10" d="M2315.75708,4.60986l0.24023,62.99023
					c-12.5,25.5-29.49023,27.94971-29.49023,27.94971l-160.49023,1l-27.73926,0.18018l-24.76074,0.1499V4.60986"/>
				<polyline fill="none" stroke="#E60012" stroke-miterlimit="10" points="2126.01685,4.60986 2126.01685,96.5498 
					2126.01685,99.56982 				"/>
				<line fill="none" stroke="#E60012" stroke-miterlimit="10" x1="2098.26685" y1="95.68994" x2="2098.26685" y2="4.60986"/>
				<polyline fill="none" stroke="#E60012" stroke-miterlimit="10" points="402.99731,26 427.18726,26 427.18726,95.3999 
					427.18726,95.68994 				"/>
				<rect x="585.59741" y="50.1499" fill="none" stroke="#E60012" stroke-miterlimit="10" width="80.98975" height="24.9502"/>
				<rect x="1880.02759" y="43.60986" fill="none" stroke="#E60012" stroke-miterlimit="10" width="66" height="28.81006"/>
				<polyline fill="none" stroke="#E60012" stroke-miterlimit="10" points="209.99731,252 381.99731,252 381.99731,234 
					350.99731,234 133.99731,234 73.99731,234 				"/>
				<polyline fill="none" stroke="#265D30" stroke-miterlimit="10" points="1160.99731,157 1160.99731,111.6499 
					1160.99731,109.85986 1160.99731,109.20996 				"/>
				<polyline fill="none" stroke="#095D31" stroke-miterlimit="10" points="1187.99731,157 1187.99731,106.91016 
					1187.99731,106.20996 				"/>
				<polyline fill="none" stroke="#265D30" stroke-miterlimit="10" points="1401.32739,149 1401.32739,74.56982 
					1401.32739,74.45996 				"/>
			</g>
		</g>
	</g>
</g>
<text transform='matrix(1 0 0 1 91.0 82.0)' font-size='12'>走道</text>
<text transform='matrix(1 0 0 1 137.0 46.0)' font-size='12'>电梯</text>
<text transform='matrix(1 0 0 1 115.0 59.0)' font-size='12'>楼梯</text>
<text transform='matrix(1 0 0 1 96.0 203.0)' font-size='12'>卫生间</text>
<text transform='matrix(1 0 0 1 414.0 71.0)' font-size='12'>配电室</text>
<text transform='matrix(1 0 0 1 608.0 68.0)' font-size='12'>G扶梯FT-A-J2</text>
<text transform='matrix(1 0 0 1 734.0 147.0)' font-size='12'>走道</text>
<text transform='matrix(1 0 0 1 966.0 35.0)' font-size='12'>S文创集合标段(出发夹层)</text>
<text transform='matrix(1 0 0 1 745.0 232.0)' font-size='12'>安检通道</text>
<text transform='matrix(1 0 0 1 753.0 191.0)' font-size='12'>安检通道</text>
<text transform='matrix(1 0 0 1 279.0 294.0)' font-size='12'>走道</text>
<text transform='matrix(1 0 0 1 363.0 210.0)' font-size='12'>楼梯</text>
<text transform='matrix(1 0 0 1 543.0 253.0)' font-size='12'>安全缓冲区</text>
<text transform='matrix(1 0 0 1 364.0 365.0)' font-size='12'>值机柜台屋顶</text>
<text transform='matrix(1 0 0 1 170.0 333.0)' font-size='12'>卫生间</text>
<text transform='matrix(1 0 0 1 173.0 377.0)' font-size='12'>楼梯</text>
<text transform='matrix(1 0 0 1 168.0 573.0)' font-size='12'>走道</text>
<text transform='matrix(1 0 0 1 41.0 607.0)' font-size='12'>楼梯</text>
<text transform='matrix(1 0 0 1 161.0 523.0)' font-size='12'>G楼梯T4-A-J1</text>
<text transform='matrix(1 0 0 1 57.0 559.0)' font-size='12'>电梯</text>
<text transform='matrix(1 0 0 1 104.0 535.0)' font-size='12'>后厨</text>
<text transform='matrix(1 0 0 1 57.0 580.0)' font-size='12'>走道</text>
<text transform='matrix(1 0 0 1 172.0 462.0)' font-size='12'>S足浴美容美发T4-4-1</text>
<text transform='matrix(1 0 0 1 1206.0 490.0)' font-size='12'>出发大厅上空</text>
<text transform='matrix(1 0 0 1 1037.0 244.0)' font-size='12'>安全缓冲区</text>
<text transform='matrix(1 0 0 1 1101.0 188.0)' font-size='12'>扶梯</text>
<text transform='matrix(1 0 0 1 1474.0 194.0)' font-size='12'>扶梯</text>
<text transform='matrix(1 0 0 1 1175.0 135.0)' font-size='12'>走道</text>
<text transform='matrix(1 0 0 1 1423.0 118.0)' font-size='12'>走道</text>
<text transform='matrix(1 0 0 1 1107.0 289.0)' font-size='12'>S餐饮区T4-4-2</text>
<text transform='matrix(1 0 0 1 1246.0 310.0)' font-size='12'>SCOSTA汉堡王等T4-4-3</text>
<text transform='matrix(1 0 0 1 1471.0 273.0)' font-size='12'>安全缓冲区</text>
<text transform='matrix(1 0 0 1 1250.0 218.0)' font-size='12'>卫生间</text>
<text transform='matrix(1 0 0 1 1203.0 238.0)' font-size='12'>厨房</text>
<text transform='matrix(1 0 0 1 1331.0 239.0)' font-size='12'>机房</text>
<text transform='matrix(1 0 0 1 1246.0 255.0)' font-size='12'>厨房</text>
<text transform='matrix(1 0 0 1 1221.0 364.0)' font-size='12'>值机柜台屋顶</text>
<text transform='matrix(1 0 0 1 1666.0 233.0)' font-size='12'>安检通道</text>
<text transform='matrix(1 0 0 1 1962.0 255.0)' font-size='12'>安全缓冲区</text>
<text transform='matrix(1 0 0 1 1895.0 62.0)' font-size='12'>扶梯</text>
<text transform='matrix(1 0 0 1 2155.0 206.0)' font-size='12'>楼梯</text>
<text transform='matrix(1 0 0 1 2412.0 71.0)' font-size='12'>楼梯</text>
<text transform='matrix(1 0 0 1 2462.0 606.0)' font-size='12'>楼梯</text>
<text transform='matrix(1 0 0 1 2343.0 374.0)' font-size='12'>楼梯</text>
<text transform='matrix(1 0 0 1 2204.0 58.0)' font-size='12'>走道</text>
<text transform='matrix(1 0 0 1 2120.0 296.0)' font-size='12'>走道</text>
<text transform='matrix(1 0 0 1 2386.0 47.0)' font-size='12'>电梯</text>
<text transform='matrix(1 0 0 1 2322.0 520.0)' font-size='12'>扶梯</text>
<text transform='matrix(1 0 0 1 2452.0 553.0)' font-size='12'>电梯</text>
<text transform='matrix(1 0 0 1 2004.0 130.0)' font-size='12'>走道</text>
<text transform='matrix(1 0 0 1 2113.0 66.0)' font-size='12'>走道</text>
<text transform='matrix(1 0 0 1 2415.0 198.0)' font-size='12'>卫生间</text>
<text transform='matrix(1 0 0 1 2339.0 334.0)' font-size='12'>卫生间</text>
<text transform='matrix(1 0 0 1 2412.0 522.0)' font-size='12'>走道</text>
<text transform='matrix(1 0 0 1 2297.0 577.0)' font-size='12'>走道</text>
<text transform='matrix(1 0 0 1 2076.0 356.0)' font-size='12'>值机柜台屋顶</text>
</svg>
