<?xml version="1.0" encoding="utf-8"?>
<!-- Generator: Adobe Illustrator 15.0.0, SVG Export Plug-In . SVG Version: 6.00 Build 0)  -->
<!DOCTYPE svg PUBLIC "-//W3C//DTD SVG 1.1//EN" "http://www.w3.org/Graphics/SVG/1.1/DTD/svg11.dtd">
<svg version="1.1" id="图层_2" xmlns="http://www.w3.org/2000/svg" xmlns:xlink="http://www.w3.org/1999/xlink" x="0px" y="0px"
	 width="2263.333px" height="574.834px" viewBox="0 0 2263.333 574.834" enable-background="new 0 0 2263.333 574.834"
	 xml:space="preserve">
<g id="XMLID_1_">
	<g>
		<polygon fill="#FFFFFF" points="1808.998,85.5 1808.998,100.5 1769.498,100.5 1769.498,145.5 1769.498,190 1471.998,190 
			1464.498,190 1447.498,190 1447.498,2.98 1808.998,3.1 1808.998,3.11 1808.998,38 1808.998,68 		"/>
		<polygon fill="#FFD2AD" points="1808.998,3.1 1837.998,3.11 1837.998,38 1808.998,38 1808.998,3.11 		"/>
		<path fill="#FFFFFF" d="M2089.498,3.22V3.195l32.5,0.01V24.5v20V68h42h20.5h30.5V37V3.235l46.5,0.015V94h-46.5h-22.5h-19.5h-32.5
			h-46h-46.5h-20h-74.5h-42v61.5v219h-62.5h-45V402h-17h-31h-45.5h-27v39v29h51.5h52h17v3.5h45h62.5h57h53V495h70.5v19v24.5h33.5
			h20.5h16h23.5h26h50v34.45l-288.5,0.005h-26.5V559h-14v13.955l-30,0.005V559h-13.5v13.96l-335,0.005V559h-12v13.965h-13.5V559
			h-12.5v13.965l-49,0.005V556h15v-7h-15v-4h-111h-113h-55v27.975h-29V559h-11v13.975h-32V559h-12v13.975h-28.5V545h-55.5h-112h-112
			v2h-19.5v9h19.5v16.98l-47,0.005V560h-11v12.985h-14V560h-12v12.985l-335,0.005V560h-13v12.99l-30.5,0.005V560h-13v12.995h-27.5
			V495v-21.5l57.83-0.085l54.17-0.08l55.5-0.085V457v-16.265h0.22l48.28-0.056l45-0.055l28-0.035l63.5-0.075l37.5-0.04l21-0.024
			l25.5-0.03l74-0.09l56.5-0.065l10.5-0.01l37.5-0.045l63-0.075l49-0.06l55.5-0.065l9.5-0.01h8.5v-38h68v38h9.5l7,0.025l54,0.175
			l29,0.095l13.5,0.045l60,0.2l34.5,0.115l22,0.069l20.085,0.065l11.915,0.04l49,0.165l2.22,0.005h37.28h9.5h45l14.785-0.5
			l0.215,29.5h92v-68h-92.5h-59.5h-9.5h-39.5v-58.5v-60V276v-21.5v-29V201v-11h297.5h39.5v9h49V3.115l57.5,0.02V73.5h112.5h61.5
			V3.22z M1826.498,556v-23.5h-120V556H1826.498z M1700.498,556v-7h-14v7H1700.498z M1658.998,556v-23.5h-44V556H1658.998z
			 M1396.998,487.5V479h-38.5v8.5H1396.998z M1267.498,487.5V479h-41.5v8.5h15v4.5h15.5v-4.5H1267.498z M1139.498,559v-10h-15v10
			H1139.498z M1031.498,492v-4.5V479h-40v8.5h26v4.5H1031.498z M901.498,487.5V479h-41.5v8.5H901.498z M803.498,484.5V479h-14v5.5
			H803.498z M650.998,557v-30h-45v30H650.998z M581.998,484.5v-11h-18.5v11H581.998z M558.998,556.5V527h-122v36h16l0.165-5.5
			L558.998,556.5z M355.998,560.5V551h-15v9.5H355.998z"/>
		<polygon fill="#FFD2AD" points="2027.998,73.5 2027.998,72 2027.998,3.17 2089.498,3.195 2089.498,3.22 2089.498,73.5 		"/>
		<path fill="#FFFFFF" d="M90.998,90h-23.5v38.5v37h23.5v-37V90z M408.998,190h24v25h64v-25h22h105.5v37.5h-18V325v13.5h42v-111
			h-16.5V190h103.5v37.5h-16.5V325v13.5h42v-111h-17.5V190h105v37.5h-17V325v13.5h42v-111h-17V190h58.5h45v37.5h-16.5V325v13.5h42
			v-111h-17.5V190h67h375v11h13v24.5v0.5v28.5v29v60V402v38.5v0.33l-11.915-0.04v-0.665L1410.998,402h-20h-22h-34.5h-60h-13.5h-29
			v-3.5h-54h-7v3.5h-9.5h-68h-8.5h-78.5v-11.5h-51.5V402h-47h-37.5h-10.5h-56.5h-33v-11.5h-48V402h-18.5h-21h-13.5v-11.5h-49.5V402
			h-61v-11.5h-57V402h-28.5l0.04,10.5h-13.04V374h-55.5v-11h-53.5v-80v-37v-73h10v-47h-10V98v-5h-111h-81h-37.5l-11,6v65h47.83
			h81.67v20.835l-63.5,0.07l-35,0.04l-51,0.055v44v58.5h86h25v20V352v22h-13h-34h-33.5h-35.5h-39h-45v-22h25h20h19v-19.5V278v-80
			h-64v-32.5h30V90h-30V60.5h50.5h29.5h21v-29h22V72h49h24.5V44.5h39.5V72h30h56.5h23V2.615l61.5,0.02V35h-9.5v49.5h9.5V126h-9.5v47
			h9.5V190z M1315.998,338.5v-111h-145v111h33v-76l77,1v75H1315.998z M1141.998,320.5V290h-19.5v30.5H1141.998z M1096.498,338.5
			v-111h-42V325v13.5H1096.498z M693.498,320.5V290h-19.5v30.5H693.498z M578.498,283.75c0-3.73-2.8-6.75-6.25-6.75
			s-6.25,3.02-6.25,6.75s2.8,6.75,6.25,6.75S578.498,287.48,578.498,283.75z M466.498,284.25c0-3.73-2.8-6.75-6.25-6.75
			s-6.25,3.02-6.25,6.75s2.8,6.75,6.25,6.75S466.498,287.98,466.498,284.25z M188.998,352v-22v-22.5h-15h-6.5h-46h-30.5V352h30.5h31
			h21.5H188.998z"/>
		<polygon fill="#FFD2AD" points="173.998,22.5 173.998,72 124.998,72 124.998,31.5 124.998,2.54 173.998,2.555 		"/>
		<polygon fill="#FFFFFF" points="1857.998,3.115 1857.998,199 1808.998,199 1808.998,190 1808.998,145.5 1837.998,145.5 
			1837.998,113 1837.998,85.5 1837.998,68 1837.998,38 1837.998,3.11 		"/>
		<path fill="#FFFFFF" d="M1447.498,2.98V190h-37.5h-375l0.5-17h-516.5v17h-22v-24v-20.5v-14v-31V39V16.5h69V2.685L1447.498,2.98z
			 M1279.998,133.5v-87h-209v87H1279.998z M1061.498,133.5v-87h-209v87H1061.498z M785.998,133.5v-87h-209v87H785.998z"/>
		<polygon fill="#D2DFB2" points="237.998,31.5 237.998,44.5 198.498,44.5 198.498,22.5 198.498,2.565 237.998,2.58 237.998,12 		
			"/>
		<polygon fill="#FFFFFF" points="432.998,166 432.998,190 408.998,190 408.998,173 408.998,126 408.998,84.5 408.998,35 
			408.998,2.635 421.998,2.64 421.998,39 421.998,100.5 421.998,110.5 421.998,145.5 432.998,145.5 		"/>
		<polygon fill="#D2DFB2" points="102.998,31.5 102.998,60.5 81.998,60.5 81.998,2.525 102.998,2.535 		"/>
		<polygon fill="#FFFFFF" points="347.498,2.615 347.498,72 324.498,72 324.498,35 267.998,35 267.998,72 237.998,72 237.998,44.5 
			237.998,31.5 261.498,31.5 261.498,12 237.998,12 237.998,2.58 		"/>
		<polygon fill="#FFD2AD" points="198.498,2.565 198.498,22.5 173.998,22.5 173.998,2.555 		"/>
		<polygon fill="#FFD2AD" points="452.998,2.65 452.998,39 421.998,39 421.998,2.64 		"/>
		<rect x="452.998" y="2.655" fill="#FFD2AD" width="14" height="36.345"/>
		<polygon fill="#FFD2AD" points="496.998,16.5 496.998,39 466.998,39 466.998,2.655 496.998,2.665 		"/>
		<polygon fill="#FFD2AD" points="81.998,2.525 81.998,60.5 52.498,60.5 52.498,2.515 		"/>
		<polygon fill="#FFD2AD" points="1.998,60.5 1.998,2.5 52.498,2.515 52.498,60.5 		"/>
		<polygon fill="#D2DFB2" points="565.998,2.685 565.998,16.5 496.998,16.5 496.998,2.665 		"/>
		<polygon fill="#FFD2AD" points="2214.998,3.235 2214.998,37 2214.498,37 2184.498,37 2184.498,3.225 		"/>
		<polygon fill="#D2DFB2" points="2184.498,37 2184.498,68 2163.998,68 2163.998,44.5 2163.998,24.5 2163.998,3.22 2184.498,3.225 
					"/>
		<rect x="102.998" y="2.54" fill="#D2DFB2" width="22" height="28.96"/>
		<polygon fill="#D2DFB2" points="2163.998,3.22 2163.998,24.5 2121.998,24.5 2121.998,3.205 		"/>
		<path fill="#FFFFFF" d="M2024.998,4.5h-22.5v22h22.5V4.5z M1915.498,3.135l112.5,0.035V72v1.5h-112.5V3.135z M1992.498,66V26.5
			h-52.5V66H1992.498z"/>
		<rect x="2211.498" y="517.5" fill="#D2DFB2" width="50" height="21"/>
		<polygon fill="#FFD2AD" points="2261.498,491 2261.498,517.5 2211.498,517.5 2202.498,517.5 2202.498,514 2202.498,491 		"/>
		<polygon fill="#D2DFB2" points="2261.498,473.5 2261.498,491 2202.498,491 2202.498,473.5 2220.498,473.5 		"/>
		<polygon fill="#FFD2AD" points="2261.498,438 2261.498,473.5 2220.498,473.5 2220.498,454.5 2220.498,438 		"/>
		<polygon fill="#FFD2AD" points="2261.498,370.5 2261.498,438 2220.498,438 2204.998,438 2204.998,374.5 2220.498,374.5 
			2220.498,381 2235.998,381 2235.998,370.5 		"/>
		<rect x="2235.998" y="349" fill="#D2DFB2" width="25.5" height="21.5"/>
		<polygon fill="#FFD2AD" points="2261.498,308.5 2261.498,349 2235.998,349 2235.998,342.5 2204.998,342.5 2204.998,308.5 
			2225.998,308.5 		"/>
		<rect x="2225.998" y="277" fill="#FFD2AD" width="35.5" height="31.5"/>
		<path fill="#FFFFFF" d="M2261.498,199v78h-35.5h-21h-37.5v31.5v43h37.5v-9h31v6.5v21.5V381h-15.5v-6.5h-15.5h-15.5v6.5h-22h-24
			l-0.5-6.5h-14.5h-14.5v6.5h-30h-20.5v-6.5V349h9.5v-65v-0.15l36,0.075l34.5,0.075v-31v-65.5h-61.5h-54v-32h-6V140h6V94h20v66.5
			h46.5h46h32.5h19.5h22.5h46.5V199z M2142.998,351.5V330v-21.5h-51V330v21.5H2142.998z"/>
		<rect x="2214.998" y="94" fill="#FFD2AD" width="46.5" height="66.5"/>
		<rect x="2204.998" y="277" fill="#FFD2AD" width="21" height="31.5"/>
		<rect x="2202.498" y="454.5" fill="#FFD2AD" width="18" height="19"/>
		<polygon fill="#FFFFFF" points="2220.498,438 2220.498,454.5 2202.498,454.5 2181.998,454.5 2161.998,454.5 2139.998,454.5 
			2139.998,491 2161.998,491 2181.998,491 2202.498,491 2202.498,514 2185.498,514 2161.998,514 2145.998,514 2125.498,514 
			2091.998,514 2091.998,495 2091.998,438 2128.498,438 2167.498,438 2204.998,438 		"/>
		<rect x="2192.498" y="94" fill="#FFD2AD" width="22.5" height="66.5"/>
		<polygon fill="#FFD2AD" points="2214.998,37 2214.998,68 2184.498,68 2184.498,37 2214.498,37 		"/>
		<polygon fill="#D2DFB2" points="2211.498,517.5 2211.498,538.5 2185.498,538.5 2185.498,514 2202.498,514 2202.498,517.5 		"/>
		<polygon fill="#FFD2AD" points="2204.998,374.5 2204.998,438 2167.498,438 2167.498,381 2189.498,381 2189.498,374.5 		"/>
		<polygon fill="#D2DFB2" points="2204.998,342.5 2204.998,351.5 2167.498,351.5 2167.498,308.5 2204.998,308.5 		"/>
		<rect x="2167.498" y="277" fill="#FFD2AD" width="37.5" height="31.5"/>
		<polygon fill="#FFD2AD" points="2202.498,473.5 2202.498,491 2181.998,491 2181.998,454.5 2202.498,454.5 		"/>
		<polygon fill="#FFD2AD" points="2192.498,94 2192.498,160.5 2172.998,160.5 2172.998,141.5 2172.998,94 		"/>
		<rect x="2161.998" y="514" fill="#D2DFB2" width="23.5" height="24.5"/>
		<rect x="2161.998" y="454.5" fill="#FFD2AD" width="20" height="36.5"/>
		<rect x="2140.498" y="141.5" fill="#FFD2AD" width="32.5" height="19"/>
		<rect x="2140.498" y="94" fill="#FFD2AD" width="32.5" height="47.5"/>
		<polygon fill="#FFD2AD" points="2167.498,381 2167.498,438 2128.498,438 2128.498,374.5 2142.998,374.5 2143.498,381 		"/>
		<rect x="2121.998" y="44.5" fill="#FFD2AD" width="42" height="23.5"/>
		<rect x="2121.998" y="24.5" fill="#FFD2AD" width="42" height="20"/>
		<rect x="2145.998" y="514" fill="#FFD2AD" width="16" height="24.5"/>
		<rect x="2139.998" y="454.5" fill="#FFD2AD" width="22" height="36.5"/>
		<rect x="2125.498" y="514" fill="#FFD2AD" width="20.5" height="24.5"/>
		<polygon fill="#FFD2AD" points="2143.498,253 2143.498,284 2108.998,283.925 2108.998,253 		"/>
		<polygon fill="#FFD2AD" points="2143.498,187.5 2143.498,253 2108.998,253 2081.998,253 2081.998,187.5 		"/>
		<rect x="2091.998" y="330" fill="#D2DFB2" width="51" height="21.5"/>
		<rect x="2091.998" y="308.5" fill="#D2DFB2" width="51" height="21.5"/>
		<polygon fill="#FFD2AD" points="2140.498,141.5 2140.498,160.5 2094.498,160.5 2094.498,94 2140.498,94 		"/>
		<polygon fill="#FFD2AD" points="2128.498,374.5 2128.498,438 2091.998,438 2083.998,438 2083.998,381 2113.998,381 
			2113.998,374.5 		"/>
		<rect x="2091.998" y="514" fill="#FFD2AD" width="33.5" height="24.5"/>
		<polygon fill="#FFD2AD" points="2108.998,253 2108.998,283.925 2072.998,283.85 2063.498,283.83 2063.498,253 2081.998,253 		"/>
		<rect x="2047.998" y="94" fill="#FFD2AD" width="46.5" height="66.5"/>
		<polygon fill="#FFD2AD" points="2021.498,473.5 2021.498,444 2024.998,444 2024.998,438 2083.998,438 2091.998,438 2091.998,495 
			2021.498,495 		"/>
		<polygon fill="#FFD2AD" points="2083.998,381 2083.998,438 2024.998,438 2024.998,374.5 2063.498,374.5 2063.498,381 		"/>
		<polygon fill="#FFD2AD" points="2081.998,187.5 2081.998,253 2063.498,253 2024.998,253 2024.998,187.5 2027.998,187.5 		"/>
		<polygon fill="#FFD2AD" points="2063.498,283.83 2072.998,283.85 2072.998,284 2072.998,349 2063.498,349 2024.998,349 
			2024.998,283.75 		"/>
		<rect x="2024.998" y="349" fill="#FFD2AD" width="38.5" height="25.5"/>
		<polygon fill="#FFD2AD" points="2063.498,253 2063.498,283.83 2024.998,283.75 2024.998,253 		"/>
		<polygon fill="#FFD2AD" points="2027.998,155.5 2027.998,187.5 2024.998,187.5 2024.998,253 2024.998,283.75 2024.998,349 
			2024.998,374.5 2024.998,438 2024.998,444 2021.498,444 2000.498,444 2000.498,289.5 2009.998,289.5 2009.998,155.5 
			2021.998,155.5 		"/>
		<polygon fill="#FFD2AD" points="2027.998,94 2027.998,140 2021.998,140 2021.998,155.5 2009.998,155.5 1953.498,155.5 
			1953.498,94 		"/>
		<rect x="2002.498" y="4.5" fill="#D2DFB2" width="22.5" height="22"/>
		<polygon fill="#FFD2AD" points="2021.498,444 2021.498,473.5 1968.498,473.5 1968.498,444 2000.498,444 		"/>
		<polygon fill="#FFD2AD" points="2009.998,155.5 2009.998,289.5 2000.498,289.5 2000.498,444 1968.498,444 1911.498,444 
			1911.498,427 1911.498,374.5 1911.498,155.5 1953.498,155.5 		"/>
		<rect x="1939.998" y="26.5" fill="#D2DFB2" width="52.5" height="39.5"/>
		<rect x="1911.498" y="444" fill="#FFD2AD" width="57" height="29.5"/>
		<rect x="1911.498" y="94" fill="#FFD2AD" width="42" height="61.5"/>
		<rect x="1932.498" y="559" fill="#D2DFB2" width="14" height="13.955"/>
		<polygon fill="#D2DFB2" points="1911.498,444 1911.498,473.5 1848.998,473.5 1848.998,451 1848.998,374.5 1911.498,374.5 
			1911.498,427 		"/>
		<rect x="1888.998" y="559" fill="#D2DFB2" width="13.5" height="13.96"/>
		<polygon fill="#B5DFFF" points="1848.998,451 1848.998,473.5 1803.998,473.5 1803.998,470 1803.998,450.5 		"/>
		<polygon fill="#FFD2AD" points="1848.998,374.5 1848.998,451 1803.998,450.5 1803.998,402 1803.998,374.5 		"/>
		<rect x="1808.998" y="113" fill="#D2DFB2" width="29" height="32.5"/>
		<polygon fill="#D2DFB2" points="1837.998,85.5 1837.998,113 1808.998,113 1808.998,100.5 1808.998,85.5 		"/>
		<rect x="1808.998" y="68" fill="#FFD2AD" width="29" height="17.5"/>
		<rect x="1808.998" y="38" fill="#FFD2AD" width="29" height="30"/>
		<rect x="1706.498" y="532.5" fill="#D2DFB2" width="120" height="23.5"/>
		<rect x="1769.498" y="145.5" fill="#FFD2AD" width="39.5" height="44.5"/>
		<polygon fill="#FFD2AD" points="1808.998,113 1808.998,145.5 1769.498,145.5 1769.498,100.5 1808.998,100.5 		"/>
		<polygon fill="#FFFFFF" points="1803.998,450.5 1803.998,470 1786.998,470 1786.998,441 1786.998,402 1803.998,402 		"/>
		<polygon fill="#FFD2AD" points="1786.998,441 1786.998,470 1734.998,470 1734.998,469.5 1734.998,441 1755.998,441 		"/>
		<polygon fill="#FFD2AD" points="1786.998,402 1786.998,441 1755.998,441 1755.998,440.5 1755.998,402 		"/>
		<polygon fill="#FFD2AD" points="1755.998,440.5 1755.998,441 1734.998,441 1710.498,441 1710.498,440 1710.498,402 1755.998,402 
					"/>
		<polygon fill="#B5DFFF" points="1734.998,469.5 1734.998,470 1683.498,470 1683.498,441 1710.498,441 1734.998,441 		"/>
		<polygon fill="#FFD2AD" points="1710.498,440 1710.498,441 1683.498,441 1683.498,402 1710.498,402 		"/>
		<rect x="1686.498" y="549" fill="#B5DFFF" width="14" height="7"/>
		<polygon fill="#B5DFFF" points="1672.998,402 1672.998,470 1580.998,470 1580.783,440.5 1580.498,402 		"/>
		<rect x="1614.998" y="532.5" fill="#D2DFB2" width="44" height="23.5"/>
		<polygon fill="#B5DFFF" points="1580.498,402 1580.783,440.5 1565.998,441 1520.998,441 1520.998,440.5 1520.998,402 		"/>
		<rect x="1541.998" y="559" fill="#D2DFB2" width="12" height="13.965"/>
		<rect x="1515.998" y="559" fill="#D2DFB2" width="12.5" height="13.965"/>
		<polygon fill="#FFFFFF" points="1520.998,440.5 1520.998,441 1511.498,441 1511.498,440.5 1511.498,402 1520.998,402 		"/>
		<polygon fill="#FFD2AD" points="1511.498,440.5 1511.498,441 1474.218,441 1471.998,440.995 1471.998,402 1511.498,402 		"/>
		<rect x="1466.998" y="549" fill="#B5DFFF" width="15" height="7"/>
		<polygon fill="#D2DFB2" points="1471.998,402 1471.998,440.995 1422.998,440.83 1422.998,440.5 1422.998,402 		"/>
		<polygon fill="#FFD2AD" points="1471.998,343.5 1471.998,402 1422.998,402 1422.998,343.5 1471.498,343.5 		"/>
		<polygon fill="#FFD2AD" points="1471.998,283.5 1471.998,343.5 1471.498,343.5 1422.998,343.5 1422.998,283.5 		"/>
		<polygon fill="#FFD2AD" points="1471.998,276 1471.998,283.5 1422.998,283.5 1422.998,254.5 1423.498,254.5 1471.998,254.5 		"/>
		<polygon fill="#FFD2AD" points="1471.998,225.5 1471.998,254.5 1423.498,254.5 1422.998,254.5 1422.998,226 1422.998,225.5 		"/>
		<rect x="1422.998" y="201" fill="#FFD2AD" width="49" height="24.5"/>
		<polygon fill="#D2DFB2" points="1471.998,190 1471.998,201 1422.998,201 1409.998,201 1409.998,190 1447.498,190 1464.498,190 		
			"/>
		<polygon fill="#FFD2AD" points="1466.998,556 1466.998,572.97 1355.998,572.97 1355.998,545 1466.998,545 1466.998,549 		"/>
		<polygon fill="#FFD2AD" points="1411.083,440.125 1411.083,440.79 1390.998,440.725 1390.998,440 1390.998,402 1410.998,402 		"/>
		<rect x="1358.498" y="479" fill="#B5DFFF" width="38.5" height="8.5"/>
		<polygon fill="#B5DFFF" points="1390.998,440 1390.998,440.725 1368.998,440.655 1368.998,440.5 1368.998,402 1390.998,402 		"/>
		<polygon fill="#D2DFB2" points="1368.998,440.5 1368.998,440.655 1334.498,440.54 1334.498,440 1334.498,402 1368.998,402 		"/>
		<rect x="1242.998" y="545.002" fill="#FFD2AD" width="113" height="27.97"/>
		<polygon fill="#D2DFB2" points="1334.498,440 1334.498,440.54 1274.498,440.34 1274.498,440 1274.498,402 1334.498,402 		"/>
		<path fill="#FFD2B2" d="M1315.998,227.5v111h-35v-75l-77-1v76h-33v-111H1315.998z M1310.498,292.5V263h-6v29.5H1310.498z
			 M1294.498,292.5V263h-6v29.5H1294.498z M1198.498,292.5V263h-6v29.5H1198.498z M1182.498,292.5V263h-6v29.5H1182.498z"/>
		<rect x="1304.498" y="263" fill="#B5DFFF" width="6" height="29.5"/>
		<rect x="1288.498" y="263" fill="#B5DFFF" width="6" height="29.5"/>
		<rect x="1070.998" y="46.5" fill="#FFD2AD" width="209" height="87"/>
		<polygon fill="#FFFFFF" points="1274.498,440 1274.498,440.34 1260.998,440.295 1260.998,440 1260.998,402 1274.498,402 		"/>
		<polygon fill="#B5DFFF" points="1267.498,479 1267.498,487.5 1256.498,487.5 1240.998,487.5 1225.998,487.5 1225.998,479 		"/>
		<polygon fill="#FFFFFF" points="1260.998,440 1260.998,440.295 1231.998,440.2 1231.998,440 1231.998,421.5 1231.998,410 
			1231.998,402 1260.998,402 		"/>
		<rect x="1240.998" y="487.5" fill="#B5DFFF" width="15.5" height="4.5"/>
		<rect x="1187.998" y="545" fill="#FFD2AD" width="55" height="27.975"/>
		<polygon fill="#D2DFB2" points="1231.998,440 1231.998,440.2 1177.998,440.025 1177.998,440 1177.998,421.5 1231.998,421.5 		"/>
		<rect x="1177.998" y="410" fill="#FFD2AD" width="54" height="11.5"/>
		<polygon fill="#FFD2AD" points="1231.998,402 1231.998,410 1177.998,410 1177.998,398.5 1231.998,398.5 		"/>
		<rect x="1192.498" y="263" fill="#B5DFFF" width="6" height="29.5"/>
		<rect x="1176.498" y="263" fill="#B5DFFF" width="6" height="29.5"/>
		<polygon fill="#FFD2AD" points="1177.998,440 1177.998,440.025 1170.998,440 1170.998,402 1170.998,398.5 1177.998,398.5 
			1177.998,410 1177.998,421.5 		"/>
		<rect x="1161.498" y="402" fill="#B5DFFF" width="9.5" height="38"/>
		<rect x="1147.998" y="559" fill="#D2DFB2" width="11" height="13.975"/>
		<rect x="1122.498" y="290" fill="#B5DFFF" width="19.5" height="30.5"/>
		<rect x="1124.498" y="549" fill="#B5DFFF" width="15" height="10"/>
		<rect x="1103.998" y="559" fill="#D2DFB2" width="12" height="13.975"/>
		<path fill="#FFD2B2" d="M1096.498,227.5v111h-42V325v-97.5H1096.498z M1086.998,292.5V263h-6v29.5H1086.998z M1070.998,292.5V263
			h-6v29.5H1070.998z"/>
		<rect x="1084.998" y="402" fill="#B5DFFF" width="8.5" height="38"/>
		<rect x="1080.998" y="263" fill="#B5DFFF" width="6" height="29.5"/>
		<polygon fill="#FFD2AD" points="1084.998,402 1084.998,440 1075.498,440.01 1075.498,440 1075.498,413 1019.998,413 970.998,413 
			907.998,413 907.998,402 954.998,402 1006.498,402 		"/>
		<rect x="1019.998" y="545" fill="#FFD2AD" width="55.5" height="27.975"/>
		<polygon fill="#FFD2AD" points="1075.498,440 1075.498,440.01 1019.998,440.075 1019.998,440 1019.998,413 1075.498,413 		"/>
		<rect x="1064.998" y="263" fill="#B5DFFF" width="6" height="29.5"/>
		<rect x="852.498" y="46.5" fill="#FFD2AD" width="209" height="87"/>
		<polygon fill="#FFD2AD" points="1035.498,173 1034.998,190 967.998,190 959.998,190 914.998,190 856.498,190 848.498,190 
			743.498,190 735.498,190 631.998,190 624.498,190 518.998,190 518.998,173 		"/>
		<rect x="1017.498" y="487.5" fill="#B5DFFF" width="14" height="4.5"/>
		<polygon fill="#B5DFFF" points="1031.498,479 1031.498,487.5 1017.498,487.5 991.498,487.5 991.498,479 		"/>
		<polygon fill="#FFD2AD" points="1019.998,545 1019.998,572.975 907.998,572.98 907.998,545 		"/>
		<polygon fill="#FFD2AD" points="1019.998,440 1019.998,440.075 970.998,440.135 970.998,440 970.998,413 1019.998,413 		"/>
		<rect x="954.998" y="390.5" fill="#B5DFFF" width="51.5" height="11.5"/>
		<path fill="#FFD2B2" d="M985.498,227.5v111h-42V325v-97.5h16.5h8H985.498z M974.998,292.5V263h-6v29.5H974.998z M958.998,292.5
			V263h-6v29.5H958.998z"/>
		<rect x="968.998" y="263" fill="#B5DFFF" width="6" height="29.5"/>
		<polygon fill="#B5DFFF" points="970.998,440 970.998,440.135 907.998,440.21 907.998,440 907.998,413 970.998,413 		"/>
		<rect x="959.998" y="190" fill="#FFD2AD" width="8" height="37.5"/>
		<rect x="952.998" y="263" fill="#B5DFFF" width="6" height="29.5"/>
		<polygon fill="#FFD2AD" points="907.998,545 907.998,572.98 795.998,572.98 795.998,556 795.998,547 795.998,545 		"/>
		<polygon fill="#FFD2AD" points="907.998,440 907.998,440.21 870.498,440.255 870.498,440 870.498,402 907.998,402 907.998,413 		
			"/>
		<rect x="859.998" y="479" fill="#B5DFFF" width="41.5" height="8.5"/>
		<path fill="#FFD2B2" d="M873.498,227.5v111h-42V325v-97.5h17h8H873.498z M862.998,292.5V263h-6v29.5H862.998z M846.998,292.5V263
			h-6v29.5H846.998z"/>
		<polygon fill="#FFFFFF" points="870.498,440 870.498,440.255 859.998,440.265 859.998,402 870.498,402 		"/>
		<rect x="856.998" y="263" fill="#B5DFFF" width="6" height="29.5"/>
		<polygon fill="#B5DFFF" points="859.998,402 859.998,440.265 803.498,440.33 803.498,440 803.498,402 		"/>
		<rect x="848.498" y="190" fill="#FFD2AD" width="8" height="37.5"/>
		<rect x="840.998" y="263" fill="#B5DFFF" width="6" height="29.5"/>
		<rect x="789.498" y="479" fill="#B5DFFF" width="14" height="5.5"/>
		<polygon fill="#FFD2AD" points="803.498,440 803.498,440.33 729.498,440.42 729.498,440 729.498,402 770.498,402 803.498,402 		
			"/>
		<rect x="776.498" y="547" fill="#B5DFFF" width="19.5" height="9"/>
		<rect x="576.998" y="46.5" fill="#D2DFB2" width="209" height="87"/>
		<polygon fill="#B5DFFF" points="770.498,390.5 770.498,402 729.498,402 722.498,402 722.498,390.5 		"/>
		<path fill="#FFD2B2" d="M760.998,227.5v111h-42V325v-97.5h16.5h8H760.998z M750.498,292.5V263h-6v29.5H750.498z M734.498,292.5
			V263h-6v29.5H734.498z"/>
		<rect x="744.498" y="263" fill="#B5DFFF" width="6" height="29.5"/>
		<rect x="737.998" y="560" fill="#D2DFB2" width="11" height="12.985"/>
		<rect x="735.498" y="190" fill="#FFD2AD" width="8" height="37.5"/>
		<rect x="728.498" y="263" fill="#B5DFFF" width="6" height="29.5"/>
		<polygon fill="#FFD2AD" points="729.498,440 729.498,440.42 703.998,440.45 703.998,440 703.998,402 722.498,402 729.498,402 		
			"/>
		<rect x="711.998" y="560" fill="#D2DFB2" width="12" height="12.985"/>
		<polygon fill="#FFD2AD" points="703.998,440 703.998,440.45 682.998,440.475 682.998,421 682.998,412.5 682.998,402 703.998,402 
					"/>
		<rect x="673.998" y="290" fill="#B5DFFF" width="19.5" height="30.5"/>
		<polygon fill="#D2DFB2" points="682.998,421 682.998,440.475 645.498,440.515 645.498,440 645.498,421.25 		"/>
		<polygon fill="#B5DFFF" points="682.998,412.5 682.998,421 645.498,421.25 645.498,440 645.498,440.515 581.998,440.59 
			581.998,440 581.998,412.5 		"/>
		<polygon fill="#FFD2AD" points="682.998,402 682.998,412.5 581.998,412.5 553.998,412.5 508.998,412.5 473.538,412.5 473.498,402 
			501.998,402 558.998,402 619.998,402 669.498,402 		"/>
		<rect x="619.998" y="390.5" fill="#B5DFFF" width="49.5" height="11.5"/>
		<rect x="605.998" y="527" fill="#D2DFB2" width="45" height="30"/>
		<path fill="#FFD2B2" d="M648.498,227.5v111h-42V325v-97.5h18h7.5H648.498z M637.998,292.5V263h-6v29.5H637.998z M621.998,292.5
			V263h-6v29.5H621.998z"/>
		<rect x="631.998" y="263" fill="#B5DFFF" width="6" height="29.5"/>
		<rect x="624.498" y="190" fill="#FFD2AD" width="7.5" height="37.5"/>
		<rect x="615.998" y="263" fill="#B5DFFF" width="6" height="29.5"/>
		<rect x="563.498" y="473.5" fill="#B5DFFF" width="18.5" height="11"/>
		<polygon fill="#FFD2AD" points="581.998,440 581.998,440.59 553.998,440.625 553.998,440 553.998,412.5 581.998,412.5 		"/>
		<polygon fill="#D2DFB2" points="558.998,527 558.998,556.5 453.163,557.5 452.998,563 436.998,563 436.998,527 		"/>
		<rect x="501.998" y="390.5" fill="#B5DFFF" width="57" height="11.5"/>
		<polygon fill="#FFD2AD" points="553.998,440 553.998,440.625 508.998,440.68 508.998,440.5 508.998,412.5 553.998,412.5 		"/>
		<polygon fill="#D2DFB2" points="508.998,440.5 508.998,440.68 460.718,440.735 460.498,440.735 460.498,412.5 473.538,412.5 
			508.998,412.5 		"/>
		<rect x="432.998" y="190" fill="#FFD2AD" width="64" height="25"/>
		<rect x="432.998" y="166" fill="#D2DFB2" width="64" height="24"/>
		<polygon fill="#FFFFFF" points="459.498,145.5 496.998,145.5 496.998,166 432.998,166 432.998,145.5 449.998,145.5 449.998,110.5 
			421.998,110.5 421.998,100.5 459.498,100.5 459.498,131.5 		"/>
		<rect x="459.498" y="131.5" fill="#D2DFB2" width="37.5" height="14"/>
		<rect x="459.498" y="100.5" fill="#FFD2AD" width="37.5" height="31"/>
		<polygon fill="#FFD2AD" points="496.998,39 496.998,100.5 459.498,100.5 421.998,100.5 421.998,39 452.998,39 466.998,39 		"/>
		<polygon fill="#B5DFFF" points="581.498,278.5 581.998,292.5 562.998,292.5 562.998,278.5 		"/>
		<polygon fill="#B5DFFF" points="466.498,277.5 466.998,292.5 448.998,292.5 448.998,277.5 		"/>
		<polygon fill="#FFD2AD" points="460.498,457 460.498,473.25 404.998,473.335 404.998,457 		"/>
		<polygon fill="#D2DFB2" points="460.498,440.735 460.498,457 404.998,457 404.998,374 460.498,374 460.498,412.5 		"/>
		<polygon fill="#FFD2AD" points="449.998,110.5 449.998,145.5 432.998,145.5 421.998,145.5 421.998,110.5 		"/>
		<rect x="399.498" y="126" fill="#B5DFFF" width="9.5" height="47"/>
		<rect x="399.498" y="35" fill="#B5DFFF" width="9.5" height="49.5"/>
		<polygon fill="#D2DFB2" points="404.998,457 404.998,473.335 350.828,473.415 351.498,374 404.998,374 		"/>
		<rect x="351.498" y="363" fill="#B5DFFF" width="53.5" height="11"/>
		<rect x="363.998" y="560" fill="#D2DFB2" width="13" height="12.99"/>
		<rect x="351.498" y="126" fill="#B5DFFF" width="10" height="47"/>
		<rect x="340.998" y="551" fill="#B5DFFF" width="15" height="9.5"/>
		<polygon fill="#FFD2AD" points="351.498,363 351.498,374 350.828,473.415 292.998,473.5 255.998,473.5 255.998,283 351.498,283 		
			"/>
		<polygon fill="#FFD2AD" points="351.498,246 351.498,283 255.998,283 240.498,283 240.498,246 		"/>
		<polygon fill="#FFD2AD" points="351.498,173 351.498,246 240.498,246 240.498,229 240.498,184.835 240.498,164 240.498,93 
			351.498,93 351.498,98 351.498,126 		"/>
		<rect x="320.498" y="560" fill="#D2DFB2" width="13" height="12.995"/>
		<rect x="267.998" y="35" fill="#D2DFB2" width="56.5" height="37"/>
		<rect x="180.998" y="495" fill="#B5DFFF" width="112" height="77.995"/>
		<polygon fill="#FFFFFF" points="103.498,539.5 118.998,539.5 139.998,539.5 163.498,539.5 163.498,514 163.498,473.5 
			240.498,473.5 255.998,473.5 292.998,473.5 292.998,495 180.998,495 180.998,572.995 1.998,573 1.998,539.5 54.498,539.5 
			78.998,539.5 		"/>
		<rect x="237.998" y="12" fill="#D2DFB2" width="23.5" height="19.5"/>
		<polygon fill="#FFD2AD" points="255.998,283 255.998,473.5 240.498,473.5 240.498,440 240.498,374 240.498,352 240.498,307.5 
			240.498,287.5 240.498,283 		"/>
		<polygon fill="#FFD2AD" points="240.498,440 240.498,473.5 163.498,473.5 163.498,440 188.998,440 		"/>
		<polygon fill="#B5DFFF" points="240.498,374 240.498,440 188.998,440 188.998,374 201.998,374 		"/>
		<polygon fill="#FFD2AD" points="240.498,352 240.498,374 201.998,374 201.998,352 224.998,352 		"/>
		<rect x="224.998" y="307.5" fill="#D2DFB2" width="15.5" height="44.5"/>
		<polygon fill="#FFD2AD" points="240.498,287.5 240.498,307.5 224.998,307.5 201.998,307.5 201.998,287.5 		"/>
		<polygon fill="#D2DFB2" points="240.498,283 240.498,287.5 201.998,287.5 176.998,287.5 176.998,229 240.498,229 240.498,246 		
			"/>
		<polygon fill="#B5DFFF" points="240.498,184.835 240.498,229 176.998,229 176.998,185 176.998,184.905 		"/>
		<polygon fill="#B5DFFF" points="240.498,93 240.498,164 158.828,164 159.498,93 		"/>
		<rect x="201.998" y="307.5" fill="#D2DFB2" width="23" height="44.5"/>
		<polygon fill="#FFD2AD" points="198.498,44.5 198.498,72 173.998,72 173.998,22.5 198.498,22.5 		"/>
		<polygon fill="#B5DFFF" points="188.998,374 188.998,440 163.498,440 154.998,440 154.998,374 		"/>
		<rect x="173.998" y="330" fill="#FFD2AD" width="15" height="22"/>
		<rect x="173.998" y="307.5" fill="#FFD2AD" width="15" height="22.5"/>
		<polygon fill="#D2DFB2" points="176.998,229 176.998,287.5 90.998,287.5 90.998,229 141.998,229 		"/>
		<polygon fill="#B5DFFF" points="176.998,185 176.998,229 141.998,229 141.998,185 141.998,184.945 176.998,184.905 		"/>
		<polygon fill="#D2DFB2" points="173.998,330 173.998,352 152.498,352 152.498,330 167.498,330 		"/>
		<rect x="167.498" y="307.5" fill="#FFD2AD" width="6.5" height="22.5"/>
		<polygon fill="#D2DFB2" points="167.498,307.5 167.498,330 152.498,330 121.498,330 121.498,307.5 		"/>
		<rect x="139.998" y="514" fill="#FFD2AD" width="23.5" height="25.5"/>
		<polygon fill="#FFD2AD" points="163.498,473.5 163.498,514 139.998,514 118.998,514 103.498,514 78.998,514 62.498,514 
			62.498,491.5 82.498,491.5 103.498,491.5 123.998,491.5 123.998,455 103.498,455 82.498,455 62.498,455 46.998,455 46.998,440 
			85.998,440 121.498,440 154.998,440 163.498,440 		"/>
		<polygon fill="#B5DFFF" points="159.498,93 158.828,164 110.998,164 110.998,99 121.998,93 		"/>
		<rect x="121.498" y="374" fill="#B5DFFF" width="33.5" height="66"/>
		<rect x="121.498" y="330" fill="#D2DFB2" width="31" height="22"/>
		<polygon fill="#B5DFFF" points="141.998,185 141.998,229 90.998,229 90.998,185 141.998,184.945 		"/>
		<rect x="118.998" y="514" fill="#FFD2AD" width="21" height="25.5"/>
		<rect x="103.498" y="455" fill="#FFD2AD" width="20.5" height="36.5"/>
		<rect x="85.998" y="374" fill="#B5DFFF" width="35.5" height="66"/>
		<polygon fill="#D2DFB2" points="121.498,330 121.498,352 90.998,352 90.998,307.5 121.498,307.5 		"/>
		<rect x="103.498" y="514" fill="#FFD2AD" width="15.5" height="25.5"/>
		<rect x="78.998" y="514" fill="#D2DFB2" width="24.5" height="25.5"/>
		<rect x="82.498" y="455" fill="#FFD2AD" width="21" height="36.5"/>
		<rect x="67.498" y="128.5" fill="#FFD2AD" width="23.5" height="37"/>
		<rect x="67.498" y="90" fill="#FFD2AD" width="23.5" height="38.5"/>
		<rect x="46.998" y="374" fill="#B5DFFF" width="39" height="66"/>
		<polygon fill="#FFD2AD" points="82.498,455 82.498,491.5 62.498,491.5 62.498,473.5 62.498,455 		"/>
		<polygon fill="#D2DFB2" points="78.998,514 78.998,539.5 54.498,539.5 54.498,518 62.498,518 62.498,514 		"/>
		<rect x="46.998" y="332.5" fill="#D2DFB2" width="19" height="19.5"/>
		<polygon fill="#FFD2AD" points="65.998,278 65.998,332.5 46.998,332.5 46.998,307.5 33.998,307.5 33.998,278 		"/>
		<polygon fill="#D2DFB2" points="65.998,198 65.998,278 33.998,278 1.998,278 1.998,198 		"/>
		<polygon fill="#FFD2AD" points="62.498,514 62.498,518 54.498,518 1.998,518 1.998,491.5 28.498,491.5 46.998,491.5 62.498,491.5 
					"/>
		<polygon fill="#D2DFB2" points="62.498,473.5 62.498,491.5 46.998,491.5 28.498,491.5 28.498,473.5 46.998,473.5 		"/>
		<polygon fill="#FFD2AD" points="62.498,455 62.498,473.5 46.998,473.5 46.998,473.25 46.998,455 		"/>
		<rect x="1.998" y="518" fill="#D2DFB2" width="52.5" height="21.5"/>
		<polygon fill="#FFD2AD" points="46.998,473.25 46.998,473.5 28.498,473.5 1.998,473.5 1.998,440 46.998,440 46.998,455 		"/>
		<rect x="1.998" y="374" fill="#B5DFFF" width="45" height="66"/>
		<polygon fill="#D2DFB2" points="46.998,332.5 46.998,352 26.998,352 26.998,307.5 33.998,307.5 46.998,307.5 		"/>
		<polygon fill="#FFD2AD" points="33.998,278 33.998,307.5 26.998,307.5 1.998,307.5 1.998,278 		"/>
		<rect x="1.998" y="90" fill="#D2DFB2" width="30" height="75.5"/>
		<rect x="1.998" y="473.5" fill="#FFD2AD" width="26.5" height="18"/>
		<rect x="1.998" y="307.5" fill="#D2DFB2" width="25" height="44.5"/>
	</g>
	<g>
		<polygon fill="none" stroke="#000000" stroke-width="3" stroke-miterlimit="10" points="52.498,2.515 1.998,2.5 1.998,60.5 
			1.998,90 1.998,165.5 1.998,198 1.998,278 1.998,307.5 1.998,352 1.998,374 1.998,440 1.998,473.5 1.998,491.5 1.998,518 
			1.998,539.5 1.998,573 180.998,572.995 292.998,572.995 320.498,572.995 333.498,572.995 363.998,572.99 376.998,572.99 
			711.998,572.985 723.998,572.985 737.998,572.985 748.998,572.985 795.998,572.98 907.998,572.98 1019.998,572.975 
			1075.498,572.975 1103.998,572.975 1115.998,572.975 1147.998,572.975 1158.998,572.975 1187.998,572.975 1242.998,572.975 
			1355.998,572.97 1466.998,572.97 1515.998,572.965 1528.498,572.965 1541.998,572.965 1553.998,572.965 1888.998,572.96 
			1902.498,572.96 1932.498,572.955 1946.498,572.955 1972.998,572.955 2261.498,572.95 2261.498,538.5 2261.498,517.5 
			2261.498,491 2261.498,473.5 2261.498,438 2261.498,370.5 2261.498,349 2261.498,308.5 2261.498,277 2261.498,199 2261.498,160.5 
			2261.498,94 2261.498,3.25 2214.998,3.235 2184.498,3.225 2163.998,3.22 2121.998,3.205 2089.498,3.195 2027.998,3.17 
			1915.498,3.135 1857.998,3.115 1837.998,3.11 1808.998,3.1 1447.498,2.98 565.998,2.685 496.998,2.665 466.998,2.655 
			452.998,2.65 421.998,2.64 408.998,2.635 347.498,2.615 237.998,2.58 198.498,2.565 173.998,2.555 124.998,2.54 102.998,2.535 
			81.998,2.525 		"/>
		<polyline fill="none" stroke="#000000" stroke-miterlimit="10" points="1.998,60.5 52.498,60.5 81.998,60.5 102.998,60.5 
			102.998,31.5 102.998,2.535 102.998,2.5 		"/>
		<polyline fill="none" stroke="#000000" stroke-miterlimit="10" points="52.498,60.5 52.498,2.515 52.498,2.5 		"/>
		<polyline fill="none" stroke="#000000" stroke-miterlimit="10" points="81.998,2.5 81.998,2.525 81.998,60.5 		"/>
		<polyline fill="none" stroke="#000000" stroke-miterlimit="10" points="124.998,2 124.998,2.54 124.998,31.5 124.998,72 
			173.998,72 198.498,72 198.498,44.5 198.498,22.5 198.498,2.565 198.498,2 		"/>
		<line fill="none" stroke="#000000" stroke-miterlimit="10" x1="102.998" y1="31.5" x2="124.998" y2="31.5"/>
		<polyline fill="none" stroke="#000000" stroke-miterlimit="10" points="173.998,72 173.998,22.5 173.998,2.555 173.998,2 		"/>
		<line fill="none" stroke="#000000" stroke-miterlimit="10" x1="173.998" y1="22.5" x2="198.498" y2="22.5"/>
		<polyline fill="none" stroke="#000000" stroke-miterlimit="10" points="237.998,2.5 237.998,2.58 237.998,12 237.998,31.5 
			237.998,44.5 237.998,72 267.998,72 324.498,72 347.498,72 347.498,2.615 347.498,2 		"/>
		<line fill="none" stroke="#000000" stroke-miterlimit="10" x1="198.498" y1="44.5" x2="237.998" y2="44.5"/>
		<polyline fill="none" stroke="#000000" stroke-miterlimit="10" points="237.998,12 261.498,12 261.498,31.5 237.998,31.5 		"/>
		<polyline fill="none" stroke="#000000" stroke-miterlimit="10" points="267.998,72 267.998,35 324.498,35 324.498,72 		"/>
		<polyline fill="none" stroke="#000000" stroke-miterlimit="10" points="1.998,90 31.998,90 31.998,165.5 1.998,165.5 		"/>
		<polygon fill="none" stroke="#000000" stroke-miterlimit="10" points="90.998,90 67.498,90 67.498,128.5 67.498,165.5 
			90.998,165.5 90.998,128.5 		"/>
		<line fill="none" stroke="#000000" stroke-miterlimit="10" x1="90.998" y1="90" x2="124.998" y2="72"/>
		<polygon fill="none" stroke="#000000" stroke-miterlimit="10" points="159.498,93 121.998,93 110.998,99 110.998,164 158.828,164 
			240.498,164 240.498,93 		"/>
		<line fill="none" stroke="#000000" stroke-miterlimit="10" x1="158.828" y1="164" x2="159.498" y2="93"/>
		<polyline fill="none" stroke="#000000" stroke-miterlimit="10" points="240.498,184.835 176.998,184.905 141.998,184.945 
			90.998,185 90.998,229 90.998,287.5 176.998,287.5 201.998,287.5 240.498,287.5 240.498,283 240.498,246 240.498,229 
			240.498,184.835 240.498,164 		"/>
		<polyline fill="none" stroke="#000000" stroke-miterlimit="10" points="90.998,229 141.998,229 176.998,229 240.498,229 		"/>
		<polyline fill="none" stroke="#000000" stroke-miterlimit="10" points="176.998,185 176.998,229 176.998,287.5 		"/>
		<line fill="none" stroke="#000000" stroke-miterlimit="10" x1="141.998" y1="185" x2="141.998" y2="229"/>
		<polyline fill="none" stroke="#000000" stroke-miterlimit="10" points="1.998,198 65.998,198 65.998,278 65.998,332.5 65.998,352 
			46.998,352 26.998,352 1.998,352 		"/>
		<polyline fill="none" stroke="#000000" stroke-miterlimit="10" points="1.998,278 33.998,278 65.998,278 		"/>
		<polyline fill="none" stroke="#000000" stroke-miterlimit="10" points="1.998,307.5 26.998,307.5 33.998,307.5 46.998,307.5 
			46.998,332.5 46.998,352 		"/>
		<line fill="none" stroke="#000000" stroke-miterlimit="10" x1="46.998" y1="332.5" x2="65.998" y2="332.5"/>
		<line fill="none" stroke="#000000" stroke-miterlimit="10" x1="26.998" y1="307.5" x2="26.998" y2="352"/>
		<polygon fill="none" stroke="#000000" stroke-miterlimit="10" points="121.498,352 90.998,352 90.998,307.5 121.498,307.5 
			167.498,307.5 173.998,307.5 188.998,307.5 188.998,330 188.998,352 173.998,352 152.498,352 		"/>
		<polyline fill="none" stroke="#000000" stroke-miterlimit="10" points="121.498,307.5 121.498,330 121.498,352 		"/>
		<polyline fill="none" stroke="#000000" stroke-miterlimit="10" points="121.498,330 152.498,330 167.498,330 173.998,330 
			188.998,330 		"/>
		<polyline fill="none" stroke="#000000" stroke-miterlimit="10" points="173.998,307.5 173.998,330 173.998,352 		"/>
		<line fill="none" stroke="#000000" stroke-miterlimit="10" x1="152.498" y1="330" x2="152.498" y2="352"/>
		<line fill="none" stroke="#000000" stroke-miterlimit="10" x1="167.498" y1="307.5" x2="167.498" y2="330"/>
		<polyline fill="none" stroke="#000000" stroke-miterlimit="10" points="240.498,374 201.998,374 188.998,374 154.998,374 
			121.498,374 85.998,374 46.998,374 1.998,374 		"/>
		<polyline fill="none" stroke="#000000" stroke-miterlimit="10" points="201.998,287.5 201.998,307.5 201.998,352 201.998,374 		
			"/>
		<polyline fill="none" stroke="#000000" stroke-miterlimit="10" points="201.998,352 224.998,352 240.498,352 		"/>
		<polyline fill="none" stroke="#000000" stroke-miterlimit="10" points="201.998,307.5 224.998,307.5 240.498,307.5 		"/>
		<line fill="none" stroke="#000000" stroke-miterlimit="10" x1="224.998" y1="307.5" x2="224.998" y2="352"/>
		<polyline fill="none" stroke="#000000" stroke-miterlimit="10" points="1.998,440 46.998,440 85.998,440 121.498,440 154.998,440 
			163.498,440 188.998,440 240.498,440 240.498,374 240.498,352 240.498,307.5 240.498,287.5 		"/>
		<polyline fill="none" stroke="#000000" stroke-miterlimit="10" points="46.998,491.5 28.498,491.5 1.998,491.5 		"/>
		<polyline fill="none" stroke="#000000" stroke-miterlimit="10" points="46.998,374 46.998,440 46.998,455 46.998,473.25 		"/>
		<line fill="none" stroke="#000000" stroke-miterlimit="10" x1="85.998" y1="374" x2="85.998" y2="440"/>
		<line fill="none" stroke="#000000" stroke-miterlimit="10" x1="121.498" y1="374" x2="121.498" y2="440"/>
		<line fill="none" stroke="#000000" stroke-miterlimit="10" x1="154.998" y1="374" x2="154.998" y2="440"/>
		<line fill="none" stroke="#000000" stroke-miterlimit="10" x1="188.998" y1="374" x2="188.998" y2="440"/>
		<polyline fill="none" stroke="#000000" stroke-miterlimit="10" points="1.998,539.5 54.498,539.5 78.998,539.5 103.498,539.5 
			118.998,539.5 139.998,539.5 163.498,539.5 163.498,514 163.498,473.5 163.498,440 		"/>
		<polyline fill="none" stroke="#000000" stroke-miterlimit="10" points="46.998,455 62.498,455 82.498,455 103.498,455 
			123.998,455 123.998,491.5 103.498,491.5 82.498,491.5 62.498,491.5 46.998,491.5 		"/>
		<polyline fill="none" stroke="#000000" stroke-miterlimit="10" points="62.498,455 62.498,473.5 62.498,491.5 62.498,514 
			62.498,518 54.498,518 1.998,518 		"/>
		<line fill="none" stroke="#000000" stroke-miterlimit="10" x1="82.498" y1="455" x2="82.498" y2="491.5"/>
		<line fill="none" stroke="#000000" stroke-miterlimit="10" x1="103.498" y1="455" x2="103.498" y2="491.5"/>
		<polyline fill="none" stroke="#000000" stroke-miterlimit="10" points="62.498,473.5 46.998,473.5 28.498,473.5 1.998,473.5 		"/>
		<line fill="none" stroke="#000000" stroke-miterlimit="10" x1="28.498" y1="473.5" x2="28.498" y2="491.5"/>
		<line fill="none" stroke="#000000" stroke-miterlimit="10" x1="54.498" y1="518" x2="54.498" y2="539.5"/>
		<polyline fill="none" stroke="#000000" stroke-miterlimit="10" points="62.498,514 78.998,514 103.498,514 118.998,514 
			139.998,514 163.498,514 		"/>
		<line fill="none" stroke="#000000" stroke-miterlimit="10" x1="139.998" y1="514" x2="139.998" y2="539.5"/>
		<line fill="none" stroke="#000000" stroke-miterlimit="10" x1="118.998" y1="514" x2="118.998" y2="539.5"/>
		<polyline fill="none" stroke="#000000" stroke-miterlimit="10" points="103.498,514 103.498,539.5 103.498,540.5 		"/>
		<line fill="none" stroke="#000000" stroke-miterlimit="10" x1="78.998" y1="514" x2="78.998" y2="539.5"/>
		<polyline fill="none" stroke="#000000" stroke-miterlimit="10" points="292.998,573 292.998,572.995 292.998,495 292.998,473.5 
			255.998,473.5 240.498,473.5 240.498,440 		"/>
		<line fill="none" stroke="#000000" stroke-miterlimit="10" x1="240.498" y1="473.5" x2="163.498" y2="473.5"/>
		<polyline fill="none" stroke="#000000" stroke-miterlimit="10" points="292.998,495 180.998,495 180.998,572.995 180.998,573 		
			"/>
		<polyline fill="none" stroke="#000000" stroke-miterlimit="10" points="320.498,573 320.498,572.995 320.498,560 333.498,560 
			333.498,572.995 333.498,573 		"/>
		<polyline fill="none" stroke="#000000" stroke-miterlimit="10" points="363.998,573 363.998,572.99 363.998,560 376.998,560 
			376.998,572.99 376.998,573 		"/>
		<polyline fill="none" stroke="#000000" stroke-miterlimit="10" points="350.828,473.415 351.498,374 404.998,374 460.498,374 
			460.498,412.5 460.498,440.735 460.498,457 460.498,473.25 404.998,473.335 350.828,473.415 292.998,473.5 		"/>
		<line fill="none" stroke="#000000" stroke-miterlimit="10" x1="404.998" y1="457" x2="460.498" y2="457"/>
		<polyline fill="none" stroke="#000000" stroke-miterlimit="10" points="351.498,374 351.498,363 351.498,283 255.998,283 
			240.498,283 		"/>
		<line fill="none" stroke="#000000" stroke-miterlimit="10" x1="255.998" y1="283" x2="255.998" y2="473.5"/>
		<polyline fill="none" stroke="#000000" stroke-miterlimit="10" points="351.498,283 351.498,246 351.498,173 351.498,126 
			351.498,98 351.498,93 240.498,93 		"/>
		<line fill="none" stroke="#000000" stroke-miterlimit="10" x1="240.498" y1="246" x2="351.498" y2="246"/>
		<polyline fill="none" stroke="#000000" stroke-miterlimit="10" points="408.998,1.5 408.998,2.635 408.998,35 408.998,84.5 
			408.998,126 408.998,173 408.998,190 408.998,219.5 		"/>
		<polyline fill="none" stroke="#000000" stroke-miterlimit="10" points="421.998,1.5 421.998,2.64 421.998,39 421.998,100.5 		"/>
		<polyline fill="none" stroke="#000000" stroke-miterlimit="10" points="496.998,1.5 496.998,2.665 496.998,16.5 496.998,39 
			496.998,100.5 496.998,131.5 496.998,145.5 496.998,166 496.998,190 496.998,215 432.998,215 432.998,190 432.998,166 
			432.998,145.5 		"/>
		<line fill="none" stroke="#000000" stroke-miterlimit="10" x1="432.998" y1="166" x2="496.998" y2="166"/>
		<polyline fill="none" stroke="#000000" stroke-miterlimit="10" points="496.998,100.5 459.498,100.5 421.998,100.5 421.998,110.5 
					"/>
		<polyline fill="none" stroke="#000000" stroke-miterlimit="10" points="421.998,39 452.998,39 466.998,39 496.998,39 		"/>
		<polyline fill="none" stroke="#000000" stroke-miterlimit="10" points="452.998,2 452.998,2.65 452.998,39 		"/>
		<polyline fill="none" stroke="#000000" stroke-miterlimit="10" points="466.998,1.5 466.998,2.655 466.998,39 		"/>
		<polygon fill="none" stroke="#000000" stroke-miterlimit="10" points="421.998,110.5 421.998,145.5 432.998,145.5 449.998,145.5 
			449.998,110.5 		"/>
		<polyline fill="none" stroke="#000000" stroke-miterlimit="10" points="459.498,100.5 459.498,131.5 459.498,145.5 459.498,162 		
			"/>
		<line fill="none" stroke="#000000" stroke-miterlimit="10" x1="459.498" y1="131.5" x2="496.998" y2="131.5"/>
		<polyline fill="none" stroke="#000000" stroke-miterlimit="10" points="518.998,190 518.998,173 1035.498,173 1034.998,190 		"/>
		<polygon fill="none" stroke="#000000" stroke-miterlimit="10" points="631.998,227.5 648.498,227.5 648.498,338.5 606.498,338.5 
			606.498,325 606.498,227.5 624.498,227.5 		"/>
		<polygon fill="none" stroke="#000000" stroke-miterlimit="10" points="743.498,227.5 760.998,227.5 760.998,338.5 718.998,338.5 
			718.998,325 718.998,227.5 735.498,227.5 		"/>
		<polygon fill="none" stroke="#000000" stroke-miterlimit="10" points="856.498,227.5 873.498,227.5 873.498,338.5 831.498,338.5 
			831.498,325 831.498,227.5 848.498,227.5 		"/>
		<polygon fill="none" stroke="#000000" stroke-miterlimit="10" points="967.998,227.5 985.498,227.5 985.498,338.5 943.498,338.5 
			943.498,325 943.498,227.5 959.998,227.5 		"/>
		<polygon fill="none" stroke="#000000" stroke-miterlimit="10" points="1054.498,325 1054.498,227.5 1096.498,227.5 
			1096.498,338.5 1054.498,338.5 		"/>
		<line fill="none" stroke="#000000" stroke-miterlimit="10" x1="624.498" y1="190" x2="624.498" y2="227.5"/>
		<line fill="none" stroke="#000000" stroke-miterlimit="10" x1="631.998" y1="190" x2="631.998" y2="227.5"/>
		<line fill="none" stroke="#000000" stroke-miterlimit="10" x1="735.498" y1="190" x2="735.498" y2="227.5"/>
		<line fill="none" stroke="#000000" stroke-miterlimit="10" x1="743.498" y1="190" x2="743.498" y2="227.5"/>
		<line fill="none" stroke="#000000" stroke-miterlimit="10" x1="848.498" y1="190" x2="848.498" y2="227.5"/>
		<line fill="none" stroke="#000000" stroke-miterlimit="10" x1="856.498" y1="190" x2="856.498" y2="227.5"/>
		<line fill="none" stroke="#000000" stroke-miterlimit="10" x1="959.998" y1="190" x2="959.998" y2="227.5"/>
		<line fill="none" stroke="#000000" stroke-miterlimit="10" x1="967.998" y1="190" x2="967.998" y2="227.5"/>
		<polygon fill="none" stroke="#000000" stroke-miterlimit="10" points="1170.998,227.5 1170.998,338.5 1203.998,338.5 
			1203.998,262.5 1280.998,263.5 1280.998,338.5 1315.998,338.5 1315.998,227.5 		"/>
		<rect x="1070.998" y="46.5" fill="none" stroke="#000000" stroke-miterlimit="10" width="209" height="87"/>
		<polyline fill="none" stroke="#000000" stroke-miterlimit="10" points="682.998,412.5 581.998,412.5 553.998,412.5 508.998,412.5 
			473.538,412.5 460.498,412.5 		"/>
		<polyline fill="none" stroke="#000000" stroke-miterlimit="10" points="460.718,440.735 508.998,440.68 553.998,440.625 
			581.998,440.59 645.498,440.515 682.998,440.475 703.998,440.45 729.498,440.42 803.498,440.33 859.998,440.265 870.498,440.255 
			907.998,440.21 970.998,440.135 1019.998,440.075 1075.498,440.01 1084.998,440 1084.998,402 1006.498,402 954.998,402 
			907.998,402 870.498,402 859.998,402 803.498,402 770.498,402 729.498,402 722.498,402 703.998,402 682.998,402 669.498,402 
			619.998,402 558.998,402 501.998,402 473.498,402 473.538,412.5 		"/>
		<polyline fill="none" stroke="#000000" stroke-miterlimit="10" points="682.998,402 682.998,412.5 682.998,421 682.998,440.475 
			682.998,440.5 		"/>
		<line fill="none" stroke="#000000" stroke-miterlimit="10" x1="703.998" y1="402" x2="703.998" y2="440"/>
		<line fill="none" stroke="#000000" stroke-miterlimit="10" x1="729.498" y1="402" x2="729.498" y2="440"/>
		<polyline fill="none" stroke="#000000" stroke-miterlimit="10" points="682.998,421 645.498,421.25 645.498,440 		"/>
		<line fill="none" stroke="#000000" stroke-miterlimit="10" x1="581.998" y1="412.5" x2="581.998" y2="440"/>
		<line fill="none" stroke="#000000" stroke-miterlimit="10" x1="553.998" y1="412.5" x2="553.998" y2="440"/>
		<line fill="none" stroke="#000000" stroke-miterlimit="10" x1="508.998" y1="412.5" x2="508.998" y2="440.5"/>
		<line fill="none" stroke="#000000" stroke-miterlimit="10" x1="803.498" y1="402" x2="803.498" y2="440"/>
		<polyline fill="none" stroke="#000000" stroke-miterlimit="10" points="859.998,402 859.998,440.265 859.998,440.5 		"/>
		<line fill="none" stroke="#000000" stroke-miterlimit="10" x1="870.498" y1="402" x2="870.498" y2="440"/>
		<polyline fill="none" stroke="#000000" stroke-miterlimit="10" points="907.998,402 907.998,413 907.998,440 		"/>
		<polyline fill="none" stroke="#000000" stroke-miterlimit="10" points="907.998,413 970.998,413 1019.998,413 1075.498,413 
			1075.498,440 		"/>
		<line fill="none" stroke="#000000" stroke-miterlimit="10" x1="970.998" y1="413" x2="970.998" y2="440"/>
		<line fill="none" stroke="#000000" stroke-miterlimit="10" x1="1019.998" y1="413" x2="1019.998" y2="440"/>
		<polygon fill="none" stroke="#000000" stroke-miterlimit="10" points="558.998,556.5 558.998,527 436.998,527 436.998,563 
			452.998,563 453.163,557.5 		"/>
		<rect x="605.998" y="527" fill="none" stroke="#000000" stroke-miterlimit="10" width="45" height="30"/>
		<polyline fill="none" stroke="#000000" stroke-miterlimit="10" points="711.998,573 711.998,572.985 711.998,560 723.998,560 
			723.998,572.985 723.998,573 		"/>
		<polyline fill="none" stroke="#000000" stroke-miterlimit="10" points="737.998,573 737.998,572.985 737.998,560 748.998,560 
			748.998,572.985 748.998,573 		"/>
		<polyline fill="none" stroke="#000000" stroke-miterlimit="10" points="795.998,573 795.998,572.98 795.998,556 795.998,547 
			795.998,545 907.998,545 1019.998,545 1075.498,545 1075.498,572.975 1075.498,573 		"/>
		<polyline fill="none" stroke="#000000" stroke-miterlimit="10" points="1019.998,545 1019.998,572.975 1019.998,573 		"/>
		<polyline fill="none" stroke="#000000" stroke-miterlimit="10" points="907.998,545 907.998,572.98 907.998,573 		"/>
		<polyline fill="none" stroke="#000000" stroke-miterlimit="10" points="1103.998,573 1103.998,572.975 1103.998,559 1115.998,559 
			1115.998,572.975 1115.998,573 		"/>
		<polyline fill="none" stroke="#000000" stroke-miterlimit="10" points="1147.998,573 1147.998,572.975 1147.998,559 1158.998,559 
			1158.998,572.975 1158.998,573 		"/>
		<polyline fill="none" stroke="#000000" stroke-miterlimit="10" points="1187.998,573 1187.998,572.975 1187.998,545 1242.998,545 
			1355.998,545 1466.998,545 1466.998,549 1466.998,556 1466.998,572.97 1466.998,573 		"/>
		<polyline fill="none" stroke="#000000" stroke-miterlimit="10" points="1355.998,545 1355.998,572.97 1355.998,573 		"/>
		<polyline fill="none" stroke="#000000" stroke-miterlimit="10" points="1242.998,545 1242.998,572.975 1242.998,573 		"/>
		<polyline fill="none" stroke="#000000" stroke-miterlimit="10" points="1411.083,440.125 1410.998,402 1390.998,402 1368.998,402 
			1334.498,402 1274.498,402 1260.998,402 1231.998,402 1231.998,398.5 1177.998,398.5 1170.998,398.5 1170.998,402 1170.998,440 
			1177.998,440.025 1231.998,440.2 1260.998,440.295 1274.498,440.34 1334.498,440.54 1368.998,440.655 1390.998,440.725 
			1411.083,440.79 1422.998,440.83 1471.998,440.995 1474.218,441 1511.498,441 1520.998,441 1565.998,441 1580.783,440.5 		"/>
		<polyline fill="none" stroke="#000000" stroke-miterlimit="10" points="1170.998,402 1161.498,402 1093.498,402 1084.998,402 		
			"/>
		<polyline fill="none" stroke="#000000" stroke-miterlimit="10" points="1231.998,402 1231.998,410 1231.998,421.5 1231.998,440 		
			"/>
		<polyline fill="none" stroke="#000000" stroke-miterlimit="10" points="1177.998,398.5 1177.998,410 1177.998,421.5 1177.998,440 
					"/>
		<line fill="none" stroke="#000000" stroke-miterlimit="10" x1="1177.998" y1="410" x2="1231.998" y2="410"/>
		<line fill="none" stroke="#000000" stroke-miterlimit="10" x1="1177.998" y1="421.5" x2="1231.998" y2="421.5"/>
		<line fill="none" stroke="#000000" stroke-miterlimit="10" x1="1260.998" y1="402" x2="1260.998" y2="440"/>
		<line fill="none" stroke="#000000" stroke-miterlimit="10" x1="1274.498" y1="402" x2="1274.498" y2="440"/>
		<line fill="none" stroke="#000000" stroke-miterlimit="10" x1="1334.498" y1="402" x2="1334.498" y2="440"/>
		<line fill="none" stroke="#000000" stroke-miterlimit="10" x1="1368.998" y1="402" x2="1368.998" y2="440.5"/>
		<line fill="none" stroke="#000000" stroke-miterlimit="10" x1="1390.998" y1="402" x2="1390.998" y2="440"/>
		<polyline fill="none" stroke="#000000" stroke-miterlimit="10" points="1422.998,440.5 1422.998,402 1422.998,343.5 
			1422.998,283.5 1422.998,254.5 1422.998,226 1422.998,225.5 1422.998,201 		"/>
		<polyline fill="none" stroke="#000000" stroke-miterlimit="10" points="1471.998,441 1471.998,440.995 1471.998,402 
			1471.998,343.5 1471.998,283.5 1471.998,276 1471.998,254.5 1471.998,225.5 1471.998,201 1471.998,190 1464.498,190 1447.498,190 
			1409.998,190 1034.998,190 967.998,190 959.998,190 914.998,190 856.498,190 848.498,190 743.498,190 735.498,190 631.998,190 
			624.498,190 518.998,190 496.998,190 432.998,190 408.998,190 		"/>
		<polyline fill="none" stroke="#000000" stroke-miterlimit="10" points="1409.998,190 1409.998,201 1409.998,389.5 		"/>
		<polyline fill="none" stroke="#000000" stroke-miterlimit="10" points="1471.998,201 1422.998,201 1409.998,201 		"/>
		<line fill="none" stroke="#000000" stroke-miterlimit="10" x1="1422.998" y1="225.5" x2="1471.998" y2="225.5"/>
		<polyline fill="none" stroke="#000000" stroke-miterlimit="10" points="1423.498,254.5 1471.998,254.5 1472.498,254.5 		"/>
		<line fill="none" stroke="#000000" stroke-miterlimit="10" x1="1422.998" y1="283.5" x2="1471.998" y2="283.5"/>
		<polyline fill="none" stroke="#000000" stroke-miterlimit="10" points="1422.498,343.5 1422.998,343.5 1471.498,343.5 		"/>
		<polyline fill="none" stroke="#000000" stroke-miterlimit="10" points="1422.998,402 1471.998,402 1511.498,402 1511.498,440.5 		
			"/>
		<polyline fill="none" stroke="#000000" stroke-miterlimit="10" points="1580.498,402 1580.783,440.5 1580.998,470 1672.998,470 
			1672.998,402 1580.498,402 1520.998,402 1520.998,440.5 		"/>
		<polyline fill="none" stroke="#000000" stroke-miterlimit="10" points="1786.998,402 1786.998,441 1786.998,470 1734.998,470 
			1683.498,470 1683.498,441 1683.498,402 1710.498,402 1755.998,402 1786.998,402 1803.998,402 		"/>
		<polyline fill="none" stroke="#000000" stroke-miterlimit="10" points="1848.998,374.5 1848.998,451 1848.998,473.5 		"/>
		<line fill="none" stroke="#000000" stroke-miterlimit="10" x1="1803.998" y1="450.5" x2="1848.998" y2="451"/>
		<polyline fill="none" stroke="#000000" stroke-miterlimit="10" points="1786.998,441 1755.998,441 1734.998,441 1710.498,441 
			1683.498,441 		"/>
		<line fill="none" stroke="#000000" stroke-miterlimit="10" x1="1710.498" y1="402" x2="1710.498" y2="440"/>
		<line fill="none" stroke="#000000" stroke-miterlimit="10" x1="1755.998" y1="402" x2="1755.998" y2="440.5"/>
		<line fill="none" stroke="#000000" stroke-miterlimit="10" x1="1511.498" y1="402" x2="1520.998" y2="402"/>
		<line fill="none" stroke="#000000" stroke-miterlimit="10" x1="1786.998" y1="470" x2="1803.998" y2="470"/>
		<polyline fill="none" stroke="#000000" stroke-miterlimit="10" points="1515.998,573 1515.998,572.965 1515.998,559 1528.498,559 
			1528.498,572.965 1528.498,573 		"/>
		<polyline fill="none" stroke="#000000" stroke-miterlimit="10" points="1541.998,573 1541.998,572.965 1541.998,559 1553.998,559 
			1553.998,572.965 1553.998,573 		"/>
		<rect x="1614.998" y="532.5" fill="none" stroke="#000000" stroke-miterlimit="10" width="44" height="23.5"/>
		<rect x="1706.498" y="532.5" fill="none" stroke="#000000" stroke-miterlimit="10" width="120" height="23.5"/>
		<polyline fill="none" stroke="#000000" stroke-miterlimit="10" points="1888.998,573 1888.998,572.96 1888.998,559 1902.498,559 
			1902.498,572.96 1902.498,573 		"/>
		<polyline fill="none" stroke="#000000" stroke-miterlimit="10" points="1932.498,573 1932.498,572.955 1932.498,559 1946.498,559 
			1946.498,572.955 1946.498,573 		"/>
		<polyline fill="none" stroke="#000000" stroke-miterlimit="10" points="1447.498,2.5 1447.498,2.98 1447.498,190 		"/>
		<polyline fill="none" stroke="#000000" stroke-miterlimit="10" points="1808.998,3.11 1808.998,38 1808.998,68 1808.998,85.5 
			1808.998,100.5 1808.998,113 1808.998,145.5 1808.998,190 1808.998,199 1857.998,199 1857.998,3.115 1857.998,2.5 		"/>
		<polyline fill="none" stroke="#000000" stroke-miterlimit="10" points="1808.998,100.5 1769.498,100.5 1769.498,145.5 
			1769.498,190 		"/>
		<polyline fill="none" stroke="#000000" stroke-miterlimit="10" points="1471.998,190 1769.498,190 1808.998,190 		"/>
		<polyline fill="none" stroke="#000000" stroke-miterlimit="10" points="1769.498,145.5 1808.998,145.5 1837.998,145.5 		"/>
		<polyline fill="none" stroke="#000000" stroke-miterlimit="10" points="1837.998,3.11 1837.998,38 1837.998,68 1837.998,85.5 
			1837.998,113 1837.998,145.5 		"/>
		<line fill="none" stroke="#000000" stroke-miterlimit="10" x1="1808.998" y1="38" x2="1837.998" y2="38"/>
		<line fill="none" stroke="#000000" stroke-miterlimit="10" x1="1808.998" y1="68" x2="1837.998" y2="68"/>
		<line fill="none" stroke="#000000" stroke-miterlimit="10" x1="1837.998" y1="85.5" x2="1808.998" y2="85.5"/>
		<line fill="none" stroke="#000000" stroke-miterlimit="10" x1="1837.998" y1="113" x2="1808.998" y2="113"/>
		<polyline fill="none" stroke="#000000" stroke-miterlimit="10" points="2261.498,94 2214.998,94 2192.498,94 2172.998,94 
			2140.498,94 2094.498,94 2047.998,94 2027.998,94 1953.498,94 1911.498,94 1911.498,155.5 1911.498,374.5 1911.498,427 
			1911.498,444 1911.498,473.5 1968.498,473.5 2021.498,473.5 2021.998,473.5 		"/>
		<polyline fill="none" stroke="#000000" stroke-miterlimit="10" points="1911.498,155.5 1953.498,155.5 2009.998,155.5 
			2021.998,155.5 2027.998,155.5 2027.998,187.5 		"/>
		<polyline fill="none" stroke="#000000" stroke-miterlimit="10" points="2009.998,155.5 2009.998,289.5 2000.498,289.5 
			2000.498,444 		"/>
		<polyline fill="none" stroke="#000000" stroke-miterlimit="10" points="2024.998,283.75 2063.498,283.83 2072.998,283.85 
			2108.998,283.925 2143.498,284 2143.498,253 2143.498,187.5 2081.998,187.5 2027.998,187.5 2024.998,187.5 2024.998,253 
			2024.998,283.75 2024.998,349 2024.998,374.5 2024.998,438 2024.998,444 2021.498,444 2000.498,444 1968.498,444 1911.498,444 		
			"/>
		<polyline fill="none" stroke="#000000" stroke-miterlimit="10" points="2024.998,253 2063.498,253 2081.998,253 2108.998,253 
			2143.498,253 		"/>
		<line fill="none" stroke="#000000" stroke-miterlimit="10" x1="1953.498" y1="94" x2="1953.498" y2="155.5"/>
		<polyline fill="none" stroke="#000000" stroke-miterlimit="10" points="2027.998,94 2027.998,140 2021.998,140 2021.998,155.5 		
			"/>
		<polyline fill="none" stroke="#000000" stroke-miterlimit="10" points="2047.998,94 2047.998,160.5 2094.498,160.5 
			2140.498,160.5 2172.998,160.5 2192.498,160.5 2214.998,160.5 2261.498,160.5 		"/>
		<polyline fill="none" stroke="#000000" stroke-miterlimit="10" points="2072.998,284 2072.998,349 2063.498,349 2024.998,349 		
			"/>
		<line fill="none" stroke="#000000" stroke-miterlimit="10" x1="2081.998" y1="187.5" x2="2081.998" y2="253"/>
		<polyline fill="none" stroke="#000000" stroke-miterlimit="10" points="2063.498,253 2063.498,283.83 2063.498,284 		"/>
		<polyline fill="none" stroke="#000000" stroke-miterlimit="10" points="2108.998,253 2108.998,283.925 2108.998,284 		"/>
		<line fill="none" stroke="#000000" stroke-miterlimit="10" x1="2094.498" y1="94" x2="2094.498" y2="160.5"/>
		<polyline fill="none" stroke="#000000" stroke-miterlimit="10" points="2140.498,94 2140.498,141.5 2140.498,160.5 		"/>
		<polyline fill="none" stroke="#000000" stroke-miterlimit="10" points="2172.998,94 2172.998,141.5 2172.998,160.5 		"/>
		<line fill="none" stroke="#000000" stroke-miterlimit="10" x1="2140.498" y1="141.5" x2="2172.998" y2="141.5"/>
		<line fill="none" stroke="#000000" stroke-miterlimit="10" x1="2192.498" y1="94" x2="2192.498" y2="160.5"/>
		<line fill="none" stroke="#000000" stroke-miterlimit="10" x1="2214.998" y1="94" x2="2214.998" y2="160.5"/>
		<polyline fill="none" stroke="#000000" stroke-miterlimit="10" points="2024.998,438 2083.998,438 2091.998,438 2128.498,438 
			2167.498,438 2204.998,438 2220.498,438 2261.498,438 		"/>
		<polygon fill="none" stroke="#000000" stroke-miterlimit="10" points="2142.998,330 2142.998,308.5 2091.998,308.5 2091.998,330 
			2091.998,351.5 2142.998,351.5 		"/>
		<line fill="none" stroke="#000000" stroke-miterlimit="10" x1="2091.998" y1="330" x2="2142.998" y2="330"/>
		<polyline fill="none" stroke="#000000" stroke-miterlimit="10" points="2204.998,277 2204.998,308.5 2204.998,342.5 
			2204.998,351.5 2167.498,351.5 2167.498,308.5 2167.498,277 2204.998,277 2225.998,277 2261.498,277 		"/>
		<polyline fill="none" stroke="#000000" stroke-miterlimit="10" points="2167.498,308.5 2204.998,308.5 2225.998,308.5 
			2261.498,308.5 		"/>
		<polyline fill="none" stroke="#000000" stroke-miterlimit="10" points="2204.998,342.5 2235.998,342.5 2235.998,349 
			2235.998,370.5 2235.998,381 2220.498,381 		"/>
		<polyline fill="none" stroke="#000000" stroke-miterlimit="10" points="2235.998,349 2261.498,349 2261.998,349 		"/>
		<polyline fill="none" stroke="#000000" stroke-miterlimit="10" points="2235.998,370.5 2261.498,370.5 2261.998,370.5 		"/>
		<polyline fill="none" stroke="#000000" stroke-miterlimit="10" points="2063.498,349 2063.498,374.5 2063.498,381 2083.998,381 
			2113.998,381 		"/>
		<line fill="none" stroke="#000000" stroke-miterlimit="10" x1="2063.498" y1="374.5" x2="2024.998" y2="374.5"/>
		<line fill="none" stroke="#000000" stroke-miterlimit="10" x1="2083.998" y1="438" x2="2083.998" y2="381"/>
		<polyline fill="none" stroke="#000000" stroke-miterlimit="10" points="2113.998,381 2113.998,374.5 2128.498,374.5 
			2142.998,374.5 2143.498,381 		"/>
		<polyline fill="none" stroke="#000000" stroke-miterlimit="10" points="2143.498,381 2167.498,381 2189.498,381 		"/>
		<polyline fill="none" stroke="#000000" stroke-miterlimit="10" points="2220.498,381 2220.498,374.5 2204.998,374.5 
			2189.498,374.5 2189.498,381 		"/>
		<line fill="none" stroke="#000000" stroke-miterlimit="10" x1="2128.498" y1="374.5" x2="2128.498" y2="438"/>
		<line fill="none" stroke="#000000" stroke-miterlimit="10" x1="2204.998" y1="374.5" x2="2204.998" y2="438"/>
		<line fill="none" stroke="#000000" stroke-miterlimit="10" x1="2167.498" y1="381" x2="2167.498" y2="438"/>
		<line fill="none" stroke="#000000" stroke-miterlimit="10" x1="2225.998" y1="277" x2="2225.998" y2="308.5"/>
		<polyline fill="none" stroke="#000000" stroke-miterlimit="10" points="2021.498,444 2021.498,473.5 2021.498,495 2091.998,495 		
			"/>
		<line fill="none" stroke="#000000" stroke-miterlimit="10" x1="1968.498" y1="444" x2="1968.498" y2="473.5"/>
		<polyline fill="none" stroke="#000000" stroke-miterlimit="10" points="1972.998,532.5 1972.998,514 2091.998,514 2125.498,514 
			2145.998,514 2161.998,514 2185.498,514 2202.498,514 		"/>
		<polyline fill="none" stroke="#000000" stroke-miterlimit="10" points="2261.998,538.5 2261.498,538.5 2211.498,538.5 
			2185.498,538.5 2161.998,538.5 2145.998,538.5 2125.498,538.5 2091.998,538.5 2091.998,514 2091.998,495 2091.998,438 		"/>
		<polyline fill="none" stroke="#000000" stroke-miterlimit="10" points="2261.998,491 2261.498,491 2202.498,491 2181.998,491 
			2161.998,491 2139.998,491 2139.998,454.5 2161.998,454.5 2181.998,454.5 2202.498,454.5 2220.498,454.5 		"/>
		<polyline fill="none" stroke="#000000" stroke-miterlimit="10" points="2220.498,438 2220.498,454.5 2220.498,473.5 		"/>
		<line fill="none" stroke="#000000" stroke-miterlimit="10" x1="2161.998" y1="454.5" x2="2161.998" y2="491"/>
		<line fill="none" stroke="#000000" stroke-miterlimit="10" x1="2181.998" y1="454.5" x2="2181.998" y2="491"/>
		<polyline fill="none" stroke="#000000" stroke-miterlimit="10" points="2261.498,517.5 2211.498,517.5 2202.498,517.5 
			2202.498,514 2202.498,491 2202.498,473.5 2202.498,454.5 		"/>
		<polyline fill="none" stroke="#000000" stroke-miterlimit="10" points="2202.498,473.5 2220.498,473.5 2261.498,473.5 		"/>
		<line fill="none" stroke="#000000" stroke-miterlimit="10" x1="2211.498" y1="517.5" x2="2211.498" y2="538.5"/>
		<line fill="none" stroke="#000000" stroke-miterlimit="10" x1="2185.498" y1="514" x2="2185.498" y2="538.5"/>
		<line fill="none" stroke="#000000" stroke-miterlimit="10" x1="2161.998" y1="514" x2="2161.998" y2="538.5"/>
		<line fill="none" stroke="#000000" stroke-miterlimit="10" x1="2145.998" y1="514" x2="2145.998" y2="538.5"/>
		<line fill="none" stroke="#000000" stroke-miterlimit="10" x1="2125.498" y1="514" x2="2125.498" y2="538.5"/>
		<polyline fill="none" stroke="#000000" stroke-miterlimit="10" points="1972.998,556 1972.998,572.955 1972.998,573 		"/>
		<polyline fill="none" stroke="#000000" stroke-miterlimit="10" points="2214.998,3.235 2214.998,37 2214.998,68 2184.498,68 
			2163.998,68 2121.998,68 2121.998,44.5 2121.998,24.5 2121.998,3.205 2121.998,2.5 		"/>
		<polyline fill="none" stroke="#000000" stroke-miterlimit="10" points="2184.498,2.5 2184.498,3.225 2184.498,37 2184.498,68 		
			"/>
		<line fill="none" stroke="#000000" stroke-miterlimit="10" x1="2184.498" y1="37" x2="2214.498" y2="37"/>
		<polyline fill="none" stroke="#000000" stroke-miterlimit="10" points="2163.998,3.22 2163.998,24.5 2163.998,44.5 2163.998,68 		
			"/>
		<line fill="none" stroke="#000000" stroke-miterlimit="10" x1="2121.998" y1="44.5" x2="2163.998" y2="44.5"/>
		<line fill="none" stroke="#000000" stroke-miterlimit="10" x1="2121.998" y1="24.5" x2="2163.998" y2="24.5"/>
		<polyline fill="none" stroke="#000000" stroke-miterlimit="10" points="2089.498,3.22 2089.498,73.5 2027.998,73.5 1915.498,73.5 
			1915.498,3.135 1915.498,2.5 		"/>
		<rect x="2002.498" y="4.5" fill="none" stroke="#000000" stroke-miterlimit="10" width="22.5" height="22"/>
		<rect x="1939.998" y="26.5" fill="none" stroke="#000000" stroke-miterlimit="10" width="52.5" height="39.5"/>
		<polyline fill="none" stroke="#000000" stroke-miterlimit="10" points="408.998,173 399.498,173 399.498,126 408.998,126 		"/>
		<polyline fill="none" stroke="#000000" stroke-miterlimit="10" points="351.498,173 361.498,173 361.498,126 351.498,126 		"/>
		<polyline fill="none" stroke="#000000" stroke-miterlimit="10" points="408.998,84.5 399.498,84.5 399.498,35 408.998,35 		"/>
		<polyline fill="none" stroke="#000000" stroke-miterlimit="10" points="350.998,363 351.498,363 404.998,363 404.998,374 
			404.998,457 404.998,473.335 404.998,473.5 		"/>
		<rect x="340.998" y="551" fill="none" stroke="#000000" stroke-miterlimit="10" width="15" height="9.5"/>
		<rect x="563.498" y="473.5" fill="none" stroke="#000000" stroke-miterlimit="10" width="18.5" height="11"/>
		<polyline fill="none" stroke="#000000" stroke-miterlimit="10" points="501.998,402 501.998,390.5 558.998,390.5 558.998,402 		
			"/>
		<polyline fill="none" stroke="#000000" stroke-miterlimit="10" points="619.998,402 619.998,390.5 669.498,390.5 669.498,402 		
			"/>
		<polyline fill="none" stroke="#000000" stroke-miterlimit="10" points="722.498,402 722.498,390.5 770.498,390.5 770.498,402 		
			"/>
		<rect x="789.498" y="479" fill="none" stroke="#000000" stroke-miterlimit="10" width="14" height="5.5"/>
		<polyline fill="none" stroke="#000000" stroke-miterlimit="10" points="795.998,547 776.498,547 776.498,556 795.998,556 		"/>
		<rect x="859.998" y="479" fill="none" stroke="#000000" stroke-miterlimit="10" width="41.5" height="8.5"/>
		<polygon fill="none" stroke="#000000" stroke-miterlimit="10" points="1031.498,487.5 1031.498,479 991.498,479 991.498,487.5 
			1017.498,487.5 		"/>
		<rect x="1124.498" y="549" fill="none" stroke="#000000" stroke-miterlimit="10" width="15" height="10"/>
		<polyline fill="none" stroke="#000000" stroke-miterlimit="10" points="1093.498,402 1093.498,440 1084.998,440 		"/>
		<polyline fill="none" stroke="#000000" stroke-miterlimit="10" points="1161.498,402 1161.498,440 1170.998,440 		"/>
		<polyline fill="none" stroke="#000000" stroke-miterlimit="10" points="954.998,402 954.998,390.5 1006.498,390.5 1006.498,402 		
			"/>
		<rect x="615.998" y="263" fill="none" stroke="#000000" stroke-miterlimit="10" width="6" height="29.5"/>
		<rect x="631.998" y="263" fill="none" stroke="#000000" stroke-miterlimit="10" width="6" height="29.5"/>
		<rect x="728.498" y="263" fill="none" stroke="#000000" stroke-miterlimit="10" width="6" height="29.5"/>
		<rect x="744.498" y="263" fill="none" stroke="#000000" stroke-miterlimit="10" width="6" height="29.5"/>
		<rect x="840.998" y="263" fill="none" stroke="#000000" stroke-miterlimit="10" width="6" height="29.5"/>
		<rect x="856.998" y="263" fill="none" stroke="#000000" stroke-miterlimit="10" width="6" height="29.5"/>
		<rect x="952.998" y="263" fill="none" stroke="#000000" stroke-miterlimit="10" width="6" height="29.5"/>
		<rect x="968.998" y="263" fill="none" stroke="#000000" stroke-miterlimit="10" width="6" height="29.5"/>
		<rect x="1064.998" y="263" fill="none" stroke="#000000" stroke-miterlimit="10" width="6" height="29.5"/>
		<rect x="1080.998" y="263" fill="none" stroke="#000000" stroke-miterlimit="10" width="6" height="29.5"/>
		<rect x="1176.498" y="263" fill="none" stroke="#000000" stroke-miterlimit="10" width="6" height="29.5"/>
		<rect x="1192.498" y="263" fill="none" stroke="#000000" stroke-miterlimit="10" width="6" height="29.5"/>
		<rect x="1288.498" y="263" fill="none" stroke="#000000" stroke-miterlimit="10" width="6" height="29.5"/>
		<rect x="1304.498" y="263" fill="none" stroke="#000000" stroke-miterlimit="10" width="6" height="29.5"/>
		<rect x="673.998" y="290" fill="none" stroke="#000000" stroke-miterlimit="10" width="19.5" height="30.5"/>
		<rect x="1122.498" y="290" fill="none" stroke="#000000" stroke-miterlimit="10" width="19.5" height="30.5"/>
		<polygon fill="none" stroke="#000000" stroke-miterlimit="10" points="1240.998,487.5 1225.998,487.5 1225.998,479 1267.498,479 
			1267.498,487.5 1256.498,487.5 		"/>
		<polyline fill="none" stroke="#000000" stroke-miterlimit="10" points="1240.998,487.5 1240.998,492 1256.498,492 1256.498,487.5 
					"/>
		<rect x="1358.498" y="479" fill="none" stroke="#000000" stroke-miterlimit="10" width="38.5" height="8.5"/>
		<polyline fill="none" stroke="#000000" stroke-miterlimit="10" points="1466.998,549 1481.998,549 1481.998,556 1466.998,556 		
			"/>
		<rect x="1686.498" y="549" fill="none" stroke="#000000" stroke-miterlimit="10" width="14" height="7"/>
		<polyline fill="none" stroke="#000000" stroke-miterlimit="10" points="1031.498,487.5 1031.498,492 1017.498,492 1017.498,487.5 
					"/>
		<rect x="576.998" y="46.5" fill="none" stroke="#000000" stroke-miterlimit="10" width="209" height="87"/>
		<polyline fill="none" stroke="#000000" stroke-miterlimit="10" points="496.998,16.5 565.998,16.5 565.998,2.685 565.998,2 		"/>
		<polyline fill="none" stroke="#000000" stroke-miterlimit="10" points="2027.998,72 2027.998,3.17 2027.998,2.5 		"/>
		<polyline fill="none" stroke="#000000" stroke-miterlimit="10" points="2261.498,199 2167.498,199 2167.498,209.5 		"/>
		<rect x="852.498" y="46.5" fill="none" stroke="#000000" stroke-miterlimit="10" width="209" height="87"/>
		<line fill="none" stroke="#000000" stroke-miterlimit="10" x1="67.498" y1="128.5" x2="90.998" y2="128.5"/>
		<line fill="none" stroke="#000000" stroke-miterlimit="10" x1="33.998" y1="278" x2="33.998" y2="307.5"/>
		<line fill="none" stroke="#000000" stroke-miterlimit="10" x1="459.498" y1="145.5" x2="496.998" y2="145.5"/>
		<line fill="none" stroke="#000000" stroke-miterlimit="10" x1="1734.998" y1="441" x2="1734.998" y2="469.5"/>
		<polyline fill="none" stroke="#000000" stroke-miterlimit="10" points="1911.498,374.5 1848.998,374.5 1803.998,374.5 
			1803.998,402 1803.998,450.5 1803.998,470 1803.998,473.5 1848.998,473.5 1911.498,473.5 		"/>
		<polygon fill="none" stroke="#000000" stroke-miterlimit="10" points="448.998,277.5 466.498,277.5 466.998,292.5 448.998,292.5 
					"/>
		<polygon fill="none" stroke="#000000" stroke-miterlimit="10" points="562.998,278.5 581.498,278.5 581.998,292.5 562.998,292.5 
					"/>
	</g>
</g>
<text transform='matrix(1 0 0 1 211.0 543.0)' font-size='12'></text>
<text transform='matrix(1 0 0 1 74.0 560.0)' font-size='12'>走道</text>
<text transform='matrix(1 0 0 1 136.0 487.0)' font-size='12'>厨房</text>
<text transform='matrix(1 0 0 1 13.0 535.0)' font-size='12'>G楼梯LT-A-1</text>
<text transform='matrix(1 0 0 1 61.0 537.0)' font-size='12'>F 卫生间</text>
<text transform='matrix(1 0 0 1 150.0 533.0)' font-size='12'>备餐间</text>
<text transform='matrix(1 0 0 1 129.0 524.0)' font-size='12'>餐具清洗</text>
<text transform='matrix(1 0 0 1 110.0 533.0)' font-size='12'>餐具回收</text>
<text transform='matrix(1 0 0 1 87.0 526.0)' font-size='12'>F 卫生间</text>
<text transform='matrix(1 0 0 1 22.0 511.0)' font-size='12'>电梯厅</text>
<text transform='matrix(1 0 0 1 111.0 468.0)' font-size='12'>精加工</text>
<text transform='matrix(1 0 0 1 89.0 486.0)' font-size='12'>粗加工</text>
<text transform='matrix(1 0 0 1 68.0 470.0)' font-size='12'>库房</text>
<text transform='matrix(1 0 0 1 39.0 492.0)' font-size='12'>G电梯DT-A-1</text>
<text transform='matrix(1 0 0 1 11.0 483.0)' font-size='12'>燃气进线间</text>
<text transform='matrix(1 0 0 1 17.0 460.0)' font-size='12'>配电间</text>
<text transform='matrix(1 0 0 1 53.0 469.0)' font-size='12'>未知</text>
<text transform='matrix(1 0 0 1 11.0 398.0)' font-size='12'>F贵宾室1</text>
<text transform='matrix(1 0 0 1 55.0 433.0)' font-size='12'>F贵宾室2</text>
<text transform='matrix(1 0 0 1 93.0 398.0)' font-size='12'>F贵宾室3</text>
<text transform='matrix(1 0 0 1 128.0 428.0)' font-size='12'>F贵宾室4</text>
<text transform='matrix(1 0 0 1 165.0 397.0)' font-size='12'>F贵宾室5</text>
<text transform='matrix(1 0 0 1 199.0 413.0)' font-size='12'>F贵宾室6</text>
<text transform='matrix(1 0 0 1 180.0 463.0)' font-size='12'>S餐饮集成标段2</text>
<text transform='matrix(1 0 0 1 12.0 324.0)' font-size='12'>G 卫生间</text>
<text transform='matrix(1 0 0 1 54.0 346.0)' font-size='12'>残疾人卫生间</text>
<text transform='matrix(1 0 0 1 35.0 339.0)' font-size='12'>G 卫生间</text>
<text transform='matrix(1 0 0 1 47.0 300.0)' font-size='12'>调度室</text>
<text transform='matrix(1 0 0 1 11.0 294.0)' font-size='12'>弱电间</text>
<text transform='matrix(1 0 0 1 99.0 329.0)' font-size='12'>个人会客厅</text>
<text transform='matrix(1 0 0 1 133.0 317.0)' font-size='12'>楼梯</text>
<text transform='matrix(1 0 0 1 183.0 322.0)' font-size='12'>杂物间</text>
<text transform='matrix(1 0 0 1 179.0 350.0)' font-size='12'>保洁室</text>
<text transform='matrix(1 0 0 1 159.0 341.0)' font-size='12'>电梯</text>
<text transform='matrix(1 0 0 1 133.0 349.0)' font-size='12'>消防梯前室</text>
<text transform='matrix(1 0 0 1 229.0 319.0)' font-size='12'>更衣室</text>
<text transform='matrix(1 0 0 1 209.0 337.0)' font-size='12'>休息室</text>
<text transform='matrix(1 0 0 1 215.0 305.0)' font-size='12'>F 操作间</text>
<text transform='matrix(1 0 0 1 27.0 246.0)' font-size='12'>大堂</text>
<text transform='matrix(1 0 0 1 114.0 266.0)' font-size='12'>散客区域</text>
<text transform='matrix(1 0 0 1 193.0 269.0)' font-size='12'>餐厅大厅</text>
<text transform='matrix(1 0 0 1 190.0 218.0)' font-size='12'>F 贵宾厅07</text>
<text transform='matrix(1 0 0 1 152.0 200.0)' font-size='12'>F 贵宾厅08</text>
<text transform='matrix(1 0 0 1 102.0 222.0)' font-size='12'>F 贵宾厅09</text>
<text transform='matrix(1 0 0 1 186.0 123.0)' font-size='12'>F 贵宾厅11</text>
<text transform='matrix(1 0 0 1 122.0 138.0)' font-size='12'>F 贵宾厅10</text>
<text transform='matrix(1 0 0 1 76.0 111.0)' font-size='12'>F 安检办公室</text>
<text transform='matrix(1 0 0 1 77.0 155.0)' font-size='12'>F 安检办公室</text>
<text transform='matrix(1 0 0 1 14.0 126.0)' font-size='12'>G 空侧贵宾出入口</text>
<text transform='matrix(1 0 0 1 9.0 21.0)' font-size='12'>F电信机房西侧</text>
<text transform='matrix(1 0 0 1 59.0 53.0)' font-size='12'>FA1-1#配电间西侧</text>
<text transform='matrix(1 0 0 1 90.0 36.0)' font-size='12'>G楼梯西侧01</text>
<text transform='matrix(1 0 0 1 111.0 18.0)' font-size='12'>G DT-A-3 西侧</text>
<text transform='matrix(1 0 0 1 142.0 68.0)' font-size='12'>G 2号油机间</text>
<text transform='matrix(1 0 0 1 183.0 47.0)' font-size='12'>G 细水</text>
<text transform='matrix(1 0 0 1 197.0 16.0)' font-size='12'>G 油桶间</text>
<text transform='matrix(1 0 0 1 207.0 34.0)' font-size='12'>G 附属用房</text>
<text transform='matrix(1 0 0 1 282.0 63.0)' font-size='12'>G 楼梯(西侧02)</text>
<text transform='matrix(1 0 0 1 248.0 24.0)' font-size='12'>DT-A-5</text>
<text transform='matrix(1 0 0 1 295.0 23.0)' font-size='12'>走道</text>
<text transform='matrix(1 0 0 1 55.0 180.0)' font-size='12'>走道</text>
<text transform='matrix(1 0 0 1 268.0 182.0)' font-size='12'>F 变电站</text>
<text transform='matrix(1 0 0 1 275.0 268.0)' font-size='12'>F UPS间</text>
<text transform='matrix(1 0 0 1 282.0 402.0)' font-size='12'>F 空调机房</text>
<text transform='matrix(1 0 0 1 209.0 368.0)' font-size='12'>配电室</text>
<text transform='matrix(1 0 0 1 359.0 407.0)' font-size='12'>G 卫生间T-A1-P1</text>
<text transform='matrix(1 0 0 1 412.0 412.0)' font-size='12'>G 卫生间T-A1-P2</text>
<text transform='matrix(1 0 0 1 471.0 434.0)' font-size='12'>G楼梯LT-A-6</text>
<text transform='matrix(1 0 0 1 470.0 548.0)' font-size='12'>G扶梯A-FT-3</text>
<text transform='matrix(1 0 0 1 615.0 544.0)' font-size='12'>G电梯DT-A-8</text>
<text transform='matrix(1 0 0 1 329.0 570.0)' font-size='12'>出口</text>
<text transform='matrix(1 0 0 1 370.0 569.0)' font-size='12'>出口</text>
<text transform='matrix(1 0 0 1 718.0 570.0)' font-size='12'>出口</text>
<text transform='matrix(1 0 0 1 747.0 571.0)' font-size='12'>出口</text>
<text transform='matrix(1 0 0 1 658.0 439.0)' font-size='12'>LT-A-7</text>
<text transform='matrix(1 0 0 1 412.0 469.0)' font-size='12'>S麦当劳甜品站T4-1-2</text>
<text transform='matrix(1 0 0 1 521.0 421.0)' font-size='12'>F A1=5#配电间</text>
<text transform='matrix(1 0 0 1 564.0 439.0)' font-size='12'>F 2#弱电间</text>
<text transform='matrix(1 0 0 1 612.0 425.0)' font-size='12'>S 品牌店</text>
<text transform='matrix(1 0 0 1 691.0 417.0)' font-size='12'>前室</text>
<text transform='matrix(1 0 0 1 714.0 437.0)' font-size='12'>F 行李寄存</text>
<text transform='matrix(1 0 0 1 750.0 420.0)' font-size='12'>F 行李寄存</text>
<text transform='matrix(1 0 0 1 815.0 430.0)' font-size='12'>S 便利店</text>
<text transform='matrix(1 0 0 1 866.0 416.0)' font-size='12'>G 疏散通道</text>
<text transform='matrix(1 0 0 1 879.0 436.0)' font-size='12'>F 1#报警阀间</text>
<text transform='matrix(1 0 0 1 935.0 424.0)' font-size='12'>S 旅游服务中心</text>
<text transform='matrix(1 0 0 1 979.0 437.0)' font-size='12'>F 3#弱电间</text>
<text transform='matrix(1 0 0 1 1029.0 421.0)' font-size='12'>F A1-6#配电间</text>
<text transform='matrix(1 0 0 1 809.0 567.0)' font-size='12'>S 货币兑换/旅游咨询柜台</text>
<text transform='matrix(1 0 0 1 939.0 553.0)' font-size='12'>S 酒店接待/汽车租赁柜台</text>
<text transform='matrix(1 0 0 1 1028.0 567.0)' font-size='12'>S 酒店接待/汽车租赁柜台</text>
<text transform='matrix(1 0 0 1 616.0 245.0)' font-size='12'>行李分拣台</text>
<text transform='matrix(1 0 0 1 728.0 246.0)' font-size='12'>行李分拣台</text>
<text transform='matrix(1 0 0 1 839.0 247.0)' font-size='12'>行李分拣台</text>
<text transform='matrix(1 0 0 1 951.0 249.0)' font-size='12'>行李分拣台</text>
<text transform='matrix(1 0 0 1 1065.0 248.0)' font-size='12'>行李分拣台</text>
<text transform='matrix(1 0 0 1 1216.0 245.0)' font-size='12'>行李分拣台</text>
<text transform='matrix(1 0 0 1 511.0 13.0)' font-size='12'>行李库房出入口</text>
<text transform='matrix(1 0 0 1 477.0 34.0)' font-size='12'>F计算机房</text>
<text transform='matrix(1 0 0 1 430.0 34.0)' font-size='12'>F办公室</text>
<text transform='matrix(1 0 0 1 460.0 17.0)' font-size='12'>备用</text>
<text transform='matrix(1 0 0 1 441.0 79.0)' font-size='12'>F行李机房控制室</text>
<text transform='matrix(1 0 0 1 450.0 185.0)' font-size='12'>G 电梯</text>
<text transform='matrix(1 0 0 1 469.0 143.0)' font-size='12'>G 卫生间</text>
<text transform='matrix(1 0 0 1 471.0 112.0)' font-size='12'>F A1-4#配电间</text>
<text transform='matrix(1 0 0 1 431.0 125.0)' font-size='12'>F 行李办公室</text>
<text transform='matrix(1 0 0 1 447.0 206.0)' font-size='12'>大件行李提取</text>
<text transform='matrix(1 0 0 1 419.0 163.0)' font-size='12'>工作人员安检通道</text>
<text transform='matrix(1 0 0 1 664.0 95.0)' font-size='12'>行李堆放</text>
<text transform='matrix(1 0 0 1 934.0 92.0)' font-size='12'>行李分拣厅</text>
<text transform='matrix(1 0 0 1 1154.0 92.0)' font-size='12'>行李分拣厅</text>
<text transform='matrix(1 0 0 1 1189.0 408.0)' font-size='12'>F 航站楼便利服务</text>
<text transform='matrix(1 0 0 1 1194.0 437.0)' font-size='12'>G 楼梯LT-A-9</text>
<text transform='matrix(1 0 0 1 1241.0 434.0)' font-size='12'>G 工作人员通道</text>
<text transform='matrix(1 0 0 1 1299.0 442.0)' font-size='12'>G 卫生间</text>
<text transform='matrix(1 0 0 1 1269.0 418.0)' font-size='12'>G 行李车通道</text>
<text transform='matrix(1 0 0 1 1346.0 429.0)' font-size='12'>G 卫生间</text>
<text transform='matrix(1 0 0 1 1377.0 413.0)' font-size='12'>S甜品店</text>
<text transform='matrix(1 0 0 1 1400.0 432.0)' font-size='12'>水表组</text>
<text transform='matrix(1 0 0 1 1479.0 436.0)' font-size='12'>F弱电间</text>
<text transform='matrix(1 0 0 1 1434.0 419.0)' font-size='12'>F 卫生间</text>
<text transform='matrix(1 0 0 1 1540.0 434.0)' font-size='12'>S 便利店</text>
<text transform='matrix(1 0 0 1 1518.0 415.0)' font-size='12'>疏散通道</text>
<text transform='matrix(1 0 0 1 1588.0 452.0)' font-size='12'>S 计时休息服务/网吧</text>
<text transform='matrix(1 0 0 1 1693.0 465.0)' font-size='12'>S中信书店</text>
<text transform='matrix(1 0 0 1 1745.0 455.0)' font-size='12'>待分配用房</text>
<text transform='matrix(1 0 0 1 1768.0 436.0)' font-size='12'>GC1-1#配电间</text>
<text transform='matrix(1 0 0 1 1870.0 433.0)' font-size='12'>G卫生间</text>
<text transform='matrix(1 0 0 1 1432.0 374.0)' font-size='12'>F更衣室</text>
<text transform='matrix(1 0 0 1 1432.0 312.0)' font-size='12'>F元翔行李查询41-Z-5</text>
<text transform='matrix(1 0 0 1 1435.0 277.0)' font-size='12'>F更衣室</text>
<text transform='matrix(1 0 0 1 1436.0 247.0)' font-size='12'>F更衣室</text>
<text transform='matrix(1 0 0 1 1430.0 216.0)' font-size='12'>F候管物业手推车员工休息室41-B-6</text>
<text transform='matrix(1 0 0 1 1425.0 200.0)' font-size='12'>通道</text>
<text transform='matrix(1 0 0 1 1198.0 559.0)' font-size='12'>S 公话邮政柜台</text>
<text transform='matrix(1 0 0 1 1265.0 567.0)' font-size='12'>S 旅游/问询柜台</text>
<text transform='matrix(1 0 0 1 1372.0 569.0)' font-size='12'>F航站楼便利服务柜台</text>
<text transform='matrix(1 0 0 1 1111.0 572.0)' font-size='12'>出口</text>
<text transform='matrix(1 0 0 1 1155.0 573.0)' font-size='12'>出口</text>
<text transform='matrix(1 0 0 1 1548.0 571.0)' font-size='12'>出口</text>
<text transform='matrix(1 0 0 1 1523.0 568.0)' font-size='12'>出口</text>
<text transform='matrix(1 0 0 1 1629.0 548.0)' font-size='12'>G电梯</text>
<text transform='matrix(1 0 0 1 1756.0 551.0)' font-size='12'>G扶梯</text>
<text transform='matrix(1 0 0 1 1815.0 466.0)' font-size='12'>S甜品站</text>
<text transform='matrix(1 0 0 1 1817.0 420.0)' font-size='12'>未知</text>
<text transform='matrix(1 0 0 1 1725.0 429.0)' font-size='12'>未知</text>
<text transform='matrix(1 0 0 1 1694.0 427.0)' font-size='12'>未知</text>
<text transform='matrix(1 0 0 1 1941.0 571.0)' font-size='12'>出口</text>
<text transform='matrix(1 0 0 1 1897.0 571.0)' font-size='12'>出口</text>
<text transform='matrix(1 0 0 1 1826.0 178.0)' font-size='12'>通道</text>
<text transform='matrix(1 0 0 1 1819.0 136.0)' font-size='12'>卫生间</text>
<text transform='matrix(1 0 0 1 1818.0 102.0)' font-size='12'>卫生间</text>
<text transform='matrix(1 0 0 1 1780.0 172.0)' font-size='12'>未知</text>
<text transform='matrix(1 0 0 1 1780.0 128.0)' font-size='12'>未知</text>
<text transform='matrix(1 0 0 1 1820.0 81.0)' font-size='12'>未知</text>
<text transform='matrix(1 0 0 1 1819.0 57.0)' font-size='12'>未知</text>
<text transform='matrix(1 0 0 1 1818.0 26.0)' font-size='12'>未知</text>
<text transform='matrix(1 0 0 1 1137.0 162.0)' font-size='12'>行李分拣厅</text>
<text transform='matrix(1 0 0 1 1925.0 464.0)' font-size='12'>待分配用房</text>
<text transform='matrix(1 0 0 1 1952.0 50.0)' font-size='12'>楼梯</text>
<text transform='matrix(1 0 0 1 2012.0 19.0)' font-size='12'>电梯</text>
<text transform='matrix(1 0 0 1 2136.0 18.0)' font-size='12'>电梯</text>
<text transform='matrix(1 0 0 1 2175.0 33.0)' font-size='12'>楼梯</text>
<text transform='matrix(1 0 0 1 1598.0 106.0)' font-size='12'>走道</text>
<text transform='matrix(1 0 0 1 1103.0 515.0)' font-size='12'>走道</text>
<text transform='matrix(1 0 0 1 2199.0 250.0)' font-size='12'>走道</text>
<text transform='matrix(1 0 0 1 2231.0 535.0)' font-size='12'>楼梯</text>
<text transform='matrix(1 0 0 1 2195.0 533.0)' font-size='12'>卫生间</text>
<text transform='matrix(1 0 0 1 2173.0 529.0)' font-size='12'>卫生间</text>
<text transform='matrix(1 0 0 1 2219.0 487.0)' font-size='12'>电梯</text>
<text transform='matrix(1 0 0 1 2247.0 365.0)' font-size='12'>出入口</text>
<text transform='matrix(1 0 0 1 2177.0 332.0)' font-size='12'>卫生间</text>
<text transform='matrix(1 0 0 1 2106.0 321.0)' font-size='12'>楼梯</text>
<text transform='matrix(1 0 0 1 2107.0 347.0)' font-size='12'>电梯</text>
<text transform='matrix(1 0 0 1 1940.0 289.0)' font-size='12'>空调机房</text>
<text transform='matrix(1 0 0 1 1937.0 21.0)' font-size='12'>走道</text>
<text transform='matrix(1 0 0 1 2048.0 39.0)' font-size='12'>未知</text>
<text transform='matrix(1 0 0 1 1974.0 125.0)' font-size='12'>未知</text>
<text transform='matrix(1 0 0 1 1926.0 129.0)' font-size='12'>未知</text>
<text transform='matrix(1 0 0 1 2062.0 131.0)' font-size='12'>未知</text>
<text transform='matrix(1 0 0 1 2107.0 130.0)' font-size='12'>未知</text>
<text transform='matrix(1 0 0 1 2046.0 224.0)' font-size='12'>未知</text>
<text transform='matrix(1 0 0 1 2099.0 227.0)' font-size='12'>未知</text>
<text transform='matrix(1 0 0 1 2125.0 275.0)' font-size='12'>未知</text>
<text transform='matrix(1 0 0 1 2078.0 273.0)' font-size='12'>未知</text>
<text transform='matrix(1 0 0 1 2038.0 272.0)' font-size='12'>未知</text>
<text transform='matrix(1 0 0 1 2039.0 321.0)' font-size='12'>未知</text>
<text transform='matrix(1 0 0 1 2039.0 367.0)' font-size='12'>未知</text>
<text transform='matrix(1 0 0 1 2044.0 419.0)' font-size='12'>未知</text>
<text transform='matrix(1 0 0 1 2044.0 474.0)' font-size='12'>未知</text>
<text transform='matrix(1 0 0 1 2096.0 416.0)' font-size='12'>未知</text>
<text transform='matrix(1 0 0 1 2141.0 414.0)' font-size='12'>未知</text>
<text transform='matrix(1 0 0 1 2226.0 509.0)' font-size='12'>未知</text>
<text transform='matrix(1 0 0 1 2237.0 463.0)' font-size='12'>未知</text>
<text transform='matrix(1 0 0 1 2155.0 533.0)' font-size='12'>未知</text>
<text transform='matrix(1 0 0 1 2137.0 529.0)' font-size='12'>未知</text>
<text transform='matrix(1 0 0 1 2101.0 533.0)' font-size='12'>未知</text>
<text transform='matrix(1 0 0 1 2214.0 469.0)' font-size='12'>未知</text>
<text transform='matrix(1 0 0 1 2191.0 469.0)' font-size='12'>未知</text>
<text transform='matrix(1 0 0 1 2170.0 484.0)' font-size='12'>未知</text>
<text transform='matrix(1 0 0 1 2149.0 473.0)' font-size='12'>未知</text>
<text transform='matrix(1 0 0 1 2106.0 503.0)' font-size='12'>走道</text>
<text transform='matrix(1 0 0 1 2225.0 413.0)' font-size='12'>未知</text>
<text transform='matrix(1 0 0 1 2181.0 414.0)' font-size='12'>未知</text>
<text transform='matrix(1 0 0 1 1992.0 465.0)' font-size='12'>未知</text>
<text transform='matrix(1 0 0 1 2225.0 331.0)' font-size='12'>未知</text>
<text transform='matrix(1 0 0 1 2242.0 299.0)' font-size='12'>未知</text>
<text transform='matrix(1 0 0 1 2214.0 295.0)' font-size='12'>未知</text>
<text transform='matrix(1 0 0 1 2179.0 303.0)' font-size='12'>未知</text>
<text transform='matrix(1 0 0 1 2233.0 130.0)' font-size='12'>未知</text>
<text transform='matrix(1 0 0 1 2202.0 149.0)' font-size='12'>未知</text>
<text transform='matrix(1 0 0 1 2182.0 118.0)' font-size='12'>未知</text>
<text transform='matrix(1 0 0 1 2151.0 152.0)' font-size='12'>未知</text>
<text transform='matrix(1 0 0 1 2151.0 125.0)' font-size='12'>未知</text>
<text transform='matrix(1 0 0 1 2193.0 59.0)' font-size='12'>未知</text>
<text transform='matrix(1 0 0 1 2193.0 19.0)' font-size='12'>未知</text>
<text transform='matrix(1 0 0 1 2132.0 63.0)' font-size='12'>未知</text>
<text transform='matrix(1 0 0 1 2134.0 37.0)' font-size='12'>未知</text>
<text transform='matrix(1 0 0 1 406.0 62.0)' font-size='12'>3PF1-01</text>
<text transform='matrix(1 0 0 1 358.0 155.0)' font-size='12'>LWF1-01</text>
<text transform='matrix(1 0 0 1 405.0 145.0)' font-size='12'>LWF1-02</text>
<text transform='matrix(1 0 0 1 363.0 373.0)' font-size='12'>LWF1-03</text>
<text transform='matrix(1 0 0 1 516.0 401.0)' font-size='12'>LWF1-04</text>
<text transform='matrix(1 0 0 1 631.0 400.0)' font-size='12'>LWF1-05</text>
<text transform='matrix(1 0 0 1 734.0 402.0)' font-size='12'>LWF1-06</text>
<text transform='matrix(1 0 0 1 964.0 400.0)' font-size='12'>LWF1-07</text>
<text transform='matrix(1 0 0 1 1092.0 434.0)' font-size='12'>LWF1-08</text>
<text transform='matrix(1 0 0 1 1169.0 421.0)' font-size='12'>LWF1-09</text>
<text transform='matrix(1 0 0 1 621.0 276.0)' font-size='12'>1PF1-01</text>
<text transform='matrix(1 0 0 1 637.0 292.0)' font-size='12'>1PF1-01</text>
<text transform='matrix(1 0 0 1 733.0 275.0)' font-size='12'>1PF1-02</text>
<text transform='matrix(1 0 0 1 750.0 289.0)' font-size='12'>1PF1-02</text>
<text transform='matrix(1 0 0 1 847.0 275.0)' font-size='12'>1PF1-03</text>
<text transform='matrix(1 0 0 1 863.0 289.0)' font-size='12'>1PF1-03</text>
<text transform='matrix(1 0 0 1 958.0 275.0)' font-size='12'>1PF1-04</text>
<text transform='matrix(1 0 0 1 975.0 289.0)' font-size='12'>1PF1-04</text>
<text transform='matrix(1 0 0 1 1070.0 275.0)' font-size='12'>1PF1-05</text>
<text transform='matrix(1 0 0 1 1086.0 285.0)' font-size='12'>1PF1-05</text>
<text transform='matrix(1 0 0 1 1182.0 275.0)' font-size='12'>1PF1-06</text>
<text transform='matrix(1 0 0 1 1198.0 288.0)' font-size='12'>1PF1-06</text>
<text transform='matrix(1 0 0 1 1293.0 274.0)' font-size='12'>1PF1-07</text>
<text transform='matrix(1 0 0 1 1311.0 288.0)' font-size='12'>1PF1-07</text>
<text transform='matrix(1 0 0 1 680.0 313.0)' font-size='12'>EXF1-01</text>
<text transform='matrix(1 0 0 1 1131.0 310.0)' font-size='12'>EXF1-02</text>
<text transform='matrix(1 0 0 1 572.0 482.0)' font-size='12'>ZDF1-12</text>
<text transform='matrix(1 0 0 1 347.0 558.0)' font-size='12'>LWF1-14</text>
<text transform='matrix(1 0 0 1 794.0 486.0)' font-size='12'>ZDF1-13</text>
<text transform='matrix(1 0 0 1 870.0 487.0)' font-size='12'>LWF1-10</text>
<text transform='matrix(1 0 0 1 784.0 556.0)' font-size='12'>LWF1-15</text>
<text transform='matrix(1 0 0 1 999.0 487.0)' font-size='12'>LWF1-11</text>
<text transform='matrix(1 0 0 1 1023.0 495.0)' font-size='12'>ZDF1-14</text>
<text transform='matrix(1 0 0 1 1130.0 561.0)' font-size='12'>LWF1-16</text>
<text transform='matrix(1 0 0 1 1239.0 488.0)' font-size='12'>LWF1-12</text>
<text transform='matrix(1 0 0 1 1246.0 496.0)' font-size='12'>ZDF1-15</text>
<text transform='matrix(1 0 0 1 1367.0 487.0)' font-size='12'>LWF1-13</text>
<text transform='matrix(1 0 0 1 1477.0 555.0)' font-size='12'>LWF1-17</text>
<text transform='matrix(1 0 0 1 1694.0 554.0)' font-size='12'>LWF1-18</text>
<text transform='matrix(1 0 0 1 458.0 290.0)' font-size='12'>BZF1-01</text>
<text transform='matrix(1 0 0 1 574.0 290.0)' font-size='12'>BZF1-02</text>
<text transform='matrix(1 0 0 1 172.0 329.0)' font-size='12'>未知</text>
<text transform='matrix(1 0 0 1 1226.0 420.0)' font-size='12'>未知</text>
</svg>
