<?xml version="1.0" encoding="utf-8"?>
<!-- Generator: Adobe Illustrator 22.1.0, SVG Export Plug-In . SVG Version: 6.00 Build 0)  -->
<svg version="1.1" id="图层_1" xmlns="http://www.w3.org/2000/svg" xmlns:xlink="http://www.w3.org/1999/xlink" x="0px" y="0px"
	 viewBox="0 0 396.5 302" style="enable-background:new 0 0 396.5 302;" xml:space="preserve">
<style type="text/css">
	.st0{opacity:0.5;}
	.st1{fill:#000E21;}
	.st2{fill:none;stroke:#6FE1EC;stroke-width:2;stroke-miterlimit:10;}
	.st3{fill:#FFFFFF;}
</style>
<title>总资产</title>
<g id="图层_2_1_">
	<g id="图层_1-2">
		<g id="图层_2-2">
			<g class="st0">
				<polygon class="st1" points="24.8,1 306.7,1 322.9,23.1 379.1,23.1 395.5,43.5 395.5,278.2 371.4,301 25.3,301 1,278.2 1,22.8 
									"/>
				<polygon class="st2" points="24.8,1 306.7,1 322.9,23.1 379.1,23.1 395.5,43.5 395.5,278.2 371.4,301 25.3,301 1,278.2 1,22.8 
									"/>
			</g>
			<polygon class="st3" points="316.3,3.7 322.5,3.7 333.1,18.5 326.8,18.5 			"/>
			<polygon class="st3" points="328.1,3.7 334.4,3.7 344.9,18.5 338.6,18.5 			"/>
			<polygon class="st3" points="339.9,3.7 346.1,3.7 356.7,18.5 350.4,18.5 			"/>
			<polygon class="st3" points="351.7,3.7 357.9,3.7 368.5,18.5 362.2,18.5 			"/>
			<polygon class="st3" points="363.5,3.7 369.7,3.7 380.3,18.5 374,18.5 			"/>
		</g>
	</g>
</g>
</svg>
