<svg xmlns="http://www.w3.org/2000/svg" viewBox="0 0 189.3 21.26"><defs><style>.cls-1,.cls-2,.cls-3,.cls-4,.cls-5,.cls-6,.cls-7,.cls-8{fill:#3d8fa6;}.cls-2{opacity:0.87;}.cls-3{opacity:0.74;}.cls-4{opacity:0.61;}.cls-5{opacity:0.49;}.cls-6{opacity:0.36;}.cls-7{opacity:0.23;}.cls-8{opacity:0.1;}</style></defs><title>左</title><g id="图层_2" data-name="图层 2"><g id="图层_1-2" data-name="图层 1"><g id="图层_2-2" data-name="图层 2"><polygon class="cls-1" points="171.99 21.26 160.47 21.26 177.78 0 189.3 0 171.99 21.26"/><polygon class="cls-2" points="149.06 21.26 137.54 21.26 154.86 0 166.38 0 149.06 21.26"/><polygon class="cls-3" points="126.14 21.26 114.62 21.26 131.94 0 143.46 0 126.14 21.26"/><polygon class="cls-4" points="103.22 21.26 91.7 21.26 109.01 0 120.53 0 103.22 21.26"/><polygon class="cls-5" points="80.29 21.26 68.77 21.26 86.09 0 97.61 0 80.29 21.26"/><polygon class="cls-6" points="57.37 21.26 45.85 21.26 63.16 0 74.68 0 57.37 21.26"/><polygon class="cls-7" points="34.45 21.26 22.92 21.26 40.24 0 51.76 0 34.45 21.26"/><polygon class="cls-8" points="11.52 21.26 0 21.26 17.32 0 28.84 0 11.52 21.26"/></g></g></g></svg>