<svg xmlns="http://www.w3.org/2000/svg" xmlns:xlink="http://www.w3.org/1999/xlink" viewBox="0 0 2259.07 2945.58"><defs><style>.cls-1{stroke:#fff;fill:url(#未命名的渐变_18);}.cls-1,.cls-2,.cls-3,.cls-4,.cls-66{stroke-miterlimit:10;}.cls-2,.cls-3,.cls-4,.cls-66{fill:none;}.cls-2{stroke-width:10px;stroke:url(#未命名的渐变_46);}.cls-3,.cls-4{stroke:#e1f1f6;}.cls-4{opacity:0.3;}.cls-5{opacity:0.5;}.cls-6{fill:url(#新建渐变色板_2);}.cls-7{fill:url(#新建渐变色板_2-2);}.cls-8{fill:url(#新建渐变色板_2-3);}.cls-9{fill:url(#新建渐变色板_2-4);}.cls-10{fill:url(#新建渐变色板_2-5);}.cls-11{fill:url(#新建渐变色板_2-6);}.cls-12{fill:url(#新建渐变色板_2-7);}.cls-13{fill:url(#新建渐变色板_2-8);}.cls-14{fill:url(#新建渐变色板_2-9);}.cls-15{fill:url(#新建渐变色板_2-10);}.cls-16{fill:url(#新建渐变色板_2-11);}.cls-17{fill:url(#新建渐变色板_2-12);}.cls-18{fill:url(#新建渐变色板_2-13);}.cls-19{fill:url(#新建渐变色板_2-14);}.cls-20{fill:url(#新建渐变色板_2-15);}.cls-21{fill:url(#新建渐变色板_2-16);}.cls-22{fill:url(#新建渐变色板_2-17);}.cls-23{fill:url(#新建渐变色板_2-18);}.cls-24{fill:url(#新建渐变色板_2-19);}.cls-25{fill:url(#新建渐变色板_2-20);}.cls-26{fill:url(#新建渐变色板_2-21);}.cls-27{fill:url(#新建渐变色板_2-22);}.cls-28{fill:url(#新建渐变色板_2-23);}.cls-29{fill:url(#新建渐变色板_2-24);}.cls-30{fill:url(#新建渐变色板_2-25);}.cls-31{fill:url(#新建渐变色板_2-26);}.cls-32{fill:url(#新建渐变色板_2-27);}.cls-33{fill:url(#新建渐变色板_2-28);}.cls-34{fill:url(#新建渐变色板_2-29);}.cls-35{fill:url(#新建渐变色板_2-30);}.cls-36{fill:url(#新建渐变色板_2-31);}.cls-37{fill:url(#新建渐变色板_2-32);}.cls-38{fill:url(#新建渐变色板_2-33);}.cls-39{fill:url(#新建渐变色板_2-34);}.cls-40{fill:url(#新建渐变色板_2-35);}.cls-41{fill:url(#新建渐变色板_2-36);}.cls-42{fill:url(#新建渐变色板_2-37);}.cls-43{fill:url(#新建渐变色板_2-38);}.cls-44{fill:url(#新建渐变色板_2-39);}.cls-45{fill:url(#新建渐变色板_2-40);}.cls-46{fill:url(#新建渐变色板_2-41);}.cls-47{fill:url(#新建渐变色板_2-42);}.cls-48{fill:url(#新建渐变色板_2-43);}.cls-49{fill:url(#新建渐变色板_2-44);}.cls-50{fill:url(#新建渐变色板_2-45);}.cls-51{fill:url(#新建渐变色板_2-46);}.cls-52{fill:url(#新建渐变色板_2-47);}.cls-53{fill:url(#新建渐变色板_2-48);}.cls-54{fill:url(#新建渐变色板_2-49);}.cls-55{fill:url(#新建渐变色板_2-50);}.cls-56{fill:url(#新建渐变色板_2-51);}.cls-57{fill:url(#新建渐变色板_2-52);}.cls-58{fill:url(#新建渐变色板_2-53);}.cls-59{fill:url(#新建渐变色板_2-54);}.cls-60{fill:url(#新建渐变色板_2-55);}.cls-61{fill:url(#新建渐变色板_2-56);}.cls-62{fill:url(#新建渐变色板_2-57);}.cls-63{fill:url(#新建渐变色板_2-58);}.cls-64{fill:url(#新建渐变色板_2-59);}.cls-65{fill:url(#新建渐变色板_2-60);}.cls-66{stroke:#1eb9f5;stroke-width:5px;}.cls-67{fill:#1eb9f5;}</style><linearGradient id="未命名的渐变_18" x1="5.1" y1="1491.13" x2="2253.18" y2="1491.13" gradientUnits="userSpaceOnUse"><stop offset="0" stop-color="#0f101c" stop-opacity="0.4"/><stop offset="1" stop-color="#0f101c" stop-opacity="0.4"/></linearGradient><linearGradient id="未命名的渐变_46" x1="1129.14" y1="2945.58" x2="1129.14" y2="36.69" gradientUnits="userSpaceOnUse"><stop offset="0" stop-color="#121b89"/><stop offset="0.07" stop-color="#143c9e"/><stop offset="0.22" stop-color="#197ec7"/><stop offset="0.35" stop-color="#1dade5"/><stop offset="0.45" stop-color="#1fcbf8"/><stop offset="0.5" stop-color="#20d6ff"/><stop offset="1" stop-color="#121b89"/></linearGradient><linearGradient id="新建渐变色板_2" x1="11.24" y1="737.54" x2="35.8" y2="737.54" gradientUnits="userSpaceOnUse"><stop offset="0" stop-color="#1a2a5b"/><stop offset="0.04" stop-color="#1b3c6c"/><stop offset="0.2" stop-color="#1d7eab"/><stop offset="0.34" stop-color="#1fadd8"/><stop offset="0.44" stop-color="#20cbf4"/><stop offset="0.5" stop-color="#20d6ff"/><stop offset="1" stop-color="#1a2a5b"/></linearGradient><linearGradient id="新建渐变色板_2-2" x1="11.24" y1="435.22" x2="41.93" y2="435.22" xlink:href="#新建渐变色板_2"/><linearGradient id="新建渐变色板_2-3" x1="11.24" y1="444.43" x2="41.93" y2="444.43" xlink:href="#新建渐变色板_2"/><linearGradient id="新建渐变色板_2-4" x1="11.24" y1="453.63" x2="41.93" y2="453.63" xlink:href="#新建渐变色板_2"/><linearGradient id="新建渐变色板_2-5" x1="11.24" y1="462.84" x2="41.93" y2="462.84" xlink:href="#新建渐变色板_2"/><linearGradient id="新建渐变色板_2-6" x1="11.24" y1="472.05" x2="41.93" y2="472.05" xlink:href="#新建渐变色板_2"/><linearGradient id="新建渐变色板_2-7" x1="11.24" y1="481.26" x2="41.93" y2="481.26" xlink:href="#新建渐变色板_2"/><linearGradient id="新建渐变色板_2-8" x1="11.24" y1="490.46" x2="41.93" y2="490.46" xlink:href="#新建渐变色板_2"/><linearGradient id="新建渐变色板_2-9" x1="11.24" y1="499.67" x2="41.93" y2="499.67" xlink:href="#新建渐变色板_2"/><linearGradient id="新建渐变色板_2-10" x1="11.24" y1="508.88" x2="41.93" y2="508.88" xlink:href="#新建渐变色板_2"/><linearGradient id="新建渐变色板_2-11" x1="11.24" y1="518.09" x2="41.93" y2="518.09" xlink:href="#新建渐变色板_2"/><linearGradient id="新建渐变色板_2-12" x1="11.24" y1="527.29" x2="41.93" y2="527.29" xlink:href="#新建渐变色板_2"/><linearGradient id="新建渐变色板_2-13" x1="11.24" y1="536.5" x2="41.93" y2="536.5" xlink:href="#新建渐变色板_2"/><linearGradient id="新建渐变色板_2-14" x1="11.24" y1="545.71" x2="41.93" y2="545.71" xlink:href="#新建渐变色板_2"/><linearGradient id="新建渐变色板_2-15" x1="11.24" y1="554.92" x2="41.93" y2="554.92" xlink:href="#新建渐变色板_2"/><linearGradient id="新建渐变色板_2-16" x1="11.24" y1="564.12" x2="41.93" y2="564.12" xlink:href="#新建渐变色板_2"/><linearGradient id="新建渐变色板_2-17" x1="11.24" y1="573.33" x2="41.93" y2="573.33" xlink:href="#新建渐变色板_2"/><linearGradient id="新建渐变色板_2-18" x1="11.24" y1="582.54" x2="41.93" y2="582.54" xlink:href="#新建渐变色板_2"/><linearGradient id="新建渐变色板_2-19" x1="11.24" y1="591.75" x2="41.93" y2="591.75" xlink:href="#新建渐变色板_2"/><linearGradient id="新建渐变色板_2-20" x1="11.24" y1="600.96" x2="41.93" y2="600.96" xlink:href="#新建渐变色板_2"/><linearGradient id="新建渐变色板_2-21" x1="11.24" y1="610.16" x2="41.93" y2="610.16" xlink:href="#新建渐变色板_2"/><linearGradient id="新建渐变色板_2-22" x1="11.24" y1="619.37" x2="41.93" y2="619.37" xlink:href="#新建渐变色板_2"/><linearGradient id="新建渐变色板_2-23" x1="11.24" y1="628.58" x2="41.93" y2="628.58" xlink:href="#新建渐变色板_2"/><linearGradient id="新建渐变色板_2-24" x1="11.24" y1="637.79" x2="41.93" y2="637.79" xlink:href="#新建渐变色板_2"/><linearGradient id="新建渐变色板_2-25" x1="11.24" y1="646.99" x2="41.93" y2="646.99" xlink:href="#新建渐变色板_2"/><linearGradient id="新建渐变色板_2-26" x1="11.24" y1="656.2" x2="41.93" y2="656.2" xlink:href="#新建渐变色板_2"/><linearGradient id="新建渐变色板_2-27" x1="11.24" y1="665.41" x2="41.93" y2="665.41" xlink:href="#新建渐变色板_2"/><linearGradient id="新建渐变色板_2-28" x1="11.24" y1="674.62" x2="41.93" y2="674.62" xlink:href="#新建渐变色板_2"/><linearGradient id="新建渐变色板_2-29" x1="11.24" y1="683.82" x2="41.93" y2="683.82" xlink:href="#新建渐变色板_2"/><linearGradient id="新建渐变色板_2-30" x1="11.24" y1="693.03" x2="41.93" y2="693.03" xlink:href="#新建渐变色板_2"/><linearGradient id="新建渐变色板_2-31" x1="2218.27" y1="2429.41" x2="2242.82" y2="2429.41" xlink:href="#新建渐变色板_2"/><linearGradient id="新建渐变色板_2-32" x1="2215.2" y1="2384.9" x2="2245.89" y2="2384.9" xlink:href="#新建渐变色板_2"/><linearGradient id="新建渐变色板_2-33" x1="2215.2" y1="2375.69" x2="2245.89" y2="2375.69" xlink:href="#新建渐变色板_2"/><linearGradient id="新建渐变色板_2-34" x1="2215.2" y1="2366.49" x2="2245.89" y2="2366.49" xlink:href="#新建渐变色板_2"/><linearGradient id="新建渐变色板_2-35" x1="2215.2" y1="2357.28" x2="2245.89" y2="2357.28" xlink:href="#新建渐变色板_2"/><linearGradient id="新建渐变色板_2-36" x1="2215.2" y1="2348.07" x2="2245.89" y2="2348.07" xlink:href="#新建渐变色板_2"/><linearGradient id="新建渐变色板_2-37" x1="2215.2" y1="2338.86" x2="2245.89" y2="2338.86" xlink:href="#新建渐变色板_2"/><linearGradient id="新建渐变色板_2-38" x1="2215.2" y1="2329.66" x2="2245.89" y2="2329.66" xlink:href="#新建渐变色板_2"/><linearGradient id="新建渐变色板_2-39" x1="2215.2" y1="2320.45" x2="2245.89" y2="2320.45" xlink:href="#新建渐变色板_2"/><linearGradient id="新建渐变色板_2-40" x1="2215.2" y1="2311.24" x2="2245.89" y2="2311.24" xlink:href="#新建渐变色板_2"/><linearGradient id="新建渐变色板_2-41" x1="2215.2" y1="2302.03" x2="2245.89" y2="2302.03" xlink:href="#新建渐变色板_2"/><linearGradient id="新建渐变色板_2-42" x1="2215.2" y1="2292.83" x2="2245.89" y2="2292.83" xlink:href="#新建渐变色板_2"/><linearGradient id="新建渐变色板_2-43" x1="2215.2" y1="2283.62" x2="2245.89" y2="2283.62" xlink:href="#新建渐变色板_2"/><linearGradient id="新建渐变色板_2-44" x1="2215.2" y1="2274.41" x2="2245.89" y2="2274.41" xlink:href="#新建渐变色板_2"/><linearGradient id="新建渐变色板_2-45" x1="2215.2" y1="2265.2" x2="2245.89" y2="2265.2" xlink:href="#新建渐变色板_2"/><linearGradient id="新建渐变色板_2-46" x1="2215.2" y1="2255.99" x2="2245.89" y2="2255.99" xlink:href="#新建渐变色板_2"/><linearGradient id="新建渐变色板_2-47" x1="2215.2" y1="2246.79" x2="2245.89" y2="2246.79" xlink:href="#新建渐变色板_2"/><linearGradient id="新建渐变色板_2-48" x1="2215.2" y1="2237.58" x2="2245.89" y2="2237.58" xlink:href="#新建渐变色板_2"/><linearGradient id="新建渐变色板_2-49" x1="2215.2" y1="2228.37" x2="2245.89" y2="2228.37" xlink:href="#新建渐变色板_2"/><linearGradient id="新建渐变色板_2-50" x1="2215.2" y1="2219.16" x2="2245.89" y2="2219.16" xlink:href="#新建渐变色板_2"/><linearGradient id="新建渐变色板_2-51" x1="2215.2" y1="2209.96" x2="2245.89" y2="2209.96" xlink:href="#新建渐变色板_2"/><linearGradient id="新建渐变色板_2-52" x1="2215.2" y1="2200.75" x2="2245.89" y2="2200.75" xlink:href="#新建渐变色板_2"/><linearGradient id="新建渐变色板_2-53" x1="2215.2" y1="2191.54" x2="2245.89" y2="2191.54" xlink:href="#新建渐变色板_2"/><linearGradient id="新建渐变色板_2-54" x1="2215.2" y1="2182.33" x2="2245.89" y2="2182.33" xlink:href="#新建渐变色板_2"/><linearGradient id="新建渐变色板_2-55" x1="2215.2" y1="2173.13" x2="2245.89" y2="2173.13" xlink:href="#新建渐变色板_2"/><linearGradient id="新建渐变色板_2-56" x1="2215.2" y1="2163.92" x2="2245.89" y2="2163.92" xlink:href="#新建渐变色板_2"/><linearGradient id="新建渐变色板_2-57" x1="2215.2" y1="2154.71" x2="2245.89" y2="2154.71" xlink:href="#新建渐变色板_2"/><linearGradient id="新建渐变色板_2-58" x1="2215.2" y1="2145.5" x2="2245.89" y2="2145.5" xlink:href="#新建渐变色板_2"/><linearGradient id="新建渐变色板_2-59" x1="2215.2" y1="2136.3" x2="2245.89" y2="2136.3" xlink:href="#新建渐变色板_2"/><linearGradient id="新建渐变色板_2-60" x1="2215.2" y1="2127.09" x2="2245.89" y2="2127.09" xlink:href="#新建渐变色板_2"/></defs><title>经济</title><g id="图层_2" data-name="图层 2"><g id="图层_1-2" data-name="图层 1"><g id="图层_2-2" data-name="图层 2"><polygon class="cls-1" points="43.47 76.12 43.47 404.52 5.1 442.89 5.1 791.25 42.7 828.84 42.7 2869.98 67.64 2894.92 393.36 2894.54 439.4 2940.58 1838.08 2940.58 1876.45 2902.21 2182.97 2902.21 2219.04 2866.15 2219.04 2513.81 2253.18 2479.66 2253.18 2120.95 2224.22 2091.98 2224.22 85.33 2180.58 41.69 80.3 41.69 43.47 76.12"/><polygon class="cls-2" points="43.47 76.12 43.47 404.52 5.1 442.89 5.1 791.25 42.7 828.84 42.7 2869.98 67.64 2894.92 393.36 2894.54 439.4 2940.58 1838.08 2940.58 1876.45 2902.21 2182.97 2902.21 2219.04 2866.15 2219.04 2513.81 2253.18 2479.66 2253.18 2120.95 2224.22 2091.98 2224.22 85.33 2180.58 41.69 80.3 41.69 43.47 76.12"/><polyline class="cls-3" points="125.06 0.5 51.4 0.5 0.5 45.43 0.5 106.81"/><polyline class="cls-3" points="0.5 2841.76 0.5 2904.68 40.4 2944.58 112.53 2944.58"/><polyline class="cls-3" points="2258.57 2844.83 2258.57 2904.68 2218.67 2944.58 2146.54 2944.58"/><polyline class="cls-4" points="230.69 2922.16 341.18 2922.16 368.02 2895.32"/><circle class="cls-4" cx="221.48" cy="2922.16" r="9.21"/><polyline class="cls-4" points="1970.06 2922.16 2126.59 2922.16 2146.54 2902.21"/><circle class="cls-4" cx="1960.85" cy="2922.16" r="9.21"/><g class="cls-5"><polygon class="cls-6" points="35.8 755.95 11.24 774.37 11.24 719.12 35.8 700.71 35.8 755.95"/><polygon class="cls-7" points="41.93 421.41 14.31 449.03 11.24 449.03 38.87 421.41 41.93 421.41"/><polygon class="cls-8" points="41.93 430.61 14.31 458.24 11.24 458.24 38.87 430.61 41.93 430.61"/><polygon class="cls-9" points="41.93 439.82 14.31 467.44 11.24 467.44 38.87 439.82 41.93 439.82"/><polygon class="cls-10" points="41.93 449.03 14.31 476.65 11.24 476.65 38.87 449.03 41.93 449.03"/><polygon class="cls-11" points="41.93 458.24 14.31 485.86 11.24 485.86 38.87 458.24 41.93 458.24"/><polygon class="cls-12" points="41.93 467.44 14.31 495.07 11.24 495.07 38.87 467.44 41.93 467.44"/><polygon class="cls-13" points="41.93 476.65 14.31 504.27 11.24 504.27 38.87 476.65 41.93 476.65"/><polygon class="cls-14" points="41.93 485.86 14.31 513.48 11.24 513.48 38.87 485.86 41.93 485.86"/><polygon class="cls-15" points="41.93 495.07 14.31 522.69 11.24 522.69 38.87 495.07 41.93 495.07"/><polygon class="cls-16" points="41.93 504.27 14.31 531.9 11.24 531.9 38.87 504.27 41.93 504.27"/><polygon class="cls-17" points="41.93 513.48 14.31 541.11 11.24 541.11 38.87 513.48 41.93 513.48"/><polygon class="cls-18" points="41.93 522.69 14.31 550.31 11.24 550.31 38.87 522.69 41.93 522.69"/><polygon class="cls-19" points="41.93 531.9 14.31 559.52 11.24 559.52 38.87 531.9 41.93 531.9"/><polygon class="cls-20" points="41.93 541.11 14.31 568.73 11.24 568.73 38.87 541.11 41.93 541.11"/><polygon class="cls-21" points="41.93 550.31 14.31 577.94 11.24 577.94 38.87 550.31 41.93 550.31"/><polygon class="cls-22" points="41.93 559.52 14.31 587.14 11.24 587.14 38.87 559.52 41.93 559.52"/><polygon class="cls-23" points="41.93 568.73 14.31 596.35 11.24 596.35 38.87 568.73 41.93 568.73"/><polygon class="cls-24" points="41.93 577.94 14.31 605.56 11.24 605.56 38.87 577.94 41.93 577.94"/><polygon class="cls-25" points="41.93 587.14 14.31 614.77 11.24 614.77 38.87 587.14 41.93 587.14"/><polygon class="cls-26" points="41.93 596.35 14.31 623.97 11.24 623.97 38.87 596.35 41.93 596.35"/><polygon class="cls-27" points="41.93 605.56 14.31 633.18 11.24 633.18 38.87 605.56 41.93 605.56"/><polygon class="cls-28" points="41.93 614.77 14.31 642.39 11.24 642.39 38.87 614.77 41.93 614.77"/><polygon class="cls-29" points="41.93 623.97 14.31 651.6 11.24 651.6 38.87 623.97 41.93 623.97"/><polygon class="cls-30" points="41.93 633.18 14.31 660.8 11.24 660.8 38.87 633.18 41.93 633.18"/><polygon class="cls-31" points="41.93 642.39 14.31 670.01 11.24 670.01 38.87 642.39 41.93 642.39"/><polygon class="cls-32" points="41.93 651.6 14.31 679.22 11.24 679.22 38.87 651.6 41.93 651.6"/><polygon class="cls-33" points="41.93 660.8 14.31 688.43 11.24 688.43 38.87 660.8 41.93 660.8"/><polygon class="cls-34" points="41.93 670.01 14.31 697.63 11.24 697.63 38.87 670.01 41.93 670.01"/><polygon class="cls-35" points="41.93 679.22 14.31 706.84 11.24 706.84 38.87 679.22 41.93 679.22"/></g><g class="cls-5"><polygon class="cls-36" points="2242.82 2410.99 2218.27 2392.57 2218.27 2447.82 2242.82 2466.24 2242.82 2410.99"/><polygon class="cls-37" points="2245.89 2398.71 2218.27 2371.09 2215.2 2371.09 2242.82 2398.71 2245.89 2398.71"/><polygon class="cls-38" points="2245.89 2389.51 2218.27 2361.88 2215.2 2361.88 2242.82 2389.51 2245.89 2389.51"/><polygon class="cls-39" points="2245.89 2380.3 2218.27 2352.68 2215.2 2352.68 2242.82 2380.3 2245.89 2380.3"/><polygon class="cls-40" points="2245.89 2371.09 2218.27 2343.47 2215.2 2343.47 2242.82 2371.09 2245.89 2371.09"/><polygon class="cls-41" points="2245.89 2361.88 2218.27 2334.26 2215.2 2334.26 2242.82 2361.88 2245.89 2361.88"/><polygon class="cls-42" points="2245.89 2352.68 2218.27 2325.05 2215.2 2325.05 2242.82 2352.68 2245.89 2352.68"/><polygon class="cls-43" points="2245.89 2343.47 2218.27 2315.84 2215.2 2315.84 2242.82 2343.47 2245.89 2343.47"/><polygon class="cls-44" points="2245.89 2334.26 2218.27 2306.64 2215.2 2306.64 2242.82 2334.26 2245.89 2334.26"/><polygon class="cls-45" points="2245.89 2325.05 2218.27 2297.43 2215.2 2297.43 2242.82 2325.05 2245.89 2325.05"/><polygon class="cls-46" points="2245.89 2315.84 2218.27 2288.22 2215.2 2288.22 2242.82 2315.84 2245.89 2315.84"/><polygon class="cls-47" points="2245.89 2306.64 2218.27 2279.01 2215.2 2279.01 2242.82 2306.64 2245.89 2306.64"/><polygon class="cls-48" points="2245.89 2297.43 2218.27 2269.81 2215.2 2269.81 2242.82 2297.43 2245.89 2297.43"/><polygon class="cls-49" points="2245.89 2288.22 2218.27 2260.6 2215.2 2260.6 2242.82 2288.22 2245.89 2288.22"/><polygon class="cls-50" points="2245.89 2279.01 2218.27 2251.39 2215.2 2251.39 2242.82 2279.01 2245.89 2279.01"/><polygon class="cls-51" points="2245.89 2269.81 2218.27 2242.18 2215.2 2242.18 2242.82 2269.81 2245.89 2269.81"/><polygon class="cls-52" points="2245.89 2260.6 2218.27 2232.97 2215.2 2232.97 2242.82 2260.6 2245.89 2260.6"/><polygon class="cls-53" points="2245.89 2251.39 2218.27 2223.77 2215.2 2223.77 2242.82 2251.39 2245.89 2251.39"/><polygon class="cls-54" points="2245.89 2242.18 2218.27 2214.56 2215.2 2214.56 2242.82 2242.18 2245.89 2242.18"/><polygon class="cls-55" points="2245.89 2232.97 2218.27 2205.35 2215.2 2205.35 2242.82 2232.97 2245.89 2232.97"/><polygon class="cls-56" points="2245.89 2223.77 2218.27 2196.14 2215.2 2196.14 2242.82 2223.77 2245.89 2223.77"/><polygon class="cls-57" points="2245.89 2214.56 2218.27 2186.94 2215.2 2186.94 2242.82 2214.56 2245.89 2214.56"/><polygon class="cls-58" points="2245.89 2205.35 2218.27 2177.73 2215.2 2177.73 2242.82 2205.35 2245.89 2205.35"/><polygon class="cls-59" points="2245.89 2196.14 2218.27 2168.52 2215.2 2168.52 2242.82 2196.14 2245.89 2196.14"/><polygon class="cls-60" points="2245.89 2186.94 2218.27 2159.31 2215.2 2159.31 2242.82 2186.94 2245.89 2186.94"/><polygon class="cls-61" points="2245.89 2177.73 2218.27 2150.11 2215.2 2150.11 2242.82 2177.73 2245.89 2177.73"/><polygon class="cls-62" points="2245.89 2168.52 2218.27 2140.9 2215.2 2140.9 2242.82 2168.52 2245.89 2168.52"/><polygon class="cls-63" points="2245.89 2159.31 2218.27 2131.69 2215.2 2131.69 2242.82 2159.31 2245.89 2159.31"/><polygon class="cls-64" points="2245.89 2150.11 2218.27 2122.48 2215.2 2122.48 2242.82 2150.11 2245.89 2150.11"/><polygon class="cls-65" points="2245.89 2140.9 2218.27 2113.28 2215.2 2113.28 2242.82 2140.9 2245.89 2140.9"/></g><polyline class="cls-3" points="2139.53 0.5 2213.19 0.5 2257.09 40.43 2257.09 101.81"/><polyline class="cls-66" points="2134.65 21.41 2205.24 21.41 2248.21 62.31 2248.21 175.87 2235.74 187.12"/><polygon class="cls-67" points="2248.21 104 2248.21 113.13 2258.18 127.54 2258.18 118.38 2248.21 104"/></g></g></g></svg>